<svg xmlns="http://www.w3.org/2000/svg" xmlns:xlink="http://www.w3.org/1999/xlink" width="363" zoomAndPan="magnify" viewBox="0 0 272.25 180.749999" height="241" preserveAspectRatio="xMidYMid meet" version="1.0"><defs><clipPath id="968ca064c8"><path d="M 227 0.125 L 270.753906 0.125 L 270.753906 44 L 227 44 Z M 227 0.125 " clip-rule="nonzero"/></clipPath><clipPath id="5e9adc6d24"><path d="M 226 0.125 L 270.753906 0.125 L 270.753906 44 L 226 44 Z M 226 0.125 " clip-rule="nonzero"/></clipPath><clipPath id="c5b7cfb9e8"><path d="M 28 0.125 L 41 0.125 L 41 12 L 28 12 Z M 28 0.125 " clip-rule="nonzero"/></clipPath><clipPath id="a329e5c7e1"><path d="M 48 0.125 L 60 0.125 L 60 12 L 48 12 Z M 48 0.125 " clip-rule="nonzero"/></clipPath><clipPath id="e64017a89b"><path d="M 68 0.125 L 80 0.125 L 80 12 L 68 12 Z M 68 0.125 " clip-rule="nonzero"/></clipPath><clipPath id="e8d2fc1f41"><path d="M 14 103 L 41 103 L 41 180.378906 L 14 180.378906 Z M 14 103 " clip-rule="nonzero"/></clipPath><clipPath id="7f3d10678f"><path d="M 14 103 L 42 103 L 42 180.378906 L 14 180.378906 Z M 14 103 " clip-rule="nonzero"/></clipPath><clipPath id="1801d59235"><path d="M 25 103 L 81 103 L 81 180.378906 L 25 180.378906 Z M 25 103 " clip-rule="nonzero"/></clipPath><clipPath id="4c7f5087c5"><path d="M 24 103 L 81 103 L 81 180.378906 L 24 180.378906 Z M 24 103 " clip-rule="nonzero"/></clipPath><clipPath id="5b4cd84e88"><path d="M 0 179 L 56 179 L 56 180.378906 L 0 180.378906 Z M 0 179 " clip-rule="nonzero"/></clipPath><clipPath id="893886e5ab"><path d="M 233 164 L 263 164 L 263 180.378906 L 233 180.378906 Z M 233 164 " clip-rule="nonzero"/></clipPath><clipPath id="8ad8363b57"><path d="M 233 163 L 263 163 L 263 180.378906 L 233 180.378906 Z M 233 163 " clip-rule="nonzero"/></clipPath><clipPath id="53169cedd3"><path d="M 187 170 L 214 170 L 214 180.378906 L 187 180.378906 Z M 187 170 " clip-rule="nonzero"/></clipPath><clipPath id="9c3325517d"><path d="M 187 170 L 215 170 L 215 180.378906 L 187 180.378906 Z M 187 170 " clip-rule="nonzero"/></clipPath><clipPath id="7c550e9c3b"><path d="M 209 179 L 270.753906 179 L 270.753906 180.378906 L 209 180.378906 Z M 209 179 " clip-rule="nonzero"/></clipPath><clipPath id="5ea8c3f553"><path d="M 133 174 L 164 174 L 164 180.378906 L 133 180.378906 Z M 133 174 " clip-rule="nonzero"/></clipPath><clipPath id="e3d58e794f"><path d="M 133 173 L 164 173 L 164 180.378906 L 133 180.378906 Z M 133 173 " clip-rule="nonzero"/></clipPath><clipPath id="e3f310e881"><path d="M 101 147 L 149 147 L 149 180.378906 L 101 180.378906 Z M 101 147 " clip-rule="nonzero"/></clipPath><clipPath id="7329f28708"><path d="M 101 146 L 150 146 L 150 180.378906 L 101 180.378906 Z M 101 146 " clip-rule="nonzero"/></clipPath><clipPath id="114f404839"><path d="M 143 161 L 147 161 L 147 180.378906 L 143 180.378906 Z M 143 161 " clip-rule="nonzero"/></clipPath><clipPath id="0126131d00"><path d="M 95 147 L 144 147 L 144 180.378906 L 95 180.378906 Z M 95 147 " clip-rule="nonzero"/></clipPath><clipPath id="44c02d0d76"><path d="M 95 146 L 144 146 L 144 180.378906 L 95 180.378906 Z M 95 146 " clip-rule="nonzero"/></clipPath><clipPath id="f912b8a78a"><path d="M 26.757812 105.332031 L 29.621094 105.332031 L 29.621094 107.796875 L 26.757812 107.796875 Z M 26.757812 105.332031 " clip-rule="nonzero"/></clipPath><clipPath id="f45e522a53"><path d="M 29.617188 106.207031 C 28.347656 108.226562 27.148438 107.851562 26.851562 107.476562 C 26.625 107.027344 26.851562 105.832031 27.226562 105.457031 C 27.597656 105.160156 29.246094 105.609375 29.246094 105.609375 " clip-rule="nonzero"/></clipPath><clipPath id="5049fdb6cb"><path d="M 0.757812 0.332031 L 3.621094 0.332031 L 3.621094 2.796875 L 0.757812 2.796875 Z M 0.757812 0.332031 " clip-rule="nonzero"/></clipPath><clipPath id="79257bf750"><path d="M 3.617188 1.207031 C 2.347656 3.226562 1.148438 2.851562 0.851562 2.476562 C 0.625 2.027344 0.851562 0.832031 1.226562 0.457031 C 1.597656 0.160156 3.246094 0.609375 3.246094 0.609375 " clip-rule="nonzero"/></clipPath><clipPath id="c153f580b6"><rect x="0" width="4" y="0" height="3"/></clipPath></defs><g clip-path="url(#968ca064c8)"><path fill="#ffffff" d="M 270.460938 22.046875 C 270.460938 34.039062 260.742188 43.757812 248.75 43.757812 C 236.761719 43.757812 227.042969 34.039062 227.042969 22.046875 C 227.042969 10.058594 236.761719 0.339844 248.75 0.339844 C 260.742188 0.339844 270.460938 10.058594 270.460938 22.046875 " fill-opacity="1" fill-rule="nonzero"/></g><g clip-path="url(#5e9adc6d24)"><path fill="#000000" d="M 248.75 0.554688 C 236.902344 0.554688 227.257812 10.199219 227.257812 22.046875 C 227.257812 33.898438 236.902344 43.539062 248.75 43.539062 C 260.601562 43.539062 270.242188 33.898438 270.242188 22.046875 C 270.242188 10.199219 260.601562 0.554688 248.75 0.554688 Z M 248.75 43.972656 C 236.660156 43.972656 226.828125 34.136719 226.828125 22.046875 C 226.828125 9.957031 236.660156 0.125 248.75 0.125 C 260.839844 0.125 270.675781 9.957031 270.675781 22.046875 C 270.675781 34.136719 260.839844 43.972656 248.75 43.972656 " fill-opacity="1" fill-rule="nonzero"/></g><path fill="#000000" d="M 248.75 9.191406 C 248.632812 9.191406 248.535156 9.097656 248.535156 8.976562 L 248.535156 4.652344 C 248.535156 4.53125 248.632812 4.433594 248.75 4.433594 C 248.871094 4.433594 248.96875 4.53125 248.96875 4.652344 L 248.96875 8.976562 C 248.96875 9.097656 248.871094 9.191406 248.75 9.191406 " fill-opacity="1" fill-rule="nonzero"/><path fill="#000000" d="M 248.75 39.664062 C 248.632812 39.664062 248.535156 39.566406 248.535156 39.445312 L 248.535156 35.121094 C 248.535156 35 248.632812 34.902344 248.75 34.902344 C 248.871094 34.902344 248.96875 35 248.96875 35.121094 L 248.96875 39.445312 C 248.96875 39.566406 248.871094 39.664062 248.75 39.664062 " fill-opacity="1" fill-rule="nonzero"/><path fill="#000000" d="M 235.679688 22.265625 L 231.355469 22.265625 C 231.234375 22.265625 231.136719 22.167969 231.136719 22.046875 C 231.136719 21.929688 231.234375 21.832031 231.355469 21.832031 L 235.679688 21.832031 C 235.800781 21.832031 235.894531 21.929688 235.894531 22.046875 C 235.894531 22.167969 235.800781 22.265625 235.679688 22.265625 " fill-opacity="1" fill-rule="nonzero"/><path fill="#000000" d="M 266.148438 22.265625 L 261.824219 22.265625 C 261.703125 22.265625 261.605469 22.167969 261.605469 22.046875 C 261.605469 21.929688 261.703125 21.832031 261.824219 21.832031 L 266.148438 21.832031 C 266.269531 21.832031 266.367188 21.929688 266.367188 22.046875 C 266.367188 22.167969 266.269531 22.265625 266.148438 22.265625 " fill-opacity="1" fill-rule="nonzero"/><path fill="#000000" d="M 265.425781 14.089844 C 263.535156 10.136719 260.273438 6.960938 256.261719 5.171875 L 248.75 22.046875 L 265.425781 14.089844 " fill-opacity="1" fill-rule="nonzero"/><path fill="#000000" d="M 245.210938 30.285156 C 245.179688 30.285156 245.152344 30.277344 245.121094 30.265625 C 245.015625 30.21875 244.964844 30.089844 245.011719 29.980469 L 248.550781 21.960938 C 248.558594 21.941406 248.570312 21.925781 248.585938 21.910156 L 258.507812 9.929688 C 258.585938 9.835938 258.722656 9.824219 258.8125 9.898438 C 258.90625 9.976562 258.917969 10.113281 258.84375 10.203125 L 248.9375 22.164062 L 245.410156 30.15625 C 245.371094 30.234375 245.292969 30.285156 245.210938 30.285156 " fill-opacity="1" fill-rule="nonzero"/><path fill="#ffa240" d="M 136.882812 77.402344 C 135.503906 77.402344 134.199219 77.734375 133.050781 78.320312 L 133.050781 58.027344 L 81.648438 58.027344 C 79.277344 58.027344 77.355469 59.949219 77.355469 62.320312 L 77.355469 113.71875 L 97.992188 113.71875 C 97.195312 112.429688 96.730469 110.90625 96.730469 109.273438 C 96.730469 104.597656 100.523438 100.804688 105.203125 100.804688 C 109.878906 100.804688 113.671875 104.597656 113.671875 109.273438 C 113.671875 110.90625 113.210938 112.429688 112.414062 113.71875 L 133.050781 113.71875 L 133.050781 93.425781 C 134.199219 94.011719 135.503906 94.34375 136.882812 94.34375 C 141.5625 94.34375 145.355469 90.550781 145.355469 85.875 C 145.355469 81.195312 141.5625 77.402344 136.882812 77.402344 " fill-opacity="1" fill-rule="nonzero"/><path fill="#000000" d="M 168.097656 113.777344 C 168.902344 115.074219 169.367188 116.601562 169.367188 118.238281 C 169.367188 122.914062 165.574219 126.707031 160.894531 126.707031 C 156.21875 126.707031 152.425781 122.914062 152.425781 118.238281 C 152.425781 116.601562 152.890625 115.074219 153.695312 113.777344 L 133.050781 113.777344 L 133.050781 134.074219 C 134.199219 133.484375 135.503906 133.152344 136.882812 133.152344 C 141.5625 133.152344 145.355469 136.945312 145.355469 141.625 C 145.355469 146.300781 141.5625 150.09375 136.882812 150.09375 C 135.503906 150.09375 134.199219 149.761719 133.050781 149.175781 L 133.050781 169.472656 L 184.449219 169.472656 C 186.820312 169.472656 188.742188 167.550781 188.742188 165.179688 L 188.742188 113.777344 L 168.097656 113.777344 " fill-opacity="1" fill-rule="nonzero"/><path fill="#ffffff" d="M 136.882812 133.152344 C 135.503906 133.152344 134.199219 133.484375 133.050781 134.074219 L 133.050781 113.777344 L 112.375 113.777344 C 113.199219 112.472656 113.671875 110.929688 113.671875 109.273438 C 113.671875 104.597656 109.878906 100.804688 105.203125 100.804688 C 100.523438 100.804688 96.730469 104.597656 96.730469 109.273438 C 96.730469 110.929688 97.207031 112.472656 98.027344 113.777344 L 77.355469 113.777344 L 77.355469 165.179688 C 77.355469 167.550781 79.277344 169.472656 81.648438 169.472656 L 133.050781 169.472656 L 133.050781 149.175781 C 134.199219 149.761719 135.503906 150.09375 136.882812 150.09375 C 141.5625 150.09375 145.355469 146.300781 145.355469 141.625 C 145.355469 136.945312 141.5625 133.152344 136.882812 133.152344 " fill-opacity="1" fill-rule="nonzero"/><path fill="#000000" d="M 133.050781 169.6875 L 81.648438 169.6875 C 79.164062 169.6875 77.140625 167.664062 77.140625 165.179688 L 77.140625 113.777344 C 77.140625 113.660156 77.238281 113.5625 77.355469 113.5625 C 77.476562 113.5625 77.574219 113.660156 77.574219 113.777344 L 77.574219 165.179688 C 77.574219 167.425781 79.402344 169.253906 81.648438 169.253906 L 133.050781 169.253906 C 133.167969 169.253906 133.265625 169.351562 133.265625 169.472656 C 133.265625 169.589844 133.167969 169.6875 133.050781 169.6875 " fill-opacity="1" fill-rule="nonzero"/><path fill="#ffffff" d="M 91.261719 50.457031 L 16.941406 50.457031 L 16.941406 6.109375 L 91.261719 6.109375 L 91.261719 50.457031 " fill-opacity="1" fill-rule="nonzero"/><path fill="#000000" d="M 17.160156 50.238281 L 91.046875 50.238281 L 91.046875 6.328125 L 17.160156 6.328125 Z M 91.261719 50.671875 L 16.941406 50.671875 C 16.824219 50.671875 16.726562 50.574219 16.726562 50.457031 L 16.726562 6.109375 C 16.726562 5.992188 16.824219 5.894531 16.941406 5.894531 L 91.261719 5.894531 C 91.382812 5.894531 91.480469 5.992188 91.480469 6.109375 L 91.480469 50.457031 C 91.480469 50.574219 91.382812 50.671875 91.261719 50.671875 " fill-opacity="1" fill-rule="nonzero"/><g clip-path="url(#c5b7cfb9e8)"><path fill="#000000" d="M 34.425781 11.347656 C 34.304688 11.347656 34.207031 11.25 34.207031 11.128906 C 34.207031 11.011719 34.304688 10.914062 34.425781 10.914062 C 37.28125 10.914062 39.601562 8.589844 39.601562 5.734375 C 39.601562 2.878906 37.28125 0.554688 34.425781 0.554688 C 31.570312 0.554688 29.246094 2.878906 29.246094 5.734375 C 29.246094 5.855469 29.148438 5.953125 29.03125 5.953125 C 28.910156 5.953125 28.8125 5.855469 28.8125 5.734375 C 28.8125 2.640625 31.328125 0.125 34.425781 0.125 C 37.519531 0.125 40.035156 2.640625 40.035156 5.734375 C 40.035156 8.828125 37.519531 11.347656 34.425781 11.347656 " fill-opacity="1" fill-rule="nonzero"/></g><g clip-path="url(#a329e5c7e1)"><path fill="#000000" d="M 54.101562 11.347656 C 53.984375 11.347656 53.886719 11.25 53.886719 11.128906 C 53.886719 11.011719 53.984375 10.914062 54.101562 10.914062 C 56.957031 10.914062 59.28125 8.589844 59.28125 5.734375 C 59.28125 2.878906 56.957031 0.554688 54.101562 0.554688 C 51.246094 0.554688 48.925781 2.878906 48.925781 5.734375 C 48.925781 5.855469 48.828125 5.953125 48.707031 5.953125 C 48.585938 5.953125 48.492188 5.855469 48.492188 5.734375 C 48.492188 2.640625 51.007812 0.125 54.101562 0.125 C 57.195312 0.125 59.714844 2.640625 59.714844 5.734375 C 59.714844 8.828125 57.195312 11.347656 54.101562 11.347656 " fill-opacity="1" fill-rule="nonzero"/></g><g clip-path="url(#e64017a89b)"><path fill="#000000" d="M 73.78125 11.347656 C 73.660156 11.347656 73.5625 11.25 73.5625 11.128906 C 73.5625 11.011719 73.660156 10.914062 73.78125 10.914062 C 76.636719 10.914062 78.957031 8.589844 78.957031 5.734375 C 78.957031 2.878906 76.636719 0.554688 73.78125 0.554688 C 70.925781 0.554688 68.601562 2.878906 68.601562 5.734375 C 68.601562 5.855469 68.507812 5.953125 68.386719 5.953125 C 68.265625 5.953125 68.167969 5.855469 68.167969 5.734375 C 68.167969 2.640625 70.6875 0.125 73.78125 0.125 C 76.875 0.125 79.394531 2.640625 79.394531 5.734375 C 79.394531 8.828125 76.875 11.347656 73.78125 11.347656 " fill-opacity="1" fill-rule="nonzero"/></g><path fill="#000000" d="M 35.738281 27.304688 L 23.761719 27.304688 L 23.761719 15.328125 L 35.738281 15.328125 L 35.738281 27.304688 " fill-opacity="1" fill-rule="nonzero"/><path fill="#ffffff" d="M 50.5 27.304688 L 38.523438 27.304688 L 38.523438 15.328125 L 50.5 15.328125 L 50.5 27.304688 " fill-opacity="1" fill-rule="nonzero"/><path fill="#000000" d="M 38.738281 27.085938 L 50.28125 27.085938 L 50.28125 15.542969 L 38.738281 15.542969 Z M 50.5 27.519531 L 38.523438 27.519531 C 38.402344 27.519531 38.308594 27.421875 38.308594 27.304688 L 38.308594 15.328125 C 38.308594 15.207031 38.402344 15.113281 38.523438 15.113281 L 50.5 15.113281 C 50.617188 15.113281 50.714844 15.207031 50.714844 15.328125 L 50.714844 27.304688 C 50.714844 27.421875 50.617188 27.519531 50.5 27.519531 " fill-opacity="1" fill-rule="nonzero"/><path fill="#ffffff" d="M 65.261719 27.304688 L 53.285156 27.304688 L 53.285156 15.328125 L 65.261719 15.328125 L 65.261719 27.304688 " fill-opacity="1" fill-rule="nonzero"/><path fill="#000000" d="M 53.5 27.085938 L 65.042969 27.085938 L 65.042969 15.542969 L 53.5 15.542969 Z M 65.261719 27.519531 L 53.285156 27.519531 C 53.164062 27.519531 53.066406 27.421875 53.066406 27.304688 L 53.066406 15.328125 C 53.066406 15.207031 53.164062 15.113281 53.285156 15.113281 L 65.261719 15.113281 C 65.378906 15.113281 65.476562 15.207031 65.476562 15.328125 L 65.476562 27.304688 C 65.476562 27.421875 65.378906 27.519531 65.261719 27.519531 " fill-opacity="1" fill-rule="nonzero"/><path fill="#ffffff" d="M 80.023438 27.304688 L 68.046875 27.304688 L 68.046875 15.328125 L 80.023438 15.328125 L 80.023438 27.304688 " fill-opacity="1" fill-rule="nonzero"/><path fill="#000000" d="M 68.261719 27.085938 L 79.804688 27.085938 L 79.804688 15.542969 L 68.261719 15.542969 Z M 80.023438 27.519531 L 68.046875 27.519531 C 67.925781 27.519531 67.828125 27.421875 67.828125 27.304688 L 67.828125 15.328125 C 67.828125 15.207031 67.925781 15.113281 68.046875 15.113281 L 80.023438 15.113281 C 80.140625 15.113281 80.238281 15.207031 80.238281 15.328125 L 80.238281 27.304688 C 80.238281 27.421875 80.140625 27.519531 80.023438 27.519531 " fill-opacity="1" fill-rule="nonzero"/><path fill="#ffffff" d="M 94.78125 27.304688 L 82.808594 27.304688 L 82.808594 15.328125 L 94.78125 15.328125 L 94.78125 27.304688 " fill-opacity="1" fill-rule="nonzero"/><path fill="#000000" d="M 83.023438 27.085938 L 94.566406 27.085938 L 94.566406 15.542969 L 83.023438 15.542969 Z M 94.78125 27.519531 L 82.808594 27.519531 C 82.6875 27.519531 82.589844 27.421875 82.589844 27.304688 L 82.589844 15.328125 C 82.589844 15.207031 82.6875 15.113281 82.808594 15.113281 L 94.78125 15.113281 C 94.902344 15.113281 95 15.207031 95 15.328125 L 95 27.304688 C 95 27.421875 94.902344 27.519531 94.78125 27.519531 " fill-opacity="1" fill-rule="nonzero"/><path fill="#000000" d="M 23.980469 41.273438 L 35.519531 41.273438 L 35.519531 29.730469 L 23.980469 29.730469 Z M 35.738281 41.707031 L 23.761719 41.707031 C 23.640625 41.707031 23.546875 41.609375 23.546875 41.492188 L 23.546875 29.515625 C 23.546875 29.394531 23.640625 29.296875 23.761719 29.296875 L 35.738281 29.296875 C 35.859375 29.296875 35.953125 29.394531 35.953125 29.515625 L 35.953125 41.492188 C 35.953125 41.609375 35.859375 41.707031 35.738281 41.707031 " fill-opacity="1" fill-rule="nonzero"/><path fill="#ffffff" d="M 35.738281 41.492188 L 23.761719 41.492188 L 23.761719 29.515625 L 35.738281 29.515625 L 35.738281 41.492188 " fill-opacity="1" fill-rule="nonzero"/><path fill="#000000" d="M 23.980469 41.273438 L 35.519531 41.273438 L 35.519531 29.730469 L 23.980469 29.730469 Z M 35.738281 41.707031 L 23.761719 41.707031 C 23.640625 41.707031 23.546875 41.609375 23.546875 41.492188 L 23.546875 29.515625 C 23.546875 29.394531 23.640625 29.296875 23.761719 29.296875 L 35.738281 29.296875 C 35.859375 29.296875 35.953125 29.394531 35.953125 29.515625 L 35.953125 41.492188 C 35.953125 41.609375 35.859375 41.707031 35.738281 41.707031 " fill-opacity="1" fill-rule="nonzero"/><path fill="#ffffff" d="M 50.5 41.492188 L 38.523438 41.492188 L 38.523438 29.515625 L 50.5 29.515625 L 50.5 41.492188 " fill-opacity="1" fill-rule="nonzero"/><path fill="#000000" d="M 38.738281 41.273438 L 50.28125 41.273438 L 50.28125 29.730469 L 38.738281 29.730469 Z M 50.5 41.707031 L 38.523438 41.707031 C 38.402344 41.707031 38.308594 41.609375 38.308594 41.492188 L 38.308594 29.515625 C 38.308594 29.394531 38.402344 29.296875 38.523438 29.296875 L 50.5 29.296875 C 50.617188 29.296875 50.714844 29.394531 50.714844 29.515625 L 50.714844 41.492188 C 50.714844 41.609375 50.617188 41.707031 50.5 41.707031 " fill-opacity="1" fill-rule="nonzero"/><path fill="#ffa240" d="M 65.261719 41.492188 L 53.285156 41.492188 L 53.285156 29.515625 L 65.261719 29.515625 L 65.261719 41.492188 " fill-opacity="1" fill-rule="nonzero"/><path fill="#ffffff" d="M 80.023438 41.492188 L 68.046875 41.492188 L 68.046875 29.515625 L 80.023438 29.515625 L 80.023438 41.492188 " fill-opacity="1" fill-rule="nonzero"/><path fill="#000000" d="M 68.261719 41.273438 L 79.804688 41.273438 L 79.804688 29.730469 L 68.261719 29.730469 Z M 80.023438 41.707031 L 68.046875 41.707031 C 67.925781 41.707031 67.828125 41.609375 67.828125 41.492188 L 67.828125 29.515625 C 67.828125 29.394531 67.925781 29.296875 68.046875 29.296875 L 80.023438 29.296875 C 80.140625 29.296875 80.238281 29.394531 80.238281 29.515625 L 80.238281 41.492188 C 80.238281 41.609375 80.140625 41.707031 80.023438 41.707031 " fill-opacity="1" fill-rule="nonzero"/><path fill="#ffffff" d="M 94.78125 41.492188 L 82.808594 41.492188 L 82.808594 29.515625 L 94.78125 29.515625 L 94.78125 41.492188 " fill-opacity="1" fill-rule="nonzero"/><path fill="#000000" d="M 83.023438 41.273438 L 94.566406 41.273438 L 94.566406 29.730469 L 83.023438 29.730469 Z M 94.78125 41.707031 L 82.808594 41.707031 C 82.6875 41.707031 82.589844 41.609375 82.589844 41.492188 L 82.589844 29.515625 C 82.589844 29.394531 82.6875 29.296875 82.808594 29.296875 L 94.78125 29.296875 C 94.902344 29.296875 95 29.394531 95 29.515625 L 95 41.492188 C 95 41.609375 94.902344 41.707031 94.78125 41.707031 " fill-opacity="1" fill-rule="nonzero"/><path fill="#ffffff" d="M 35.738281 55.679688 L 23.761719 55.679688 L 23.761719 43.703125 L 35.738281 43.703125 L 35.738281 55.679688 " fill-opacity="1" fill-rule="nonzero"/><path fill="#000000" d="M 23.980469 55.460938 L 35.519531 55.460938 L 35.519531 43.917969 L 23.980469 43.917969 Z M 35.738281 55.894531 L 23.761719 55.894531 C 23.640625 55.894531 23.546875 55.796875 23.546875 55.679688 L 23.546875 43.703125 C 23.546875 43.582031 23.640625 43.484375 23.761719 43.484375 L 35.738281 43.484375 C 35.859375 43.484375 35.953125 43.582031 35.953125 43.703125 L 35.953125 55.679688 C 35.953125 55.796875 35.859375 55.894531 35.738281 55.894531 " fill-opacity="1" fill-rule="nonzero"/><path fill="#ffffff" d="M 35.738281 55.679688 L 23.761719 55.679688 L 23.761719 43.703125 L 35.738281 43.703125 L 35.738281 55.679688 " fill-opacity="1" fill-rule="nonzero"/><path fill="#000000" d="M 23.980469 55.460938 L 35.519531 55.460938 L 35.519531 43.917969 L 23.980469 43.917969 Z M 35.738281 55.894531 L 23.761719 55.894531 C 23.640625 55.894531 23.546875 55.796875 23.546875 55.679688 L 23.546875 43.703125 C 23.546875 43.582031 23.640625 43.484375 23.761719 43.484375 L 35.738281 43.484375 C 35.859375 43.484375 35.953125 43.582031 35.953125 43.703125 L 35.953125 55.679688 C 35.953125 55.796875 35.859375 55.894531 35.738281 55.894531 " fill-opacity="1" fill-rule="nonzero"/><path fill="#ffffff" d="M 50.5 55.679688 L 38.523438 55.679688 L 38.523438 43.703125 L 50.5 43.703125 L 50.5 55.679688 " fill-opacity="1" fill-rule="nonzero"/><path fill="#000000" d="M 38.738281 55.460938 L 50.28125 55.460938 L 50.28125 43.917969 L 38.738281 43.917969 Z M 50.5 55.894531 L 38.523438 55.894531 C 38.402344 55.894531 38.308594 55.796875 38.308594 55.679688 L 38.308594 43.703125 C 38.308594 43.582031 38.402344 43.484375 38.523438 43.484375 L 50.5 43.484375 C 50.617188 43.484375 50.714844 43.582031 50.714844 43.703125 L 50.714844 55.679688 C 50.714844 55.796875 50.617188 55.894531 50.5 55.894531 " fill-opacity="1" fill-rule="nonzero"/><path fill="#000000" d="M 65.261719 55.679688 L 53.285156 55.679688 L 53.285156 43.703125 L 65.261719 43.703125 L 65.261719 55.679688 " fill-opacity="1" fill-rule="nonzero"/><g clip-path="url(#e8d2fc1f41)"><path fill="#ffffff" d="M 14.457031 109.308594 L 18.417969 176.738281 C 18.558594 178.609375 20.117188 180.054688 21.992188 180.054688 L 37.882812 180.054688 C 39.644531 180.054688 41.023438 178.539062 40.855469 176.785156 L 40.53125 173.445312 L 37.027344 103.808594 L 14.457031 109.308594 " fill-opacity="1" fill-rule="nonzero"/></g><g clip-path="url(#7f3d10678f)"><path fill="#000000" d="M 14.683594 109.476562 L 18.632812 176.726562 C 18.765625 178.46875 20.238281 179.839844 21.992188 179.839844 L 37.882812 179.839844 C 38.664062 179.839844 39.410156 179.507812 39.933594 178.933594 C 40.457031 178.355469 40.710938 177.582031 40.636719 176.804688 L 40.316406 173.464844 L 36.824219 104.082031 Z M 37.882812 180.273438 L 21.992188 180.273438 C 20.015625 180.273438 18.347656 178.726562 18.203125 176.753906 L 14.238281 109.320312 C 14.234375 109.214844 14.304688 109.121094 14.40625 109.097656 L 36.976562 103.597656 C 37.039062 103.582031 37.105469 103.597656 37.15625 103.636719 C 37.207031 103.675781 37.238281 103.734375 37.242188 103.796875 L 40.75 173.433594 L 41.070312 176.765625 C 41.15625 177.660156 40.859375 178.558594 40.253906 179.222656 C 39.648438 179.890625 38.785156 180.273438 37.882812 180.273438 " fill-opacity="1" fill-rule="nonzero"/></g><path fill="#000000" d="M 19.492188 174.859375 C 19.375 174.859375 19.28125 174.765625 19.277344 174.648438 C 19.273438 174.527344 19.367188 174.429688 19.488281 174.425781 C 26.925781 174.253906 31.519531 173.890625 38.46875 173.335938 L 40.304688 173.191406 C 40.425781 173.183594 40.527344 173.269531 40.535156 173.390625 C 40.546875 173.511719 40.457031 173.613281 40.335938 173.625 L 38.503906 173.769531 C 31.546875 174.320312 26.945312 174.6875 19.5 174.859375 C 19.496094 174.859375 19.496094 174.859375 19.492188 174.859375 " fill-opacity="1" fill-rule="nonzero"/><path fill="#000000" d="M 23.921875 163.644531 C 22.09375 163.644531 20.199219 163.589844 18.171875 163.484375 C 18.050781 163.480469 17.957031 163.378906 17.964844 163.257812 C 17.972656 163.136719 18.074219 163.042969 18.191406 163.050781 C 26.164062 163.464844 32.054688 163.097656 39.914062 161.695312 C 40.03125 161.675781 40.144531 161.753906 40.164062 161.871094 C 40.1875 161.988281 40.105469 162.101562 39.988281 162.125 C 34.09375 163.171875 29.304688 163.644531 23.921875 163.644531 " fill-opacity="1" fill-rule="nonzero"/><g clip-path="url(#1801d59235)"><path fill="#ffffff" d="M 25.15625 109.308594 L 51.417969 176.738281 C 51.558594 178.609375 53.117188 180.054688 54.996094 180.054688 L 79.585938 180.054688 C 80.574219 180.054688 81.015625 178.8125 80.242188 178.191406 L 74.335938 173.445312 L 44.839844 103.808594 L 25.15625 109.308594 " fill-opacity="1" fill-rule="nonzero"/></g><g clip-path="url(#4c7f5087c5)"><path fill="#000000" d="M 25.445312 109.453125 L 51.621094 176.660156 C 51.628906 176.679688 51.632812 176.699219 51.636719 176.722656 C 51.765625 178.46875 53.242188 179.839844 54.996094 179.839844 L 79.585938 179.839844 C 80.019531 179.839844 80.277344 179.550781 80.371094 179.285156 C 80.464844 179.015625 80.445312 178.632812 80.105469 178.359375 L 74.199219 173.613281 C 74.171875 173.589844 74.152344 173.5625 74.136719 173.527344 L 44.710938 104.070312 Z M 79.585938 180.273438 L 54.996094 180.273438 C 53.027344 180.273438 51.367188 178.742188 51.207031 176.785156 L 24.953125 109.386719 C 24.933594 109.328125 24.933594 109.265625 24.960938 109.210938 C 24.988281 109.15625 25.039062 109.117188 25.097656 109.101562 L 44.78125 103.601562 C 44.886719 103.570312 44.996094 103.625 45.039062 103.726562 L 74.515625 173.308594 L 80.378906 178.023438 C 80.800781 178.363281 80.960938 178.914062 80.78125 179.425781 C 80.597656 179.941406 80.132812 180.273438 79.585938 180.273438 " fill-opacity="1" fill-rule="nonzero"/></g><path fill="#000000" d="M 52.496094 174.859375 C 52.378906 174.859375 52.28125 174.765625 52.277344 174.648438 C 52.277344 174.527344 52.371094 174.429688 52.488281 174.425781 C 60.558594 174.242188 65.960938 173.835938 74.109375 173.191406 C 74.230469 173.183594 74.332031 173.269531 74.339844 173.390625 C 74.351562 173.511719 74.261719 173.613281 74.140625 173.625 C 65.988281 174.269531 60.582031 174.671875 52.5 174.859375 C 52.5 174.859375 52.496094 174.859375 52.496094 174.859375 " fill-opacity="1" fill-rule="nonzero"/><path fill="#000000" d="M 51.777344 162.941406 C 50.183594 162.941406 48.5 162.898438 46.683594 162.804688 C 46.566406 162.796875 46.472656 162.695312 46.480469 162.578125 C 46.488281 162.457031 46.589844 162.367188 46.707031 162.371094 C 54.222656 162.757812 59.613281 162.382812 68.058594 160.878906 C 68.179688 160.855469 68.289062 160.9375 68.308594 161.054688 C 68.332031 161.171875 68.25 161.285156 68.132812 161.304688 C 62.347656 162.335938 57.652344 162.941406 51.777344 162.941406 " fill-opacity="1" fill-rule="nonzero"/><path fill="#ffa240" d="M 2.488281 88.105469 C 1.625 85.726562 0.992188 83.011719 0.804688 79.960938 C 0.113281 68.832031 14.457031 57.503906 14.457031 57.503906 L 18.367188 57.292969 L 14.457031 83.164062 L 15.070312 85.277344 C 12.71875 86.5625 7.425781 89.003906 2.488281 88.105469 " fill-opacity="1" fill-rule="nonzero"/><path fill="#ffffff" d="M 15.070312 85.277344 L 18.367188 96.589844 C 18.367188 96.589844 12.722656 101.542969 10.386719 99.671875 C 8.6875 98.316406 4.773438 94.402344 2.488281 88.105469 C 7.425781 89.003906 12.71875 86.5625 15.070312 85.277344 " fill-opacity="1" fill-rule="nonzero"/><path fill="#000000" d="M 11.707031 100.308594 C 11.160156 100.308594 10.660156 100.171875 10.25 99.84375 C 9.371094 99.140625 4.859375 95.277344 2.285156 88.179688 C 2.242188 88.066406 2.300781 87.941406 2.414062 87.898438 C 2.527344 87.859375 2.652344 87.917969 2.691406 88.03125 C 5.226562 95.019531 9.65625 98.816406 10.519531 99.503906 C 12.6875 101.238281 18.167969 96.476562 18.222656 96.425781 C 18.3125 96.347656 18.453125 96.355469 18.53125 96.449219 C 18.609375 96.539062 18.601562 96.675781 18.511719 96.753906 C 18.3125 96.925781 14.417969 100.308594 11.707031 100.308594 " fill-opacity="1" fill-rule="nonzero"/><path fill="#000000" d="M 32.839844 96.589844 L 8.933594 96.589844 L 4.253906 75.386719 L 28.15625 75.386719 L 32.839844 96.589844 " fill-opacity="1" fill-rule="nonzero"/><path fill="#ffa240" d="M 14.457031 57.503906 C 14.457031 57.503906 23.28125 57.03125 31.644531 57.304688 C 31.78125 57.699219 31.917969 58.09375 32.054688 58.488281 C 39.195312 79.046875 46.335938 99.609375 53.476562 120.167969 C 53.152344 120.265625 50.707031 120.992188 48.585938 119.445312 C 47.363281 118.550781 46.355469 116.871094 46.21875 113.785156 C 46.21875 113.785156 43.984375 122.472656 29.339844 121.445312 C 14.695312 120.421875 13.085938 117.617188 13.085938 117.617188 L 14.457031 57.503906 " fill-opacity="1" fill-rule="nonzero"/><path fill="#000000" d="M 14 75.425781 C 13.898438 75.425781 13.804688 75.351562 13.785156 75.246094 L 12.792969 69.566406 L 12.390625 69.863281 C 12.292969 69.933594 12.15625 69.914062 12.085938 69.816406 C 12.015625 69.722656 12.035156 69.585938 12.132812 69.515625 L 12.816406 69.007812 C 12.875 68.964844 12.957031 68.953125 13.027344 68.980469 C 13.09375 69.007812 13.144531 69.070312 13.160156 69.144531 L 14.214844 75.171875 C 14.234375 75.289062 14.15625 75.402344 14.039062 75.421875 C 14.023438 75.425781 14.011719 75.425781 14 75.425781 " fill-opacity="1" fill-rule="nonzero"/><path fill="#ffa240" d="M 31.644531 57.304688 L 51.378906 59.78125 C 51.378906 59.78125 51.113281 58.871094 50.761719 57.46875 C 55.703125 60.078125 59.375 58.296875 61.066406 56.808594 C 63.046875 59.714844 64.863281 63.386719 64.078125 66.316406 C 62.527344 72.097656 50.140625 75.667969 32.210938 70.457031 L 29.652344 58.613281 L 31.644531 57.304688 " fill-opacity="1" fill-rule="nonzero"/><path fill="#ffffff" d="M 50.761719 57.46875 C 50.101562 54.820312 49.140625 50.421875 49.085938 47.046875 C 49 41.878906 51.4375 39.632812 52.324219 39.976562 C 53.207031 40.316406 52.6875 41.355469 52.324219 42.257812 C 51.957031 43.164062 51.765625 43.953125 51.765625 43.953125 C 51.765625 43.953125 53.09375 42.476562 54.09375 44.144531 C 54.09375 44.144531 55.640625 42.574219 56.367188 44.316406 C 56.367188 44.316406 58.027344 43.050781 58.726562 45.0625 C 59.425781 47.074219 57.710938 47.046875 57.710938 47.046875 C 57.710938 47.046875 57.679688 50.3125 57.058594 51.878906 C 57.058594 51.878906 59.140625 53.980469 61.066406 56.808594 C 59.375 58.296875 55.703125 60.078125 50.761719 57.46875 " fill-opacity="1" fill-rule="nonzero"/><path fill="#000000" d="M 50.621094 57.117188 C 50.523438 57.117188 50.4375 57.050781 50.414062 56.949219 C 49.734375 54.160156 48.917969 50.179688 48.867188 47.050781 C 48.804688 43.171875 50.136719 40.847656 51.296875 40.035156 C 51.710938 39.75 52.101562 39.65625 52.402344 39.773438 C 52.667969 39.875 52.851562 40.042969 52.949219 40.269531 C 53.167969 40.777344 52.886719 41.460938 52.613281 42.121094 L 52.523438 42.339844 C 52.371094 42.722656 52.246094 43.082031 52.15625 43.371094 C 52.410156 43.222656 52.730469 43.105469 53.082031 43.140625 C 53.484375 43.179688 53.835938 43.40625 54.136719 43.816406 C 54.433594 43.574219 55.015625 43.1875 55.59375 43.296875 C 55.949219 43.367188 56.238281 43.601562 56.457031 44.003906 C 56.75 43.835938 57.304688 43.597656 57.851562 43.761719 C 58.335938 43.910156 58.699219 44.324219 58.929688 44.992188 C 59.1875 45.730469 59.167969 46.3125 58.875 46.71875 C 58.605469 47.089844 58.179688 47.207031 57.921875 47.246094 C 57.90625 47.964844 57.8125 50.417969 57.308594 51.824219 C 57.746094 52.277344 59.566406 54.222656 61.246094 56.6875 C 61.3125 56.785156 61.289062 56.921875 61.1875 56.988281 C 61.089844 57.054688 60.957031 57.03125 60.886719 56.929688 C 58.996094 54.152344 56.921875 52.050781 56.902344 52.027344 C 56.84375 51.96875 56.824219 51.875 56.855469 51.796875 C 57.457031 50.285156 57.492188 47.078125 57.492188 47.042969 C 57.496094 46.984375 57.519531 46.929688 57.558594 46.890625 C 57.601562 46.851562 57.664062 46.828125 57.714844 46.828125 C 57.730469 46.828125 58.265625 46.824219 58.523438 46.460938 C 58.730469 46.175781 58.726562 45.730469 58.519531 45.132812 C 58.335938 44.601562 58.070312 44.28125 57.726562 44.179688 C 57.15625 44.007812 56.503906 44.484375 56.496094 44.488281 C 56.445312 44.53125 56.375 44.542969 56.308594 44.527344 C 56.246094 44.507812 56.191406 44.460938 56.164062 44.402344 C 56 44.003906 55.78125 43.773438 55.515625 43.722656 C 55.03125 43.628906 54.4375 44.105469 54.25 44.296875 C 54.203125 44.34375 54.136719 44.367188 54.070312 44.359375 C 54.003906 44.351562 53.941406 44.3125 53.910156 44.257812 C 53.65625 43.832031 53.363281 43.601562 53.039062 43.570312 C 52.472656 43.515625 51.933594 44.089844 51.929688 44.097656 C 51.863281 44.171875 51.753906 44.191406 51.664062 44.144531 C 51.578125 44.097656 51.53125 43.996094 51.554688 43.902344 C 51.5625 43.867188 51.753906 43.085938 52.121094 42.179688 L 52.214844 41.953125 C 52.441406 41.402344 52.699219 40.78125 52.550781 40.4375 C 52.5 40.324219 52.402344 40.238281 52.246094 40.175781 C 52.085938 40.117188 51.828125 40.195312 51.546875 40.390625 C 50.683594 40.996094 49.234375 43.078125 49.300781 47.042969 C 49.351562 50.128906 50.164062 54.082031 50.832031 56.847656 C 50.863281 56.964844 50.789062 57.082031 50.675781 57.113281 C 50.65625 57.117188 50.640625 57.117188 50.621094 57.117188 " fill-opacity="1" fill-rule="nonzero"/><path fill="#000000" d="M 57.617188 46.753906 C 57.515625 46.753906 57.425781 46.683594 57.40625 46.582031 L 57.226562 45.707031 C 57.203125 45.589844 57.28125 45.472656 57.398438 45.449219 C 57.515625 45.425781 57.628906 45.503906 57.652344 45.617188 L 57.832031 46.496094 C 57.855469 46.613281 57.777344 46.726562 57.660156 46.75 C 57.648438 46.753906 57.632812 46.753906 57.617188 46.753906 " fill-opacity="1" fill-rule="nonzero"/><path fill="#000000" d="M 52.050781 62.550781 C 51.953125 62.550781 51.863281 62.480469 51.839844 62.382812 L 51.335938 60.148438 C 51.3125 60.03125 51.382812 59.917969 51.5 59.890625 C 51.617188 59.863281 51.734375 59.9375 51.757812 60.054688 L 52.261719 62.285156 C 52.289062 62.402344 52.214844 62.519531 52.097656 62.542969 C 52.082031 62.546875 52.066406 62.550781 52.050781 62.550781 " fill-opacity="1" fill-rule="nonzero"/><path fill="#ffffff" d="M 27.894531 50.953125 L 26.957031 56.871094 L 29.277344 57.332031 C 29.277344 57.332031 28.894531 58.25 20.441406 57.820312 C 14.277344 57.507812 23.8125 47.644531 23.8125 47.644531 C 23.8125 47.644531 25.773438 48.972656 27.894531 50.953125 " fill-opacity="1" fill-rule="nonzero"/><path fill="#000000" d="M 29.277344 57.511719 C 29.265625 57.511719 29.25 57.511719 29.238281 57.507812 L 26.917969 57.082031 C 26.800781 57.0625 26.726562 56.953125 26.742188 56.835938 L 27.566406 51.582031 C 25.488281 49.589844 24.941406 47.1875 24.917969 47.085938 C 24.894531 46.96875 24.96875 46.851562 25.085938 46.824219 C 25.203125 46.800781 25.316406 46.875 25.34375 46.992188 C 25.347656 47.015625 25.902344 49.433594 27.945312 51.339844 C 27.996094 51.390625 28.023438 51.460938 28.011719 51.535156 L 27.203125 56.695312 L 29.316406 57.082031 C 29.433594 57.101562 29.511719 57.214844 29.488281 57.332031 C 29.46875 57.4375 29.378906 57.511719 29.277344 57.511719 " fill-opacity="1" fill-rule="nonzero"/><path fill="#000000" d="M 33.46875 39.472656 C 31.179688 38.257812 29.78125 37.433594 25.601562 38.699219 C 21.796875 39.855469 9.382812 50.933594 7.40625 53.609375 C 5.429688 56.285156 4.878906 60.023438 6.238281 63.058594 C 7.597656 66.09375 10.921875 68.207031 14.234375 67.914062 C 17.15625 67.652344 19.714844 65.664062 21.292969 63.191406 C 22.875 60.722656 23.605469 57.808594 24.113281 54.921875 C 24.363281 53.519531 25.140625 49.515625 26.152344 48.515625 C 26.789062 47.890625 27.121094 50.046875 27.953125 49.722656 C 29.402344 49.164062 31.261719 46.46875 33.1875 45.730469 C 36.570312 44.433594 35.996094 40.8125 33.46875 39.472656 " fill-opacity="1" fill-rule="nonzero"/><path fill="#ffffff" d="M 33.347656 44.234375 C 33.347656 44.234375 30.195312 43.304688 29.515625 44.714844 C 28.832031 46.121094 28.378906 46.753906 27.410156 46.851562 C 27.410156 46.851562 25.742188 44.578125 24.398438 45.90625 C 23.054688 47.230469 24.238281 48.988281 25.753906 49.429688 C 25.753906 49.429688 26.039062 51.71875 28.765625 52.203125 C 31.492188 52.691406 32.78125 48.613281 33.347656 44.234375 " fill-opacity="1" fill-rule="nonzero"/><path fill="#000000" d="M 25.335938 45.707031 C 25.046875 45.707031 24.792969 45.820312 24.550781 46.058594 C 24.101562 46.5 23.9375 47.023438 24.074219 47.566406 C 24.261719 48.296875 24.976562 48.976562 25.816406 49.222656 C 25.898438 49.246094 25.957031 49.316406 25.96875 49.402344 C 25.980469 49.488281 26.277344 51.539062 28.804688 51.992188 C 29.398438 52.097656 29.921875 51.972656 30.40625 51.617188 C 31.664062 50.695312 32.597656 48.199219 33.105469 44.390625 C 32.171875 44.152344 30.171875 43.855469 29.710938 44.808594 C 28.996094 46.28125 28.496094 46.957031 27.429688 47.066406 C 27.355469 47.074219 27.28125 47.042969 27.234375 46.980469 C 27.226562 46.96875 26.34375 45.78125 25.421875 45.710938 C 25.394531 45.707031 25.363281 45.707031 25.335938 45.707031 Z M 29.199219 52.460938 C 29.042969 52.460938 28.886719 52.445312 28.726562 52.417969 C 26.277344 51.980469 25.6875 50.125 25.566406 49.597656 C 24.628906 49.28125 23.871094 48.519531 23.65625 47.675781 C 23.480469 46.980469 23.691406 46.296875 24.246094 45.75 C 24.601562 45.402344 25.007812 45.242188 25.457031 45.277344 C 26.40625 45.355469 27.246094 46.300781 27.503906 46.621094 C 28.289062 46.492188 28.695312 45.90625 29.320312 44.617188 C 30.074219 43.0625 33.273438 43.984375 33.40625 44.023438 C 33.507812 44.054688 33.574219 44.15625 33.5625 44.261719 C 33.035156 48.351562 32.058594 50.941406 30.664062 51.964844 C 30.214844 52.292969 29.722656 52.460938 29.199219 52.460938 " fill-opacity="1" fill-rule="nonzero"/><path fill="#000000" d="M 26.621094 48.464844 C 26.523438 48.464844 26.4375 48.402344 26.410156 48.304688 C 26.277344 47.796875 25.839844 47.375 25.328125 47.257812 C 25.210938 47.230469 25.140625 47.113281 25.164062 46.996094 C 25.191406 46.878906 25.308594 46.808594 25.425781 46.835938 C 26.089844 46.988281 26.65625 47.535156 26.828125 48.195312 C 26.859375 48.308594 26.789062 48.429688 26.675781 48.457031 C 26.65625 48.464844 26.636719 48.464844 26.621094 48.464844 " fill-opacity="1" fill-rule="nonzero"/><g clip-path="url(#5b4cd84e88)"><path fill="#000000" d="M 54.996094 180.273438 L 0.777344 180.273438 C 0.660156 180.273438 0.5625 180.175781 0.5625 180.054688 C 0.5625 179.933594 0.660156 179.839844 0.777344 179.839844 L 54.996094 179.839844 C 55.113281 179.839844 55.210938 179.933594 55.210938 180.054688 C 55.210938 180.175781 55.113281 180.273438 54.996094 180.273438 " fill-opacity="1" fill-rule="nonzero"/></g><path fill="#000000" d="M 220.535156 22.265625 L 177.441406 22.265625 C 177.324219 22.265625 177.226562 22.167969 177.226562 22.046875 C 177.226562 21.929688 177.324219 21.832031 177.441406 21.832031 L 220.535156 21.832031 C 220.65625 21.832031 220.753906 21.929688 220.753906 22.046875 C 220.753906 22.167969 220.65625 22.265625 220.535156 22.265625 " fill-opacity="1" fill-rule="nonzero"/><path fill="#000000" d="M 155.59375 22.058594 C 155.597656 23.515625 154.421875 24.695312 152.972656 24.699219 C 151.519531 24.703125 150.339844 23.527344 150.335938 22.070312 C 150.335938 20.617188 151.507812 19.433594 152.960938 19.429688 C 154.414062 19.425781 155.589844 20.601562 155.59375 22.058594 " fill-opacity="1" fill-rule="nonzero"/><path fill="#000000" d="M 163.265625 22.042969 C 163.269531 23.5 162.09375 24.679688 160.640625 24.683594 C 159.191406 24.6875 158.011719 23.507812 158.007812 22.054688 C 158.003906 20.597656 159.179688 19.417969 160.632812 19.414062 C 162.082031 19.410156 163.261719 20.585938 163.265625 22.042969 " fill-opacity="1" fill-rule="nonzero"/><path fill="#000000" d="M 170.933594 22.027344 C 170.9375 23.484375 169.765625 24.664062 168.3125 24.667969 C 166.859375 24.671875 165.679688 23.492188 165.679688 22.039062 C 165.675781 20.582031 166.851562 19.402344 168.300781 19.398438 C 169.753906 19.394531 170.933594 20.570312 170.933594 22.027344 " fill-opacity="1" fill-rule="nonzero"/><path fill="#000000" d="M 133.050781 51.738281 C 132.929688 51.738281 132.832031 51.640625 132.832031 51.519531 L 132.832031 22.070312 C 132.832031 21.949219 132.929688 21.851562 133.050781 21.851562 L 143.832031 21.851562 C 143.949219 21.851562 144.046875 21.949219 144.046875 22.070312 C 144.046875 22.191406 143.949219 22.285156 143.832031 22.285156 L 133.265625 22.285156 L 133.265625 51.519531 C 133.265625 51.640625 133.167969 51.738281 133.050781 51.738281 " fill-opacity="1" fill-rule="nonzero"/><path fill="#000000" d="M 144.6875 64.011719 C 144.628906 64.011719 144.574219 63.992188 144.535156 63.949219 C 144.449219 63.863281 144.449219 63.726562 144.535156 63.640625 L 165.96875 42.214844 C 166.054688 42.132812 166.191406 42.132812 166.273438 42.214844 L 174.140625 50.078125 L 188.570312 35.65625 C 188.652344 35.570312 188.789062 35.570312 188.875 35.65625 C 188.960938 35.738281 188.960938 35.878906 188.875 35.960938 L 174.292969 50.539062 C 174.207031 50.621094 174.070312 50.621094 173.988281 50.539062 L 166.121094 42.675781 L 144.839844 63.949219 C 144.796875 63.992188 144.742188 64.011719 144.6875 64.011719 " fill-opacity="1" fill-rule="nonzero"/><path fill="#000000" d="M 187.882812 38.59375 L 187.492188 38.414062 L 188.691406 35.839844 L 186.117188 37.039062 L 185.933594 36.644531 L 189.589844 34.941406 L 187.882812 38.59375 " fill-opacity="1" fill-rule="nonzero"/><g clip-path="url(#893886e5ab)"><path fill="#ffffff" d="M 260.699219 164.070312 C 248.894531 165.507812 241.976562 172.296875 241.976562 172.296875 L 234.128906 177.472656 C 232.972656 178.246094 233.519531 180.050781 234.914062 180.050781 L 247.226562 180.050781 C 249.394531 180.050781 251.496094 179.339844 253.222656 178.03125 L 260.757812 172.296875 C 262.34375 171.085938 262.949219 168.980469 262.238281 167.113281 L 260.699219 164.070312 " fill-opacity="1" fill-rule="nonzero"/></g><g clip-path="url(#8ad8363b57)"><path fill="#000000" d="M 241.976562 172.296875 Z M 260.574219 164.304688 C 249.070312 165.757812 242.195312 172.382812 242.125 172.453125 C 242.117188 172.460938 242.105469 172.46875 242.09375 172.476562 L 234.25 177.652344 C 233.707031 178.015625 233.65625 178.597656 233.773438 178.988281 C 233.890625 179.378906 234.261719 179.835938 234.914062 179.835938 L 247.226562 179.835938 C 249.332031 179.835938 251.414062 179.132812 253.089844 177.859375 L 260.625 172.121094 C 262.125 170.984375 262.703125 168.960938 262.039062 167.199219 Z M 247.226562 180.269531 L 234.914062 180.269531 C 234.179688 180.269531 233.570312 179.816406 233.359375 179.113281 C 233.144531 178.414062 233.402344 177.699219 234.011719 177.289062 L 241.839844 172.128906 C 242.21875 171.761719 249.203125 165.253906 260.671875 163.855469 C 260.761719 163.84375 260.851562 163.890625 260.890625 163.972656 L 262.433594 167.015625 C 262.433594 167.023438 262.4375 167.027344 262.441406 167.035156 C 263.179688 168.976562 262.539062 171.210938 260.886719 172.46875 L 253.351562 178.203125 C 251.601562 179.535156 249.429688 180.269531 247.226562 180.269531 " fill-opacity="1" fill-rule="nonzero"/></g><path fill="#ffa240" d="M 229.441406 80.871094 L 207.253906 88.285156 L 241.117188 172.800781 C 241.117188 172.800781 251.5625 172.507812 261.175781 164.3125 L 229.441406 80.871094 " fill-opacity="1" fill-rule="nonzero"/><g clip-path="url(#53169cedd3)"><path fill="#ffffff" d="M 188.296875 176.828125 C 187.019531 177.941406 187.804688 180.050781 189.488281 180.050781 L 209.378906 180.050781 C 211.542969 180.050781 213.359375 178.410156 213.59375 176.242188 L 213.9375 172.71875 C 204.40625 169.769531 195.054688 171.125 195.054688 171.125 L 188.296875 176.828125 " fill-opacity="1" fill-rule="nonzero"/></g><g clip-path="url(#9c3325517d)"><path fill="#000000" d="M 188.4375 176.992188 C 187.8125 177.539062 187.796875 178.277344 187.988281 178.789062 C 188.175781 179.296875 188.671875 179.835938 189.488281 179.835938 L 209.378906 179.835938 C 211.4375 179.835938 213.15625 178.28125 213.378906 176.21875 L 213.703125 172.875 C 204.78125 170.160156 195.960938 171.222656 195.144531 171.332031 Z M 209.378906 180.269531 L 189.488281 180.269531 C 188.621094 180.269531 187.890625 179.761719 187.582031 178.941406 C 187.277344 178.128906 187.5 177.234375 188.152344 176.664062 C 188.152344 176.664062 188.15625 176.664062 188.15625 176.660156 L 194.914062 170.960938 C 194.945312 170.933594 194.984375 170.917969 195.023438 170.910156 C 195.117188 170.894531 204.53125 169.582031 214 172.511719 C 214.097656 172.542969 214.160156 172.636719 214.152344 172.738281 L 213.808594 176.261719 C 213.5625 178.546875 211.660156 180.269531 209.378906 180.269531 " fill-opacity="1" fill-rule="nonzero"/></g><path fill="#ffa240" d="M 234.886719 94.042969 C 236.078125 91.6875 236.4375 88.996094 235.914062 86.40625 L 235.144531 82.59375 L 217.671875 84.734375 L 203.40625 116.023438 C 201.726562 119.710938 200.617188 123.636719 200.117188 127.660156 L 194.699219 171.277344 C 194.699219 171.277344 204.496094 172.957031 214.136719 173.0625 L 220.972656 122.273438 L 234.886719 94.042969 " fill-opacity="1" fill-rule="nonzero"/><path fill="#ffffff" d="M 212.179688 96.996094 C 212.148438 96.996094 212.117188 96.992188 212.089844 96.976562 C 211.980469 96.929688 211.933594 96.800781 211.980469 96.691406 L 215.226562 89.570312 C 215.277344 89.460938 215.40625 89.414062 215.515625 89.464844 C 215.621094 89.511719 215.671875 89.640625 215.621094 89.75 L 212.375 96.871094 C 212.339844 96.949219 212.261719 96.996094 212.179688 96.996094 " fill-opacity="1" fill-rule="nonzero"/><path fill="#ffffff" d="M 191.65625 59.890625 L 200.835938 52.714844 C 202.875 51.117188 205.21875 49.941406 207.722656 49.273438 C 214.519531 47.457031 222.722656 45.484375 229.898438 48.976562 L 232.667969 61.078125 L 191.65625 59.890625 " fill-opacity="1" fill-rule="nonzero"/><path fill="#000000" d="M 192.261719 59.691406 L 232.394531 60.851562 L 229.710938 49.125 C 222.332031 45.59375 213.578125 47.929688 207.777344 49.480469 C 205.300781 50.144531 203.007812 51.289062 200.96875 52.882812 Z M 232.667969 61.296875 C 232.667969 61.296875 232.664062 61.296875 232.660156 61.296875 L 191.648438 60.109375 C 191.558594 60.105469 191.476562 60.046875 191.449219 59.960938 C 191.421875 59.875 191.449219 59.777344 191.519531 59.722656 L 200.703125 52.542969 C 202.789062 50.910156 205.132812 49.738281 207.667969 49.0625 C 213.554688 47.488281 222.453125 45.113281 229.992188 48.78125 C 230.050781 48.808594 230.09375 48.863281 230.109375 48.929688 L 232.878906 61.03125 C 232.894531 61.09375 232.878906 61.164062 232.835938 61.214844 C 232.796875 61.265625 232.734375 61.296875 232.667969 61.296875 " fill-opacity="1" fill-rule="nonzero"/><path fill="#ffffff" d="M 240.722656 62.480469 C 240.722656 59.789062 238.539062 57.605469 235.847656 57.605469 L 177.441406 57.605469 L 177.441406 80.664062 C 178.75 79.996094 180.230469 79.617188 181.800781 79.617188 C 187.117188 79.617188 191.425781 83.929688 191.425781 89.246094 C 191.425781 94.5625 187.117188 98.871094 181.800781 98.871094 C 180.230469 98.871094 178.75 98.492188 177.441406 97.824219 L 177.441406 120.886719 L 200.941406 120.886719 C 200.003906 122.371094 199.457031 124.128906 199.457031 126.015625 C 199.457031 131.332031 203.765625 135.640625 209.082031 135.640625 C 214.398438 135.640625 218.707031 131.332031 218.707031 126.015625 C 218.707031 124.128906 218.164062 122.371094 217.226562 120.886719 L 240.722656 120.886719 L 240.722656 62.480469 " fill-opacity="1" fill-rule="nonzero"/><path fill="#000000" d="M 177.660156 120.667969 L 200.941406 120.667969 C 201.019531 120.667969 201.09375 120.710938 201.132812 120.78125 C 201.167969 120.847656 201.167969 120.933594 201.125 121 C 200.175781 122.503906 199.675781 124.238281 199.675781 126.015625 C 199.675781 131.203125 203.894531 135.425781 209.082031 135.425781 C 214.273438 135.425781 218.492188 131.203125 218.492188 126.015625 C 218.492188 124.238281 217.992188 122.503906 217.042969 121 C 217 120.933594 216.996094 120.851562 217.035156 120.78125 C 217.074219 120.710938 217.144531 120.667969 217.226562 120.667969 L 240.507812 120.667969 L 240.507812 62.480469 C 240.507812 59.910156 238.417969 57.820312 235.847656 57.820312 L 177.660156 57.820312 L 177.660156 80.316406 C 178.960938 79.710938 180.351562 79.402344 181.800781 79.402344 C 187.226562 79.402344 191.644531 83.816406 191.644531 89.246094 C 191.644531 94.671875 187.226562 99.085938 181.800781 99.085938 C 180.351562 99.085938 178.960938 98.777344 177.660156 98.171875 Z M 209.082031 135.859375 C 203.65625 135.859375 199.242188 131.441406 199.242188 126.015625 C 199.242188 124.285156 199.695312 122.59375 200.558594 121.101562 L 177.441406 121.101562 C 177.324219 121.101562 177.226562 121.003906 177.226562 120.882812 L 177.226562 97.824219 C 177.226562 97.75 177.265625 97.679688 177.332031 97.640625 C 177.394531 97.601562 177.472656 97.597656 177.542969 97.632812 C 178.871094 98.308594 180.304688 98.652344 181.800781 98.652344 C 186.988281 98.652344 191.210938 94.433594 191.210938 89.246094 C 191.210938 84.058594 186.988281 79.835938 181.800781 79.835938 C 180.304688 79.835938 178.871094 80.179688 177.542969 80.855469 C 177.472656 80.890625 177.394531 80.886719 177.332031 80.847656 C 177.265625 80.808594 177.226562 80.738281 177.226562 80.664062 L 177.226562 57.605469 C 177.226562 57.484375 177.324219 57.386719 177.441406 57.386719 L 235.847656 57.386719 C 238.65625 57.386719 240.941406 59.671875 240.941406 62.480469 L 240.941406 120.882812 C 240.941406 121.003906 240.84375 121.101562 240.722656 121.101562 L 217.609375 121.101562 C 218.472656 122.59375 218.925781 124.285156 218.925781 126.015625 C 218.925781 131.441406 214.507812 135.859375 209.082031 135.859375 " fill-opacity="1" fill-rule="nonzero"/><path fill="#ffffff" d="M 228.902344 88.121094 L 243.265625 88.121094 C 243.265625 88.121094 243.878906 75.832031 244.105469 68.226562 C 244.332031 60.621094 236.238281 49.851562 225.402344 47.472656 L 219.832031 55.171875 L 228.867188 67.261719 C 229.5 67.882812 229.773438 68.785156 229.59375 69.652344 L 228.902344 88.121094 " fill-opacity="1" fill-rule="nonzero"/><path fill="#000000" d="M 243.265625 88.335938 L 228.902344 88.335938 C 228.84375 88.335938 228.785156 88.3125 228.746094 88.269531 C 228.703125 88.226562 228.683594 88.171875 228.683594 88.113281 L 229.375 69.644531 C 229.378906 69.632812 229.378906 69.621094 229.382812 69.609375 C 229.546875 68.808594 229.296875 67.992188 228.714844 67.417969 C 228.707031 67.410156 228.699219 67.402344 228.691406 67.394531 L 219.65625 55.300781 C 219.585938 55.203125 219.605469 55.070312 219.699219 54.996094 C 219.796875 54.925781 219.933594 54.945312 220.003906 55.042969 L 229.03125 67.121094 C 229.707031 67.792969 229.996094 68.746094 229.808594 69.679688 L 229.125 87.902344 L 243.0625 87.902344 C 243.140625 86.257812 243.679688 75.199219 243.886719 68.21875 C 244 64.519531 242.058594 59.957031 238.691406 56.019531 C 235.019531 51.722656 230.25 48.753906 225.261719 47.660156 C 225.144531 47.632812 225.070312 47.519531 225.09375 47.402344 C 225.121094 47.285156 225.238281 47.210938 225.351562 47.238281 C 236.316406 49.644531 244.554688 60.5 244.324219 68.234375 C 244.097656 75.753906 243.488281 88.007812 243.484375 88.128906 C 243.476562 88.246094 243.382812 88.335938 243.265625 88.335938 " fill-opacity="1" fill-rule="nonzero"/><path fill="#ffffff" d="M 190.796875 85.828125 C 189.828125 86.152344 188.582031 86.445312 187.183594 86.492188 C 180.804688 86.703125 179.960938 84.550781 179.042969 82.65625 C 178.125 80.765625 178.253906 79.164062 179.304688 79.402344 C 179.304688 79.402344 179.386719 76.921875 181.828125 78.476562 C 181.828125 78.476562 182.773438 76.960938 184.609375 78.929688 C 184.609375 78.929688 186.398438 77.828125 188.339844 82.214844 L 188.6875 82.277344 C 188.6875 82.277344 190.070312 83.828125 190.796875 85.828125 " fill-opacity="1" fill-rule="nonzero"/><path fill="#000000" d="M 179.109375 79.59375 C 178.945312 79.59375 178.863281 79.671875 178.816406 79.734375 C 178.523438 80.105469 178.574219 81.195312 179.238281 82.5625 L 179.320312 82.734375 C 180.207031 84.574219 181.128906 86.46875 187.175781 86.273438 C 188.285156 86.238281 189.40625 86.042969 190.515625 85.691406 C 189.875 84.058594 188.8125 82.753906 188.574219 82.476562 L 188.300781 82.425781 C 188.230469 82.414062 188.171875 82.367188 188.140625 82.300781 C 187.117188 79.992188 186.164062 79.277344 185.546875 79.085938 C 185.042969 78.929688 184.726562 79.113281 184.722656 79.113281 C 184.636719 79.167969 184.523438 79.152344 184.453125 79.078125 C 183.835938 78.417969 183.253906 78.089844 182.761719 78.140625 C 182.269531 78.1875 182.015625 78.585938 182.011719 78.589844 C 181.980469 78.640625 181.929688 78.675781 181.875 78.6875 C 181.820312 78.703125 181.761719 78.691406 181.710938 78.660156 C 181.007812 78.210938 180.441406 78.074219 180.078125 78.265625 C 179.558594 78.539062 179.523438 79.402344 179.523438 79.410156 C 179.519531 79.472656 179.488281 79.535156 179.4375 79.574219 C 179.386719 79.613281 179.320312 79.628906 179.257812 79.613281 C 179.203125 79.601562 179.152344 79.59375 179.109375 79.59375 Z M 186.351562 86.722656 C 180.765625 86.722656 179.792969 84.707031 178.929688 82.921875 L 178.847656 82.753906 C 178.171875 81.359375 178.019531 80.039062 178.476562 79.464844 C 178.632812 79.265625 178.851562 79.164062 179.113281 79.164062 C 179.164062 78.8125 179.335938 78.167969 179.875 77.886719 C 180.359375 77.628906 180.996094 77.734375 181.777344 78.191406 C 181.941406 78.015625 182.253906 77.753906 182.71875 77.710938 C 183.324219 77.652344 183.980469 77.972656 184.664062 78.671875 C 184.859375 78.601562 185.214844 78.53125 185.675781 78.671875 C 186.683594 78.984375 187.628906 80.109375 188.492188 82.019531 L 188.730469 82.0625 C 188.777344 82.074219 188.820312 82.097656 188.851562 82.132812 C 188.910156 82.199219 190.269531 83.738281 191 85.753906 C 191.019531 85.808594 191.019531 85.867188 190.992188 85.921875 C 190.96875 85.972656 190.921875 86.015625 190.867188 86.03125 C 189.648438 86.441406 188.410156 86.667969 187.191406 86.707031 C 186.902344 86.71875 186.621094 86.722656 186.351562 86.722656 " fill-opacity="1" fill-rule="nonzero"/><path fill="#000000" d="M 186.492188 84.460938 C 186.417969 84.460938 186.347656 84.425781 186.304688 84.355469 C 185.578125 83.132812 184.90625 81.859375 184.300781 80.570312 C 184.199219 80.351562 184.070312 80.078125 184.039062 79.777344 C 184 79.425781 184.109375 79.089844 184.335938 78.890625 C 184.425781 78.808594 184.5625 78.816406 184.640625 78.90625 C 184.722656 78.996094 184.714844 79.132812 184.625 79.210938 C 184.503906 79.320312 184.445312 79.519531 184.46875 79.730469 C 184.492188 79.941406 184.582031 80.144531 184.695312 80.386719 C 185.292969 81.660156 185.960938 82.921875 186.679688 84.132812 C 186.738281 84.238281 186.707031 84.371094 186.601562 84.433594 C 186.566406 84.453125 186.53125 84.460938 186.492188 84.460938 " fill-opacity="1" fill-rule="nonzero"/><path fill="#000000" d="M 184.09375 84.578125 C 184.015625 84.578125 183.941406 84.535156 183.902344 84.464844 L 181.78125 80.480469 C 181.621094 80.183594 181.457031 79.875 181.386719 79.519531 C 181.304688 79.09375 181.386719 78.6875 181.621094 78.40625 C 181.695312 78.316406 181.832031 78.300781 181.925781 78.378906 C 182.015625 78.453125 182.03125 78.589844 181.953125 78.683594 C 181.808594 78.859375 181.753906 79.140625 181.8125 79.433594 C 181.871094 79.726562 182.019531 80.007812 182.164062 80.277344 L 184.285156 84.257812 C 184.34375 84.363281 184.300781 84.496094 184.195312 84.554688 C 184.164062 84.570312 184.128906 84.578125 184.09375 84.578125 " fill-opacity="1" fill-rule="nonzero"/><path fill="#000000" d="M 181.953125 85.167969 C 181.886719 85.167969 181.816406 85.132812 181.777344 85.074219 C 180.578125 83.347656 179.679688 81.449219 179.101562 79.429688 C 179.070312 79.3125 179.136719 79.195312 179.25 79.160156 C 179.367188 79.128906 179.488281 79.195312 179.519531 79.308594 C 180.082031 81.285156 180.960938 83.140625 182.132812 84.824219 C 182.199219 84.925781 182.175781 85.058594 182.078125 85.125 C 182.039062 85.152344 181.996094 85.167969 181.953125 85.167969 " fill-opacity="1" fill-rule="nonzero"/><path fill="#ffffff" d="M 228.902344 88.121094 C 228.902344 88.121094 228.722656 91.828125 228.207031 93.820312 C 227.691406 95.808594 227.175781 97.871094 228.574219 98.167969 C 229.976562 98.460938 230.933594 95.21875 231.304688 94.777344 C 231.671875 94.335938 231.082031 101.925781 231.671875 102.957031 C 232.261719 103.992188 233.421875 103.523438 233.863281 102.933594 C 233.863281 102.933594 234.25 104.40625 235.355469 104.335938 C 236.460938 104.261719 237.0625 102.964844 237.0625 102.964844 C 237.0625 102.964844 237.847656 103.601562 238.582031 103.085938 C 239.320312 102.570312 239.6875 101.390625 239.6875 101.390625 C 239.6875 101.390625 240.503906 102.71875 241.507812 101.320312 C 242.480469 99.960938 243.265625 88.121094 243.265625 88.121094 L 228.902344 88.121094 " fill-opacity="1" fill-rule="nonzero"/><path fill="#000000" d="M 233.863281 102.714844 C 233.875 102.714844 233.890625 102.71875 233.902344 102.71875 C 233.984375 102.738281 234.050781 102.796875 234.070312 102.878906 C 234.074219 102.890625 234.4375 104.179688 235.339844 104.117188 C 236.308594 104.054688 236.859375 102.882812 236.863281 102.871094 C 236.890625 102.8125 236.945312 102.769531 237.011719 102.753906 C 237.078125 102.738281 237.144531 102.753906 237.199219 102.796875 C 237.222656 102.816406 237.867188 103.320312 238.460938 102.90625 C 239.128906 102.441406 239.480469 101.335938 239.480469 101.324219 C 239.507812 101.242188 239.578125 101.1875 239.664062 101.175781 C 239.75 101.167969 239.828125 101.203125 239.875 101.277344 C 239.878906 101.28125 240.160156 101.730469 240.542969 101.742188 C 240.550781 101.742188 240.554688 101.742188 240.5625 101.742188 C 240.808594 101.742188 241.070312 101.558594 241.332031 101.191406 C 242.085938 100.144531 242.800781 91.773438 243.035156 88.335938 L 229.105469 88.335938 C 229.0625 89.152344 228.871094 92.128906 228.417969 93.871094 C 228.050781 95.285156 227.636719 96.882812 228.078125 97.59375 C 228.195312 97.785156 228.375 97.902344 228.621094 97.953125 C 229.503906 98.136719 230.296875 96.382812 230.722656 95.441406 C 230.898438 95.050781 231.027344 94.769531 231.136719 94.636719 C 231.222656 94.53125 231.335938 94.527344 231.414062 94.554688 C 231.648438 94.644531 231.675781 94.816406 231.632812 97.570312 C 231.601562 99.460938 231.558594 102.320312 231.859375 102.851562 C 232.039062 103.164062 232.28125 103.328125 232.585938 103.347656 C 233.023438 103.378906 233.46875 103.09375 233.6875 102.804688 C 233.730469 102.746094 233.796875 102.714844 233.863281 102.714844 Z M 235.273438 104.554688 C 234.425781 104.554688 233.972656 103.796875 233.777344 103.335938 C 233.464844 103.601562 233.023438 103.808594 232.558594 103.78125 C 232.242188 103.761719 231.800781 103.621094 231.484375 103.066406 C 231.148438 102.476562 231.15625 100.320312 231.199219 97.5625 C 231.210938 96.789062 231.226562 95.949219 231.210938 95.414062 C 231.179688 95.480469 231.148438 95.550781 231.117188 95.617188 C 230.574219 96.820312 229.75 98.636719 228.53125 98.378906 C 228.167969 98.300781 227.890625 98.117188 227.707031 97.824219 C 227.171875 96.953125 227.589844 95.332031 227.996094 93.761719 C 228.503906 91.816406 228.683594 88.144531 228.683594 88.109375 C 228.691406 87.992188 228.785156 87.902344 228.902344 87.902344 L 243.265625 87.902344 C 243.328125 87.902344 243.382812 87.929688 243.425781 87.972656 C 243.46875 88.015625 243.488281 88.074219 243.484375 88.132812 C 243.453125 88.621094 242.683594 100.050781 241.683594 101.445312 C 241.324219 101.945312 240.9375 102.195312 240.527344 102.175781 C 240.199219 102.164062 239.9375 101.984375 239.761719 101.8125 C 239.585938 102.226562 239.238281 102.890625 238.707031 103.261719 C 238.144531 103.65625 237.519531 103.492188 237.136719 103.277344 C 236.898438 103.675781 236.304688 104.488281 235.371094 104.550781 C 235.335938 104.550781 235.304688 104.554688 235.273438 104.554688 " fill-opacity="1" fill-rule="nonzero"/><path fill="#000000" d="M 203.257812 35.191406 C 202.761719 34.019531 202.726562 32.589844 203.4375 31.535156 C 204.253906 30.332031 205.789062 29.613281 207.242188 29.667969 C 210.355469 29.777344 210.03125 31.222656 211.65625 32.121094 C 212.75 32.726562 213.304688 31.339844 215.179688 32.945312 C 216.808594 34.347656 216.246094 37.25 215.261719 39.164062 C 214.277344 41.074219 212.15625 42.402344 210.011719 42.242188 C 208.363281 42.121094 206.804688 41.054688 206.085938 39.566406 C 205.671875 38.714844 205.648438 38.273438 204.96875 37.585938 C 204.273438 36.890625 203.640625 36.101562 203.257812 35.191406 " fill-opacity="1" fill-rule="nonzero"/><path fill="#ffffff" d="M 205.722656 44.867188 C 205.8125 45.046875 208.183594 48.648438 208.183594 48.648438 C 208.183594 48.648438 205.855469 50.191406 206.953125 51.402344 C 208.050781 52.613281 212.402344 50.734375 213.8125 47.695312 L 210.320312 42.257812 L 205.722656 44.867188 " fill-opacity="1" fill-rule="nonzero"/><path fill="#000000" d="M 205.722656 44.867188 Z M 206.023438 44.945312 C 206.386719 45.519531 207.554688 47.300781 208.363281 48.527344 C 208.429688 48.625 208.402344 48.761719 208.304688 48.828125 C 208.289062 48.835938 206.988281 49.710938 206.882812 50.578125 C 206.851562 50.828125 206.925781 51.050781 207.113281 51.257812 C 207.355469 51.523438 207.839844 51.617188 208.476562 51.519531 C 210.167969 51.261719 212.566406 49.738281 213.5625 47.710938 L 210.25 42.546875 Z M 208.011719 51.992188 C 207.472656 51.992188 207.058594 51.839844 206.792969 51.546875 C 206.519531 51.246094 206.402344 50.902344 206.453125 50.523438 C 206.558594 49.671875 207.488281 48.890625 207.886719 48.59375 C 207.316406 47.726562 205.613281 45.132812 205.527344 44.964844 C 205.476562 44.863281 205.515625 44.734375 205.613281 44.679688 L 210.210938 42.066406 C 210.3125 42.011719 210.441406 42.042969 210.5 42.140625 L 213.992188 47.578125 C 214.035156 47.640625 214.039062 47.71875 214.007812 47.785156 C 212.96875 50.027344 210.414062 51.664062 208.542969 51.949219 C 208.355469 51.976562 208.175781 51.992188 208.011719 51.992188 " fill-opacity="1" fill-rule="nonzero"/><path fill="#ffffff" d="M 210.546875 43.628906 C 210.546875 43.628906 207.917969 47.632812 204.09375 45.984375 C 201.113281 44.699219 205.050781 37.070312 205.53125 36.375 C 205.53125 36.375 207.46875 37.359375 208.902344 36.988281 C 210.34375 36.621094 211.285156 35.800781 212.105469 36.824219 C 212.925781 37.847656 209.542969 39.675781 211.285156 40.761719 C 211.285156 40.761719 213.457031 39.613281 214.257812 41.046875 C 215.058594 42.480469 212.144531 44.511719 210.546875 43.628906 " fill-opacity="1" fill-rule="nonzero"/><path fill="#000000" d="M 205.609375 36.652344 C 204.953125 37.753906 202.667969 42.480469 203.320312 44.75 C 203.46875 45.261719 203.75 45.601562 204.179688 45.785156 C 207.789062 47.34375 210.261719 43.667969 210.367188 43.511719 C 210.429688 43.417969 210.554688 43.386719 210.652344 43.441406 C 211.527344 43.921875 212.875 43.410156 213.621094 42.660156 C 213.867188 42.410156 214.410156 41.765625 214.066406 41.152344 C 213.378906 39.917969 211.40625 40.941406 211.386719 40.953125 C 211.316406 40.988281 211.238281 40.984375 211.171875 40.945312 C 210.835938 40.734375 210.636719 40.476562 210.578125 40.175781 C 210.46875 39.582031 210.925781 38.972656 211.363281 38.382812 C 211.867188 37.71875 212.175781 37.257812 211.933594 36.960938 C 211.449219 36.351562 210.96875 36.496094 210.011719 36.851562 C 209.699219 36.96875 209.34375 37.101562 208.957031 37.199219 C 207.703125 37.519531 206.136719 36.890625 205.609375 36.652344 Z M 205.925781 46.597656 C 205.328125 46.597656 204.6875 46.476562 204.007812 46.183594 C 203.457031 45.949219 203.085938 45.503906 202.902344 44.871094 C 202.121094 42.152344 205.058594 36.679688 205.351562 36.25 C 205.414062 36.164062 205.53125 36.132812 205.628906 36.183594 C 205.648438 36.191406 207.507812 37.125 208.851562 36.78125 C 209.214844 36.6875 209.542969 36.5625 209.859375 36.445312 C 210.738281 36.117188 211.570312 35.808594 212.273438 36.691406 C 212.742188 37.273438 212.21875 37.96875 211.710938 38.644531 C 211.328125 39.15625 210.929688 39.691406 211.003906 40.09375 C 211.035156 40.246094 211.132812 40.382812 211.300781 40.507812 C 212.15625 40.097656 213.765625 39.71875 214.445312 40.941406 C 214.785156 41.542969 214.589844 42.300781 213.929688 42.964844 C 213.097656 43.800781 211.671875 44.34375 210.617188 43.90625 C 210.171875 44.5 208.421875 46.597656 205.925781 46.597656 " fill-opacity="1" fill-rule="nonzero"/><path fill="#000000" d="M 212.746094 42.53125 C 212.710938 42.53125 212.671875 42.523438 212.636719 42.5 C 212.277344 42.292969 211.820312 42.269531 211.441406 42.445312 C 211.335938 42.496094 211.207031 42.449219 211.15625 42.339844 C 211.105469 42.230469 211.152344 42.101562 211.261719 42.050781 C 211.765625 41.816406 212.378906 41.847656 212.855469 42.128906 C 212.960938 42.1875 212.996094 42.320312 212.933594 42.425781 C 212.894531 42.492188 212.820312 42.53125 212.746094 42.53125 " fill-opacity="1" fill-rule="nonzero"/><g clip-path="url(#7c550e9c3b)"><path fill="#000000" d="M 270.566406 180.269531 L 209.378906 180.269531 C 209.261719 180.269531 209.164062 180.171875 209.164062 180.050781 C 209.164062 179.933594 209.261719 179.835938 209.378906 179.835938 L 270.566406 179.835938 C 270.6875 179.835938 270.785156 179.933594 270.785156 180.050781 C 270.785156 180.171875 270.6875 180.269531 270.566406 180.269531 " fill-opacity="1" fill-rule="nonzero"/></g><path fill="#ffffff" d="M 163.1875 146.089844 C 160.890625 153.121094 153.328125 156.960938 146.292969 154.667969 C 139.257812 152.371094 135.414062 144.804688 137.710938 137.773438 C 140.007812 130.738281 147.574219 126.894531 154.609375 129.191406 C 161.640625 131.488281 165.484375 139.054688 163.1875 146.089844 " fill-opacity="1" fill-rule="nonzero"/><path fill="#000000" d="M 163.1875 146.089844 Z M 150.457031 128.746094 C 144.910156 128.746094 139.730469 132.28125 137.917969 137.839844 C 136.828125 141.183594 137.101562 144.757812 138.695312 147.898438 C 140.289062 151.035156 143.011719 153.367188 146.359375 154.460938 C 153.269531 156.714844 160.726562 152.929688 162.980469 146.019531 C 165.238281 139.109375 161.449219 131.65625 154.539062 129.398438 C 153.1875 128.957031 151.8125 128.746094 150.457031 128.746094 Z M 150.441406 155.546875 C 149.042969 155.546875 147.625 155.328125 146.222656 154.871094 C 142.765625 153.742188 139.957031 151.335938 138.308594 148.09375 C 136.664062 144.851562 136.378906 141.160156 137.507812 137.703125 C 139.835938 130.566406 147.539062 126.65625 154.675781 128.988281 C 161.8125 131.316406 165.722656 139.019531 163.394531 146.15625 C 161.519531 151.894531 156.171875 155.546875 150.441406 155.546875 " fill-opacity="1" fill-rule="nonzero"/><path fill="#ffffff" d="M 160.464844 145.199219 C 158.65625 150.730469 152.710938 153.75 147.179688 151.945312 C 141.648438 150.136719 138.628906 144.191406 140.4375 138.660156 C 142.242188 133.128906 148.1875 130.109375 153.71875 131.914062 C 159.25 133.722656 162.269531 139.667969 160.464844 145.199219 " fill-opacity="1" fill-rule="nonzero"/><path fill="#000000" d="M 150.4375 131.605469 C 148.835938 131.605469 147.246094 131.984375 145.777344 132.730469 C 143.320312 133.976562 141.496094 136.109375 140.640625 138.726562 C 139.785156 141.347656 140.003906 144.144531 141.25 146.601562 C 142.5 149.058594 144.628906 150.882812 147.25 151.738281 C 149.867188 152.59375 152.664062 152.375 155.121094 151.128906 C 157.578125 149.882812 159.402344 147.75 160.257812 145.132812 C 161.113281 142.511719 160.894531 139.714844 159.648438 137.257812 C 158.402344 134.800781 156.269531 132.976562 153.652344 132.121094 C 152.597656 131.777344 151.515625 131.605469 150.4375 131.605469 Z M 150.441406 152.679688 C 149.339844 152.679688 148.21875 152.511719 147.113281 152.148438 C 144.382812 151.257812 142.164062 149.355469 140.863281 146.796875 C 139.5625 144.238281 139.339844 141.324219 140.230469 138.59375 C 142.070312 132.957031 148.152344 129.871094 153.785156 131.710938 C 156.515625 132.601562 158.734375 134.5 160.035156 137.0625 C 161.335938 139.621094 161.5625 142.535156 160.671875 145.265625 L 160.464844 145.199219 L 160.671875 145.265625 C 159.191406 149.796875 154.96875 152.679688 150.441406 152.679688 " fill-opacity="1" fill-rule="nonzero"/><path fill="#ffffff" d="M 147.210938 149.625 L 147.847656 147.679688 C 146.738281 147.296875 145.691406 146.570312 145.175781 145.871094 L 146.058594 144.730469 C 146.601562 145.417969 147.484375 146.113281 148.5625 146.464844 C 149.933594 146.910156 151.113281 146.421875 151.472656 145.324219 C 151.820312 144.265625 151.28125 143.363281 150.042969 142.320312 C 148.332031 140.90625 147.40625 139.625 147.953125 137.949219 C 148.476562 136.347656 150.007812 135.503906 151.875 135.796875 L 152.511719 133.847656 L 153.707031 134.238281 L 153.097656 136.109375 C 154.238281 136.523438 154.929688 137.089844 155.382812 137.601562 L 154.484375 138.714844 C 154.15625 138.351562 153.503906 137.671875 152.269531 137.265625 C 150.785156 136.785156 149.9375 137.488281 149.6875 138.257812 C 149.359375 139.261719 149.910156 139.992188 151.359375 141.234375 C 153.078125 142.691406 153.753906 144.023438 153.195312 145.738281 C 152.695312 147.257812 151.171875 148.339844 149.082031 148.019531 L 148.425781 150.023438 L 147.210938 149.625 " fill-opacity="1" fill-rule="nonzero"/><path fill="#000000" d="M 147.484375 149.488281 L 148.285156 149.75 L 148.875 147.949219 C 148.90625 147.851562 149.011719 147.789062 149.113281 147.804688 C 150.953125 148.085938 152.472656 147.246094 152.988281 145.667969 C 153.492188 144.128906 152.980469 142.890625 151.21875 141.398438 C 149.773438 140.164062 149.109375 139.328125 149.480469 138.191406 C 149.636719 137.707031 149.972656 137.320312 150.421875 137.097656 C 150.949219 136.835938 151.609375 136.824219 152.335938 137.0625 C 153.457031 137.425781 154.117188 138.015625 154.472656 138.382812 L 155.09375 137.609375 C 154.558594 137.046875 153.875 136.621094 153.023438 136.3125 C 152.910156 136.273438 152.855469 136.152344 152.890625 136.042969 L 153.433594 134.378906 L 152.652344 134.121094 L 152.082031 135.863281 C 152.050781 135.964844 151.949219 136.027344 151.84375 136.007812 C 150.089844 135.738281 148.644531 136.523438 148.160156 138.015625 C 147.703125 139.417969 148.269531 140.578125 150.183594 142.152344 C 151.585938 143.335938 152.035156 144.304688 151.679688 145.390625 C 151.484375 145.988281 151.058594 146.441406 150.476562 146.675781 C 149.898438 146.90625 149.214844 146.902344 148.496094 146.667969 C 147.574219 146.367188 146.699219 145.792969 146.066406 145.074219 L 145.449219 145.867188 C 145.980469 146.507812 146.945312 147.140625 147.917969 147.476562 C 148.03125 147.511719 148.089844 147.632812 148.054688 147.746094 Z M 148.425781 150.238281 C 148.402344 150.238281 148.382812 150.234375 148.359375 150.226562 L 147.144531 149.832031 C 147.089844 149.8125 147.042969 149.777344 147.019531 149.722656 C 146.992188 149.671875 146.988281 149.613281 147.007812 149.558594 L 147.578125 147.8125 C 146.519531 147.40625 145.523438 146.710938 145 145.996094 C 144.945312 145.917969 144.945312 145.8125 145.003906 145.738281 L 145.886719 144.597656 C 145.929688 144.542969 145.992188 144.511719 146.058594 144.511719 C 146.125 144.511719 146.1875 144.542969 146.230469 144.59375 C 146.820312 145.347656 147.699219 145.953125 148.632812 146.257812 C 149.25 146.460938 149.832031 146.464844 150.316406 146.273438 C 150.78125 146.085938 151.109375 145.734375 151.269531 145.257812 C 151.5625 144.351562 151.167969 143.550781 149.90625 142.484375 C 148.40625 141.25 147.109375 139.839844 147.746094 137.878906 C 148.285156 136.230469 149.835938 135.332031 151.726562 135.558594 L 152.304688 133.78125 C 152.324219 133.726562 152.363281 133.683594 152.414062 133.65625 C 152.464844 133.628906 152.523438 133.625 152.578125 133.644531 L 153.773438 134.03125 C 153.828125 134.050781 153.875 134.089844 153.898438 134.140625 C 153.925781 134.191406 153.929688 134.25 153.910156 134.304688 L 153.367188 135.980469 C 154.261719 136.332031 154.976562 136.820312 155.542969 137.457031 C 155.613281 137.535156 155.617188 137.65625 155.550781 137.734375 L 154.652344 138.851562 C 154.613281 138.902344 154.554688 138.929688 154.492188 138.933594 C 154.429688 138.933594 154.367188 138.90625 154.324219 138.859375 C 154.054688 138.566406 153.429688 137.875 152.203125 137.472656 C 151.585938 137.273438 151.035156 137.277344 150.613281 137.484375 C 150.269531 137.65625 150.015625 137.953125 149.894531 138.324219 C 149.621094 139.15625 149.980469 139.769531 151.5 141.070312 C 153.390625 142.671875 153.960938 144.089844 153.398438 145.804688 C 152.933594 147.234375 151.46875 148.519531 149.230469 148.257812 L 148.632812 150.089844 C 148.601562 150.179688 148.515625 150.238281 148.425781 150.238281 " fill-opacity="1" fill-rule="nonzero"/><path fill="#ffffff" d="M 138.964844 150.660156 L 165.820312 150.660156 C 166.679688 150.660156 167.375 151.359375 167.375 152.21875 L 167.375 154.980469 C 167.375 155.839844 166.679688 156.539062 165.820312 156.539062 L 138.964844 156.539062 C 138.105469 156.539062 137.410156 155.839844 137.410156 154.980469 L 137.410156 152.21875 C 137.410156 151.359375 138.105469 150.660156 138.964844 150.660156 " fill-opacity="1" fill-rule="nonzero"/><path fill="#000000" d="M 138.964844 150.878906 C 138.226562 150.878906 137.625 151.480469 137.625 152.21875 L 137.625 154.980469 C 137.625 155.71875 138.226562 156.320312 138.964844 156.320312 L 165.820312 156.320312 C 166.558594 156.320312 167.160156 155.71875 167.160156 154.980469 L 167.160156 152.21875 C 167.160156 151.480469 166.558594 150.878906 165.820312 150.878906 Z M 165.820312 156.753906 L 138.964844 156.753906 C 137.988281 156.753906 137.191406 155.960938 137.191406 154.980469 L 137.191406 152.21875 C 137.191406 151.242188 137.988281 150.445312 138.964844 150.445312 L 165.820312 150.445312 C 166.796875 150.445312 167.59375 151.242188 167.59375 152.21875 L 167.59375 154.980469 C 167.59375 155.960938 166.796875 156.753906 165.820312 156.753906 " fill-opacity="1" fill-rule="nonzero"/><path fill="#000000" d="M 140.609375 155.578125 C 140.488281 155.578125 140.390625 155.480469 140.390625 155.363281 L 140.390625 151.640625 C 140.390625 151.519531 140.488281 151.425781 140.609375 151.425781 C 140.730469 151.425781 140.824219 151.519531 140.824219 151.640625 L 140.824219 155.363281 C 140.824219 155.480469 140.730469 155.578125 140.609375 155.578125 " fill-opacity="1" fill-rule="nonzero"/><path fill="#000000" d="M 142.613281 155.578125 C 142.492188 155.578125 142.394531 155.480469 142.394531 155.363281 L 142.394531 151.640625 C 142.394531 151.519531 142.492188 151.425781 142.613281 151.425781 C 142.734375 151.425781 142.828125 151.519531 142.828125 151.640625 L 142.828125 155.363281 C 142.828125 155.480469 142.734375 155.578125 142.613281 155.578125 " fill-opacity="1" fill-rule="nonzero"/><path fill="#000000" d="M 146.621094 155.578125 C 146.5 155.578125 146.402344 155.480469 146.402344 155.363281 L 146.402344 151.640625 C 146.402344 151.519531 146.5 151.425781 146.621094 151.425781 C 146.742188 151.425781 146.835938 151.519531 146.835938 151.640625 L 146.835938 155.363281 C 146.835938 155.480469 146.742188 155.578125 146.621094 155.578125 " fill-opacity="1" fill-rule="nonzero"/><path fill="#000000" d="M 152.632812 155.578125 C 152.511719 155.578125 152.414062 155.480469 152.414062 155.363281 L 152.414062 151.640625 C 152.414062 151.519531 152.511719 151.425781 152.632812 151.425781 C 152.753906 151.425781 152.851562 151.519531 152.851562 151.640625 L 152.851562 155.363281 C 152.851562 155.480469 152.753906 155.578125 152.632812 155.578125 " fill-opacity="1" fill-rule="nonzero"/><path fill="#000000" d="M 154.636719 155.578125 C 154.515625 155.578125 154.417969 155.480469 154.417969 155.363281 L 154.417969 151.640625 C 154.417969 151.519531 154.515625 151.425781 154.636719 151.425781 C 154.757812 151.425781 154.851562 151.519531 154.851562 151.640625 L 154.851562 155.363281 C 154.851562 155.480469 154.757812 155.578125 154.636719 155.578125 " fill-opacity="1" fill-rule="nonzero"/><g clip-path="url(#5ea8c3f553)"><path fill="#ffffff" d="M 161.8125 180.054688 L 134.957031 180.054688 C 134.097656 180.054688 133.402344 179.359375 133.402344 178.5 L 133.402344 175.734375 C 133.402344 174.875 134.097656 174.179688 134.957031 174.179688 L 161.8125 174.179688 C 162.671875 174.179688 163.371094 174.875 163.371094 175.734375 L 163.371094 178.5 C 163.371094 179.359375 162.671875 180.054688 161.8125 180.054688 " fill-opacity="1" fill-rule="nonzero"/></g><g clip-path="url(#e3d58e794f)"><path fill="#000000" d="M 134.957031 174.394531 C 134.21875 174.394531 133.617188 174.996094 133.617188 175.734375 L 133.617188 178.5 C 133.617188 179.238281 134.21875 179.839844 134.957031 179.839844 L 161.8125 179.839844 C 162.550781 179.839844 163.152344 179.238281 163.152344 178.5 L 163.152344 175.734375 C 163.152344 174.996094 162.550781 174.394531 161.8125 174.394531 Z M 161.8125 180.273438 L 134.957031 180.273438 C 133.980469 180.273438 133.183594 179.476562 133.183594 178.5 L 133.183594 175.734375 C 133.183594 174.757812 133.980469 173.960938 134.957031 173.960938 L 161.8125 173.960938 C 162.789062 173.960938 163.585938 174.757812 163.585938 175.734375 L 163.585938 178.5 C 163.585938 179.476562 162.789062 180.273438 161.8125 180.273438 " fill-opacity="1" fill-rule="nonzero"/></g><path fill="#000000" d="M 160.167969 179.292969 C 160.050781 179.292969 159.953125 179.195312 159.953125 179.074219 L 159.953125 175.355469 C 159.953125 175.234375 160.050781 175.136719 160.167969 175.136719 C 160.289062 175.136719 160.386719 175.234375 160.386719 175.355469 L 160.386719 179.074219 C 160.386719 179.195312 160.289062 179.292969 160.167969 179.292969 " fill-opacity="1" fill-rule="nonzero"/><path fill="#000000" d="M 158.164062 179.292969 C 158.046875 179.292969 157.949219 179.195312 157.949219 179.074219 L 157.949219 175.355469 C 157.949219 175.234375 158.046875 175.136719 158.164062 175.136719 C 158.285156 175.136719 158.382812 175.234375 158.382812 175.355469 L 158.382812 179.074219 C 158.382812 179.195312 158.285156 179.292969 158.164062 179.292969 " fill-opacity="1" fill-rule="nonzero"/><path fill="#000000" d="M 154.15625 179.292969 C 154.039062 179.292969 153.941406 179.195312 153.941406 179.074219 L 153.941406 175.355469 C 153.941406 175.234375 154.039062 175.136719 154.15625 175.136719 C 154.277344 175.136719 154.375 175.234375 154.375 175.355469 L 154.375 179.074219 C 154.375 179.195312 154.277344 179.292969 154.15625 179.292969 " fill-opacity="1" fill-rule="nonzero"/><path fill="#000000" d="M 148.144531 179.292969 C 148.027344 179.292969 147.929688 179.195312 147.929688 179.074219 L 147.929688 175.355469 C 147.929688 175.234375 148.027344 175.136719 148.144531 175.136719 C 148.265625 175.136719 148.363281 175.234375 148.363281 175.355469 L 148.363281 179.074219 C 148.363281 179.195312 148.265625 179.292969 148.144531 179.292969 " fill-opacity="1" fill-rule="nonzero"/><path fill="#000000" d="M 146.140625 179.292969 C 146.023438 179.292969 145.925781 179.195312 145.925781 179.074219 L 145.925781 175.355469 C 145.925781 175.234375 146.023438 175.136719 146.140625 175.136719 C 146.261719 175.136719 146.359375 175.234375 146.359375 175.355469 L 146.359375 179.074219 C 146.359375 179.195312 146.261719 179.292969 146.140625 179.292969 " fill-opacity="1" fill-rule="nonzero"/><path fill="#ffffff" d="M 138.726562 168.253906 L 165.582031 168.253906 C 166.441406 168.253906 167.136719 168.949219 167.136719 169.808594 L 167.136719 172.574219 C 167.136719 173.433594 166.441406 174.128906 165.582031 174.128906 L 138.726562 174.128906 C 137.867188 174.128906 137.167969 173.433594 137.167969 172.574219 L 137.167969 169.808594 C 137.167969 168.949219 137.867188 168.253906 138.726562 168.253906 " fill-opacity="1" fill-rule="nonzero"/><path fill="#000000" d="M 138.726562 168.46875 C 137.988281 168.46875 137.386719 169.070312 137.386719 169.808594 L 137.386719 172.574219 C 137.386719 173.3125 137.988281 173.910156 138.726562 173.910156 L 165.582031 173.910156 C 166.320312 173.910156 166.921875 173.3125 166.921875 172.574219 L 166.921875 169.808594 C 166.921875 169.070312 166.320312 168.46875 165.582031 168.46875 Z M 165.582031 174.347656 L 138.726562 174.347656 C 137.75 174.347656 136.953125 173.550781 136.953125 172.574219 L 136.953125 169.808594 C 136.953125 168.832031 137.75 168.035156 138.726562 168.035156 L 165.582031 168.035156 C 166.558594 168.035156 167.355469 168.832031 167.355469 169.808594 L 167.355469 172.574219 C 167.355469 173.550781 166.558594 174.347656 165.582031 174.347656 " fill-opacity="1" fill-rule="nonzero"/><path fill="#000000" d="M 140.371094 173.171875 C 140.25 173.171875 140.152344 173.074219 140.152344 172.953125 L 140.152344 169.234375 C 140.152344 169.113281 140.25 169.015625 140.371094 169.015625 C 140.488281 169.015625 140.585938 169.113281 140.585938 169.234375 L 140.585938 172.953125 C 140.585938 173.074219 140.488281 173.171875 140.371094 173.171875 " fill-opacity="1" fill-rule="nonzero"/><path fill="#000000" d="M 142.375 173.171875 C 142.253906 173.171875 142.15625 173.074219 142.15625 172.953125 L 142.15625 169.234375 C 142.15625 169.113281 142.253906 169.015625 142.375 169.015625 C 142.492188 169.015625 142.589844 169.113281 142.589844 169.234375 L 142.589844 172.953125 C 142.589844 173.074219 142.492188 173.171875 142.375 173.171875 " fill-opacity="1" fill-rule="nonzero"/><path fill="#000000" d="M 146.382812 173.171875 C 146.261719 173.171875 146.164062 173.074219 146.164062 172.953125 L 146.164062 169.234375 C 146.164062 169.113281 146.261719 169.015625 146.382812 169.015625 C 146.5 169.015625 146.597656 169.113281 146.597656 169.234375 L 146.597656 172.953125 C 146.597656 173.074219 146.5 173.171875 146.382812 173.171875 " fill-opacity="1" fill-rule="nonzero"/><path fill="#000000" d="M 152.394531 173.171875 C 152.273438 173.171875 152.175781 173.074219 152.175781 172.953125 L 152.175781 169.234375 C 152.175781 169.113281 152.273438 169.015625 152.394531 169.015625 C 152.511719 169.015625 152.609375 169.113281 152.609375 169.234375 L 152.609375 172.953125 C 152.609375 173.074219 152.511719 173.171875 152.394531 173.171875 " fill-opacity="1" fill-rule="nonzero"/><path fill="#000000" d="M 154.398438 173.171875 C 154.277344 173.171875 154.179688 173.074219 154.179688 172.953125 L 154.179688 169.234375 C 154.179688 169.113281 154.277344 169.015625 154.398438 169.015625 C 154.515625 169.015625 154.613281 169.113281 154.613281 169.234375 L 154.613281 172.953125 C 154.613281 173.074219 154.515625 173.171875 154.398438 173.171875 " fill-opacity="1" fill-rule="nonzero"/><path fill="#ffffff" d="M 162.550781 168.203125 L 135.695312 168.203125 C 134.835938 168.203125 134.140625 167.507812 134.140625 166.644531 L 134.140625 163.882812 C 134.140625 163.023438 134.835938 162.324219 135.695312 162.324219 L 162.550781 162.324219 C 163.410156 162.324219 164.105469 163.023438 164.105469 163.882812 L 164.105469 166.644531 C 164.105469 167.507812 163.410156 168.203125 162.550781 168.203125 " fill-opacity="1" fill-rule="nonzero"/><path fill="#000000" d="M 135.695312 162.542969 C 134.957031 162.542969 134.355469 163.144531 134.355469 163.882812 L 134.355469 166.648438 C 134.355469 167.386719 134.957031 167.984375 135.695312 167.984375 L 162.550781 167.984375 C 163.289062 167.984375 163.890625 167.386719 163.890625 166.648438 L 163.890625 163.882812 C 163.890625 163.144531 163.289062 162.542969 162.550781 162.542969 Z M 162.550781 168.417969 L 135.695312 168.417969 C 134.71875 168.417969 133.921875 167.625 133.921875 166.648438 L 133.921875 163.882812 C 133.921875 162.90625 134.71875 162.109375 135.695312 162.109375 L 162.550781 162.109375 C 163.527344 162.109375 164.324219 162.90625 164.324219 163.882812 L 164.324219 166.648438 C 164.324219 167.625 163.527344 168.417969 162.550781 168.417969 " fill-opacity="1" fill-rule="nonzero"/><path fill="#000000" d="M 160.90625 167.441406 C 160.789062 167.441406 160.691406 167.34375 160.691406 167.222656 L 160.691406 163.5 C 160.691406 163.382812 160.789062 163.285156 160.90625 163.285156 C 161.027344 163.285156 161.125 163.382812 161.125 163.5 L 161.125 167.222656 C 161.125 167.34375 161.027344 167.441406 160.90625 167.441406 " fill-opacity="1" fill-rule="nonzero"/><path fill="#000000" d="M 158.902344 167.441406 C 158.785156 167.441406 158.6875 167.34375 158.6875 167.222656 L 158.6875 163.5 C 158.6875 163.382812 158.785156 163.285156 158.902344 163.285156 C 159.023438 163.285156 159.121094 163.382812 159.121094 163.5 L 159.121094 167.222656 C 159.121094 167.34375 159.023438 167.441406 158.902344 167.441406 " fill-opacity="1" fill-rule="nonzero"/><path fill="#000000" d="M 154.894531 167.441406 C 154.777344 167.441406 154.679688 167.34375 154.679688 167.222656 L 154.679688 163.5 C 154.679688 163.382812 154.777344 163.285156 154.894531 163.285156 C 155.015625 163.285156 155.113281 163.382812 155.113281 163.5 L 155.113281 167.222656 C 155.113281 167.34375 155.015625 167.441406 154.894531 167.441406 " fill-opacity="1" fill-rule="nonzero"/><path fill="#000000" d="M 148.882812 167.441406 C 148.765625 167.441406 148.667969 167.34375 148.667969 167.222656 L 148.667969 163.5 C 148.667969 163.382812 148.765625 163.285156 148.882812 163.285156 C 149.003906 163.285156 149.101562 163.382812 149.101562 163.5 L 149.101562 167.222656 C 149.101562 167.34375 149.003906 167.441406 148.882812 167.441406 " fill-opacity="1" fill-rule="nonzero"/><path fill="#000000" d="M 146.878906 167.441406 C 146.761719 167.441406 146.664062 167.34375 146.664062 167.222656 L 146.664062 163.5 C 146.664062 163.382812 146.761719 163.285156 146.878906 163.285156 C 147 163.285156 147.097656 163.382812 147.097656 163.5 L 147.097656 167.222656 C 147.097656 167.34375 147 167.441406 146.878906 167.441406 " fill-opacity="1" fill-rule="nonzero"/><path fill="#ffffff" d="M 137.761719 156.574219 L 164.617188 156.574219 C 165.476562 156.574219 166.171875 157.273438 166.171875 158.132812 L 166.171875 160.894531 C 166.171875 161.753906 165.476562 162.453125 164.617188 162.453125 L 137.761719 162.453125 C 136.902344 162.453125 136.203125 161.753906 136.203125 160.894531 L 136.203125 158.132812 C 136.203125 157.273438 136.902344 156.574219 137.761719 156.574219 " fill-opacity="1" fill-rule="nonzero"/><path fill="#000000" d="M 137.761719 156.792969 C 137.019531 156.792969 136.421875 157.394531 136.421875 158.132812 L 136.421875 160.894531 C 136.421875 161.632812 137.019531 162.234375 137.761719 162.234375 L 164.617188 162.234375 C 165.355469 162.234375 165.953125 161.632812 165.953125 160.894531 L 165.953125 158.132812 C 165.953125 157.394531 165.355469 156.792969 164.617188 156.792969 Z M 164.617188 162.667969 L 137.761719 162.667969 C 136.78125 162.667969 135.988281 161.875 135.988281 160.894531 L 135.988281 158.132812 C 135.988281 157.15625 136.78125 156.359375 137.761719 156.359375 L 164.617188 156.359375 C 165.59375 156.359375 166.386719 157.15625 166.386719 158.132812 L 166.386719 160.894531 C 166.386719 161.875 165.59375 162.667969 164.617188 162.667969 " fill-opacity="1" fill-rule="nonzero"/><path fill="#000000" d="M 139.402344 161.492188 C 139.285156 161.492188 139.1875 161.398438 139.1875 161.277344 L 139.1875 157.554688 C 139.1875 157.433594 139.285156 157.339844 139.402344 157.339844 C 139.523438 157.339844 139.621094 157.433594 139.621094 157.554688 L 139.621094 161.277344 C 139.621094 161.398438 139.523438 161.492188 139.402344 161.492188 " fill-opacity="1" fill-rule="nonzero"/><path fill="#000000" d="M 141.40625 161.492188 C 141.289062 161.492188 141.191406 161.398438 141.191406 161.277344 L 141.191406 157.554688 C 141.191406 157.433594 141.289062 157.339844 141.40625 157.339844 C 141.527344 157.339844 141.625 157.433594 141.625 157.554688 L 141.625 161.277344 C 141.625 161.398438 141.527344 161.492188 141.40625 161.492188 " fill-opacity="1" fill-rule="nonzero"/><path fill="#000000" d="M 145.414062 161.492188 C 145.296875 161.492188 145.199219 161.398438 145.199219 161.277344 L 145.199219 157.554688 C 145.199219 157.433594 145.296875 157.339844 145.414062 157.339844 C 145.535156 157.339844 145.632812 157.433594 145.632812 157.554688 L 145.632812 161.277344 C 145.632812 161.398438 145.535156 161.492188 145.414062 161.492188 " fill-opacity="1" fill-rule="nonzero"/><path fill="#000000" d="M 151.425781 161.492188 C 151.308594 161.492188 151.210938 161.398438 151.210938 161.277344 L 151.210938 157.554688 C 151.210938 157.433594 151.308594 157.339844 151.425781 157.339844 C 151.546875 157.339844 151.644531 157.433594 151.644531 157.554688 L 151.644531 161.277344 C 151.644531 161.398438 151.546875 161.492188 151.425781 161.492188 " fill-opacity="1" fill-rule="nonzero"/><path fill="#000000" d="M 153.429688 161.492188 C 153.3125 161.492188 153.214844 161.398438 153.214844 161.277344 L 153.214844 157.554688 C 153.214844 157.433594 153.3125 157.339844 153.429688 157.339844 C 153.550781 157.339844 153.648438 157.433594 153.648438 157.554688 L 153.648438 161.277344 C 153.648438 161.398438 153.550781 161.492188 153.429688 161.492188 " fill-opacity="1" fill-rule="nonzero"/><path fill="#000000" d="M 114.011719 147.886719 L 114.011719 144.761719 C 114.011719 143.917969 114.699219 143.234375 115.542969 143.234375 L 127.785156 143.234375 C 128.628906 143.234375 129.3125 143.917969 129.3125 144.761719 L 129.3125 147.886719 L 131.203125 147.886719 L 131.203125 144.761719 C 131.203125 142.878906 129.667969 141.34375 127.785156 141.34375 L 115.542969 141.34375 C 113.65625 141.34375 112.125 142.878906 112.125 144.761719 L 112.125 147.886719 L 114.011719 147.886719 " fill-opacity="1" fill-rule="nonzero"/><path fill="#ffffff" d="M 114.511719 149.289062 L 111.773438 149.289062 C 110.933594 149.289062 110.246094 148.605469 110.246094 147.765625 L 110.246094 147.097656 C 110.246094 146.261719 110.933594 145.574219 111.773438 145.574219 L 114.511719 145.574219 C 115.347656 145.574219 116.035156 146.261719 116.035156 147.097656 L 116.035156 147.765625 C 116.035156 148.605469 115.347656 149.289062 114.511719 149.289062 " fill-opacity="1" fill-rule="nonzero"/><path fill="#000000" d="M 111.773438 145.792969 C 111.050781 145.792969 110.464844 146.378906 110.464844 147.097656 L 110.464844 147.765625 C 110.464844 148.484375 111.050781 149.074219 111.773438 149.074219 L 114.511719 149.074219 C 115.230469 149.074219 115.816406 148.484375 115.816406 147.765625 L 115.816406 147.097656 C 115.816406 146.378906 115.230469 145.792969 114.511719 145.792969 Z M 114.511719 149.503906 L 111.773438 149.503906 C 110.8125 149.503906 110.03125 148.726562 110.03125 147.765625 L 110.03125 147.097656 C 110.03125 146.136719 110.8125 145.355469 111.773438 145.355469 L 114.511719 145.355469 C 115.46875 145.355469 116.25 146.136719 116.25 147.097656 L 116.25 147.765625 C 116.25 148.726562 115.46875 149.503906 114.511719 149.503906 " fill-opacity="1" fill-rule="nonzero"/><path fill="#ffffff" d="M 131.546875 149.289062 L 128.808594 149.289062 C 127.96875 149.289062 127.285156 148.605469 127.285156 147.765625 L 127.285156 147.097656 C 127.285156 146.261719 127.96875 145.574219 128.808594 145.574219 L 131.546875 145.574219 C 132.382812 145.574219 133.070312 146.261719 133.070312 147.097656 L 133.070312 147.765625 C 133.070312 148.605469 132.382812 149.289062 131.546875 149.289062 " fill-opacity="1" fill-rule="nonzero"/><path fill="#000000" d="M 128.808594 145.792969 C 128.085938 145.792969 127.5 146.378906 127.5 147.097656 L 127.5 147.765625 C 127.5 148.484375 128.085938 149.074219 128.808594 149.074219 L 131.546875 149.074219 C 132.265625 149.074219 132.851562 148.484375 132.851562 147.765625 L 132.851562 147.097656 C 132.851562 146.378906 132.265625 145.792969 131.546875 145.792969 Z M 131.546875 149.503906 L 128.808594 149.503906 C 127.847656 149.503906 127.066406 148.726562 127.066406 147.765625 L 127.066406 147.097656 C 127.066406 146.136719 127.847656 145.355469 128.808594 145.355469 L 131.546875 145.355469 C 132.503906 145.355469 133.285156 146.136719 133.285156 147.097656 L 133.285156 147.765625 C 133.285156 148.726562 132.503906 149.503906 131.546875 149.503906 " fill-opacity="1" fill-rule="nonzero"/><g clip-path="url(#e3f310e881)"><path fill="#ffffff" d="M 148.921875 180.054688 L 101.65625 180.054688 L 104.664062 147.085938 L 144.378906 147.085938 L 148.921875 180.054688 " fill-opacity="1" fill-rule="nonzero"/></g><g clip-path="url(#7329f28708)"><path fill="#000000" d="M 101.890625 179.839844 L 148.671875 179.839844 L 144.1875 147.300781 L 104.863281 147.300781 Z M 148.921875 180.273438 L 101.65625 180.273438 C 101.59375 180.273438 101.535156 180.246094 101.496094 180.199219 C 101.453125 180.15625 101.433594 180.097656 101.4375 180.035156 L 104.449219 147.066406 C 104.460938 146.953125 104.554688 146.867188 104.664062 146.867188 L 144.378906 146.867188 C 144.484375 146.867188 144.578125 146.949219 144.59375 147.054688 L 149.136719 180.027344 C 149.144531 180.085938 149.125 180.152344 149.085938 180.199219 C 149.042969 180.246094 148.984375 180.273438 148.921875 180.273438 " fill-opacity="1" fill-rule="nonzero"/></g><g clip-path="url(#114f404839)"><path fill="#000000" d="M 146.152344 180.273438 C 146.046875 180.273438 145.953125 180.191406 145.9375 180.082031 L 143.628906 161.902344 C 143.613281 161.785156 143.699219 161.675781 143.816406 161.660156 C 143.9375 161.648438 144.042969 161.730469 144.058594 161.847656 L 146.367188 180.027344 C 146.382812 180.148438 146.300781 180.253906 146.179688 180.269531 C 146.171875 180.269531 146.160156 180.273438 146.152344 180.273438 " fill-opacity="1" fill-rule="nonzero"/></g><g clip-path="url(#0126131d00)"><path fill="#ffffff" d="M 143.113281 180.054688 L 95.847656 180.054688 L 99.605469 147.085938 L 140.105469 147.085938 L 143.113281 180.054688 " fill-opacity="1" fill-rule="nonzero"/></g><g clip-path="url(#44c02d0d76)"><path fill="#000000" d="M 96.089844 179.839844 L 142.878906 179.839844 L 139.90625 147.300781 L 99.796875 147.300781 Z M 143.113281 180.273438 L 95.847656 180.273438 C 95.785156 180.273438 95.726562 180.246094 95.6875 180.199219 C 95.644531 180.152344 95.625 180.09375 95.632812 180.03125 L 99.390625 147.058594 C 99.402344 146.953125 99.496094 146.867188 99.605469 146.867188 L 140.105469 146.867188 C 140.214844 146.867188 140.308594 146.953125 140.320312 147.066406 L 143.332031 180.035156 C 143.335938 180.097656 143.316406 180.15625 143.273438 180.199219 C 143.234375 180.246094 143.175781 180.273438 143.113281 180.273438 " fill-opacity="1" fill-rule="nonzero"/></g><path fill="#000000" d="M 139.230469 162.757812 L 98.191406 162.757812 C 98.074219 162.757812 97.976562 162.660156 97.976562 162.539062 C 97.976562 162.421875 98.074219 162.324219 98.191406 162.324219 L 139 162.324219 L 138.496094 155.3125 C 138.484375 155.195312 138.578125 155.089844 138.695312 155.082031 C 138.816406 155.070312 138.917969 155.164062 138.925781 155.28125 L 139.449219 162.523438 C 139.453125 162.585938 139.429688 162.644531 139.390625 162.6875 C 139.347656 162.730469 139.292969 162.757812 139.230469 162.757812 " fill-opacity="1" fill-rule="nonzero"/><path fill="#ffffff" d="M 123.378906 165.386719 L 115.785156 165.386719 L 115.785156 161.875 L 123.378906 161.875 L 123.378906 165.386719 " fill-opacity="1" fill-rule="nonzero"/><path fill="#000000" d="M 116.003906 165.171875 L 123.160156 165.171875 L 123.160156 162.089844 L 116.003906 162.089844 Z M 123.378906 165.605469 L 115.785156 165.605469 C 115.667969 165.605469 115.570312 165.507812 115.570312 165.386719 L 115.570312 161.875 C 115.570312 161.753906 115.667969 161.660156 115.785156 161.660156 L 123.378906 161.660156 C 123.5 161.660156 123.59375 161.753906 123.59375 161.875 L 123.59375 165.386719 C 123.59375 165.507812 123.5 165.605469 123.378906 165.605469 " fill-opacity="1" fill-rule="nonzero"/><g clip-path="url(#f912b8a78a)"><g clip-path="url(#f45e522a53)"><g transform="matrix(1, 0, 0, 1, 26, 105)"><g clip-path="url(#c153f580b6)"><g clip-path="url(#5049fdb6cb)"><g clip-path="url(#79257bf750)"><rect x="-85.895" width="392.04" fill="#ffa240" height="260.279999" y="-144.765" fill-opacity="1"/></g></g></g></g></g></g></svg>