<svg xmlns="http://www.w3.org/2000/svg" xmlns:xlink="http://www.w3.org/1999/xlink" width="355" zoomAndPan="magnify" viewBox="0 0 266.25 177.749994" height="237" preserveAspectRatio="xMidYMid meet" version="1.0"><defs><clipPath id="76cbe604d7"><path d="M 107.101562 123.046875 L 109.964844 123.046875 L 109.964844 125.480469 L 107.101562 125.480469 Z M 107.101562 123.046875 " clip-rule="nonzero"/></clipPath><clipPath id="15633f76c9"><path d="M 109.953125 123.921875 C 108.679688 125.867188 107.484375 125.566406 107.261719 125.121094 C 106.960938 124.671875 107.1875 123.472656 107.558594 123.175781 C 108.007812 122.875 109.578125 123.25 109.578125 123.25 " clip-rule="nonzero"/></clipPath><clipPath id="c75e9382b0"><path d="M 0.101562 0.046875 L 2.964844 0.046875 L 2.964844 2.480469 L 0.101562 2.480469 Z M 0.101562 0.046875 " clip-rule="nonzero"/></clipPath><clipPath id="22526a3930"><path d="M 2.953125 0.921875 C 1.679688 2.867188 0.484375 2.566406 0.261719 2.121094 C -0.0390625 1.671875 0.1875 0.472656 0.558594 0.175781 C 1.007812 -0.125 2.578125 0.25 2.578125 0.25 " clip-rule="nonzero"/></clipPath><clipPath id="be2918ae13"><rect x="0" width="3" y="0" height="3"/></clipPath><clipPath id="c1519b894a"><path d="M 239 50 L 265.503906 50 L 265.503906 74 L 239 74 Z M 239 50 " clip-rule="nonzero"/></clipPath><clipPath id="b55f5da140"><path d="M 188 0.125 L 215 0.125 L 215 24 L 188 24 Z M 188 0.125 " clip-rule="nonzero"/></clipPath><clipPath id="d64a5b9a6c"><path d="M 67 170 L 160 170 L 160 177.375 L 67 177.375 Z M 67 170 " clip-rule="nonzero"/></clipPath><clipPath id="37a3286669"><path d="M 97 132 L 174 132 L 174 177.375 L 97 177.375 Z M 97 132 " clip-rule="nonzero"/></clipPath><clipPath id="63311c64ba"><path d="M 0 58 L 192 58 L 192 177.375 L 0 177.375 Z M 0 58 " clip-rule="nonzero"/></clipPath><clipPath id="e5ee2ea809"><path d="M 185 165 L 218 165 L 218 177.375 L 185 177.375 Z M 185 165 " clip-rule="nonzero"/></clipPath><clipPath id="45b02ca13f"><path d="M 179 176 L 223 176 L 223 177.375 L 179 177.375 Z M 179 176 " clip-rule="nonzero"/></clipPath><clipPath id="b9c9e10093"><path d="M 113.257812 6.410156 L 127.570312 6.410156 L 127.570312 27.203125 L 113.257812 27.203125 Z M 113.257812 6.410156 " clip-rule="nonzero"/></clipPath><clipPath id="8f9e19c252"><path d="M 131.488281 16.070312 C 131.488281 22.175781 126.535156 27.128906 120.429688 27.128906 C 114.320312 27.128906 109.367188 22.175781 109.367188 16.070312 C 109.367188 9.960938 114.320312 5.011719 120.429688 5.011719 C 126.535156 5.011719 131.488281 9.960938 131.488281 16.070312 Z M 131.488281 16.070312 " clip-rule="nonzero"/></clipPath><clipPath id="29ab0ab75b"><path d="M 109.292969 16.082031 L 131.535156 16.082031 L 131.535156 27.203125 L 109.292969 27.203125 Z M 109.292969 16.082031 " clip-rule="nonzero"/></clipPath><clipPath id="1a328542b8"><path d="M 131.488281 16.070312 C 131.488281 22.175781 126.535156 27.128906 120.429688 27.128906 C 114.320312 27.128906 109.367188 22.175781 109.367188 16.070312 C 109.367188 9.960938 114.320312 5.011719 120.429688 5.011719 C 126.535156 5.011719 131.488281 9.960938 131.488281 16.070312 Z M 131.488281 16.070312 " clip-rule="nonzero"/></clipPath><clipPath id="032182e9a6"><path d="M 109.292969 15.792969 L 131.535156 15.792969 L 131.535156 27.203125 L 109.292969 27.203125 Z M 109.292969 15.792969 " clip-rule="nonzero"/></clipPath><clipPath id="a4bf279687"><path d="M 131.488281 16.070312 C 131.488281 22.175781 126.535156 27.128906 120.429688 27.128906 C 114.320312 27.128906 109.367188 22.175781 109.367188 16.070312 C 109.367188 9.960938 114.320312 5.011719 120.429688 5.011719 C 126.535156 5.011719 131.488281 9.960938 131.488281 16.070312 Z M 131.488281 16.070312 " clip-rule="nonzero"/></clipPath><clipPath id="932d152807"><path d="M 115.09375 8.441406 L 125.832031 8.441406 L 125.832031 18.308594 L 115.09375 18.308594 Z M 115.09375 8.441406 " clip-rule="nonzero"/></clipPath><clipPath id="52e9073834"><path d="M 131.488281 16.070312 C 131.488281 22.175781 126.535156 27.128906 120.429688 27.128906 C 114.320312 27.128906 109.367188 22.175781 109.367188 16.070312 C 109.367188 9.960938 114.320312 5.011719 120.429688 5.011719 C 126.535156 5.011719 131.488281 9.960938 131.488281 16.070312 Z M 131.488281 16.070312 " clip-rule="nonzero"/></clipPath><clipPath id="3e917a5356"><path d="M 114.902344 8.152344 L 126 8.152344 L 126 18.5 L 114.902344 18.5 Z M 114.902344 8.152344 " clip-rule="nonzero"/></clipPath><clipPath id="57fdb124e3"><path d="M 131.488281 16.070312 C 131.488281 22.175781 126.535156 27.128906 120.429688 27.128906 C 114.320312 27.128906 109.367188 22.175781 109.367188 16.070312 C 109.367188 9.960938 114.320312 5.011719 120.429688 5.011719 C 126.535156 5.011719 131.488281 9.960938 131.488281 16.070312 Z M 131.488281 16.070312 " clip-rule="nonzero"/></clipPath><clipPath id="8a76d550be"><path d="M 116.351562 7.667969 L 124.574219 7.667969 L 124.574219 13.277344 L 116.351562 13.277344 Z M 116.351562 7.667969 " clip-rule="nonzero"/></clipPath><clipPath id="3dd72b978c"><path d="M 131.488281 16.070312 C 131.488281 22.175781 126.535156 27.128906 120.429688 27.128906 C 114.320312 27.128906 109.367188 22.175781 109.367188 16.070312 C 109.367188 9.960938 114.320312 5.011719 120.429688 5.011719 C 126.535156 5.011719 131.488281 9.960938 131.488281 16.070312 Z M 131.488281 16.070312 " clip-rule="nonzero"/></clipPath><clipPath id="629bf66af3"><path d="M 116.160156 9.3125 L 124.765625 9.3125 L 124.765625 13.566406 L 116.160156 13.566406 Z M 116.160156 9.3125 " clip-rule="nonzero"/></clipPath><clipPath id="7ad137a961"><path d="M 131.488281 16.070312 C 131.488281 22.175781 126.535156 27.128906 120.429688 27.128906 C 114.320312 27.128906 109.367188 22.175781 109.367188 16.070312 C 109.367188 9.960938 114.320312 5.011719 120.429688 5.011719 C 126.535156 5.011719 131.488281 9.960938 131.488281 16.070312 Z M 131.488281 16.070312 " clip-rule="nonzero"/></clipPath></defs><g clip-path="url(#76cbe604d7)"><g clip-path="url(#15633f76c9)"><g transform="matrix(1, 0, 0, 1, 107, 123)"><g clip-path="url(#be2918ae13)"><g clip-path="url(#c75e9382b0)"><g clip-path="url(#22526a3930)"><rect x="-165.575" width="383.4" fill="#ffa240" height="255.959991" y="-162.104999" fill-opacity="1"/></g></g></g></g></g></g><path fill="#ffa240" d="M 201.214844 70.707031 C 196.523438 70.707031 192.722656 66.90625 192.722656 62.214844 C 192.722656 57.527344 196.523438 53.722656 201.214844 53.722656 C 205.902344 53.722656 209.707031 57.527344 209.707031 62.214844 C 209.707031 66.90625 205.902344 70.707031 201.214844 70.707031 Z M 219.992188 57.644531 C 219.804688 57.644531 219.621094 57.660156 219.4375 57.679688 C 218.984375 55.84375 218.257812 54.117188 217.308594 52.539062 C 217.453125 52.425781 217.59375 52.304688 217.726562 52.171875 C 219.511719 50.386719 219.511719 47.492188 217.726562 45.703125 C 215.941406 43.917969 213.046875 43.917969 211.257812 45.703125 C 211.125 45.839844 211.007812 45.976562 210.890625 46.125 C 209.316406 45.171875 207.585938 44.449219 205.75 43.992188 C 205.773438 43.8125 205.789062 43.625 205.789062 43.4375 C 205.789062 40.914062 203.738281 38.863281 201.214844 38.863281 C 198.6875 38.863281 196.640625 40.914062 196.640625 43.4375 C 196.640625 43.625 196.65625 43.8125 196.675781 43.992188 C 194.84375 44.449219 193.113281 45.171875 191.535156 46.125 C 191.421875 45.976562 191.300781 45.839844 191.167969 45.703125 C 189.382812 43.917969 186.488281 43.917969 184.703125 45.703125 C 182.917969 47.492188 182.917969 50.386719 184.703125 52.171875 C 184.835938 52.304688 184.976562 52.425781 185.121094 52.539062 C 184.171875 54.117188 183.445312 55.84375 182.992188 57.679688 C 182.808594 57.660156 182.625 57.644531 182.4375 57.644531 C 179.910156 57.644531 177.863281 59.691406 177.863281 62.214844 C 177.863281 64.742188 179.910156 66.789062 182.4375 66.789062 C 182.625 66.789062 182.808594 66.773438 182.992188 66.753906 C 183.445312 68.585938 184.171875 70.316406 185.121094 71.894531 C 184.976562 72.007812 184.835938 72.128906 184.703125 72.261719 C 182.917969 74.046875 182.917969 76.941406 184.703125 78.730469 C 186.488281 80.515625 189.382812 80.515625 191.167969 78.730469 C 191.300781 78.59375 191.421875 78.453125 191.535156 78.308594 C 193.113281 79.261719 194.84375 79.984375 196.675781 80.441406 C 196.65625 80.621094 196.640625 80.804688 196.640625 80.996094 C 196.640625 83.519531 198.6875 85.570312 201.214844 85.570312 C 203.738281 85.570312 205.789062 83.519531 205.789062 80.996094 C 205.789062 80.804688 205.773438 80.621094 205.75 80.441406 C 207.585938 79.984375 209.316406 79.261719 210.890625 78.308594 C 211.007812 78.453125 211.125 78.59375 211.257812 78.730469 C 213.046875 80.515625 215.941406 80.515625 217.726562 78.730469 C 219.511719 76.941406 219.511719 74.046875 217.726562 72.261719 C 217.59375 72.128906 217.453125 72.007812 217.308594 71.894531 C 218.257812 70.316406 218.984375 68.585938 219.4375 66.753906 C 219.621094 66.773438 219.804688 66.789062 219.992188 66.789062 C 222.519531 66.789062 224.566406 64.742188 224.566406 62.214844 C 224.566406 59.691406 222.519531 57.644531 219.992188 57.644531 " fill-opacity="1" fill-rule="nonzero"/><path fill="#e2eaff" d="M 201.214844 11.332031 C 173.15625 11.332031 150.332031 34.160156 150.332031 62.214844 C 150.332031 90.273438 173.15625 113.097656 201.214844 113.097656 C 229.273438 113.097656 252.097656 90.273438 252.097656 62.214844 C 252.097656 34.160156 229.273438 11.332031 201.214844 11.332031 Z M 201.214844 113.738281 C 187.453125 113.738281 174.511719 108.378906 164.78125 98.648438 C 155.050781 88.917969 149.691406 75.980469 149.691406 62.214844 C 149.691406 48.453125 155.050781 35.515625 164.78125 25.785156 C 174.511719 16.050781 187.453125 10.695312 201.214844 10.695312 C 214.976562 10.695312 227.914062 16.050781 237.644531 25.785156 C 247.378906 35.515625 252.738281 48.453125 252.738281 62.214844 C 252.738281 75.980469 247.378906 88.917969 237.644531 98.648438 C 227.914062 108.378906 214.976562 113.738281 201.214844 113.738281 " fill-opacity="1" fill-rule="nonzero"/><g clip-path="url(#c1519b894a)"><path fill="#e2eaff" d="M 263.363281 73.992188 L 241.472656 73.992188 C 240.300781 73.992188 239.351562 73.042969 239.351562 71.871094 L 239.351562 52.558594 C 239.351562 51.390625 240.300781 50.441406 241.472656 50.441406 L 263.363281 50.441406 C 264.53125 50.441406 265.484375 51.390625 265.484375 52.558594 L 265.484375 71.871094 C 265.484375 73.042969 264.53125 73.992188 263.363281 73.992188 " fill-opacity="1" fill-rule="nonzero"/></g><path fill="#ffffff" d="M 259.707031 65.527344 L 257.316406 64.007812 C 256.996094 63.8125 256.375 63.804688 255.726562 64.300781 C 255.121094 64.765625 254.140625 65.5 251.707031 63.355469 C 249.277344 61.210938 249.785156 60.078125 250.265625 59.480469 C 250.335938 59.390625 250.84375 58.53125 250.355469 57.867188 L 248.949219 56.167969 C 247.789062 54.871094 246.746094 56.222656 246.6875 56.300781 C 244.96875 58.441406 246.300781 62.351562 249.84375 65.476562 C 253.386719 68.601562 257.425781 69.433594 259.332031 67.453125 C 259.398438 67.382812 260.53125 66.101562 259.707031 65.527344 " fill-opacity="1" fill-rule="nonzero"/><path fill="#ffa240" d="M 259.332031 67.667969 C 259.277344 67.667969 259.226562 67.648438 259.183594 67.605469 C 259.097656 67.527344 259.097656 67.390625 259.175781 67.304688 C 259.308594 67.167969 259.835938 66.507812 259.789062 66.039062 C 259.773438 65.898438 259.710938 65.789062 259.582031 65.703125 L 257.199219 64.1875 C 256.941406 64.03125 256.40625 64.046875 255.859375 64.46875 C 255.027344 65.105469 253.941406 65.609375 251.566406 63.515625 C 249.671875 61.84375 249.191406 60.480469 250.097656 59.347656 C 250.105469 59.339844 250.609375 58.566406 250.183594 57.992188 L 248.785156 56.304688 C 248.492188 55.976562 248.1875 55.8125 247.871094 55.820312 C 247.367188 55.835938 246.96875 56.289062 246.855469 56.425781 L 246.519531 56.164062 C 246.664062 55.988281 247.171875 55.414062 247.859375 55.394531 C 248.304688 55.378906 248.722656 55.59375 249.109375 56.027344 L 250.519531 57.730469 C 251.085938 58.496094 250.558594 59.457031 250.429688 59.613281 C 250.132812 59.988281 249.335938 60.980469 251.847656 63.195312 C 254.160156 65.234375 255.027344 64.570312 255.597656 64.128906 C 256.308594 63.585938 257.027344 63.585938 257.425781 63.824219 L 259.820312 65.347656 C 260.054688 65.511719 260.1875 65.734375 260.214844 66 C 260.285156 66.746094 259.492188 67.59375 259.484375 67.601562 C 259.441406 67.644531 259.386719 67.667969 259.332031 67.667969 " fill-opacity="1" fill-rule="nonzero"/><g clip-path="url(#b55f5da140)"><path fill="#e2eaff" d="M 212.160156 23.675781 L 190.269531 23.675781 C 189.097656 23.675781 188.148438 22.726562 188.148438 21.554688 L 188.148438 2.246094 C 188.148438 1.074219 189.097656 0.125 190.269531 0.125 L 212.160156 0.125 C 213.332031 0.125 214.28125 1.074219 214.28125 2.246094 L 214.28125 21.554688 C 214.28125 22.726562 213.332031 23.675781 212.160156 23.675781 " fill-opacity="1" fill-rule="nonzero"/></g><path fill="#ffffff" d="M 193.894531 16.832031 L 208.492188 16.78125 L 208.457031 7.519531 L 193.863281 7.570312 L 193.894531 16.832031 " fill-opacity="1" fill-rule="nonzero"/><path fill="#ffa240" d="M 201.179688 13.351562 C 201.140625 13.351562 201.105469 13.34375 201.070312 13.324219 L 196.34375 10.511719 C 196.242188 10.453125 196.207031 10.320312 196.269531 10.222656 C 196.328125 10.121094 196.457031 10.085938 196.558594 10.144531 L 201.179688 12.890625 L 205.761719 10.144531 C 205.863281 10.085938 205.992188 10.117188 206.054688 10.21875 C 206.113281 10.320312 206.082031 10.453125 205.980469 10.511719 L 201.289062 13.324219 C 201.257812 13.34375 201.21875 13.351562 201.179688 13.351562 " fill-opacity="1" fill-rule="nonzero"/><path fill="#e2eaff" d="M 160.957031 73.992188 L 139.066406 73.992188 C 137.894531 73.992188 136.945312 73.042969 136.945312 71.871094 L 136.945312 52.558594 C 136.945312 51.390625 137.894531 50.441406 139.066406 50.441406 L 160.957031 50.441406 C 162.128906 50.441406 163.078125 51.390625 163.078125 52.558594 L 163.078125 71.871094 C 163.078125 73.042969 162.128906 73.992188 160.957031 73.992188 " fill-opacity="1" fill-rule="nonzero"/><path fill="#ffffff" d="M 149.949219 71.46875 L 145.0625 63.105469 C 143.5625 60.539062 144.207031 57.214844 146.625 55.484375 C 147.574219 54.804688 148.746094 54.398438 150.042969 54.40625 C 151.339844 54.414062 152.507812 54.832031 153.449219 55.523438 C 155.851562 57.28125 156.457031 60.609375 154.929688 63.160156 L 149.949219 71.46875 " fill-opacity="1" fill-rule="nonzero"/><path fill="#ffa240" d="M 153.558594 60.289062 Z M 150.011719 56.941406 C 148.179688 56.941406 146.6875 58.421875 146.679688 60.253906 C 146.671875 61.140625 147.015625 61.976562 147.640625 62.609375 C 148.265625 63.242188 149.101562 63.59375 149.992188 63.597656 C 150 63.597656 150.003906 63.597656 150.011719 63.597656 C 151.839844 63.597656 153.332031 62.117188 153.34375 60.289062 C 153.355469 58.453125 151.867188 56.953125 150.027344 56.941406 C 150.023438 56.941406 150.015625 56.941406 150.011719 56.941406 Z M 150.011719 64.023438 C 150.003906 64.023438 149.996094 64.023438 149.988281 64.023438 C 148.984375 64.019531 148.042969 63.625 147.339844 62.910156 C 146.632812 62.199219 146.246094 61.253906 146.253906 60.25 C 146.265625 58.1875 147.949219 56.515625 150.011719 56.515625 C 150.019531 56.515625 150.023438 56.515625 150.03125 56.515625 C 152.105469 56.527344 153.78125 58.222656 153.769531 60.292969 C 153.757812 62.355469 152.074219 64.023438 150.011719 64.023438 " fill-opacity="1" fill-rule="nonzero"/><path fill="#e2eaff" d="M 250.296875 38.863281 L 228.40625 38.863281 C 227.234375 38.863281 226.285156 37.917969 226.285156 36.746094 L 226.285156 17.433594 C 226.285156 16.261719 227.234375 15.3125 228.40625 15.3125 L 250.296875 15.3125 C 251.46875 15.3125 252.417969 16.261719 252.417969 17.433594 L 252.417969 36.746094 C 252.417969 37.917969 251.46875 38.863281 250.296875 38.863281 " fill-opacity="1" fill-rule="nonzero"/><path fill="#ffffff" d="M 244.921875 25.789062 C 244.921875 23.457031 243.03125 21.570312 240.703125 21.570312 C 238.371094 21.570312 236.484375 23.457031 236.484375 25.789062 C 236.484375 28.121094 238.371094 30.007812 240.703125 30.007812 C 243.03125 30.007812 244.921875 28.121094 244.921875 25.789062 " fill-opacity="1" fill-rule="nonzero"/><path fill="#ffa240" d="M 240.703125 21.785156 C 238.492188 21.785156 236.691406 23.582031 236.691406 25.789062 C 236.691406 28 238.492188 29.792969 240.703125 29.792969 C 242.914062 29.792969 244.714844 28 244.714844 25.789062 C 244.714844 23.582031 242.914062 21.785156 240.703125 21.785156 Z M 240.703125 30.222656 C 238.253906 30.222656 236.265625 28.230469 236.265625 25.789062 C 236.265625 23.347656 238.253906 21.355469 240.703125 21.355469 C 243.148438 21.355469 245.140625 23.347656 245.140625 25.789062 C 245.140625 28.230469 243.148438 30.222656 240.703125 30.222656 " fill-opacity="1" fill-rule="nonzero"/><path fill="#ffa240" d="M 233.777344 32.820312 C 233.722656 32.820312 233.667969 32.800781 233.625 32.757812 C 233.542969 32.675781 233.542969 32.539062 233.625 32.457031 L 237.515625 28.570312 C 237.597656 28.488281 237.734375 28.488281 237.816406 28.574219 C 237.902344 28.65625 237.902344 28.792969 237.816406 28.875 L 233.925781 32.757812 C 233.886719 32.800781 233.832031 32.820312 233.777344 32.820312 " fill-opacity="1" fill-rule="nonzero"/><path fill="#e2eaff" d="M 174.023438 37.566406 L 152.132812 37.566406 C 150.960938 37.566406 150.011719 36.617188 150.011719 35.445312 L 150.011719 16.132812 C 150.011719 14.960938 150.960938 14.011719 152.132812 14.011719 L 174.023438 14.011719 C 175.191406 14.011719 176.140625 14.960938 176.140625 16.132812 L 176.140625 35.445312 C 176.140625 36.617188 175.191406 37.566406 174.023438 37.566406 " fill-opacity="1" fill-rule="nonzero"/><path fill="#ffa240" d="M 159.324219 28.703125 L 159.03125 29.308594 C 158.609375 30.144531 158.917969 31.167969 159.722656 31.636719 C 160.53125 32.105469 161.574219 31.867188 162.09375 31.09375 L 162.476562 30.535156 Z M 160.613281 32.304688 C 160.238281 32.304688 159.855469 32.207031 159.511719 32.007812 C 158.507812 31.421875 158.128906 30.15625 158.648438 29.121094 L 159.042969 28.3125 C 159.070312 28.257812 159.117188 28.21875 159.171875 28.199219 C 159.230469 28.183594 159.289062 28.191406 159.34375 28.21875 L 162.886719 30.28125 C 162.941406 30.3125 162.976562 30.363281 162.988281 30.421875 C 163.003906 30.476562 162.992188 30.539062 162.957031 30.585938 L 162.449219 31.332031 C 162.027344 31.960938 161.328125 32.304688 160.613281 32.304688 " fill-opacity="1" fill-rule="nonzero"/><path fill="#ffa240" d="M 164.375 20.148438 L 167.433594 21.929688 C 167.8125 21.101562 167.5 20.113281 166.710938 19.652344 C 165.921875 19.195312 164.90625 19.414062 164.375 20.148438 Z M 167.496094 22.425781 C 167.457031 22.425781 167.421875 22.414062 167.386719 22.394531 L 163.988281 20.417969 C 163.898438 20.363281 163.859375 20.25 163.902344 20.152344 L 163.96875 19.996094 C 163.972656 19.984375 163.980469 19.972656 163.988281 19.960938 C 164.632812 19 165.925781 18.703125 166.925781 19.285156 C 167.925781 19.867188 168.304688 21.136719 167.789062 22.171875 C 167.78125 22.183594 167.777344 22.195312 167.765625 22.207031 L 167.664062 22.339844 C 167.621094 22.394531 167.558594 22.425781 167.496094 22.425781 " fill-opacity="1" fill-rule="nonzero"/><path fill="#ffffff" d="M 156.40625 26.390625 L 165.933594 31.929688 C 166.09375 31.515625 166.117188 31.046875 165.996094 30.582031 C 165.636719 29.183594 165.746094 27.816406 166.3125 26.625 L 167.289062 24.582031 C 167.605469 23.933594 167.589844 23.15625 167.25 22.4375 L 164.019531 20.558594 C 163.226562 20.621094 162.542969 20.988281 162.136719 21.582031 L 160.835938 23.441406 C 160.078125 24.519531 158.941406 25.289062 157.546875 25.667969 C 157.082031 25.792969 156.6875 26.046875 156.40625 26.390625 Z M 166.070312 32.699219 C 166.015625 32.699219 165.960938 32.683594 165.910156 32.65625 L 155.785156 26.769531 C 155.710938 26.726562 155.660156 26.65625 155.636719 26.574219 C 155.613281 26.492188 155.625 26.40625 155.667969 26.332031 C 156.035156 25.707031 156.640625 25.25 157.378906 25.050781 C 158.628906 24.714844 159.644531 24.03125 160.3125 23.074219 L 161.609375 21.21875 C 162.148438 20.4375 163.046875 19.960938 164.082031 19.914062 C 164.144531 19.914062 164.203125 19.929688 164.257812 19.957031 L 167.65625 21.933594 C 167.707031 21.964844 167.753906 22.011719 167.78125 22.066406 C 168.25 22.988281 168.28125 24.003906 167.863281 24.859375 L 166.890625 26.902344 C 166.390625 27.953125 166.292969 29.171875 166.617188 30.421875 C 166.808594 31.164062 166.710938 31.914062 166.347656 32.539062 C 166.289062 32.644531 166.179688 32.699219 166.070312 32.699219 " fill-opacity="1" fill-rule="nonzero"/><path fill="#e2eaff" d="M 212.160156 124.308594 L 190.269531 124.308594 C 189.097656 124.308594 188.148438 123.359375 188.148438 122.1875 L 188.148438 102.875 C 188.148438 101.707031 189.097656 100.757812 190.269531 100.757812 L 212.160156 100.757812 C 213.332031 100.757812 214.28125 101.707031 214.28125 102.875 L 214.28125 122.1875 C 214.28125 123.359375 213.332031 124.308594 212.160156 124.308594 " fill-opacity="1" fill-rule="nonzero"/><path fill="#ffa240" d="M 205.820312 111.359375 C 205.703125 111.359375 205.605469 111.265625 205.605469 111.144531 L 205.605469 106.550781 L 198.765625 106.550781 L 196.820312 108.492188 L 196.820312 111.144531 C 196.820312 111.265625 196.726562 111.359375 196.609375 111.359375 C 196.492188 111.359375 196.394531 111.265625 196.394531 111.144531 L 196.394531 108.40625 C 196.394531 108.347656 196.417969 108.292969 196.457031 108.253906 L 198.527344 106.1875 C 198.566406 106.148438 198.621094 106.125 198.679688 106.125 L 205.820312 106.125 C 205.9375 106.125 206.035156 106.21875 206.035156 106.335938 L 206.035156 111.144531 C 206.035156 111.265625 205.9375 111.359375 205.820312 111.359375 " fill-opacity="1" fill-rule="nonzero"/><path fill="#ffa240" d="M 198.679688 108.617188 L 196.609375 108.617188 C 196.492188 108.617188 196.394531 108.523438 196.394531 108.40625 C 196.394531 108.289062 196.492188 108.191406 196.609375 108.191406 L 198.464844 108.191406 L 198.464844 106.335938 C 198.464844 106.21875 198.5625 106.125 198.679688 106.125 C 198.796875 106.125 198.890625 106.21875 198.890625 106.335938 L 198.890625 108.40625 C 198.890625 108.523438 198.796875 108.617188 198.679688 108.617188 " fill-opacity="1" fill-rule="nonzero"/><path fill="#ffffff" d="M 196.101562 111.464844 L 196.101562 117.96875 C 196.101562 118.210938 196.300781 118.40625 196.542969 118.40625 L 206.328125 118.40625 L 206.328125 111.464844 L 205.515625 111.464844 C 205.339844 111.464844 205.195312 111.324219 205.195312 111.144531 L 205.195312 110.707031 C 205.195312 110.660156 205.15625 110.625 205.109375 110.625 L 202.710938 110.625 C 202.664062 110.625 202.625 110.660156 202.625 110.707031 L 202.625 111.144531 C 202.625 111.324219 202.480469 111.464844 202.304688 111.464844 Z M 206.648438 119.046875 L 196.542969 119.046875 C 195.949219 119.046875 195.460938 118.5625 195.460938 117.96875 L 195.460938 111.144531 C 195.460938 110.96875 195.605469 110.828125 195.78125 110.828125 L 201.984375 110.828125 L 201.984375 110.707031 C 201.984375 110.308594 202.308594 109.984375 202.710938 109.984375 L 205.109375 109.984375 C 205.511719 109.984375 205.835938 110.308594 205.835938 110.707031 L 205.835938 110.828125 L 206.648438 110.828125 C 206.824219 110.828125 206.964844 110.96875 206.964844 111.144531 L 206.964844 118.726562 C 206.964844 118.90625 206.824219 119.046875 206.648438 119.046875 " fill-opacity="1" fill-rule="nonzero"/><path fill="#e2eaff" d="M 250.296875 109.121094 L 228.40625 109.121094 C 227.234375 109.121094 226.285156 108.171875 226.285156 107 L 226.285156 87.6875 C 226.285156 86.515625 227.234375 85.570312 228.40625 85.570312 L 250.296875 85.570312 C 251.46875 85.570312 252.417969 86.515625 252.417969 87.6875 L 252.417969 107 C 252.417969 108.171875 251.46875 109.121094 250.296875 109.121094 " fill-opacity="1" fill-rule="nonzero"/><path fill="#ffa240" d="M 238.328125 96.523438 C 238.367188 96.71875 238.40625 97.003906 238.40625 97.34375 C 238.40625 97.710938 238.371094 97.980469 238.335938 98.160156 L 240.160156 98.160156 L 240.160156 97.753906 C 240.160156 97.636719 240.253906 97.542969 240.371094 97.542969 L 241.664062 97.542969 C 241.71875 97.542969 241.773438 97.5625 241.8125 97.605469 C 241.855469 97.644531 241.878906 97.699219 241.878906 97.753906 L 241.878906 98.160156 L 242.449219 98.160156 L 242.449219 97.519531 C 242.449219 97.453125 242.480469 97.386719 242.535156 97.347656 C 242.589844 97.308594 242.660156 97.296875 242.726562 97.316406 L 243.867188 97.664062 C 243.953125 97.691406 244.015625 97.773438 244.015625 97.867188 L 244.015625 98.15625 L 244.628906 98.15625 L 244.628906 97.339844 C 244.628906 97.222656 244.722656 97.125 244.839844 97.125 L 246.027344 97.125 C 246.085938 97.125 246.136719 97.148438 246.179688 97.1875 C 246.21875 97.226562 246.238281 97.28125 246.238281 97.339844 L 246.238281 98.15625 L 246.382812 98.15625 C 247.328125 98.15625 248.113281 97.441406 248.21875 96.519531 Z M 238.058594 98.585938 C 237.984375 98.585938 237.917969 98.550781 237.878906 98.488281 C 237.839844 98.429688 237.832031 98.355469 237.863281 98.289062 C 237.863281 98.285156 237.980469 97.996094 237.980469 97.34375 C 237.980469 96.777344 237.855469 96.382812 237.855469 96.375 C 237.832031 96.3125 237.84375 96.242188 237.886719 96.1875 C 237.925781 96.132812 237.988281 96.097656 238.058594 96.097656 L 248.445312 96.09375 C 248.5 96.09375 248.554688 96.117188 248.597656 96.15625 C 248.636719 96.195312 248.65625 96.25 248.65625 96.308594 C 248.65625 97.5625 247.636719 98.582031 246.382812 98.582031 L 246.027344 98.582031 C 245.972656 98.582031 245.914062 98.5625 245.875 98.519531 C 245.835938 98.480469 245.8125 98.425781 245.8125 98.371094 L 245.8125 97.550781 L 245.054688 97.554688 L 245.054688 98.371094 C 245.054688 98.488281 244.960938 98.582031 244.839844 98.582031 L 243.800781 98.582031 C 243.746094 98.582031 243.691406 98.5625 243.652344 98.519531 C 243.613281 98.480469 243.589844 98.425781 243.589844 98.371094 L 243.589844 98.023438 L 242.875 97.808594 L 242.875 98.371094 C 242.875 98.488281 242.78125 98.585938 242.664062 98.585938 L 241.664062 98.585938 C 241.605469 98.585938 241.554688 98.5625 241.511719 98.523438 C 241.472656 98.484375 241.449219 98.429688 241.449219 98.371094 L 241.449219 97.96875 L 240.585938 97.96875 L 240.585938 98.371094 C 240.585938 98.488281 240.488281 98.585938 240.371094 98.585938 L 238.058594 98.585938 " fill-opacity="1" fill-rule="nonzero"/><path fill="#ffffff" d="M 234.226562 93.699219 C 232.214844 93.703125 230.582031 95.339844 230.582031 97.347656 C 230.582031 98.320312 230.957031 99.234375 231.648438 99.921875 C 232.335938 100.609375 233.25 100.984375 234.222656 100.984375 C 234.222656 100.984375 234.226562 100.984375 234.226562 100.984375 C 236.238281 100.984375 237.875 99.351562 237.875 97.34375 C 237.875 95.332031 236.238281 93.699219 234.226562 93.699219 Z M 234.222656 101.625 C 233.078125 101.625 232.003906 101.183594 231.195312 100.375 C 230.386719 99.566406 229.941406 98.492188 229.941406 97.347656 C 229.941406 94.984375 231.863281 93.0625 234.226562 93.058594 C 236.589844 93.058594 238.515625 94.980469 238.515625 97.34375 C 238.515625 99.703125 236.589844 101.625 234.226562 101.625 C 234.226562 101.625 234.222656 101.625 234.222656 101.625 " fill-opacity="1" fill-rule="nonzero"/><path fill="#ffffff" d="M 232.804688 96.753906 C 232.480469 96.753906 232.21875 97.015625 232.21875 97.339844 C 232.21875 97.664062 232.480469 97.925781 232.804688 97.925781 C 233.128906 97.925781 233.390625 97.664062 233.390625 97.339844 C 233.390625 97.015625 233.128906 96.753906 232.804688 96.753906 Z M 232.804688 98.566406 C 232.128906 98.566406 231.578125 98.015625 231.578125 97.339844 C 231.578125 96.664062 232.128906 96.113281 232.804688 96.113281 C 233.480469 96.113281 234.03125 96.664062 234.03125 97.339844 C 234.03125 98.015625 233.480469 98.566406 232.804688 98.566406 " fill-opacity="1" fill-rule="nonzero"/><path fill="#e2eaff" d="M 173.726562 107.550781 L 151.835938 107.550781 C 150.667969 107.550781 149.714844 106.601562 149.714844 105.433594 L 149.714844 86.121094 C 149.714844 84.949219 150.667969 84 151.835938 84 L 173.726562 84 C 174.898438 84 175.847656 84.949219 175.847656 86.121094 L 175.847656 105.433594 C 175.847656 106.601562 174.898438 107.550781 173.726562 107.550781 " fill-opacity="1" fill-rule="nonzero"/><path fill="#ffffff" d="M 166.007812 95.789062 C 166.019531 94.859375 166.785156 94.113281 167.714844 94.125 C 168.648438 94.136719 169.394531 94.902344 169.382812 95.832031 C 169.371094 96.761719 168.605469 97.507812 167.675781 97.496094 C 166.742188 97.484375 165.996094 96.722656 166.007812 95.789062 " fill-opacity="1" fill-rule="nonzero"/><path fill="#ffffff" d="M 156.179688 100.023438 C 156.191406 99.09375 156.957031 98.347656 157.886719 98.359375 C 158.820312 98.371094 159.566406 99.136719 159.554688 100.066406 C 159.542969 100.996094 158.78125 101.742188 157.847656 101.730469 C 156.914062 101.71875 156.171875 100.957031 156.179688 100.023438 " fill-opacity="1" fill-rule="nonzero"/><path fill="#ffa240" d="M 159.414062 99.589844 C 159.332031 99.589844 159.253906 99.542969 159.21875 99.460938 C 159.171875 99.355469 159.222656 99.230469 159.332031 99.183594 L 165.988281 96.3125 C 166.09375 96.265625 166.222656 96.316406 166.269531 96.425781 C 166.316406 96.53125 166.265625 96.65625 166.15625 96.703125 L 159.5 99.574219 C 159.472656 99.585938 159.445312 99.589844 159.414062 99.589844 " fill-opacity="1" fill-rule="nonzero"/><path fill="#ffffff" d="M 156.21875 91.511719 C 156.222656 92.445312 156.980469 93.195312 157.910156 93.191406 C 158.84375 93.1875 159.59375 92.433594 159.59375 91.503906 C 159.589844 90.570312 158.832031 89.820312 157.898438 89.824219 C 156.96875 89.824219 156.214844 90.582031 156.21875 91.511719 " fill-opacity="1" fill-rule="nonzero"/><path fill="#ffa240" d="M 166.078125 95.332031 C 166.050781 95.332031 166.019531 95.328125 165.992188 95.316406 L 159.363281 92.382812 C 159.253906 92.335938 159.203125 92.210938 159.25 92.101562 C 159.300781 91.996094 159.425781 91.949219 159.535156 91.992188 L 166.164062 94.925781 C 166.273438 94.972656 166.320312 95.097656 166.273438 95.207031 C 166.238281 95.285156 166.160156 95.332031 166.078125 95.332031 " fill-opacity="1" fill-rule="nonzero"/><path fill="#ffffff" d="M 72.261719 68.699219 L 65.574219 88.257812 C 65.144531 89.507812 64.082031 90.433594 62.785156 90.6875 L 59.808594 91.265625 C 59.808594 91.265625 67.550781 108.078125 80.601562 105.261719 C 93.652344 102.445312 90.785156 91.265625 90.785156 91.265625 L 88.023438 91.042969 C 86.371094 90.910156 85.238281 89.316406 85.652344 87.710938 L 88.753906 75.691406 C 88.753906 75.691406 76.109375 65.496094 72.261719 68.699219 " fill-opacity="1" fill-rule="nonzero"/><path fill="#000000" d="M 60.121094 91.421875 C 60.589844 92.375 62.457031 95.925781 65.472656 99.179688 C 68.691406 102.652344 73.917969 106.484375 80.558594 105.050781 C 84.675781 104.164062 87.609375 102.347656 89.277344 99.648438 C 91.429688 96.171875 90.777344 92.265625 90.609375 91.464844 L 88.007812 91.253906 C 87.15625 91.183594 86.382812 90.746094 85.886719 90.054688 C 85.394531 89.355469 85.230469 88.484375 85.445312 87.65625 L 88.515625 75.773438 C 87.289062 74.804688 75.980469 66.039062 72.445312 68.824219 L 65.773438 88.328125 C 65.324219 89.644531 64.195312 90.628906 62.824219 90.894531 Z M 77.714844 105.785156 C 73.3125 105.785156 69.019531 103.636719 65.152344 99.464844 C 61.605469 95.632812 59.632812 91.398438 59.613281 91.355469 C 59.585938 91.292969 59.585938 91.226562 59.617188 91.167969 C 59.648438 91.109375 59.703125 91.070312 59.765625 91.054688 L 62.746094 90.476562 C 63.960938 90.238281 64.96875 89.363281 65.371094 88.1875 L 72.0625 68.628906 C 72.074219 68.59375 72.097656 68.558594 72.128906 68.535156 C 76.058594 65.257812 88.367188 75.105469 88.890625 75.527344 C 88.953125 75.578125 88.980469 75.664062 88.960938 75.746094 L 85.859375 87.765625 C 85.675781 88.46875 85.8125 89.210938 86.238281 89.804688 C 86.65625 90.398438 87.316406 90.769531 88.039062 90.828125 L 90.800781 91.054688 C 90.890625 91.058594 90.96875 91.125 90.992188 91.210938 C 91.039062 91.398438 92.136719 95.832031 89.644531 99.871094 C 87.914062 102.667969 84.886719 104.554688 80.648438 105.46875 C 79.667969 105.679688 78.6875 105.785156 77.714844 105.785156 " fill-opacity="1" fill-rule="nonzero"/><path fill="#000000" d="M 100.449219 44.382812 C 101.59375 50.023438 97.203125 55.140625 93.402344 56.082031 C 93.265625 56.117188 93.132812 56.148438 93 56.175781 C 92.917969 56.453125 92.820312 56.734375 92.691406 57.011719 C 91.199219 60.28125 86.921875 61.871094 83.328125 61.546875 C 82.285156 62.660156 80.929688 64.210938 79.492188 66.171875 C 74.898438 72.4375 71.636719 69.621094 66.863281 63.417969 C 66.230469 62.59375 65.3125 61.539062 64.835938 59.789062 C 63.894531 56.316406 65.527344 53.191406 65.734375 52.804688 C 67.292969 49.925781 69.296875 50.035156 73.703125 47.074219 C 80.398438 42.574219 80.515625 39.136719 86.273438 37.195312 C 87.796875 36.679688 89.714844 36.058594 92.109375 36.5 C 95.59375 37.136719 99.546875 39.925781 100.449219 44.382812 " fill-opacity="1" fill-rule="nonzero"/><path fill="#ffffff" d="M 76.820312 71.742188 C 76.820312 71.742188 80.0625 79.222656 88.550781 77.84375 C 97.042969 76.460938 97.257812 65.660156 96.5 54.1875 C 95.648438 55.273438 93.75 56.105469 92.25 56.746094 C 86.144531 59.339844 80.652344 55.9375 79.84375 55.5 C 81.300781 57.289062 81.304688 59.714844 80.078125 61.359375 C 79.402344 62.265625 78.425781 62.917969 76.171875 62.957031 C 76.171875 62.957031 74.796875 59.363281 71.59375 61.449219 C 68.390625 63.535156 69.582031 72.339844 76.820312 71.742188 " fill-opacity="1" fill-rule="nonzero"/><path fill="#000000" d="M 76.824219 71.527344 C 76.90625 71.527344 76.984375 71.578125 77.019531 71.65625 C 77.050781 71.730469 80.296875 78.96875 88.519531 77.632812 C 96.890625 76.269531 96.984375 65.167969 96.320312 54.703125 C 95.394531 55.59375 93.851562 56.292969 92.332031 56.941406 C 89.75 58.039062 85.640625 58.75 80.515625 56.109375 C 81.488281 57.820312 81.410156 59.929688 80.25 61.484375 C 79.644531 62.292969 78.691406 63.128906 76.175781 63.171875 C 76.175781 63.171875 76.175781 63.171875 76.171875 63.171875 C 76.085938 63.171875 76.007812 63.117188 75.976562 63.035156 C 75.96875 63.019531 75.375 61.515625 74.128906 61.113281 C 73.40625 60.878906 72.59375 61.050781 71.710938 61.628906 C 70.226562 62.59375 69.699219 65.207031 70.507812 67.570312 C 71.441406 70.296875 73.796875 71.773438 76.804688 71.527344 C 76.8125 71.527344 76.816406 71.527344 76.824219 71.527344 Z M 86.527344 78.222656 C 80.070312 78.222656 77.152344 72.898438 76.691406 71.964844 C 73.550781 72.171875 71.089844 70.585938 70.105469 67.707031 C 69.234375 65.167969 69.835938 62.339844 71.476562 61.269531 C 72.476562 60.621094 73.410156 60.433594 74.261719 60.707031 C 75.476562 61.101562 76.125 62.324219 76.3125 62.742188 C 78.527344 62.675781 79.347656 61.976562 79.90625 61.230469 C 81.125 59.597656 81.03125 57.296875 79.679688 55.636719 C 79.617188 55.558594 79.617188 55.441406 79.679688 55.363281 C 79.746094 55.285156 79.855469 55.265625 79.945312 55.3125 C 79.988281 55.335938 80.042969 55.367188 80.109375 55.40625 C 85.367188 58.351562 89.570312 57.652344 92.167969 56.546875 C 93.488281 55.984375 95.484375 55.136719 96.332031 54.054688 C 96.386719 53.988281 96.476562 53.960938 96.5625 53.984375 C 96.644531 54.011719 96.707031 54.085938 96.710938 54.171875 C 97.425781 64.96875 97.445312 76.609375 88.585938 78.054688 C 87.863281 78.171875 87.179688 78.222656 86.527344 78.222656 " fill-opacity="1" fill-rule="nonzero"/><path fill="#000000" d="M 76.320312 68.570312 C 76.234375 68.570312 76.152344 68.515625 76.121094 68.425781 C 75.933594 67.878906 75.738281 67.316406 75.40625 66.851562 C 75.046875 66.351562 74.566406 66.046875 74.085938 66.015625 C 73.96875 66.007812 73.878906 65.90625 73.886719 65.789062 C 73.894531 65.671875 74 65.585938 74.113281 65.589844 C 74.726562 65.632812 75.320312 66 75.75 66.601562 C 76.125 67.117188 76.328125 67.714844 76.523438 68.289062 C 76.5625 68.402344 76.503906 68.523438 76.390625 68.558594 C 76.367188 68.566406 76.34375 68.570312 76.320312 68.570312 " fill-opacity="1" fill-rule="nonzero"/><path fill="#000000" d="M 78.375 59.8125 C 78.375 59.8125 79.757812 65.816406 82.753906 68.332031 C 85.746094 70.847656 90.125 65.402344 96.949219 65.359375 C 96.949219 65.359375 97.136719 75.941406 95.617188 78.265625 C 93.699219 81.207031 78.464844 82.210938 76.683594 71.996094 C 76.683594 71.996094 78.300781 67.082031 76.035156 63.210938 L 78.375 59.8125 " fill-opacity="1" fill-rule="nonzero"/><path fill="#ffffff" d="M 74.855469 46.667969 C 74.855469 46.667969 68.429688 50.0625 72.863281 60.496094 L 70.007812 62.046875 C 70.007812 62.046875 63.550781 48.695312 74.855469 46.667969 " fill-opacity="1" fill-rule="nonzero"/><path fill="#000000" d="M 73.890625 47.101562 C 71.648438 47.699219 70.074219 48.863281 69.203125 50.574219 C 67.136719 54.621094 69.585938 60.578125 70.105469 61.75 L 72.59375 60.402344 C 70.359375 55.039062 71.035156 51.558594 72.003906 49.574219 C 72.585938 48.386719 73.324219 47.589844 73.890625 47.101562 Z M 70.007812 62.261719 C 69.984375 62.261719 69.964844 62.257812 69.941406 62.25 C 69.886719 62.234375 69.839844 62.191406 69.816406 62.140625 C 69.675781 61.851562 66.441406 55.050781 68.824219 50.378906 C 69.882812 48.300781 71.898438 46.980469 74.816406 46.457031 C 74.921875 46.441406 75.019531 46.5 75.054688 46.597656 C 75.089844 46.699219 75.046875 46.808594 74.953125 46.859375 C 74.9375 46.863281 73.382812 47.710938 72.375 49.789062 C 71.039062 52.542969 71.277344 56.21875 73.058594 60.414062 C 73.101562 60.515625 73.0625 60.632812 72.964844 60.683594 L 70.109375 62.234375 C 70.078125 62.253906 70.042969 62.261719 70.007812 62.261719 " fill-opacity="1" fill-rule="nonzero"/><path fill="#ffffff" d="M 81.078125 74.8125 C 80.1875 74.8125 79.308594 74.480469 78.636719 73.859375 L 74.113281 69.691406 C 74.027344 69.613281 74.023438 69.476562 74.101562 69.390625 C 74.183594 69.304688 74.316406 69.300781 74.402344 69.378906 L 78.925781 73.546875 C 79.75 74.308594 80.929688 74.574219 82 74.246094 L 88.894531 72.132812 C 89.007812 72.097656 89.125 72.160156 89.160156 72.273438 C 89.195312 72.386719 89.132812 72.507812 89.019531 72.542969 L 82.125 74.65625 C 81.78125 74.757812 81.429688 74.8125 81.078125 74.8125 " fill-opacity="1" fill-rule="nonzero"/><path fill="#ffffff" d="M 91.6875 71.738281 C 91.863281 72.542969 90.78125 73.460938 89.273438 73.792969 C 87.765625 74.125 86.398438 73.738281 86.222656 72.933594 C 86.046875 72.132812 87.128906 71.210938 88.636719 70.878906 C 90.148438 70.550781 91.511719 70.933594 91.6875 71.738281 " fill-opacity="1" fill-rule="nonzero"/><path fill="#000000" d="M 89.699219 70.976562 C 89.375 70.976562 89.03125 71.011719 88.683594 71.089844 C 87.316406 71.386719 86.285156 72.214844 86.433594 72.890625 C 86.5 73.191406 86.816406 73.445312 87.304688 73.582031 C 87.847656 73.738281 88.53125 73.738281 89.226562 73.585938 C 90.59375 73.285156 91.628906 72.460938 91.480469 71.785156 C 91.414062 71.476562 91.101562 71.230469 90.605469 71.089844 C 90.332031 71.011719 90.027344 70.976562 89.699219 70.976562 Z M 88.210938 74.125 C 87.84375 74.125 87.5 74.082031 87.191406 73.996094 C 86.535156 73.808594 86.117188 73.449219 86.015625 72.980469 C 85.8125 72.046875 86.941406 71.035156 88.59375 70.671875 C 89.355469 70.503906 90.113281 70.507812 90.71875 70.679688 C 91.375 70.863281 91.792969 71.222656 91.894531 71.695312 C 92.097656 72.625 90.96875 73.640625 89.316406 74 C 88.941406 74.082031 88.566406 74.125 88.210938 74.125 " fill-opacity="1" fill-rule="nonzero"/><path fill="#ffffff" d="M 79.746094 66.273438 C 79.746094 70.09375 76.65625 73.1875 72.84375 73.1875 C 69.03125 73.1875 65.941406 70.09375 65.941406 66.273438 C 65.941406 62.457031 69.03125 59.359375 72.84375 59.359375 C 76.65625 59.359375 79.746094 62.457031 79.746094 66.273438 " fill-opacity="1" fill-rule="nonzero"/><path fill="#000000" d="M 72.84375 59.574219 C 69.15625 59.574219 66.15625 62.578125 66.15625 66.273438 C 66.15625 69.96875 69.15625 72.976562 72.84375 72.976562 C 76.53125 72.976562 79.53125 69.96875 79.53125 66.273438 C 79.53125 62.578125 76.53125 59.574219 72.84375 59.574219 Z M 72.84375 73.402344 C 68.921875 73.402344 65.726562 70.207031 65.726562 66.273438 C 65.726562 62.34375 68.921875 59.148438 72.84375 59.148438 C 76.765625 59.148438 79.957031 62.34375 79.957031 66.273438 C 79.957031 70.207031 76.765625 73.402344 72.84375 73.402344 " fill-opacity="1" fill-rule="nonzero"/><path fill="#ffffff" d="M 77.714844 66.273438 C 77.714844 68.96875 75.535156 71.15625 72.84375 71.15625 C 70.152344 71.15625 67.972656 68.96875 67.972656 66.273438 C 67.972656 63.578125 70.152344 61.394531 72.84375 61.394531 C 75.535156 61.394531 77.714844 63.578125 77.714844 66.273438 " fill-opacity="1" fill-rule="nonzero"/><path fill="#000000" d="M 72.84375 61.605469 C 70.273438 61.605469 68.183594 63.699219 68.183594 66.273438 C 68.183594 68.851562 70.273438 70.945312 72.84375 70.945312 C 75.414062 70.945312 77.503906 68.851562 77.503906 66.273438 C 77.503906 63.699219 75.414062 61.605469 72.84375 61.605469 Z M 72.84375 71.371094 C 70.039062 71.371094 67.757812 69.085938 67.757812 66.273438 C 67.757812 63.464844 70.039062 61.179688 72.84375 61.179688 C 75.648438 61.179688 77.929688 63.464844 77.929688 66.273438 C 77.929688 69.085938 75.648438 71.371094 72.84375 71.371094 " fill-opacity="1" fill-rule="nonzero"/><path fill="#ffa240" d="M 118.734375 100.15625 C 114.875 94.941406 108.972656 91.625 102.511719 91.03125 C 98.832031 90.691406 94.21875 90.332031 89.070312 90.066406 C 88.789062 90.992188 88.390625 91.890625 87.878906 92.738281 C 86.386719 95.191406 84.050781 97.082031 81.445312 98.253906 C 78.84375 99.429688 75.925781 99.960938 73.082031 99.617188 C 70.292969 99.277344 67.640625 98.089844 65.714844 96.015625 C 64.144531 94.324219 62.261719 92.28125 61.777344 90.0625 C 57.109375 90.328125 53.429688 90.714844 49.046875 91.398438 C 40.683594 92.710938 33.480469 97.773438 28.914062 104.902344 C 18.945312 120.453125 7.863281 136.871094 7.863281 155.804688 C 7.863281 177.335938 59.550781 175.464844 59.550781 175.464844 L 109.945312 175.464844 L 142.167969 148.089844 C 142.167969 148.089844 132.140625 118.261719 118.734375 100.15625 " fill-opacity="1" fill-rule="nonzero"/><path fill="#ffffff" d="M 54.957031 171.964844 C 54.578125 174.535156 59.550781 175.464844 59.550781 175.464844 C 65.582031 175.464844 74.972656 175.464844 74.972656 175.464844 L 97.933594 172.515625 C 97.933594 172.515625 99.722656 142.929688 67.261719 146.507812 C 67.261719 146.507812 57.464844 155.027344 54.957031 171.964844 " fill-opacity="1" fill-rule="nonzero"/><path fill="#000000" d="M 81.019531 172.84375 C 81.011719 172.84375 81 172.84375 80.988281 172.839844 C 80.871094 172.824219 80.792969 172.714844 80.808594 172.601562 C 81.050781 170.941406 80.664062 169.101562 79.714844 167.417969 C 78.921875 166.003906 77.75 164.671875 76.132812 163.347656 C 75.824219 163.09375 75.488281 162.832031 75.113281 162.667969 C 75.007812 162.621094 74.957031 162.496094 75.003906 162.390625 C 75.050781 162.28125 75.175781 162.230469 75.285156 162.277344 C 75.710938 162.464844 76.070312 162.746094 76.402344 163.019531 C 78.0625 164.378906 79.269531 165.75 80.085938 167.207031 C 81.082031 168.976562 81.484375 170.910156 81.230469 172.660156 C 81.214844 172.765625 81.125 172.84375 81.019531 172.84375 " fill-opacity="1" fill-rule="nonzero"/><path fill="#000000" d="M 88.441406 172.417969 C 88.335938 172.417969 88.246094 172.339844 88.230469 172.234375 C 87.953125 170.269531 87.550781 167.972656 86.695312 165.820312 C 85.804688 163.59375 84.5 161.777344 82.921875 160.5625 C 82.828125 160.492188 82.808594 160.355469 82.882812 160.261719 C 82.953125 160.171875 83.085938 160.152344 83.179688 160.226562 C 84.820312 161.484375 86.171875 163.363281 87.089844 165.660156 C 87.964844 167.855469 88.371094 170.183594 88.652344 172.175781 C 88.667969 172.292969 88.589844 172.398438 88.472656 172.417969 C 88.460938 172.417969 88.453125 172.417969 88.441406 172.417969 " fill-opacity="1" fill-rule="nonzero"/><path fill="#000000" d="M 94.386719 172.417969 C 94.378906 172.417969 94.371094 172.417969 94.363281 172.417969 C 94.246094 172.402344 94.160156 172.296875 94.175781 172.179688 C 95.179688 163.777344 89.679688 158.550781 89.621094 158.5 C 89.535156 158.421875 89.53125 158.285156 89.613281 158.199219 C 89.691406 158.113281 89.824219 158.109375 89.914062 158.1875 C 89.96875 158.242188 95.625 163.617188 94.597656 172.230469 C 94.585938 172.339844 94.492188 172.417969 94.386719 172.417969 " fill-opacity="1" fill-rule="nonzero"/><g clip-path="url(#d64a5b9a6c)"><path fill="#000000" d="M 154 177.003906 L 70.25 177.003906 C 69.753906 177.003906 69.257812 176.875 68.847656 176.59375 C 67.890625 175.933594 67.558594 174.757812 67.9375 173.742188 C 68.925781 171.671875 70.964844 170.941406 73.984375 170.941406 L 159.496094 170.941406 L 158.386719 173.960938 C 157.703125 175.789062 155.953125 177.003906 154 177.003906 " fill-opacity="1" fill-rule="nonzero"/></g><g clip-path="url(#37a3286669)"><path fill="#000000" d="M 154.476562 177.003906 C 156.152344 177.003906 157.65625 175.980469 158.277344 174.425781 L 173.101562 137.214844 C 173.496094 136.226562 173.375 135.109375 172.777344 134.230469 C 172.183594 133.351562 171.1875 132.824219 170.125 132.824219 L 118.652344 132.824219 C 115.550781 132.824219 112.785156 134.777344 111.75 137.703125 L 97.832031 177.003906 L 154.476562 177.003906 " fill-opacity="1" fill-rule="nonzero"/></g><path fill="#ffffff" d="M 155.679688 171.523438 L 104.648438 171.523438 C 104.53125 171.523438 104.433594 171.425781 104.433594 171.308594 C 104.433594 171.191406 104.53125 171.09375 104.648438 171.09375 L 155.679688 171.09375 C 155.796875 171.09375 155.894531 171.191406 155.894531 171.308594 C 155.894531 171.425781 155.796875 171.523438 155.679688 171.523438 " fill-opacity="1" fill-rule="nonzero"/><path fill="#000000" d="M 28.132812 147.253906 C 28.019531 147.253906 27.921875 147.164062 27.921875 147.046875 C 27.917969 146.929688 28.011719 146.832031 28.128906 146.828125 L 65.578125 146.117188 C 65.578125 146.117188 65.578125 146.117188 65.582031 146.117188 C 65.695312 146.117188 65.792969 146.210938 65.792969 146.328125 C 65.796875 146.445312 65.703125 146.542969 65.585938 146.542969 L 28.136719 147.253906 C 28.136719 147.253906 28.136719 147.253906 28.132812 147.253906 " fill-opacity="1" fill-rule="nonzero"/><path fill="#000000" d="M 40.640625 145.128906 C 40.621094 145.128906 40.597656 145.128906 40.578125 145.121094 C 40.464844 145.089844 40.402344 144.96875 40.433594 144.855469 C 41.796875 140.320312 43.675781 135.933594 46.019531 131.816406 C 46.5 130.980469 47.269531 129.871094 48.410156 129.90625 C 48.53125 129.910156 48.621094 130.011719 48.617188 130.128906 C 48.613281 130.242188 48.519531 130.335938 48.40625 130.335938 C 48.402344 130.335938 48.398438 130.335938 48.398438 130.332031 C 47.480469 130.296875 46.8125 131.285156 46.390625 132.027344 C 44.0625 136.117188 42.195312 140.472656 40.84375 144.980469 C 40.816406 145.070312 40.730469 145.128906 40.640625 145.128906 " fill-opacity="1" fill-rule="nonzero"/><g clip-path="url(#63311c64ba)"><path fill="#000000" d="M 191.144531 177.109375 L 0.21875 177.109375 C 0.101562 177.109375 0.0078125 177.011719 0.0078125 176.894531 L 0.0078125 58.976562 C 0.0078125 58.859375 0.101562 58.761719 0.21875 58.761719 C 0.339844 58.761719 0.433594 58.859375 0.433594 58.976562 L 0.433594 176.683594 L 191.144531 176.683594 C 191.261719 176.683594 191.355469 176.777344 191.355469 176.894531 C 191.355469 177.011719 191.261719 177.109375 191.144531 177.109375 " fill-opacity="1" fill-rule="nonzero"/></g><path fill="#ffa240" d="M 191.675781 145.449219 L 211.382812 145.449219 L 211.382812 139.402344 C 211.382812 138.261719 210.457031 137.335938 209.316406 137.335938 L 193.742188 137.335938 C 192.601562 137.335938 191.675781 138.261719 191.675781 139.402344 Z M 211.597656 145.875 L 191.460938 145.875 C 191.34375 145.875 191.25 145.78125 191.25 145.660156 L 191.25 139.402344 C 191.25 138.027344 192.367188 136.90625 193.742188 136.90625 L 209.316406 136.90625 C 210.691406 136.90625 211.8125 138.027344 211.8125 139.402344 L 211.8125 145.660156 C 211.8125 145.78125 211.714844 145.875 211.597656 145.875 " fill-opacity="1" fill-rule="nonzero"/><path fill="#ffffff" d="M 214.40625 176.894531 L 188.023438 176.894531 C 184.828125 173.699219 184.828125 168.511719 188.023438 165.316406 L 188.105469 165.234375 L 214.324219 165.234375 L 214.40625 165.316406 C 217.601562 168.511719 217.601562 173.699219 214.40625 176.894531 L 188.023438 176.894531 L 214.40625 176.894531 " fill-opacity="1" fill-rule="nonzero"/><g clip-path="url(#e5ee2ea809)"><path fill="#000000" d="M 188.113281 176.683594 L 214.316406 176.683594 C 215.78125 175.183594 216.589844 173.207031 216.589844 171.105469 C 216.589844 168.972656 215.757812 166.972656 214.253906 165.464844 L 214.234375 165.445312 L 188.191406 165.445312 L 188.175781 165.464844 C 185.085938 168.554688 185.066406 173.566406 188.113281 176.683594 Z M 214.40625 177.109375 L 188.023438 177.109375 C 187.964844 177.109375 187.910156 177.085938 187.875 177.046875 C 184.597656 173.769531 184.597656 168.4375 187.875 165.164062 L 187.953125 165.082031 C 187.992188 165.042969 188.046875 165.019531 188.105469 165.019531 L 214.324219 165.019531 C 214.378906 165.019531 214.433594 165.042969 214.472656 165.082031 L 214.554688 165.164062 C 217.832031 168.4375 217.832031 173.769531 214.554688 177.046875 C 214.515625 177.085938 214.464844 177.109375 214.40625 177.109375 " fill-opacity="1" fill-rule="nonzero"/></g><path fill="#ffffff" d="M 219.535156 139.257812 L 182.890625 139.257812 C 181.335938 139.257812 180.074219 140.519531 180.074219 142.074219 L 180.074219 168.246094 C 180.074219 169.804688 181.335938 171.0625 182.890625 171.0625 L 219.535156 171.0625 C 221.09375 171.0625 222.355469 169.804688 222.355469 168.246094 L 222.355469 142.074219 C 222.355469 140.519531 221.09375 139.257812 219.535156 139.257812 " fill-opacity="1" fill-rule="nonzero"/><path fill="#000000" d="M 182.890625 139.472656 C 181.457031 139.472656 180.289062 140.640625 180.289062 142.074219 L 180.289062 168.246094 C 180.289062 169.683594 181.457031 170.851562 182.890625 170.851562 L 219.535156 170.851562 C 220.972656 170.851562 222.140625 169.683594 222.140625 168.246094 L 222.140625 142.074219 C 222.140625 140.640625 220.972656 139.472656 219.535156 139.472656 Z M 219.535156 171.277344 L 182.890625 171.277344 C 181.222656 171.277344 179.863281 169.917969 179.863281 168.246094 L 179.863281 142.074219 C 179.863281 140.40625 181.222656 139.042969 182.890625 139.042969 L 219.535156 139.042969 C 221.207031 139.042969 222.566406 140.40625 222.566406 142.074219 L 222.566406 168.246094 C 222.566406 169.917969 221.207031 171.277344 219.535156 171.277344 " fill-opacity="1" fill-rule="nonzero"/><g clip-path="url(#45b02ca13f)"><path fill="#000000" d="M 222.355469 177.109375 L 180.074219 177.109375 C 179.957031 177.109375 179.863281 177.011719 179.863281 176.894531 C 179.863281 176.777344 179.957031 176.683594 180.074219 176.683594 L 222.355469 176.683594 C 222.472656 176.683594 222.566406 176.777344 222.566406 176.894531 C 222.566406 177.011719 222.472656 177.109375 222.355469 177.109375 " fill-opacity="1" fill-rule="nonzero"/></g><path fill="#ffa240" d="M 217.175781 166.8125 L 185.882812 166.8125 L 185.882812 143.507812 L 217.175781 143.507812 L 217.175781 166.8125 " fill-opacity="1" fill-rule="nonzero"/><path fill="#ffffff" d="M 196.570312 157.960938 L 192.300781 157.960938 L 192.300781 157.53125 L 194.636719 154.882812 C 195.023438 154.4375 195.292969 154.070312 195.441406 153.777344 C 195.589844 153.488281 195.667969 153.207031 195.667969 152.929688 C 195.667969 152.5 195.539062 152.160156 195.289062 151.910156 C 195.035156 151.65625 194.6875 151.53125 194.246094 151.53125 C 193.785156 151.53125 193.414062 151.679688 193.132812 151.972656 C 192.851562 152.265625 192.710938 152.644531 192.710938 153.113281 L 192.152344 153.113281 C 192.152344 152.730469 192.238281 152.382812 192.414062 152.066406 C 192.585938 151.75 192.832031 151.503906 193.152344 151.324219 C 193.472656 151.144531 193.835938 151.054688 194.246094 151.054688 C 194.867188 151.054688 195.355469 151.21875 195.707031 151.546875 C 196.058594 151.875 196.234375 152.320312 196.234375 152.886719 C 196.234375 153.203125 196.132812 153.550781 195.9375 153.929688 C 195.738281 154.304688 195.390625 154.777344 194.890625 155.339844 L 192.988281 157.488281 L 196.570312 157.488281 L 196.570312 157.960938 " fill-opacity="1" fill-rule="nonzero"/><path fill="#ffffff" d="M 197.972656 155.765625 L 200.492188 155.765625 L 200.492188 151.875 L 200.242188 152.304688 Z M 201.050781 155.765625 L 202.113281 155.765625 L 202.113281 156.238281 L 201.050781 156.238281 L 201.050781 157.960938 L 200.492188 157.960938 L 200.492188 156.238281 L 197.285156 156.238281 L 197.285156 155.921875 L 200.4375 151.148438 L 201.050781 151.148438 L 201.050781 155.765625 " fill-opacity="1" fill-rule="nonzero"/><path fill="#ffffff" d="M 202.933594 158.546875 L 202.421875 158.546875 L 205.269531 151.148438 L 205.773438 151.148438 L 202.933594 158.546875 " fill-opacity="1" fill-rule="nonzero"/><path fill="#ffffff" d="M 210.925781 151.472656 L 208.015625 157.960938 L 207.429688 157.960938 L 210.320312 151.625 L 206.445312 151.625 L 206.445312 151.148438 L 210.925781 151.148438 L 210.925781 151.472656 " fill-opacity="1" fill-rule="nonzero"/><path fill="#ffffff" d="M 18.507812 56.21875 C 18.246094 56.066406 8.316406 39 10.164062 17.816406 C 10.363281 15.535156 12.347656 13.792969 14.628906 13.980469 C 14.664062 13.984375 14.699219 13.988281 14.738281 13.992188 C 16.382812 14.148438 17.773438 15.289062 18.265625 16.867188 C 19.519531 20.894531 21.722656 31.386719 22.226562 56.21875 L 18.507812 56.21875 " fill-opacity="1" fill-rule="nonzero"/><path fill="#000000" d="M 18.613281 56.007812 L 22.007812 56.007812 C 21.5 31.402344 19.320312 20.964844 18.0625 16.933594 C 17.59375 15.425781 16.28125 14.351562 14.714844 14.203125 L 14.617188 14.195312 C 12.46875 14.011719 10.570312 15.648438 10.378906 17.835938 C 9.429688 28.683594 11.640625 38.367188 13.664062 44.582031 C 15.832031 51.238281 18.234375 55.4375 18.613281 56.007812 Z M 22.226562 56.433594 L 18.507812 56.433594 C 18.472656 56.433594 18.433594 56.421875 18.402344 56.402344 C 18.152344 56.257812 15.558594 51.695312 13.34375 44.972656 C 11.265625 38.664062 8.992188 28.828125 9.953125 17.796875 C 10.164062 15.378906 12.269531 13.570312 14.648438 13.769531 L 14.757812 13.777344 C 16.492188 13.945312 17.949219 15.132812 18.46875 16.804688 C 19.738281 20.875 21.9375 31.40625 22.4375 56.214844 C 22.4375 56.273438 22.417969 56.328125 22.378906 56.367188 C 22.335938 56.410156 22.28125 56.433594 22.226562 56.433594 " fill-opacity="1" fill-rule="nonzero"/><path fill="#000000" d="M 19.019531 51.582031 C 18.921875 51.582031 18.835938 51.515625 18.8125 51.417969 C 16.625 42.320312 15.203125 32.972656 14.585938 23.640625 C 14.578125 23.523438 14.667969 23.421875 14.785156 23.414062 C 14.898438 23.40625 15.003906 23.496094 15.011719 23.613281 C 15.628906 32.921875 17.046875 42.242188 19.226562 51.316406 C 19.253906 51.433594 19.183594 51.546875 19.070312 51.574219 C 19.050781 51.578125 19.035156 51.582031 19.019531 51.582031 " fill-opacity="1" fill-rule="nonzero"/><path fill="#ffffff" d="M 20.351562 56.21875 L 27.226562 56.21875 C 27.226562 56.21875 28.816406 29.28125 29.34375 19.207031 C 29.875 9.132812 25.597656 7.523438 23.304688 7.972656 C 21.699219 8.289062 14.796875 10.402344 20.351562 56.21875 " fill-opacity="1" fill-rule="nonzero"/><path fill="#000000" d="M 20.539062 56.007812 L 27.027344 56.007812 C 27.171875 53.515625 28.632812 28.695312 29.132812 19.195312 C 29.457031 12.976562 27.929688 10.285156 26.589844 9.121094 C 25.25 7.960938 23.875 8.078125 23.34375 8.183594 C 21.519531 8.539062 20.179688 10.859375 19.351562 15.074219 C 17.8125 22.949219 18.210938 36.722656 20.539062 56.007812 Z M 27.226562 56.433594 L 20.351562 56.433594 C 20.242188 56.433594 20.152344 56.351562 20.136719 56.246094 C 16.484375 26.09375 17.59375 8.875 23.261719 7.761719 C 23.855469 7.648438 25.390625 7.515625 26.867188 8.800781 C 28.28125 10.027344 29.894531 12.828125 29.558594 19.21875 C 29.035156 29.175781 27.457031 55.960938 27.441406 56.230469 C 27.433594 56.34375 27.339844 56.433594 27.226562 56.433594 " fill-opacity="1" fill-rule="nonzero"/><path fill="#ffffff" d="M 28.179688 56.21875 L 33.761719 56.21875 C 33.761719 56.21875 36.738281 49.417969 38.78125 41.734375 C 40.824219 34.050781 41.65625 25.324219 38.78125 24.898438 C 35.90625 24.476562 31.238281 27.929688 28.179688 56.21875 " fill-opacity="1" fill-rule="nonzero"/><path fill="#000000" d="M 28.417969 56.007812 L 33.621094 56.007812 C 34.035156 55.035156 36.710938 48.6875 38.574219 41.679688 C 40.179688 35.648438 41.207031 28.089844 39.667969 25.757812 C 39.417969 25.375 39.117188 25.164062 38.75 25.109375 C 37.96875 24.996094 37.238281 25.210938 36.519531 25.769531 C 33.035156 28.464844 30.308594 38.636719 28.417969 56.007812 Z M 33.761719 56.433594 L 28.179688 56.433594 C 28.121094 56.433594 28.0625 56.40625 28.019531 56.359375 C 27.980469 56.316406 27.960938 56.257812 27.96875 56.195312 C 29.875 38.5625 32.664062 28.210938 36.257812 25.433594 C 37.0625 24.808594 37.921875 24.558594 38.8125 24.6875 C 39.300781 24.761719 39.707031 25.039062 40.023438 25.523438 C 41.644531 27.980469 40.667969 35.464844 38.988281 41.789062 C 36.964844 49.402344 33.984375 56.238281 33.957031 56.304688 C 33.921875 56.382812 33.847656 56.433594 33.761719 56.433594 " fill-opacity="1" fill-rule="nonzero"/><path fill="#000000" d="M 30.878906 55.679688 C 30.859375 55.679688 30.839844 55.675781 30.824219 55.671875 C 30.710938 55.640625 30.640625 55.523438 30.671875 55.410156 L 36.039062 35.644531 C 36.070312 35.527344 36.191406 35.460938 36.300781 35.492188 C 36.414062 35.523438 36.484375 35.640625 36.453125 35.753906 L 31.085938 55.519531 C 31.058594 55.617188 30.972656 55.679688 30.878906 55.679688 " fill-opacity="1" fill-rule="nonzero"/><path fill="#000000" d="M 23.144531 55.902344 C 23.023438 55.902344 22.929688 55.804688 22.929688 55.6875 L 23.136719 16.117188 C 23.140625 16 23.234375 15.90625 23.351562 15.90625 C 23.46875 15.90625 23.566406 16 23.566406 16.117188 L 23.355469 55.691406 C 23.355469 55.808594 23.261719 55.902344 23.144531 55.902344 " fill-opacity="1" fill-rule="nonzero"/><path fill="#e2eaff" d="M 35.570312 54.074219 L 15.996094 54.074219 C 14.847656 54.074219 13.972656 55.101562 14.15625 56.234375 L 16.886719 73.1875 L 34.679688 73.1875 L 37.414062 56.234375 C 37.59375 55.101562 36.71875 54.074219 35.570312 54.074219 " fill-opacity="1" fill-rule="nonzero"/><path fill="#000000" d="M 40.640625 73.402344 L 0.21875 73.402344 C 0.101562 73.402344 0.0078125 73.308594 0.0078125 73.191406 C 0.0078125 73.070312 0.101562 72.976562 0.21875 72.976562 L 40.640625 72.976562 C 40.757812 72.976562 40.851562 73.070312 40.851562 73.191406 C 40.851562 73.308594 40.757812 73.402344 40.640625 73.402344 " fill-opacity="1" fill-rule="nonzero"/><path fill="#000000" d="M 81.609375 35.914062 C 81.488281 35.914062 81.394531 35.816406 81.394531 35.699219 L 81.394531 15.351562 C 81.394531 15.230469 81.488281 15.136719 81.609375 15.136719 L 103.910156 15.136719 C 104.027344 15.136719 104.125 15.230469 104.125 15.351562 C 104.125 15.46875 104.027344 15.5625 103.910156 15.5625 L 81.820312 15.5625 L 81.820312 35.699219 C 81.820312 35.816406 81.722656 35.914062 81.609375 35.914062 " fill-opacity="1" fill-rule="nonzero"/><path fill="#ffffff" d="M 133.054688 16.070312 C 133.054688 23.042969 127.402344 28.695312 120.429688 28.695312 C 113.453125 28.695312 107.800781 23.042969 107.800781 16.070312 C 107.800781 9.097656 113.453125 3.445312 120.429688 3.445312 C 127.402344 3.445312 133.054688 9.097656 133.054688 16.070312 " fill-opacity="1" fill-rule="nonzero"/><path fill="#000000" d="M 120.429688 3.65625 C 113.582031 3.65625 108.015625 9.226562 108.015625 16.070312 C 108.015625 22.914062 113.582031 28.484375 120.429688 28.484375 C 127.273438 28.484375 132.839844 22.914062 132.839844 16.070312 C 132.839844 9.226562 127.273438 3.65625 120.429688 3.65625 Z M 120.429688 28.910156 C 113.347656 28.910156 107.589844 23.148438 107.589844 16.070312 C 107.589844 8.992188 113.347656 3.230469 120.429688 3.230469 C 127.507812 3.230469 133.265625 8.992188 133.265625 16.070312 C 133.265625 23.148438 127.507812 28.910156 120.429688 28.910156 " fill-opacity="1" fill-rule="nonzero"/><g clip-path="url(#b9c9e10093)"><g clip-path="url(#8f9e19c252)"><path fill="#000000" d="M 113.738281 27.8125 L 127.117188 27.8125 L 126.441406 14.292969 C 126.230469 10.121094 123.589844 6.859375 120.429688 6.859375 C 117.265625 6.859375 114.625 10.121094 114.417969 14.292969 Z M 127.339844 28.238281 L 113.515625 28.238281 C 113.457031 28.238281 113.402344 28.214844 113.359375 28.171875 C 113.320312 28.128906 113.300781 28.074219 113.300781 28.015625 L 113.988281 14.269531 C 114.210938 9.875 117.039062 6.433594 120.429688 6.433594 C 123.816406 6.433594 126.644531 9.875 126.867188 14.269531 L 127.554688 28.015625 C 127.558594 28.074219 127.535156 28.128906 127.496094 28.171875 C 127.457031 28.214844 127.398438 28.238281 127.339844 28.238281 " fill-opacity="1" fill-rule="nonzero"/></g></g><g clip-path="url(#29ab0ab75b)"><g clip-path="url(#1a328542b8)"><path fill="#ffffff" d="M 130.183594 24.71875 C 129.707031 23.058594 128.363281 21.789062 126.683594 21.402344 L 123.125 20.582031 L 123.125 16.089844 L 117.730469 16.089844 L 117.730469 20.582031 L 114.171875 21.402344 C 112.492188 21.789062 111.152344 23.058594 110.671875 24.71875 L 109.3125 31.886719 L 131.542969 31.886719 L 130.183594 24.71875 " fill-opacity="1" fill-rule="nonzero"/></g></g><g clip-path="url(#032182e9a6)"><g clip-path="url(#a4bf279687)"><path fill="#000000" d="M 109.570312 31.675781 L 131.285156 31.675781 L 129.976562 24.765625 C 129.515625 23.1875 128.238281 21.980469 126.636719 21.609375 L 123.078125 20.792969 C 122.980469 20.769531 122.910156 20.683594 122.910156 20.582031 L 122.910156 16.304688 L 117.945312 16.304688 L 117.945312 20.582031 C 117.945312 20.683594 117.875 20.769531 117.777344 20.792969 L 114.222656 21.609375 C 112.617188 21.980469 111.335938 23.195312 110.875 24.777344 Z M 131.542969 32.101562 L 109.3125 32.101562 C 109.25 32.101562 109.191406 32.074219 109.148438 32.023438 C 109.109375 31.972656 109.09375 31.910156 109.105469 31.847656 L 110.460938 24.675781 C 110.96875 22.925781 112.367188 21.601562 114.125 21.195312 L 117.519531 20.414062 L 117.519531 16.089844 C 117.519531 15.972656 117.613281 15.875 117.730469 15.875 L 123.125 15.875 C 123.242188 15.875 123.339844 15.972656 123.339844 16.089844 L 123.339844 20.414062 L 126.730469 21.195312 C 128.488281 21.601562 129.890625 22.925781 130.390625 24.65625 C 130.390625 24.664062 130.394531 24.671875 130.394531 24.675781 L 131.753906 31.847656 C 131.765625 31.910156 131.746094 31.972656 131.707031 32.023438 C 131.664062 32.074219 131.605469 32.101562 131.542969 32.101562 " fill-opacity="1" fill-rule="nonzero"/></g></g><g clip-path="url(#932d152807)"><g clip-path="url(#52e9073834)"><path fill="#ffffff" d="M 124.945312 12.589844 C 124.75 12.542969 124.550781 12.5625 124.367188 12.632812 C 124.207031 10.136719 122.507812 8.445312 120.429688 8.445312 C 118.347656 8.445312 116.648438 10.136719 116.492188 12.632812 C 116.304688 12.5625 116.105469 12.542969 115.910156 12.589844 C 115.328125 12.734375 114.992188 13.410156 115.164062 14.097656 C 115.335938 14.789062 115.945312 15.226562 116.53125 15.082031 C 116.625 15.058594 116.710938 15.019531 116.789062 14.972656 C 117.390625 16.816406 118.792969 18.226562 120.429688 18.226562 C 122.0625 18.226562 123.464844 16.816406 124.066406 14.972656 C 124.144531 15.019531 124.230469 15.058594 124.324219 15.082031 C 124.910156 15.226562 125.519531 14.789062 125.691406 14.097656 C 125.863281 13.410156 125.527344 12.734375 124.945312 12.589844 " fill-opacity="1" fill-rule="nonzero"/></g></g><g clip-path="url(#3e917a5356)"><g clip-path="url(#57fdb124e3)"><path fill="#000000" d="M 116.789062 14.757812 C 116.816406 14.757812 116.839844 14.761719 116.863281 14.773438 C 116.925781 14.792969 116.972656 14.84375 116.992188 14.90625 C 117.601562 16.765625 118.980469 18.011719 120.429688 18.011719 C 121.875 18.011719 123.257812 16.765625 123.863281 14.90625 C 123.882812 14.84375 123.929688 14.792969 123.992188 14.769531 C 124.050781 14.75 124.121094 14.753906 124.175781 14.789062 C 124.242188 14.832031 124.308594 14.859375 124.375 14.875 C 124.84375 14.992188 125.34375 14.621094 125.484375 14.046875 C 125.554688 13.765625 125.527344 13.476562 125.410156 13.234375 C 125.296875 13.007812 125.113281 12.851562 124.894531 12.796875 C 124.746094 12.761719 124.59375 12.773438 124.441406 12.832031 C 124.378906 12.855469 124.308594 12.847656 124.25 12.8125 C 124.191406 12.773438 124.15625 12.714844 124.152344 12.644531 C 124.007812 10.335938 122.441406 8.65625 120.429688 8.65625 C 118.414062 8.65625 116.847656 10.335938 116.703125 12.644531 C 116.699219 12.714844 116.664062 12.773438 116.605469 12.8125 C 116.550781 12.847656 116.476562 12.855469 116.414062 12.832031 C 116.261719 12.773438 116.109375 12.761719 115.960938 12.796875 C 115.742188 12.851562 115.558594 13.007812 115.445312 13.234375 C 115.328125 13.476562 115.300781 13.765625 115.371094 14.046875 C 115.441406 14.332031 115.601562 14.574219 115.816406 14.730469 C 116.023438 14.878906 116.257812 14.929688 116.476562 14.875 C 116.546875 14.859375 116.613281 14.832031 116.679688 14.789062 C 116.714844 14.769531 116.75 14.757812 116.789062 14.757812 Z M 120.429688 18.441406 C 118.855469 18.441406 117.367188 17.171875 116.667969 15.265625 C 116.636719 15.273438 116.609375 15.28125 116.582031 15.289062 C 116.238281 15.375 115.878906 15.300781 115.566406 15.074219 C 115.269531 14.859375 115.050781 14.53125 114.957031 14.152344 C 114.863281 13.769531 114.898438 13.378906 115.0625 13.046875 C 115.234375 12.707031 115.515625 12.46875 115.859375 12.382812 C 116.003906 12.347656 116.148438 12.339844 116.300781 12.363281 C 116.554688 9.953125 118.257812 8.230469 120.429688 8.230469 C 122.597656 8.230469 124.300781 9.953125 124.554688 12.363281 C 124.703125 12.339844 124.851562 12.347656 124.996094 12.382812 C 125.339844 12.46875 125.625 12.707031 125.792969 13.046875 C 125.957031 13.378906 125.992188 13.769531 125.898438 14.152344 C 125.699219 14.953125 124.972656 15.460938 124.273438 15.289062 C 124.246094 15.28125 124.21875 15.273438 124.1875 15.265625 C 123.488281 17.171875 122 18.441406 120.429688 18.441406 " fill-opacity="1" fill-rule="nonzero"/></g></g><g clip-path="url(#8a76d550be)"><g clip-path="url(#3dd72b978c)"><path fill="#ffffff" d="M 116.425781 13.257812 C 118.394531 12.886719 120.445312 11.132812 121.679688 9.554688 C 121.917969 10.957031 123.160156 12.597656 124.460938 13.171875 C 124.460938 13.171875 125.082031 7.585938 120.429688 7.765625 C 115.773438 7.945312 116.425781 13.257812 116.425781 13.257812 " fill-opacity="1" fill-rule="nonzero"/></g></g><g clip-path="url(#629bf66af3)"><g clip-path="url(#7ad137a961)"><path fill="#000000" d="M 116.425781 13.472656 C 116.378906 13.472656 116.335938 13.457031 116.300781 13.429688 C 116.25 13.394531 116.21875 13.34375 116.214844 13.285156 C 116.207031 13.246094 116.097656 12.328125 116.304688 11.226562 C 116.324219 11.109375 116.433594 11.03125 116.550781 11.054688 C 116.667969 11.078125 116.746094 11.1875 116.722656 11.304688 C 116.589844 12.023438 116.597656 12.667969 116.617188 13 C 118.527344 12.535156 120.433594 10.804688 121.511719 9.421875 C 121.5625 9.355469 121.648438 9.328125 121.730469 9.347656 C 121.8125 9.367188 121.875 9.433594 121.886719 9.519531 C 122.101562 10.753906 123.15625 12.199219 124.269531 12.835938 C 124.285156 12.457031 124.28125 11.773438 124.132812 11.042969 C 124.109375 10.925781 124.183594 10.816406 124.300781 10.792969 C 124.417969 10.769531 124.527344 10.84375 124.550781 10.957031 C 124.789062 12.132812 124.679688 13.152344 124.675781 13.195312 C 124.667969 13.261719 124.628906 13.324219 124.570312 13.359375 C 124.511719 13.390625 124.4375 13.394531 124.375 13.367188 C 123.160156 12.828125 121.976562 11.394531 121.570312 10.027344 C 120.363281 11.457031 118.414062 13.101562 116.464844 13.46875 C 116.449219 13.46875 116.4375 13.472656 116.425781 13.472656 " fill-opacity="1" fill-rule="nonzero"/></g></g></svg>