<svg xmlns="http://www.w3.org/2000/svg" xmlns:xlink="http://www.w3.org/1999/xlink" width="200" zoomAndPan="magnify" viewBox="0 0 150 101.999999" height="136" preserveAspectRatio="xMidYMid meet" version="1.0"><defs><clipPath id="3f38b68e62"><path d="M 114.679688 76.742188 L 117.550781 76.742188 L 117.550781 79.183594 L 114.679688 79.183594 Z M 114.679688 76.742188 " clip-rule="nonzero"/></clipPath><clipPath id="c5b0a4f857"><path d="M 117.542969 77.621094 C 116.265625 79.570312 115.066406 79.269531 114.839844 78.820312 C 114.542969 78.371094 114.765625 77.171875 115.140625 76.871094 C 115.589844 76.570312 117.167969 76.945312 117.167969 76.945312 " clip-rule="nonzero"/></clipPath><clipPath id="a0c45e8093"><path d="M 0.679688 0.742188 L 3.550781 0.742188 L 3.550781 3.183594 L 0.679688 3.183594 Z M 0.679688 0.742188 " clip-rule="nonzero"/></clipPath><clipPath id="8d94e9b60e"><path d="M 3.542969 1.621094 C 2.265625 3.570312 1.066406 3.269531 0.839844 2.820312 C 0.542969 2.371094 0.765625 1.171875 1.140625 0.871094 C 1.589844 0.570312 3.167969 0.945312 3.167969 0.945312 " clip-rule="nonzero"/></clipPath><clipPath id="fe08979d95"><rect x="0" width="4" y="0" height="4"/></clipPath></defs><g clip-path="url(#3f38b68e62)"><g clip-path="url(#c5b0a4f857)"><g transform="matrix(1, 0, 0, 1, 114, 76)"><g clip-path="url(#fe08979d95)"><g clip-path="url(#a0c45e8093)"><g clip-path="url(#8d94e9b60e)"><rect x="-147" width="216" fill="#ffa240" height="146.879999" y="-98.44" fill-opacity="1"/></g></g></g></g></g></g><path fill="#ffffff" d="M 133.492188 23.265625 C 130.574219 24.421875 127.269531 22.992188 126.113281 20.074219 C 124.960938 17.152344 126.390625 13.847656 129.308594 12.691406 C 132.230469 11.539062 135.535156 12.96875 136.6875 15.886719 C 137.84375 18.808594 136.414062 22.113281 133.492188 23.265625 Z M 141.964844 10.507812 C 141.847656 10.554688 141.738281 10.609375 141.628906 10.667969 C 140.894531 9.636719 140.015625 8.738281 139.035156 7.988281 C 139.097656 7.882812 139.15625 7.773438 139.207031 7.660156 C 139.878906 6.109375 139.164062 4.304688 137.613281 3.632812 C 136.0625 2.960938 134.257812 3.675781 133.585938 5.226562 C 133.539062 5.339844 133.496094 5.457031 133.460938 5.578125 C 132.246094 5.375 130.992188 5.347656 129.734375 5.515625 C 129.707031 5.398438 129.667969 5.28125 129.621094 5.164062 C 129 3.589844 127.222656 2.820312 125.648438 3.441406 C 124.078125 4.066406 123.308594 5.84375 123.929688 7.417969 C 123.976562 7.535156 124.03125 7.644531 124.089844 7.753906 C 123.058594 8.488281 122.160156 9.363281 121.410156 10.34375 C 121.304688 10.285156 121.195312 10.226562 121.082031 10.175781 C 119.527344 9.503906 117.726562 10.214844 117.054688 11.769531 C 116.382812 13.320312 117.097656 15.121094 118.648438 15.792969 C 118.761719 15.84375 118.878906 15.882812 119 15.917969 C 118.792969 17.136719 118.769531 18.390625 118.9375 19.644531 C 118.820312 19.675781 118.703125 19.710938 118.585938 19.757812 C 117.011719 20.382812 116.242188 22.160156 116.863281 23.734375 C 117.484375 25.304688 119.265625 26.074219 120.835938 25.453125 C 120.953125 25.40625 121.066406 25.351562 121.171875 25.292969 C 121.910156 26.324219 122.785156 27.222656 123.765625 27.96875 C 123.703125 28.078125 123.648438 28.183594 123.597656 28.300781 C 122.925781 29.851562 123.636719 31.65625 125.191406 32.328125 C 126.742188 33 128.542969 32.285156 129.214844 30.734375 C 129.265625 30.617188 129.304688 30.5 129.339844 30.382812 C 130.558594 30.585938 131.8125 30.613281 133.066406 30.441406 C 133.097656 30.5625 133.132812 30.679688 133.179688 30.796875 C 133.804688 32.371094 135.582031 33.140625 137.15625 32.519531 C 138.726562 31.894531 139.496094 30.117188 138.875 28.542969 C 138.828125 28.425781 138.773438 28.316406 138.714844 28.207031 C 139.746094 27.472656 140.644531 26.597656 141.390625 25.617188 C 141.496094 25.675781 141.605469 25.734375 141.722656 25.785156 C 143.273438 26.457031 145.078125 25.742188 145.75 24.191406 C 146.421875 22.640625 145.707031 20.835938 144.15625 20.164062 C 144.039062 20.117188 143.921875 20.074219 143.804688 20.039062 C 144.007812 18.824219 144.03125 17.570312 143.863281 16.316406 C 143.984375 16.285156 144.101562 16.246094 144.21875 16.199219 C 145.792969 15.578125 146.5625 13.800781 145.941406 12.226562 C 145.316406 10.65625 143.539062 9.886719 141.964844 10.507812 " fill-opacity="1" fill-rule="nonzero"/><path fill="#000000" d="M 131.394531 12.414062 C 130.714844 12.414062 130.023438 12.539062 129.355469 12.804688 C 126.5 13.933594 125.097656 17.175781 126.226562 20.027344 C 127.355469 22.882812 130.597656 24.285156 133.449219 23.15625 C 134.832031 22.609375 135.917969 21.554688 136.507812 20.191406 C 137.101562 18.828125 137.125 17.316406 136.578125 15.933594 C 135.714844 13.75 133.613281 12.414062 131.394531 12.414062 Z M 131.410156 23.785156 C 129.09375 23.785156 126.90625 22.394531 126.003906 20.117188 C 124.824219 17.140625 126.289062 13.761719 129.265625 12.582031 C 132.242188 11.402344 135.621094 12.867188 136.800781 15.84375 C 137.371094 17.285156 137.347656 18.863281 136.730469 20.285156 C 136.113281 21.710938 134.980469 22.808594 133.539062 23.378906 C 132.839844 23.65625 132.117188 23.785156 131.410156 23.785156 Z M 141.964844 10.507812 Z M 133.066406 30.324219 C 133.121094 30.324219 133.167969 30.359375 133.183594 30.414062 C 133.214844 30.542969 133.253906 30.652344 133.292969 30.753906 C 133.890625 32.261719 135.601562 33.003906 137.109375 32.40625 C 138.617188 31.808594 139.359375 30.097656 138.761719 28.589844 C 138.722656 28.488281 138.671875 28.382812 138.609375 28.265625 C 138.582031 28.210938 138.597656 28.144531 138.644531 28.109375 C 139.652344 27.390625 140.546875 26.527344 141.296875 25.542969 C 141.332031 25.496094 141.398438 25.480469 141.453125 25.511719 C 141.566406 25.578125 141.671875 25.632812 141.769531 25.675781 C 143.257812 26.320312 144.996094 25.632812 145.640625 24.144531 C 145.953125 23.421875 145.964844 22.625 145.675781 21.894531 C 145.386719 21.164062 144.828125 20.585938 144.109375 20.277344 C 144.007812 20.234375 143.898438 20.195312 143.769531 20.15625 C 143.714844 20.136719 143.675781 20.082031 143.6875 20.019531 C 143.890625 18.800781 143.910156 17.558594 143.746094 16.332031 C 143.738281 16.269531 143.777344 16.214844 143.832031 16.199219 C 143.964844 16.164062 144.074219 16.128906 144.175781 16.089844 C 144.90625 15.800781 145.480469 15.246094 145.792969 14.523438 C 146.105469 13.800781 146.117188 13.003906 145.828125 12.273438 C 145.230469 10.761719 143.519531 10.019531 142.011719 10.617188 C 141.90625 10.660156 141.804688 10.707031 141.6875 10.773438 C 141.632812 10.800781 141.566406 10.785156 141.53125 10.738281 C 140.8125 9.726562 139.949219 8.835938 138.964844 8.085938 C 138.914062 8.046875 138.902344 7.980469 138.933594 7.929688 C 139 7.816406 139.054688 7.710938 139.097656 7.613281 C 139.410156 6.890625 139.421875 6.089844 139.132812 5.359375 C 138.84375 4.628906 138.289062 4.054688 137.566406 3.742188 C 136.078125 3.097656 134.34375 3.785156 133.695312 5.273438 C 133.652344 5.371094 133.613281 5.484375 133.578125 5.609375 C 133.558594 5.667969 133.503906 5.703125 133.441406 5.695312 C 132.222656 5.492188 130.980469 5.472656 129.753906 5.636719 C 129.691406 5.644531 129.636719 5.605469 129.621094 5.546875 C 129.585938 5.417969 129.550781 5.308594 129.511719 5.207031 C 129.222656 4.476562 128.664062 3.902344 127.945312 3.589844 C 127.222656 3.277344 126.421875 3.265625 125.691406 3.554688 C 124.960938 3.84375 124.386719 4.398438 124.074219 5.121094 C 123.761719 5.839844 123.75 6.640625 124.039062 7.371094 C 124.078125 7.472656 124.128906 7.578125 124.191406 7.695312 C 124.222656 7.75 124.207031 7.816406 124.15625 7.851562 C 123.148438 8.570312 122.257812 9.433594 121.507812 10.417969 C 121.46875 10.464844 121.402344 10.480469 121.351562 10.449219 C 121.238281 10.382812 121.132812 10.328125 121.03125 10.285156 C 119.542969 9.640625 117.808594 10.328125 117.164062 11.816406 C 116.851562 12.535156 116.839844 13.335938 117.128906 14.066406 C 117.417969 14.796875 117.972656 15.371094 118.695312 15.683594 C 118.792969 15.726562 118.902344 15.765625 119.03125 15.804688 C 119.089844 15.820312 119.125 15.878906 119.117188 15.9375 C 118.914062 17.160156 118.894531 18.402344 119.058594 19.628906 C 119.066406 19.6875 119.027344 19.746094 118.96875 19.761719 C 118.839844 19.796875 118.730469 19.832031 118.628906 19.871094 C 117.898438 20.160156 117.324219 20.714844 117.011719 21.4375 C 116.699219 22.160156 116.6875 22.957031 116.976562 23.6875 C 117.265625 24.417969 117.820312 24.992188 118.542969 25.304688 C 119.261719 25.617188 120.0625 25.632812 120.792969 25.34375 C 120.894531 25.300781 120.996094 25.253906 121.117188 25.1875 C 121.171875 25.160156 121.238281 25.175781 121.269531 25.222656 C 121.992188 26.234375 122.855469 27.125 123.839844 27.875 C 123.886719 27.910156 123.902344 27.980469 123.871094 28.03125 C 123.800781 28.144531 123.75 28.25 123.707031 28.347656 C 123.394531 29.070312 123.382812 29.871094 123.671875 30.601562 C 123.960938 31.332031 124.515625 31.90625 125.238281 32.21875 C 126.726562 32.863281 128.460938 32.175781 129.105469 30.6875 C 129.148438 30.585938 129.1875 30.476562 129.226562 30.351562 C 129.242188 30.292969 129.300781 30.253906 129.359375 30.265625 C 130.582031 30.46875 131.824219 30.488281 133.050781 30.324219 C 133.054688 30.324219 133.0625 30.324219 133.066406 30.324219 Z M 136.03125 32.851562 C 134.765625 32.851562 133.5625 32.089844 133.070312 30.839844 C 133.035156 30.757812 133.007812 30.671875 132.980469 30.574219 C 131.796875 30.722656 130.601562 30.703125 129.425781 30.519531 C 129.394531 30.613281 129.359375 30.703125 129.324219 30.78125 C 128.628906 32.390625 126.753906 33.132812 125.140625 32.4375 C 124.363281 32.101562 123.761719 31.480469 123.449219 30.6875 C 123.136719 29.898438 123.148438 29.035156 123.488281 28.253906 C 123.523438 28.171875 123.5625 28.089844 123.613281 28 C 122.671875 27.273438 121.839844 26.414062 121.136719 25.449219 C 121.046875 25.496094 120.964844 25.53125 120.882812 25.566406 C 119.25 26.210938 117.398438 25.40625 116.753906 23.777344 C 116.441406 22.988281 116.453125 22.121094 116.792969 21.34375 C 117.128906 20.5625 117.75 19.960938 118.539062 19.648438 C 118.621094 19.617188 118.710938 19.585938 118.808594 19.558594 C 118.65625 18.375 118.675781 17.179688 118.863281 16.003906 C 118.765625 15.972656 118.679688 15.9375 118.601562 15.90625 C 117.820312 15.566406 117.21875 14.945312 116.90625 14.15625 C 116.59375 13.367188 116.605469 12.5 116.945312 11.722656 C 117.640625 10.109375 119.519531 9.367188 121.128906 10.066406 C 121.207031 10.101562 121.292969 10.140625 121.378906 10.191406 C 122.109375 9.25 122.96875 8.417969 123.933594 7.714844 C 123.886719 7.625 123.851562 7.542969 123.816406 7.460938 C 123.503906 6.671875 123.519531 5.804688 123.855469 5.027344 C 124.195312 4.246094 124.816406 3.644531 125.605469 3.332031 C 126.394531 3.019531 127.261719 3.03125 128.039062 3.371094 C 128.820312 3.707031 129.421875 4.328125 129.734375 5.121094 C 129.765625 5.199219 129.796875 5.289062 129.824219 5.386719 C 131.007812 5.238281 132.203125 5.253906 133.378906 5.441406 C 133.410156 5.347656 133.441406 5.257812 133.476562 5.179688 C 134.175781 3.570312 136.050781 2.824219 137.660156 3.523438 C 138.441406 3.859375 139.042969 4.480469 139.355469 5.273438 C 139.667969 6.0625 139.652344 6.925781 139.316406 7.707031 C 139.28125 7.785156 139.242188 7.871094 139.191406 7.957031 C 140.132812 8.6875 140.964844 9.546875 141.664062 10.511719 C 141.757812 10.464844 141.839844 10.429688 141.921875 10.394531 C 143.554688 9.75 145.40625 10.550781 146.050781 12.183594 C 146.363281 12.972656 146.351562 13.839844 146.011719 14.617188 C 145.675781 15.398438 145.054688 16 144.261719 16.3125 C 144.179688 16.34375 144.09375 16.375 143.996094 16.402344 C 144.144531 17.585938 144.125 18.78125 143.941406 19.957031 C 144.035156 19.988281 144.121094 20.019531 144.203125 20.054688 C 144.984375 20.394531 145.585938 21.015625 145.898438 21.804688 C 146.210938 22.59375 146.195312 23.460938 145.859375 24.238281 C 145.160156 25.847656 143.285156 26.59375 141.675781 25.894531 C 141.59375 25.859375 141.511719 25.820312 141.421875 25.769531 C 140.691406 26.710938 139.835938 27.542969 138.871094 28.242188 C 138.914062 28.332031 138.953125 28.417969 138.984375 28.5 C 139.632812 30.132812 138.828125 31.984375 137.199219 32.628906 C 136.816406 32.78125 136.421875 32.851562 136.03125 32.851562 " fill-opacity="1" fill-rule="nonzero"/><path fill="#ffffff" d="M 31.464844 82.234375 C 28.480469 85.085938 23.753906 84.976562 20.902344 81.996094 C 18.050781 79.011719 18.15625 74.285156 21.140625 71.433594 C 24.121094 68.582031 28.851562 68.691406 31.703125 71.671875 C 34.554688 74.65625 34.445312 79.382812 31.464844 82.234375 Z M 35.464844 62.511719 C 35.34375 62.625 35.234375 62.75 35.132812 62.875 C 33.726562 61.984375 32.214844 61.324219 30.652344 60.898438 C 30.675781 60.738281 30.691406 60.578125 30.695312 60.410156 C 30.746094 58.191406 28.988281 56.347656 26.765625 56.296875 C 24.542969 56.25 22.703125 58.007812 22.652344 60.230469 C 22.648438 60.394531 22.660156 60.558594 22.675781 60.71875 C 21.09375 61.074219 19.554688 61.664062 18.109375 62.488281 C 18.011719 62.359375 17.910156 62.234375 17.796875 62.113281 C 16.261719 60.507812 13.714844 60.449219 12.109375 61.984375 C 10.503906 63.519531 10.445312 66.066406 11.980469 67.671875 C 12.09375 67.792969 12.214844 67.902344 12.339844 68.003906 C 11.449219 69.410156 10.792969 70.921875 10.367188 72.484375 C 10.207031 72.460938 10.042969 72.445312 9.878906 72.441406 C 7.65625 72.390625 5.816406 74.148438 5.765625 76.371094 C 5.714844 78.59375 7.476562 80.433594 9.699219 80.484375 C 9.863281 80.488281 10.027344 80.476562 10.1875 80.460938 C 10.539062 82.042969 11.132812 83.582031 11.957031 85.027344 C 11.828125 85.121094 11.703125 85.226562 11.582031 85.339844 C 9.976562 86.875 9.917969 89.421875 11.453125 91.027344 C 12.988281 92.632812 15.535156 92.691406 17.140625 91.15625 C 17.261719 91.039062 17.371094 90.917969 17.472656 90.792969 C 18.875 91.683594 20.386719 92.34375 21.953125 92.769531 C 21.929688 92.929688 21.910156 93.089844 21.90625 93.257812 C 21.859375 95.476562 23.617188 97.320312 25.839844 97.367188 C 28.058594 97.417969 29.902344 95.660156 29.949219 93.4375 C 29.953125 93.273438 29.945312 93.109375 29.929688 92.949219 C 31.511719 92.59375 33.050781 92.003906 34.496094 91.179688 C 34.589844 91.308594 34.695312 91.433594 34.808594 91.554688 C 36.34375 93.160156 38.890625 93.21875 40.496094 91.683594 C 42.101562 90.148438 42.160156 87.601562 40.625 85.996094 C 40.507812 85.875 40.386719 85.765625 40.261719 85.664062 C 41.152344 84.257812 41.8125 82.746094 42.238281 81.183594 C 42.398438 81.207031 42.558594 81.222656 42.726562 81.226562 C 44.945312 81.277344 46.789062 79.519531 46.835938 77.296875 C 46.886719 75.074219 45.128906 73.234375 42.90625 73.183594 C 42.742188 73.179688 42.578125 73.191406 42.417969 73.207031 C 42.0625 71.625 41.472656 70.085938 40.648438 68.640625 C 40.777344 68.542969 40.902344 68.441406 41.023438 68.328125 C 42.628906 66.792969 42.683594 64.246094 41.152344 62.640625 C 39.617188 61.035156 37.070312 60.976562 35.464844 62.511719 " fill-opacity="1" fill-rule="nonzero"/><path fill="#000000" d="M 26.296875 69.484375 C 24.398438 69.484375 22.601562 70.203125 21.222656 71.519531 C 18.292969 74.320312 18.1875 78.984375 20.988281 81.914062 C 22.34375 83.332031 24.171875 84.136719 26.136719 84.183594 C 28.097656 84.226562 29.960938 83.503906 31.382812 82.148438 L 31.464844 82.234375 L 31.382812 82.148438 C 32.800781 80.789062 33.605469 78.960938 33.652344 77 C 33.695312 75.035156 32.972656 73.175781 31.617188 71.753906 C 30.257812 70.335938 28.429688 69.53125 26.46875 69.484375 C 26.410156 69.484375 26.355469 69.484375 26.296875 69.484375 Z M 26.308594 84.421875 C 26.25 84.421875 26.191406 84.421875 26.132812 84.421875 C 24.105469 84.375 22.214844 83.542969 20.816406 82.078125 C 17.925781 79.054688 18.03125 74.238281 21.058594 71.347656 C 22.523438 69.945312 24.445312 69.199219 26.472656 69.246094 C 28.5 69.292969 30.386719 70.125 31.789062 71.589844 C 33.191406 73.054688 33.9375 74.976562 33.890625 77.003906 C 33.84375 79.03125 33.011719 80.917969 31.546875 82.320312 C 30.125 83.679688 28.269531 84.421875 26.308594 84.421875 Z M 17.472656 90.675781 C 17.492188 90.675781 17.515625 90.679688 17.535156 90.695312 C 18.914062 91.566406 20.410156 92.226562 21.984375 92.652344 C 22.042969 92.667969 22.078125 92.726562 22.070312 92.785156 C 22.042969 92.960938 22.03125 93.117188 22.027344 93.261719 C 21.980469 95.410156 23.691406 97.199219 25.839844 97.25 C 27.988281 97.296875 29.78125 95.585938 29.832031 93.433594 C 29.835938 93.292969 29.828125 93.136719 29.808594 92.960938 C 29.804688 92.902344 29.84375 92.847656 29.902344 92.832031 C 31.492188 92.476562 33.019531 91.886719 34.433594 91.074219 C 34.488281 91.042969 34.554688 91.058594 34.589844 91.105469 C 34.695312 91.25 34.796875 91.367188 34.894531 91.472656 C 35.613281 92.222656 36.585938 92.652344 37.628906 92.675781 C 38.671875 92.699219 39.660156 92.316406 40.414062 91.59375 C 41.167969 90.875 41.59375 89.902344 41.617188 88.863281 C 41.640625 87.820312 41.257812 86.832031 40.539062 86.078125 C 40.4375 85.972656 40.324219 85.867188 40.1875 85.757812 C 40.140625 85.71875 40.128906 85.652344 40.160156 85.601562 C 41.035156 84.222656 41.695312 82.726562 42.121094 81.152344 C 42.140625 81.09375 42.195312 81.058594 42.253906 81.066406 C 42.429688 81.089844 42.585938 81.105469 42.726562 81.109375 C 44.878906 81.15625 46.667969 79.445312 46.71875 77.292969 C 46.765625 75.144531 45.054688 73.351562 42.902344 73.304688 C 42.757812 73.300781 42.609375 73.308594 42.429688 73.324219 C 42.371094 73.332031 42.316406 73.292969 42.300781 73.234375 C 41.945312 71.644531 41.355469 70.117188 40.542969 68.703125 C 40.511719 68.648438 40.527344 68.582031 40.574219 68.546875 C 40.71875 68.4375 40.835938 68.339844 40.9375 68.242188 C 42.496094 66.753906 42.550781 64.277344 41.0625 62.722656 C 39.578125 61.167969 37.101562 61.113281 35.546875 62.597656 C 35.441406 62.699219 35.339844 62.808594 35.226562 62.949219 C 35.1875 62.996094 35.121094 63.007812 35.070312 62.972656 C 33.691406 62.101562 32.195312 61.441406 30.621094 61.011719 C 30.5625 60.996094 30.527344 60.941406 30.535156 60.878906 C 30.558594 60.703125 30.574219 60.554688 30.578125 60.40625 C 30.601562 59.367188 30.214844 58.375 29.496094 57.625 C 28.777344 56.871094 27.804688 56.441406 26.761719 56.417969 C 25.71875 56.394531 24.730469 56.777344 23.976562 57.5 C 23.222656 58.21875 22.796875 59.191406 22.773438 60.230469 C 22.769531 60.375 22.777344 60.53125 22.792969 60.707031 C 22.800781 60.765625 22.761719 60.820312 22.699219 60.835938 C 21.109375 61.191406 19.585938 61.78125 18.167969 62.59375 C 18.117188 62.625 18.050781 62.609375 18.015625 62.5625 C 17.910156 62.417969 17.808594 62.300781 17.710938 62.195312 C 16.988281 61.441406 16.019531 61.015625 14.976562 60.992188 C 13.933594 60.96875 12.945312 61.351562 12.191406 62.070312 C 10.636719 63.558594 10.582031 66.035156 12.066406 67.589844 C 12.167969 67.695312 12.28125 67.800781 12.417969 67.910156 C 12.464844 67.949219 12.476562 68.015625 12.441406 68.066406 C 11.570312 69.445312 10.910156 70.941406 10.480469 72.515625 C 10.464844 72.574219 10.40625 72.609375 10.347656 72.601562 C 10.175781 72.578125 10.019531 72.5625 9.875 72.558594 C 8.835938 72.535156 7.84375 72.917969 7.089844 73.640625 C 6.335938 74.359375 5.910156 75.332031 5.886719 76.375 C 5.863281 77.414062 6.246094 78.40625 6.96875 79.15625 C 7.6875 79.910156 8.65625 80.339844 9.699219 80.363281 C 9.84375 80.367188 10 80.359375 10.175781 80.34375 C 10.234375 80.335938 10.289062 80.375 10.304688 80.433594 C 10.660156 82.023438 11.25 83.550781 12.0625 84.964844 C 12.089844 85.019531 12.078125 85.085938 12.027344 85.121094 C 11.886719 85.230469 11.769531 85.324219 11.664062 85.425781 C 10.109375 86.914062 10.054688 89.390625 11.539062 90.945312 C 13.027344 92.5 15.503906 92.554688 17.058594 91.070312 C 17.160156 90.96875 17.265625 90.855469 17.378906 90.71875 C 17.402344 90.691406 17.4375 90.675781 17.472656 90.675781 Z M 25.929688 97.488281 C 25.898438 97.488281 25.867188 97.488281 25.835938 97.488281 C 23.554688 97.4375 21.738281 95.539062 21.789062 93.253906 C 21.792969 93.128906 21.800781 93 21.820312 92.859375 C 20.292969 92.433594 18.839844 91.792969 17.496094 90.953125 C 17.402344 91.0625 17.3125 91.15625 17.222656 91.242188 C 15.574219 92.820312 12.945312 92.761719 11.367188 91.109375 C 9.789062 89.457031 9.847656 86.832031 11.5 85.253906 C 11.589844 85.167969 11.6875 85.082031 11.800781 84.996094 C 11.023438 83.613281 10.449219 82.132812 10.09375 80.589844 C 9.949219 80.601562 9.820312 80.605469 9.695312 80.601562 C 8.589844 80.578125 7.558594 80.125 6.792969 79.324219 C 6.03125 78.523438 5.621094 77.472656 5.648438 76.367188 C 5.671875 75.261719 6.125 74.230469 6.925781 73.464844 C 7.726562 72.703125 8.78125 72.296875 9.882812 72.320312 C 10.003906 72.324219 10.136719 72.332031 10.277344 72.351562 C 10.703125 70.824219 11.34375 69.371094 12.183594 68.027344 C 12.074219 67.933594 11.980469 67.84375 11.894531 67.753906 C 10.316406 66.105469 10.375 63.476562 12.027344 61.898438 C 12.828125 61.132812 13.875 60.726562 14.980469 60.753906 C 16.089844 60.777344 17.117188 61.230469 17.882812 62.03125 C 17.96875 62.121094 18.054688 62.21875 18.140625 62.332031 C 19.523438 61.554688 21.003906 60.980469 22.546875 60.625 C 22.535156 60.480469 22.53125 60.351562 22.535156 60.226562 C 22.558594 59.121094 23.011719 58.089844 23.8125 57.324219 C 24.613281 56.5625 25.664062 56.152344 26.769531 56.179688 C 27.875 56.203125 28.90625 56.65625 29.667969 57.457031 C 30.433594 58.257812 30.839844 59.308594 30.816406 60.414062 C 30.8125 60.535156 30.804688 60.667969 30.785156 60.808594 C 32.308594 61.234375 33.761719 61.875 35.109375 62.714844 C 35.203125 62.605469 35.289062 62.511719 35.378906 62.425781 C 37.03125 60.847656 39.660156 60.90625 41.238281 62.558594 C 42.816406 64.210938 42.753906 66.835938 41.105469 68.414062 C 41.015625 68.5 40.917969 68.585938 40.804688 68.671875 C 41.582031 70.054688 42.15625 71.535156 42.511719 73.078125 C 42.65625 73.066406 42.785156 73.0625 42.910156 73.066406 C 45.191406 73.117188 47.007812 75.015625 46.957031 77.300781 C 46.90625 79.550781 45.058594 81.347656 42.816406 81.347656 C 42.785156 81.347656 42.753906 81.347656 42.722656 81.347656 C 42.597656 81.34375 42.46875 81.335938 42.324219 81.316406 C 41.902344 82.839844 41.257812 84.296875 40.417969 85.640625 C 40.527344 85.734375 40.625 85.824219 40.710938 85.914062 C 41.476562 86.710938 41.882812 87.761719 41.855469 88.867188 C 41.832031 89.972656 41.378906 91.003906 40.578125 91.769531 C 39.777344 92.53125 38.726562 92.941406 37.621094 92.914062 C 36.515625 92.890625 35.484375 92.4375 34.722656 91.636719 C 34.636719 91.546875 34.550781 91.449219 34.460938 91.335938 C 33.082031 92.113281 31.601562 92.6875 30.058594 93.042969 C 30.070312 93.1875 30.074219 93.316406 30.070312 93.441406 C 30.019531 95.691406 28.171875 97.488281 25.929688 97.488281 " fill-opacity="1" fill-rule="nonzero"/><path fill="#ffffff" d="M 85.183594 75.71875 L 3.875 75.71875 C 1.835938 75.71875 0.179688 74.066406 0.179688 72.023438 L 0.179688 3.816406 C 0.179688 1.773438 1.835938 0.121094 3.875 0.121094 L 106.800781 0.121094 C 108.839844 0.121094 110.496094 1.773438 110.496094 3.816406 L 110.496094 38.703125 L 85.183594 75.71875 " fill-opacity="1" fill-rule="nonzero"/><path fill="#000000" d="M 85.183594 75.839844 L 3.875 75.839844 C 1.769531 75.839844 0.0585938 74.128906 0.0585938 72.023438 L 0.0585938 3.816406 C 0.0585938 1.710938 1.769531 0 3.875 0 L 106.800781 0 C 108.902344 0 110.617188 1.710938 110.617188 3.816406 L 110.617188 38.703125 C 110.617188 38.769531 110.5625 38.824219 110.496094 38.824219 C 110.429688 38.824219 110.375 38.769531 110.375 38.703125 L 110.375 3.816406 C 110.375 1.84375 108.773438 0.238281 106.800781 0.238281 L 3.875 0.238281 C 1.902344 0.238281 0.300781 1.84375 0.300781 3.816406 L 0.300781 72.023438 C 0.300781 73.996094 1.902344 75.601562 3.875 75.601562 L 85.183594 75.601562 C 85.25 75.601562 85.300781 75.652344 85.300781 75.71875 C 85.300781 75.785156 85.25 75.839844 85.183594 75.839844 " fill-opacity="1" fill-rule="nonzero"/><path fill="#000000" d="M 110.496094 5.964844 L 0.179688 5.964844 C 0.113281 5.964844 0.0585938 5.910156 0.0585938 5.84375 C 0.0585938 5.777344 0.113281 5.726562 0.179688 5.726562 L 110.496094 5.726562 C 110.5625 5.726562 110.617188 5.777344 110.617188 5.84375 C 110.617188 5.910156 110.5625 5.964844 110.496094 5.964844 " fill-opacity="1" fill-rule="nonzero"/><path fill="#000000" d="M 3.558594 2.324219 C 3.0625 2.324219 2.660156 2.730469 2.660156 3.226562 C 2.660156 3.722656 3.0625 4.125 3.558594 4.125 C 4.054688 4.125 4.460938 3.722656 4.460938 3.226562 C 4.460938 2.730469 4.054688 2.324219 3.558594 2.324219 Z M 3.558594 4.363281 C 2.933594 4.363281 2.421875 3.855469 2.421875 3.226562 C 2.421875 2.597656 2.933594 2.085938 3.558594 2.085938 C 4.1875 2.085938 4.699219 2.597656 4.699219 3.226562 C 4.699219 3.855469 4.1875 4.363281 3.558594 4.363281 " fill-opacity="1" fill-rule="nonzero"/><path fill="#000000" d="M 6.535156 2.324219 C 6.039062 2.324219 5.636719 2.730469 5.636719 3.226562 C 5.636719 3.722656 6.039062 4.125 6.535156 4.125 C 7.03125 4.125 7.433594 3.722656 7.433594 3.226562 C 7.433594 2.730469 7.03125 2.324219 6.535156 2.324219 Z M 6.535156 4.363281 C 5.90625 4.363281 5.394531 3.855469 5.394531 3.226562 C 5.394531 2.597656 5.90625 2.085938 6.535156 2.085938 C 7.164062 2.085938 7.675781 2.597656 7.675781 3.226562 C 7.675781 3.855469 7.164062 4.363281 6.535156 4.363281 " fill-opacity="1" fill-rule="nonzero"/><path fill="#000000" d="M 9.511719 2.324219 C 9.015625 2.324219 8.609375 2.730469 8.609375 3.226562 C 8.609375 3.722656 9.015625 4.125 9.511719 4.125 C 10.007812 4.125 10.410156 3.722656 10.410156 3.226562 C 10.410156 2.730469 10.007812 2.324219 9.511719 2.324219 Z M 9.511719 4.363281 C 8.882812 4.363281 8.371094 3.855469 8.371094 3.226562 C 8.371094 2.597656 8.882812 2.085938 9.511719 2.085938 C 10.136719 2.085938 10.648438 2.597656 10.648438 3.226562 C 10.648438 3.855469 10.136719 4.363281 9.511719 4.363281 " fill-opacity="1" fill-rule="nonzero"/><path fill="#000000" d="M 11.917969 21.414062 C 11.855469 21.414062 11.800781 21.359375 11.800781 21.292969 L 11.800781 20.285156 C 11.800781 20.21875 11.855469 20.164062 11.917969 20.164062 C 12.773438 20.164062 13.46875 19.46875 13.46875 18.613281 C 13.46875 17.757812 12.773438 17.0625 11.917969 17.0625 C 11.265625 17.0625 10.679688 17.476562 10.460938 18.097656 C 10.4375 18.160156 10.371094 18.191406 10.308594 18.171875 C 10.246094 18.148438 10.210938 18.082031 10.234375 18.019531 C 10.484375 17.304688 11.164062 16.824219 11.917969 16.824219 C 12.90625 16.824219 13.707031 17.625 13.707031 18.613281 C 13.707031 19.5625 12.96875 20.339844 12.039062 20.402344 L 12.039062 21.292969 C 12.039062 21.359375 11.984375 21.414062 11.917969 21.414062 " fill-opacity="1" fill-rule="nonzero"/><path fill="#000000" d="M 11.921875 22.765625 C 11.855469 22.765625 11.800781 22.714844 11.800781 22.648438 L 11.800781 22.226562 C 11.800781 22.160156 11.855469 22.105469 11.921875 22.105469 C 11.988281 22.105469 12.039062 22.160156 12.039062 22.226562 L 12.039062 22.648438 C 12.039062 22.714844 11.988281 22.765625 11.921875 22.765625 " fill-opacity="1" fill-rule="nonzero"/><path fill="#000000" d="M 11.96875 13.746094 C 8.765625 13.746094 6.160156 16.351562 6.160156 19.554688 C 6.160156 22.757812 8.765625 25.363281 11.96875 25.363281 C 15.171875 25.363281 17.777344 22.757812 17.777344 19.554688 C 17.777344 16.351562 15.171875 13.746094 11.96875 13.746094 Z M 11.96875 25.605469 C 8.632812 25.605469 5.917969 22.890625 5.917969 19.554688 C 5.917969 16.21875 8.632812 13.507812 11.96875 13.507812 C 15.300781 13.507812 18.015625 16.21875 18.015625 19.554688 C 18.015625 22.890625 15.300781 25.605469 11.96875 25.605469 " fill-opacity="1" fill-rule="nonzero"/><path fill="#000000" d="M 94.269531 16.449219 L 77.476562 16.449219 C 77.410156 16.449219 77.355469 16.394531 77.355469 16.328125 C 77.355469 16.261719 77.410156 16.210938 77.476562 16.210938 L 94.269531 16.210938 C 94.335938 16.210938 94.390625 16.261719 94.390625 16.328125 C 94.390625 16.394531 94.335938 16.449219 94.269531 16.449219 " fill-opacity="1" fill-rule="nonzero"/><path fill="#000000" d="M 67.722656 16.449219 L 28.007812 16.449219 C 27.941406 16.449219 27.886719 16.394531 27.886719 16.328125 C 27.886719 16.261719 27.941406 16.210938 28.007812 16.210938 L 67.722656 16.210938 C 67.789062 16.210938 67.84375 16.261719 67.84375 16.328125 C 67.84375 16.394531 67.789062 16.449219 67.722656 16.449219 " fill-opacity="1" fill-rule="nonzero"/><path fill="#000000" d="M 94.269531 20.082031 L 28.007812 20.082031 C 27.941406 20.082031 27.886719 20.027344 27.886719 19.960938 C 27.886719 19.894531 27.941406 19.839844 28.007812 19.839844 L 94.269531 19.839844 C 94.335938 19.839844 94.390625 19.894531 94.390625 19.960938 C 94.390625 20.027344 94.335938 20.082031 94.269531 20.082031 " fill-opacity="1" fill-rule="nonzero"/><path fill="#000000" d="M 94.269531 23.710938 L 54.644531 23.710938 C 54.578125 23.710938 54.523438 23.65625 54.523438 23.589844 C 54.523438 23.523438 54.578125 23.472656 54.644531 23.472656 L 94.269531 23.472656 C 94.335938 23.472656 94.390625 23.523438 94.390625 23.589844 C 94.390625 23.65625 94.335938 23.710938 94.269531 23.710938 " fill-opacity="1" fill-rule="nonzero"/><path fill="#000000" d="M 45.367188 23.710938 L 28.007812 23.710938 C 27.941406 23.710938 27.886719 23.65625 27.886719 23.589844 C 27.886719 23.523438 27.941406 23.472656 28.007812 23.472656 L 45.367188 23.472656 C 45.433594 23.472656 45.488281 23.523438 45.488281 23.589844 C 45.488281 23.65625 45.433594 23.710938 45.367188 23.710938 " fill-opacity="1" fill-rule="nonzero"/><path fill="#e2eaff" d="M 114.238281 51.625 L 15.492188 51.625 C 13.945312 51.625 12.6875 50.367188 12.6875 48.820312 L 12.6875 33.054688 C 12.6875 31.503906 13.945312 30.25 15.492188 30.25 L 114.238281 30.25 C 115.785156 30.25 117.042969 31.503906 117.042969 33.054688 L 117.042969 48.820312 C 117.042969 50.367188 115.785156 51.625 114.238281 51.625 " fill-opacity="1" fill-rule="nonzero"/><path fill="#000000" d="M 23.894531 42.96875 C 23.828125 42.96875 23.773438 42.914062 23.773438 42.847656 L 23.773438 41.839844 C 23.773438 41.773438 23.828125 41.71875 23.894531 41.71875 C 24.746094 41.71875 25.441406 41.023438 25.441406 40.167969 C 25.441406 39.3125 24.746094 38.613281 23.894531 38.613281 C 23.238281 38.613281 22.652344 39.03125 22.433594 39.648438 C 22.410156 39.710938 22.34375 39.746094 22.28125 39.722656 C 22.21875 39.699219 22.1875 39.632812 22.207031 39.570312 C 22.460938 38.855469 23.136719 38.375 23.894531 38.375 C 24.878906 38.375 25.679688 39.179688 25.679688 40.167969 C 25.679688 41.113281 24.941406 41.890625 24.011719 41.953125 L 24.011719 42.847656 C 24.011719 42.914062 23.960938 42.96875 23.894531 42.96875 " fill-opacity="1" fill-rule="nonzero"/><path fill="#000000" d="M 23.894531 44.320312 C 23.828125 44.320312 23.773438 44.265625 23.773438 44.199219 L 23.773438 43.777344 C 23.773438 43.714844 23.828125 43.660156 23.894531 43.660156 C 23.960938 43.660156 24.015625 43.714844 24.015625 43.777344 L 24.015625 44.199219 C 24.015625 44.265625 23.960938 44.320312 23.894531 44.320312 " fill-opacity="1" fill-rule="nonzero"/><path fill="#000000" d="M 23.941406 35.300781 C 20.738281 35.300781 18.132812 37.90625 18.132812 41.109375 C 18.132812 44.3125 20.738281 46.917969 23.941406 46.917969 C 27.144531 46.917969 29.75 44.3125 29.75 41.109375 C 29.75 37.90625 27.144531 35.300781 23.941406 35.300781 Z M 23.941406 47.15625 C 20.605469 47.15625 17.890625 44.441406 17.890625 41.109375 C 17.890625 37.773438 20.605469 35.058594 23.941406 35.058594 C 27.277344 35.058594 29.988281 37.773438 29.988281 41.109375 C 29.988281 44.441406 27.277344 47.15625 23.941406 47.15625 " fill-opacity="1" fill-rule="nonzero"/><path fill="#000000" d="M 56.777344 45.265625 L 39.980469 45.265625 C 39.914062 45.265625 39.859375 45.210938 39.859375 45.144531 C 39.859375 45.078125 39.914062 45.023438 39.980469 45.023438 L 56.777344 45.023438 C 56.84375 45.023438 56.894531 45.078125 56.894531 45.144531 C 56.894531 45.210938 56.84375 45.265625 56.777344 45.265625 " fill-opacity="1" fill-rule="nonzero"/><path fill="#000000" d="M 90.644531 45.265625 L 66.527344 45.265625 C 66.460938 45.265625 66.40625 45.210938 66.40625 45.144531 C 66.40625 45.078125 66.460938 45.023438 66.527344 45.023438 L 90.644531 45.023438 C 90.710938 45.023438 90.761719 45.078125 90.761719 45.144531 C 90.761719 45.210938 90.710938 45.265625 90.644531 45.265625 " fill-opacity="1" fill-rule="nonzero"/><path fill="#000000" d="M 88.535156 41.632812 L 39.980469 41.632812 C 39.914062 41.632812 39.859375 41.578125 39.859375 41.511719 C 39.859375 41.445312 39.914062 41.394531 39.980469 41.394531 L 88.535156 41.394531 C 88.601562 41.394531 88.65625 41.445312 88.65625 41.511719 C 88.65625 41.578125 88.601562 41.632812 88.535156 41.632812 " fill-opacity="1" fill-rule="nonzero"/><path fill="#000000" d="M 79.609375 38 L 39.980469 38 C 39.914062 38 39.859375 37.949219 39.859375 37.882812 C 39.859375 37.816406 39.914062 37.761719 39.980469 37.761719 L 79.609375 37.761719 C 79.675781 37.761719 79.726562 37.816406 79.726562 37.882812 C 79.726562 37.949219 79.675781 38 79.609375 38 " fill-opacity="1" fill-rule="nonzero"/><path fill="#000000" d="M 11.917969 63.320312 C 11.855469 63.320312 11.800781 63.269531 11.800781 63.203125 L 11.800781 62.191406 C 11.800781 62.125 11.855469 62.074219 11.917969 62.074219 C 12.773438 62.074219 13.46875 61.378906 13.46875 60.519531 C 13.46875 59.664062 12.773438 58.96875 11.917969 58.96875 C 11.265625 58.96875 10.679688 59.386719 10.460938 60.003906 C 10.4375 60.066406 10.371094 60.101562 10.308594 60.078125 C 10.246094 60.054688 10.210938 59.988281 10.234375 59.925781 C 10.484375 59.210938 11.164062 58.730469 11.917969 58.730469 C 12.90625 58.730469 13.707031 59.535156 13.707031 60.519531 C 13.707031 61.46875 12.96875 62.246094 12.039062 62.308594 L 12.039062 63.203125 C 12.039062 63.269531 11.984375 63.320312 11.917969 63.320312 " fill-opacity="1" fill-rule="nonzero"/><path fill="#000000" d="M 11.921875 64.675781 C 11.855469 64.675781 11.800781 64.621094 11.800781 64.554688 L 11.800781 64.132812 C 11.800781 64.066406 11.855469 64.015625 11.921875 64.015625 C 11.988281 64.015625 12.039062 64.066406 12.039062 64.132812 L 12.039062 64.554688 C 12.039062 64.621094 11.988281 64.675781 11.921875 64.675781 " fill-opacity="1" fill-rule="nonzero"/><path fill="#000000" d="M 11.96875 55.652344 C 8.765625 55.652344 6.160156 58.261719 6.160156 61.464844 C 6.160156 64.664062 8.765625 67.269531 11.96875 67.269531 C 15.171875 67.269531 17.777344 64.664062 17.777344 61.464844 C 17.777344 58.261719 15.171875 55.652344 11.96875 55.652344 Z M 11.96875 67.511719 C 8.632812 67.511719 5.917969 64.796875 5.917969 61.464844 C 5.917969 58.128906 8.632812 55.414062 11.96875 55.414062 C 15.300781 55.414062 18.015625 58.128906 18.015625 61.464844 C 18.015625 64.796875 15.300781 67.511719 11.96875 67.511719 " fill-opacity="1" fill-rule="nonzero"/><path fill="#000000" d="M 94.269531 58.355469 L 77.476562 58.355469 C 77.410156 58.355469 77.355469 58.300781 77.355469 58.238281 C 77.355469 58.171875 77.410156 58.117188 77.476562 58.117188 L 94.269531 58.117188 C 94.335938 58.117188 94.390625 58.171875 94.390625 58.238281 C 94.390625 58.300781 94.335938 58.355469 94.269531 58.355469 " fill-opacity="1" fill-rule="nonzero"/><path fill="#000000" d="M 67.722656 58.355469 L 28.007812 58.355469 C 27.941406 58.355469 27.886719 58.300781 27.886719 58.238281 C 27.886719 58.171875 27.941406 58.117188 28.007812 58.117188 L 67.722656 58.117188 C 67.789062 58.117188 67.84375 58.171875 67.84375 58.238281 C 67.84375 58.300781 67.789062 58.355469 67.722656 58.355469 " fill-opacity="1" fill-rule="nonzero"/><path fill="#000000" d="M 94.269531 61.988281 L 28.007812 61.988281 C 27.941406 61.988281 27.886719 61.933594 27.886719 61.867188 C 27.886719 61.800781 27.941406 61.75 28.007812 61.75 L 94.269531 61.75 C 94.335938 61.75 94.390625 61.800781 94.390625 61.867188 C 94.390625 61.933594 94.335938 61.988281 94.269531 61.988281 " fill-opacity="1" fill-rule="nonzero"/><path fill="#000000" d="M 94.269531 65.617188 L 54.644531 65.617188 C 54.578125 65.617188 54.523438 65.566406 54.523438 65.5 C 54.523438 65.433594 54.578125 65.378906 54.644531 65.378906 L 94.269531 65.378906 C 94.335938 65.378906 94.390625 65.433594 94.390625 65.5 C 94.390625 65.566406 94.335938 65.617188 94.269531 65.617188 " fill-opacity="1" fill-rule="nonzero"/><path fill="#000000" d="M 45.367188 65.617188 L 28.007812 65.617188 C 27.941406 65.617188 27.886719 65.566406 27.886719 65.5 C 27.886719 65.433594 27.941406 65.378906 28.007812 65.378906 L 45.367188 65.378906 C 45.433594 65.378906 45.488281 65.433594 45.488281 65.5 C 45.488281 65.566406 45.433594 65.617188 45.367188 65.617188 " fill-opacity="1" fill-rule="nonzero"/><path fill="#ffffff" d="M 93.902344 41.5 C 93.902344 41.5 91.183594 53.679688 95.996094 54.324219 C 99.714844 54.824219 103.933594 52.648438 104.027344 52.371094 C 104.121094 52.085938 105.152344 44.5 105.152344 44.5 L 93.902344 41.5 " fill-opacity="1" fill-rule="nonzero"/><path fill="#000000" d="M 93.992188 41.648438 C 93.773438 42.703125 92.292969 50.25 94.296875 53.128906 C 94.730469 53.75 95.308594 54.113281 96.011719 54.207031 C 99.578125 54.6875 103.644531 52.675781 103.917969 52.324219 C 103.996094 52.019531 104.613281 47.589844 105.023438 44.585938 Z M 97.117188 54.515625 C 96.734375 54.515625 96.351562 54.496094 95.980469 54.445312 C 95.207031 54.339844 94.574219 53.945312 94.101562 53.265625 C 91.894531 50.097656 93.707031 41.824219 93.785156 41.476562 C 93.792969 41.441406 93.8125 41.414062 93.839844 41.398438 C 93.867188 41.382812 93.902344 41.375 93.933594 41.386719 L 105.183594 44.382812 C 105.242188 44.398438 105.28125 44.457031 105.273438 44.515625 C 105.167969 45.292969 104.238281 52.125 104.144531 52.40625 C 104.019531 52.777344 100.46875 54.515625 97.117188 54.515625 " fill-opacity="1" fill-rule="nonzero"/><path fill="#ffffff" d="M 97.246094 51.339844 L 99.121094 60.332031 L 108.53125 59.207031 L 104.871094 45.90625 L 97.246094 51.339844 " fill-opacity="1" fill-rule="nonzero"/><path fill="#000000" d="M 99.121094 60.453125 C 99.066406 60.453125 99.015625 60.414062 99.003906 60.355469 L 97.128906 51.363281 C 97.117188 51.296875 97.15625 51.234375 97.222656 51.222656 C 97.285156 51.207031 97.351562 51.25 97.363281 51.3125 L 99.214844 60.199219 L 108.378906 59.105469 L 104.757812 45.9375 C 104.738281 45.871094 104.777344 45.808594 104.839844 45.789062 C 104.902344 45.773438 104.96875 45.808594 104.988281 45.871094 L 108.644531 59.175781 C 108.65625 59.210938 108.648438 59.246094 108.628906 59.273438 C 108.609375 59.304688 108.578125 59.324219 108.542969 59.328125 L 99.136719 60.453125 C 99.132812 60.453125 99.125 60.453125 99.121094 60.453125 " fill-opacity="1" fill-rule="nonzero"/><path fill="#000000" d="M 102.996094 36.066406 C 102.996094 36.066406 101.496094 32.976562 96.246094 33.445312 C 94.273438 33.621094 93.132812 33.542969 92.480469 33.382812 C 91.152344 33.050781 89.765625 33.804688 89.433594 35.128906 C 89.199219 36.054688 89.484375 37.179688 90.996094 38.410156 C 90.996094 38.410156 88.933594 40.5625 92.589844 42.15625 C 92.589844 42.15625 91.839844 45.0625 96.246094 45.34375 C 96.246094 45.34375 96.808594 43.875 98.246094 44.5625 C 99.09375 44.964844 99.308594 46.839844 97.996094 48.621094 C 97.996094 48.621094 100.652344 53.023438 104.78125 52.648438 C 108.90625 52.273438 108.53125 47.433594 108.4375 45.84375 C 108.34375 44.25 110.277344 39.777344 107.3125 36.816406 C 105.527344 35.035156 102.996094 36.066406 102.996094 36.066406 " fill-opacity="1" fill-rule="nonzero"/><path fill="#ffffff" d="M 97.996094 45.4375 C 97.996094 45.4375 96.527344 44.6875 96.964844 47.371094 L 97.996094 45.4375 " fill-opacity="1" fill-rule="nonzero"/><path fill="#000000" d="M 96.964844 47.492188 C 96.90625 47.492188 96.855469 47.449219 96.847656 47.390625 C 96.671875 46.316406 96.777344 45.632812 97.160156 45.351562 C 97.539062 45.074219 98.03125 45.320312 98.050781 45.328125 C 98.109375 45.359375 98.132812 45.433594 98.101562 45.492188 C 98.074219 45.550781 98 45.574219 97.941406 45.542969 C 97.9375 45.539062 97.558594 45.355469 97.296875 45.546875 C 97.089844 45.699219 96.886719 46.136719 97.082031 47.351562 C 97.09375 47.417969 97.050781 47.480469 96.984375 47.492188 C 96.976562 47.492188 96.972656 47.492188 96.964844 47.492188 " fill-opacity="1" fill-rule="nonzero"/><path fill="#ffffff" d="M 72.230469 56.480469 C 72.230469 56.480469 72.433594 53.527344 74.527344 55.058594 C 74.527344 55.058594 75.765625 51.925781 77.546875 54.527344 L 75.5625 48.933594 C 75.347656 48.328125 75.597656 47.65625 76.15625 47.34375 C 76.8125 46.96875 77.621094 47.238281 77.988281 47.898438 C 81.085938 53.421875 83.773438 58.257812 86.914062 72.421875 C 81.007812 73.171875 80.503906 74.808594 73.710938 73.457031 C 73.710938 73.457031 70.226562 59.25 70.328125 57.453125 C 70.457031 55.160156 72.230469 56.480469 72.230469 56.480469 " fill-opacity="1" fill-rule="nonzero"/><path fill="#000000" d="M 73.808594 73.355469 C 78.277344 74.234375 80.003906 73.800781 82.382812 73.199219 C 83.554688 72.902344 84.882812 72.566406 86.769531 72.320312 C 83.628906 58.199219 80.964844 53.449219 77.882812 47.957031 C 77.714844 47.652344 77.429688 47.425781 77.109375 47.335938 C 76.808594 47.253906 76.488281 47.292969 76.214844 47.445312 C 75.707031 47.734375 75.480469 48.34375 75.675781 48.894531 L 77.660156 54.488281 C 77.679688 54.542969 77.652344 54.605469 77.601562 54.632812 C 77.546875 54.660156 77.480469 54.644531 77.449219 54.59375 C 76.96875 53.894531 76.5 53.566406 76.042969 53.617188 C 75.195312 53.714844 74.640625 55.089844 74.636719 55.101562 C 74.625 55.136719 74.59375 55.164062 74.558594 55.171875 C 74.523438 55.183594 74.484375 55.175781 74.453125 55.15625 C 73.921875 54.765625 73.480469 54.648438 73.144531 54.804688 C 72.453125 55.125 72.351562 56.476562 72.351562 56.492188 C 72.347656 56.535156 72.320312 56.574219 72.28125 56.589844 C 72.242188 56.609375 72.195312 56.605469 72.160156 56.578125 C 72.152344 56.574219 71.441406 56.050781 70.949219 56.28125 C 70.652344 56.417969 70.484375 56.816406 70.449219 57.460938 C 70.355469 59.152344 73.535156 72.242188 73.808594 73.355469 Z M 78.132812 74.09375 C 76.964844 74.09375 75.5625 73.949219 73.6875 73.574219 C 73.640625 73.566406 73.605469 73.53125 73.59375 73.488281 C 73.449219 72.90625 70.109375 59.238281 70.207031 57.445312 C 70.25 56.707031 70.464844 56.242188 70.847656 56.0625 C 71.304688 55.847656 71.859375 56.113281 72.132812 56.277344 C 72.191406 55.855469 72.394531 54.890625 73.042969 54.589844 C 73.4375 54.40625 73.917969 54.5 74.472656 54.875 C 74.648438 54.496094 75.195312 53.472656 76.019531 53.382812 C 76.414062 53.335938 76.808594 53.515625 77.199219 53.910156 L 75.449219 48.972656 C 75.214844 48.3125 75.488281 47.582031 76.097656 47.238281 C 76.425781 47.050781 76.808594 47.003906 77.175781 47.105469 C 77.558594 47.214844 77.890625 47.480469 78.09375 47.839844 C 81.191406 53.367188 83.871094 58.140625 87.03125 72.398438 C 87.039062 72.429688 87.03125 72.464844 87.011719 72.492188 C 86.992188 72.519531 86.960938 72.535156 86.929688 72.539062 C 84.988281 72.789062 83.636719 73.128906 82.441406 73.429688 C 81.011719 73.792969 79.8125 74.09375 78.132812 74.09375 " fill-opacity="1" fill-rule="nonzero"/><path fill="#ffffff" d="M 105.445312 32.542969 C 104.203125 32.003906 103.070312 31.804688 102.546875 32.617188 C 102.019531 33.425781 102.582031 34.796875 103.648438 35.3125 C 102.90625 34.914062 102.136719 34.507812 101.335938 34.390625 C 100.539062 34.269531 99.695312 34.515625 99.441406 35.15625 C 99.21875 35.722656 99.503906 36.453125 99.980469 37.003906 C 100.214844 37.277344 100.492188 37.515625 100.785156 37.734375 C 100.25 37.609375 99.664062 37.730469 99.367188 38.097656 C 98.863281 38.730469 98.929688 39.65625 99.546875 40.40625 C 100.070312 41.039062 100.984375 41.699219 101.851562 42.273438 C 102.816406 42.957031 103.5625 43.429688 104.925781 44.230469 C 103.441406 44.117188 100.894531 44.0625 101.246094 45.84375 C 101.734375 48.320312 113.023438 48.898438 114.851562 49.828125 C 118.269531 51.570312 120.914062 52.832031 120.914062 52.832031 C 122.402344 52.605469 127.570312 44.820312 128.289062 42.300781 C 126.828125 41.277344 114.722656 34.65625 109.789062 32.238281 C 108.964844 31.832031 108.097656 31.421875 107.230469 31.375 C 106.363281 31.324219 105.5 31.761719 105.445312 32.542969 " fill-opacity="1" fill-rule="nonzero"/><path fill="#000000" d="M 103.847656 44.304688 C 103.011719 44.304688 101.996094 44.410156 101.558594 44.898438 C 101.351562 45.132812 101.289062 45.433594 101.363281 45.820312 C 101.667969 47.375 106.785156 48.195312 110.519531 48.796875 C 112.53125 49.117188 114.265625 49.398438 114.90625 49.722656 C 118.074219 51.335938 120.605469 52.550781 120.929688 52.707031 C 122.371094 52.382812 127.335938 44.980469 128.152344 42.351562 C 126.40625 41.179688 114.644531 34.75 109.738281 32.347656 C 109.007812 31.988281 108.097656 31.542969 107.222656 31.492188 C 106.445312 31.449219 105.613281 31.835938 105.566406 32.550781 C 105.5625 32.589844 105.542969 32.625 105.507812 32.644531 C 105.476562 32.664062 105.433594 32.667969 105.398438 32.652344 C 103.960938 32.03125 103.0625 32.042969 102.648438 32.679688 C 102.453125 32.980469 102.414062 33.375 102.53125 33.804688 C 102.6875 34.347656 103.070312 34.839844 103.554688 35.125 C 103.605469 35.152344 103.65625 35.179688 103.707031 35.207031 C 103.761719 35.238281 103.785156 35.308594 103.757812 35.363281 C 103.726562 35.421875 103.65625 35.445312 103.597656 35.417969 C 103.542969 35.394531 103.492188 35.363281 103.4375 35.335938 C 102.78125 34.984375 102.050781 34.617188 101.320312 34.507812 C 100.640625 34.40625 99.796875 34.582031 99.550781 35.199219 C 99.367188 35.671875 99.570312 36.347656 100.070312 36.925781 C 100.277344 37.164062 100.535156 37.398438 100.859375 37.636719 C 100.902344 37.671875 100.917969 37.730469 100.894531 37.78125 C 100.871094 37.835938 100.816406 37.863281 100.757812 37.847656 C 100.234375 37.730469 99.714844 37.859375 99.460938 38.175781 C 98.992188 38.761719 99.0625 39.628906 99.640625 40.328125 C 100.191406 40.996094 101.203125 41.699219 101.914062 42.171875 C 102.871094 42.847656 103.617188 43.324219 104.988281 44.128906 C 105.035156 44.15625 105.058594 44.214844 105.039062 44.265625 C 105.023438 44.320312 104.972656 44.355469 104.917969 44.347656 C 104.6875 44.332031 104.292969 44.304688 103.847656 44.304688 Z M 120.914062 52.953125 C 120.894531 52.953125 120.878906 52.949219 120.863281 52.941406 C 120.835938 52.929688 118.179688 51.65625 114.796875 49.933594 C 114.191406 49.628906 112.472656 49.351562 110.484375 49.03125 C 106.464844 48.386719 101.46875 47.582031 101.128906 45.867188 C 101.039062 45.410156 101.125 45.03125 101.378906 44.738281 C 101.960938 44.085938 103.300781 44.023438 104.4375 44.078125 C 103.324219 43.417969 102.632812 42.972656 101.78125 42.371094 C 101.058594 41.890625 100.027344 41.171875 99.457031 40.480469 C 98.804688 39.691406 98.730469 38.703125 99.273438 38.023438 C 99.507812 37.730469 99.921875 37.566406 100.378906 37.566406 C 100.378906 37.566406 100.382812 37.566406 100.382812 37.566406 C 100.195312 37.40625 100.03125 37.246094 99.890625 37.082031 C 99.445312 36.570312 99.0625 35.78125 99.328125 35.113281 C 99.621094 34.371094 100.582031 34.15625 101.355469 34.269531 C 101.828125 34.339844 102.292969 34.511719 102.734375 34.714844 C 102.539062 34.460938 102.386719 34.171875 102.300781 33.867188 C 102.164062 33.375 102.214844 32.90625 102.445312 32.550781 C 102.917969 31.820312 103.871094 31.761719 105.347656 32.371094 C 105.507812 31.585938 106.414062 31.207031 107.238281 31.253906 C 108.15625 31.304688 109.089844 31.761719 109.84375 32.132812 C 114.828125 34.574219 126.886719 41.171875 128.359375 42.203125 C 128.402344 42.234375 128.421875 42.285156 128.40625 42.335938 C 127.714844 44.742188 122.554688 52.703125 120.933594 52.949219 C 120.925781 52.953125 120.917969 52.953125 120.914062 52.953125 " fill-opacity="1" fill-rule="nonzero"/><path fill="#000000" d="M 110.378906 47.171875 C 110.363281 47.171875 110.34375 47.167969 110.324219 47.160156 C 110.285156 47.140625 106.242188 45.105469 104.867188 44.335938 C 104.808594 44.300781 104.789062 44.230469 104.824219 44.171875 C 104.855469 44.113281 104.929688 44.09375 104.984375 44.125 C 106.351562 44.894531 110.394531 46.925781 110.433594 46.945312 C 110.492188 46.976562 110.515625 47.046875 110.488281 47.105469 C 110.464844 47.148438 110.421875 47.171875 110.378906 47.171875 " fill-opacity="1" fill-rule="nonzero"/><path fill="#000000" d="M 107.613281 42.179688 C 107.589844 42.179688 107.566406 42.171875 107.546875 42.160156 C 105.585938 40.867188 103.085938 39.324219 101.078125 38.089844 L 100.703125 37.859375 C 100.644531 37.824219 100.628906 37.75 100.664062 37.691406 C 100.695312 37.636719 100.769531 37.617188 100.828125 37.652344 L 101.203125 37.886719 C 103.214844 39.125 105.714844 40.664062 107.679688 41.960938 C 107.734375 41.996094 107.75 42.070312 107.714844 42.125 C 107.691406 42.160156 107.652344 42.179688 107.613281 42.179688 " fill-opacity="1" fill-rule="nonzero"/><path fill="#000000" d="M 109.574219 38.828125 C 109.554688 38.828125 109.535156 38.824219 109.515625 38.8125 L 103.722656 35.4375 C 103.664062 35.402344 103.644531 35.328125 103.679688 35.273438 C 103.710938 35.214844 103.785156 35.195312 103.84375 35.230469 L 109.636719 38.605469 C 109.691406 38.636719 109.710938 38.710938 109.679688 38.769531 C 109.65625 38.808594 109.617188 38.828125 109.574219 38.828125 " fill-opacity="1" fill-rule="nonzero"/><path fill="#000000" d="M 111.015625 35.777344 C 110.992188 35.777344 110.972656 35.773438 110.953125 35.761719 C 109.242188 34.71875 107.476562 33.726562 105.699219 32.820312 C 105.640625 32.789062 105.617188 32.714844 105.648438 32.65625 C 105.675781 32.597656 105.75 32.574219 105.808594 32.605469 C 107.589844 33.515625 109.363281 34.511719 111.078125 35.558594 C 111.132812 35.589844 111.148438 35.664062 111.117188 35.722656 C 111.09375 35.757812 111.054688 35.777344 111.015625 35.777344 " fill-opacity="1" fill-rule="nonzero"/><path fill="#000000" d="M 133.449219 99.417969 C 133.40625 99.417969 133.363281 99.390625 133.339844 99.351562 L 129.597656 91.859375 C 129.566406 91.800781 129.589844 91.730469 129.648438 91.699219 C 129.710938 91.671875 129.78125 91.695312 129.8125 91.753906 L 133.554688 99.242188 C 133.585938 99.300781 133.5625 99.375 133.503906 99.402344 C 133.484375 99.414062 133.464844 99.417969 133.449219 99.417969 " fill-opacity="1" fill-rule="nonzero"/><path fill="#ffa240" d="M 122.429688 38.457031 C 122.429688 38.457031 121.585938 44.207031 115.550781 50.445312 C 117.796875 52.269531 126.433594 58.03125 126.433594 58.03125 C 126.433594 58.03125 108.171875 58.761719 102.960938 58.980469 C 93.992188 59.347656 86.921875 62.171875 82.941406 66.816406 L 73.144531 72.113281 C 73.144531 72.113281 74.398438 94.722656 82.394531 98.195312 C 90.730469 101.8125 96.605469 95.679688 96.605469 95.679688 L 127.75 95.691406 C 132.050781 95.691406 135.132812 91.546875 133.890625 87.433594 L 130.226562 75.324219 C 130.226562 75.324219 148.550781 73.839844 149.074219 64.308594 C 149.9375 48.554688 122.429688 38.457031 122.429688 38.457031 " fill-opacity="1" fill-rule="nonzero"/><path fill="#000000" d="M 126.433594 58.152344 C 126.367188 58.152344 126.316406 58.101562 126.3125 58.035156 C 126.308594 57.96875 126.363281 57.914062 126.425781 57.910156 L 137.441406 57.480469 C 137.5 57.476562 137.5625 57.527344 137.566406 57.59375 C 137.566406 57.660156 137.515625 57.714844 137.449219 57.71875 L 126.4375 58.152344 C 126.433594 58.152344 126.433594 58.152344 126.433594 58.152344 " fill-opacity="1" fill-rule="nonzero"/><path fill="#000000" d="M 81.386719 92.648438 C 81.332031 92.648438 81.28125 92.609375 81.269531 92.550781 C 80.722656 89.410156 79.9375 84.410156 79.332031 78.433594 C 78.886719 74.082031 80.046875 70.101562 82.691406 66.925781 C 82.730469 66.875 82.808594 66.867188 82.859375 66.910156 C 82.910156 66.949219 82.917969 67.027344 82.875 67.078125 C 80.273438 70.203125 79.132812 74.121094 79.570312 78.410156 C 80.175781 84.378906 80.957031 89.371094 81.507812 92.507812 C 81.519531 92.574219 81.472656 92.636719 81.410156 92.648438 C 81.402344 92.648438 81.394531 92.648438 81.386719 92.648438 " fill-opacity="1" fill-rule="nonzero"/><path fill="#000000" d="M 96.921875 94.84375 C 96.917969 94.84375 96.914062 94.84375 96.90625 94.84375 C 96.84375 94.835938 96.796875 94.773438 96.804688 94.710938 C 97.21875 91.394531 96.148438 81.757812 96.136719 81.660156 C 96.128906 81.59375 96.175781 81.535156 96.242188 81.527344 C 96.308594 81.523438 96.367188 81.570312 96.375 81.632812 C 96.386719 81.730469 97.457031 91.398438 97.039062 94.738281 C 97.03125 94.800781 96.980469 94.84375 96.921875 94.84375 " fill-opacity="1" fill-rule="nonzero"/></svg>