<svg xmlns="http://www.w3.org/2000/svg" xmlns:xlink="http://www.w3.org/1999/xlink" width="254" zoomAndPan="magnify" viewBox="0 0 190.5 127.500001" height="170" preserveAspectRatio="xMidYMid meet" version="1.0"><defs><clipPath id="aa5683b434"><path d="M 8.039062 92.59375 L 10.898438 92.59375 L 10.898438 95 L 8.039062 95 Z M 8.039062 92.59375 " clip-rule="nonzero"/></clipPath><clipPath id="feb4b7d771"><path d="M 10.890625 93.46875 C 9.617188 95.410156 8.421875 95.113281 8.199219 94.664062 C 7.902344 94.214844 8.125 93.019531 8.5 92.722656 C 8.945312 92.421875 10.515625 92.796875 10.515625 92.796875 " clip-rule="nonzero"/></clipPath><clipPath id="7b0a50aea6"><path d="M 0.0390625 0.59375 L 2.898438 0.59375 L 2.898438 3 L 0.0390625 3 Z M 0.0390625 0.59375 " clip-rule="nonzero"/></clipPath><clipPath id="333fce4bbe"><path d="M 2.890625 1.46875 C 1.617188 3.410156 0.421875 3.113281 0.199219 2.664062 C -0.0976562 2.214844 0.125 1.019531 0.5 0.722656 C 0.945312 0.421875 2.515625 0.796875 2.515625 0.796875 " clip-rule="nonzero"/></clipPath><clipPath id="e43e63c5d5"><rect x="0" width="3" y="0" height="3"/></clipPath><clipPath id="a5bc10f1be"><path d="M 0.121094 67 L 104 67 L 104 126.253906 L 0.121094 126.253906 Z M 0.121094 67 " clip-rule="nonzero"/></clipPath><clipPath id="5d30a23d11"><path d="M 19 91 L 38 91 L 38 126.253906 L 19 126.253906 Z M 19 91 " clip-rule="nonzero"/></clipPath><clipPath id="77ac075301"><path d="M 120 21 L 189.878906 21 L 189.878906 64 L 120 64 Z M 120 21 " clip-rule="nonzero"/></clipPath><clipPath id="a1b7ac3012"><path d="M 130 62 L 189.878906 62 L 189.878906 126.253906 L 130 126.253906 Z M 130 62 " clip-rule="nonzero"/></clipPath><clipPath id="9877223e30"><path d="M 59 124 L 127 124 L 127 126.253906 L 59 126.253906 Z M 59 124 " clip-rule="nonzero"/></clipPath><clipPath id="1d8d0cb29c"><path d="M 94 121 L 127 121 L 127 126.253906 L 94 126.253906 Z M 94 121 " clip-rule="nonzero"/></clipPath><clipPath id="5b6ec7f53f"><path d="M 104 95 L 119 95 L 119 126.253906 L 104 126.253906 Z M 104 95 " clip-rule="nonzero"/></clipPath><clipPath id="f645671cd9"><path d="M 106 95 L 120 95 L 120 126.253906 L 106 126.253906 Z M 106 95 " clip-rule="nonzero"/></clipPath><clipPath id="5105064622"><path d="M 105 95 L 120 95 L 120 126.253906 L 105 126.253906 Z M 105 95 " clip-rule="nonzero"/></clipPath><clipPath id="fae7045488"><path d="M 95 121 L 128 121 L 128 126.253906 L 95 126.253906 Z M 95 121 " clip-rule="nonzero"/></clipPath></defs><g clip-path="url(#aa5683b434)"><g clip-path="url(#feb4b7d771)"><g transform="matrix(1, 0, 0, 1, 8, 92)"><g clip-path="url(#e43e63c5d5)"><g clip-path="url(#7b0a50aea6)"><g clip-path="url(#333fce4bbe)"><rect x="-49.91" width="274.32" fill="#ffa240" height="183.600001" y="-120.05" fill-opacity="1"/></g></g></g></g></g></g><path fill="#e2eaff" d="M 186.390625 62.875 L 119.242188 62.875 L 119.242188 0.0664062 L 186.390625 0.0664062 Z M 186.390625 62.875 " fill-opacity="1" fill-rule="nonzero"/><g clip-path="url(#a5bc10f1be)"><path fill="#ffa240" d="M 37.371094 71.683594 C 34.5 71.609375 17.558594 72.042969 9.03125 79.464844 C -3.453125 90.328125 -2.386719 117.96875 9.550781 124.1875 C 14.648438 126.847656 17.566406 126.242188 17.566406 126.242188 L 57.871094 126.3125 L 62.480469 100.527344 C 62.480469 100.527344 80.761719 105.8125 91.773438 99.429688 C 100.148438 94.570312 103.445312 74.105469 103.445312 74.105469 L 88.46875 67.058594 C 88.46875 67.058594 81.566406 80.675781 80.097656 81.152344 C 78.140625 81.789062 54.402344 72.125 37.371094 71.683594 Z M 37.371094 71.683594 " fill-opacity="1" fill-rule="nonzero"/></g><g clip-path="url(#5d30a23d11)"><path fill="#000000" d="M 19.539062 126.242188 C 19.464844 126.242188 19.402344 126.1875 19.390625 126.113281 C 19.378906 126.03125 19.433594 125.953125 19.519531 125.9375 C 22.113281 125.546875 24.386719 124.601562 26.277344 123.132812 C 30.078125 120.183594 31.335938 115.910156 33.238281 109.433594 C 33.492188 108.566406 34.382812 104.683594 36.003906 97.632812 C 36.488281 95.523438 36.957031 93.46875 37.355469 91.730469 C 37.375 91.648438 37.457031 91.597656 37.539062 91.613281 C 37.621094 91.632812 37.671875 91.714844 37.652344 91.796875 C 37.253906 93.539062 36.785156 95.589844 36.300781 97.703125 C 34.558594 105.289062 33.777344 108.679688 33.53125 109.519531 C 31.609375 116.050781 30.34375 120.367188 26.464844 123.375 C 24.53125 124.875 22.210938 125.839844 19.5625 126.242188 C 19.554688 126.242188 19.546875 126.242188 19.539062 126.242188 Z M 19.539062 126.242188 " fill-opacity="1" fill-rule="nonzero"/></g><path fill="#000000" d="M 76.296875 85.996094 C 76.246094 85.996094 76.203125 85.976562 76.171875 85.933594 C 76.121094 85.867188 76.136719 85.769531 76.207031 85.722656 C 77.496094 84.800781 79.949219 81.105469 79.972656 81.070312 C 80.019531 81 80.113281 80.980469 80.183594 81.027344 C 80.253906 81.074219 80.273438 81.167969 80.226562 81.238281 C 80.125 81.390625 77.714844 85.019531 76.382812 85.96875 C 76.355469 85.988281 76.328125 85.996094 76.296875 85.996094 Z M 76.296875 85.996094 " fill-opacity="1" fill-rule="nonzero"/><path fill="#000000" d="M 13.296875 103.65625 C 13.269531 103.65625 13.246094 103.652344 13.222656 103.636719 C 13.148438 103.597656 13.121094 103.503906 13.164062 103.429688 C 13.25 103.273438 21.960938 87.734375 25.925781 82.664062 C 25.976562 82.597656 26.070312 82.585938 26.136719 82.636719 C 26.203125 82.691406 26.214844 82.785156 26.164062 82.851562 C 22.214844 87.902344 13.515625 103.421875 13.429688 103.578125 C 13.402344 103.628906 13.347656 103.65625 13.296875 103.65625 Z M 13.296875 103.65625 " fill-opacity="1" fill-rule="nonzero"/><path fill="#000000" d="M 9.949219 65.1875 C 11.554688 49.855469 21.285156 40.214844 30.226562 45.089844 C 30.25 45.042969 30.269531 44.996094 30.292969 44.949219 C 32.121094 41.230469 35.640625 38.082031 39.777344 37.824219 C 43.386719 37.601562 46.734375 39.53125 49.832031 41.398438 C 51.21875 42.234375 52.714844 43.203125 53.179688 44.75 C 53.601562 46.144531 53.0625 47.652344 52.300781 48.894531 C 50.972656 51.070312 48.785156 52.082031 47.246094 53.964844 C 45.546875 56.042969 44.140625 58.003906 41.652344 59.238281 C 39.117188 60.496094 35.988281 60.722656 33.464844 59.433594 C 32.332031 58.855469 28.675781 56.074219 29.96875 46.675781 C 27.234375 48.613281 30.5 62.679688 27.597656 68.488281 C 26.683594 70.320312 9.132812 72.96875 9.949219 65.1875 Z M 9.949219 65.1875 " fill-opacity="1" fill-rule="nonzero"/><path fill="#ffffff" d="M 38.722656 56.984375 L 31.007812 72.601562 C 31.007812 72.601562 39.847656 83.492188 46.507812 83.0625 C 53.167969 82.632812 51.925781 75.09375 46.964844 72.753906 L 43.40625 72.207031 L 47.933594 60.03125 Z M 38.722656 56.984375 " fill-opacity="1" fill-rule="nonzero"/><path fill="#000000" d="M 43.136719 73.382812 C 43.121094 73.382812 43.105469 73.378906 43.085938 73.371094 C 43.007812 73.34375 42.964844 73.257812 42.996094 73.175781 L 47.738281 60.125 L 38.796875 57.171875 L 31.339844 72.046875 C 31.300781 72.121094 31.207031 72.152344 31.132812 72.113281 C 31.058594 72.074219 31.027344 71.984375 31.066406 71.910156 L 38.585938 56.917969 C 38.621094 56.851562 38.699219 56.816406 38.769531 56.84375 L 47.984375 59.886719 C 48.023438 59.898438 48.054688 59.925781 48.070312 59.964844 C 48.089844 60 48.089844 60.042969 48.078125 60.082031 L 43.28125 73.28125 C 43.257812 73.34375 43.199219 73.382812 43.136719 73.382812 Z M 43.136719 73.382812 " fill-opacity="1" fill-rule="nonzero"/><path fill="#000000" d="M 47.296875 72.972656 C 47.289062 72.972656 47.28125 72.972656 47.273438 72.96875 L 43.644531 72.398438 C 43.558594 72.386719 43.503906 72.308594 43.515625 72.226562 C 43.53125 72.140625 43.605469 72.085938 43.691406 72.097656 L 47.320312 72.671875 C 47.402344 72.683594 47.460938 72.761719 47.449219 72.84375 C 47.433594 72.917969 47.371094 72.972656 47.296875 72.972656 Z M 47.296875 72.972656 " fill-opacity="1" fill-rule="nonzero"/><path fill="#ffffff" d="M 52.589844 51.980469 C 52.925781 53.8125 52.933594 55.734375 52.316406 57.488281 C 51.699219 59.242188 50.398438 60.804688 48.660156 61.46875 C 47.152344 62.046875 45.429688 61.90625 43.941406 61.285156 C 42.453125 60.664062 41.1875 59.589844 40.152344 58.355469 C 38.566406 58.917969 36.628906 58.261719 35.714844 56.84375 C 35.1875 56.027344 35 54.941406 35.433594 54.070312 C 35.863281 53.199219 37 52.675781 37.878906 53.09375 C 38.378906 53.328125 38.734375 53.8125 39.246094 54.027344 C 39.816406 54.269531 40.496094 54.125 41.007812 53.78125 C 41.519531 53.4375 41.890625 52.914062 42.183594 52.371094 C 43.109375 50.660156 43.382812 48.605469 42.945312 46.710938 C 42.984375 46.890625 43.9375 47.160156 44.105469 47.21875 C 44.535156 47.363281 44.972656 47.46875 45.417969 47.539062 C 46.296875 47.671875 47.195312 47.664062 48.074219 47.511719 C 48.515625 47.433594 48.953125 47.320312 49.378906 47.171875 C 49.71875 47.050781 50.152344 46.734375 50.511719 46.730469 C 51.265625 46.71875 51.488281 48.089844 51.667969 48.617188 C 52.046875 49.71875 52.378906 50.835938 52.589844 51.980469 Z M 52.589844 51.980469 " fill-opacity="1" fill-rule="nonzero"/><path fill="#000000" d="M 46.613281 61.988281 C 45.707031 61.988281 44.773438 61.800781 43.882812 61.425781 C 42.523438 60.859375 41.253906 59.886719 40.105469 58.53125 C 38.480469 59.054688 36.511719 58.363281 35.585938 56.925781 C 34.980469 55.988281 34.867188 54.867188 35.292969 54 C 35.785156 53.007812 37.023438 52.519531 37.941406 52.953125 C 38.199219 53.078125 38.417969 53.253906 38.628906 53.429688 C 38.851562 53.613281 39.058594 53.785156 39.304688 53.886719 C 39.785156 54.089844 40.40625 54 40.921875 53.65625 C 41.34375 53.371094 41.703125 52.941406 42.046875 52.300781 C 42.953125 50.625 43.226562 48.601562 42.792969 46.746094 C 42.773438 46.664062 42.824219 46.582031 42.90625 46.5625 C 42.984375 46.546875 43.058594 46.589844 43.085938 46.660156 C 43.136719 46.710938 43.34375 46.820312 44.039062 47.039062 C 44.089844 47.054688 44.128906 47.066406 44.15625 47.074219 C 44.570312 47.214844 45 47.320312 45.441406 47.390625 C 46.304688 47.523438 47.179688 47.515625 48.046875 47.363281 C 48.484375 47.289062 48.914062 47.175781 49.328125 47.03125 C 49.4375 46.992188 49.5625 46.925781 49.691406 46.859375 C 49.964844 46.722656 50.242188 46.582031 50.511719 46.578125 C 50.515625 46.578125 50.515625 46.578125 50.519531 46.578125 C 51.25 46.578125 51.53125 47.578125 51.714844 48.238281 C 51.75 48.371094 51.78125 48.484375 51.8125 48.570312 C 52.261719 49.882812 52.558594 50.957031 52.738281 51.957031 C 53.125 54.046875 53.03125 55.925781 52.460938 57.539062 C 51.785156 59.453125 50.386719 60.972656 48.714844 61.613281 C 48.0625 61.863281 47.347656 61.988281 46.613281 61.988281 Z M 40.152344 58.203125 C 40.199219 58.203125 40.242188 58.222656 40.269531 58.257812 C 41.40625 59.613281 42.660156 60.585938 44 61.144531 C 45.546875 61.789062 47.222656 61.855469 48.605469 61.328125 C 50.195312 60.722656 51.53125 59.265625 52.175781 57.4375 C 52.726562 55.875 52.816406 54.046875 52.441406 52.011719 C 52.261719 51.027344 51.96875 49.964844 51.527344 48.667969 C 51.492188 48.574219 51.460938 48.457031 51.421875 48.320312 C 51.261719 47.746094 51.019531 46.882812 50.519531 46.882812 C 50.519531 46.882812 50.515625 46.882812 50.515625 46.882812 C 50.316406 46.882812 50.070312 47.011719 49.832031 47.132812 C 49.691406 47.203125 49.558594 47.269531 49.429688 47.316406 C 49.003906 47.46875 48.554688 47.585938 48.097656 47.664062 C 47.199219 47.820312 46.292969 47.828125 45.394531 47.6875 C 44.9375 47.617188 44.488281 47.507812 44.058594 47.363281 C 44.035156 47.355469 43.996094 47.34375 43.949219 47.328125 C 43.597656 47.21875 43.347656 47.132812 43.167969 47.050781 C 43.5 48.875 43.199219 50.816406 42.316406 52.445312 C 41.945312 53.132812 41.558594 53.597656 41.09375 53.910156 C 40.492188 54.3125 39.761719 54.410156 39.1875 54.167969 C 38.902344 54.046875 38.664062 53.855469 38.4375 53.667969 C 38.230469 53.496094 38.035156 53.335938 37.8125 53.230469 C 37.050781 52.871094 35.980469 53.304688 35.570312 54.140625 C 35.195312 54.898438 35.300781 55.925781 35.84375 56.765625 C 36.714844 58.117188 38.585938 58.75 40.105469 58.214844 C 40.121094 58.207031 40.136719 58.203125 40.152344 58.203125 Z M 43.089844 46.675781 Z M 43.089844 46.675781 " fill-opacity="1" fill-rule="nonzero"/><path fill="#ffffff" d="M 37.46875 55.394531 C 38.355469 55.347656 39.246094 55.882812 39.621094 56.683594 Z M 37.46875 55.394531 " fill-opacity="1" fill-rule="nonzero"/><path fill="#000000" d="M 39.621094 56.835938 C 39.5625 56.835938 39.511719 56.804688 39.484375 56.75 C 39.132812 55.996094 38.304688 55.503906 37.476562 55.542969 C 37.390625 55.546875 37.324219 55.484375 37.316406 55.398438 C 37.3125 55.316406 37.378906 55.246094 37.460938 55.238281 C 38.40625 55.191406 39.355469 55.757812 39.757812 56.621094 C 39.796875 56.695312 39.761719 56.785156 39.6875 56.820312 C 39.664062 56.832031 39.644531 56.835938 39.621094 56.835938 Z M 39.621094 56.835938 " fill-opacity="1" fill-rule="nonzero"/><path fill="#ffa240" d="M 43.371094 54.179688 C 43.371094 54.527344 43.335938 54.875 43.265625 55.21875 C 43.199219 55.5625 43.097656 55.894531 42.964844 56.21875 C 42.828125 56.542969 42.664062 56.847656 42.472656 57.140625 C 42.277344 57.429688 42.054688 57.699219 41.808594 57.949219 C 41.5625 58.195312 41.292969 58.414062 41 58.609375 C 40.710938 58.804688 40.402344 58.96875 40.078125 59.101562 C 39.757812 59.238281 39.421875 59.335938 39.082031 59.40625 C 38.738281 59.472656 38.390625 59.507812 38.039062 59.507812 C 37.691406 59.507812 37.34375 59.472656 37 59.40625 C 36.65625 59.335938 36.324219 59.238281 36 59.101562 C 35.679688 58.96875 35.371094 58.804688 35.082031 58.609375 C 34.789062 58.414062 34.519531 58.195312 34.273438 57.949219 C 34.023438 57.699219 33.804688 57.429688 33.609375 57.140625 C 33.414062 56.847656 33.25 56.542969 33.117188 56.21875 C 32.984375 55.894531 32.882812 55.5625 32.8125 55.21875 C 32.746094 54.875 32.710938 54.527344 32.710938 54.179688 C 32.710938 53.828125 32.746094 53.484375 32.8125 53.140625 C 32.882812 52.796875 32.984375 52.464844 33.117188 52.140625 C 33.25 51.816406 33.414062 51.507812 33.609375 51.21875 C 33.804688 50.929688 34.023438 50.660156 34.273438 50.410156 C 34.519531 50.164062 34.789062 49.941406 35.082031 49.75 C 35.371094 49.554688 35.679688 49.390625 36 49.257812 C 36.324219 49.121094 36.65625 49.019531 37 48.953125 C 37.34375 48.882812 37.691406 48.851562 38.039062 48.851562 C 38.390625 48.851562 38.738281 48.882812 39.082031 48.953125 C 39.421875 49.019531 39.757812 49.121094 40.078125 49.257812 C 40.402344 49.390625 40.710938 49.554688 41 49.75 C 41.292969 49.941406 41.5625 50.164062 41.808594 50.410156 C 42.054688 50.660156 42.277344 50.929688 42.472656 51.21875 C 42.664062 51.507812 42.828125 51.816406 42.964844 52.140625 C 43.097656 52.464844 43.199219 52.796875 43.265625 53.140625 C 43.335938 53.484375 43.371094 53.828125 43.371094 54.179688 Z M 43.371094 54.179688 " fill-opacity="1" fill-rule="nonzero"/><path fill="#ffffff" d="M 38.039062 57.125 C 36.417969 57.125 35.09375 55.804688 35.09375 54.179688 C 35.09375 52.554688 36.417969 51.234375 38.039062 51.234375 C 39.664062 51.234375 40.984375 52.554688 40.984375 54.179688 C 40.984375 55.804688 39.664062 57.125 38.039062 57.125 Z M 38.039062 51.539062 C 36.585938 51.539062 35.398438 52.722656 35.398438 54.179688 C 35.398438 55.632812 36.585938 56.820312 38.039062 56.820312 C 39.496094 56.820312 40.679688 55.632812 40.679688 54.179688 C 40.683594 52.722656 39.496094 51.539062 38.039062 51.539062 Z M 38.039062 51.539062 " fill-opacity="1" fill-rule="nonzero"/><path fill="#ffa240" d="M 50.367188 63.582031 C 50.324219 63.582031 50.28125 63.558594 50.25 63.523438 C 50.199219 63.457031 50.207031 63.363281 50.273438 63.308594 L 52.738281 61.359375 C 53.125 61.050781 53.222656 60.503906 52.972656 60.082031 L 52.210938 58.8125 C 52.167969 58.742188 52.191406 58.648438 52.261719 58.605469 C 52.335938 58.5625 52.425781 58.585938 52.46875 58.65625 L 53.230469 59.925781 C 53.5625 60.480469 53.429688 61.195312 52.925781 61.597656 L 50.464844 63.546875 C 50.433594 63.570312 50.402344 63.582031 50.367188 63.582031 Z M 50.367188 63.582031 " fill-opacity="1" fill-rule="nonzero"/><path fill="#ffa240" d="M 50.742188 63.042969 C 50.742188 63.300781 50.652344 63.519531 50.472656 63.699219 C 50.292969 63.878906 50.074219 63.972656 49.816406 63.972656 C 49.5625 63.972656 49.34375 63.878906 49.160156 63.699219 C 48.980469 63.519531 48.890625 63.300781 48.890625 63.042969 C 48.890625 62.789062 48.980469 62.570312 49.160156 62.386719 C 49.34375 62.207031 49.5625 62.117188 49.816406 62.117188 C 50.074219 62.117188 50.292969 62.207031 50.472656 62.386719 C 50.652344 62.570312 50.742188 62.789062 50.742188 63.042969 Z M 50.742188 63.042969 " fill-opacity="1" fill-rule="nonzero"/><path fill="#ffa240" d="M 37.574219 49.925781 C 37.5625 49.925781 37.550781 49.925781 37.542969 49.921875 C 37.460938 49.90625 37.40625 49.824219 37.425781 49.742188 L 38.035156 46.808594 C 38.855469 42.863281 42.339844 39.734375 46.511719 39.191406 C 46.597656 39.179688 46.671875 39.238281 46.683594 39.320312 C 46.695312 39.40625 46.636719 39.480469 46.554688 39.492188 C 42.507812 40.019531 39.125 43.050781 38.332031 46.867188 L 37.722656 49.804688 C 37.707031 49.875 37.644531 49.925781 37.574219 49.925781 Z M 37.574219 49.925781 " fill-opacity="1" fill-rule="nonzero"/><path fill="#ffffff" d="M 88.105469 67.648438 L 92.839844 58.640625 C 92.839844 58.640625 86.523438 56.761719 88.160156 53.765625 C 89.792969 50.769531 97.03125 54.554688 99.042969 53.15625 C 99.042969 53.15625 104.265625 49.289062 105.910156 47.433594 C 107.558594 45.574219 109.769531 42.800781 111.660156 44.394531 C 111.660156 44.394531 114.644531 42.472656 114.988281 46.273438 C 114.988281 46.273438 117.011719 48.695312 108.089844 56.496094 C 107.738281 56.804688 106.359375 65.078125 103.484375 74.542969 C 98.027344 73.101562 92.8125 70.765625 88.105469 67.648438 Z M 88.105469 67.648438 " fill-opacity="1" fill-rule="nonzero"/><path fill="#000000" d="M 103.484375 74.695312 C 103.46875 74.695312 103.453125 74.691406 103.441406 74.6875 C 103.359375 74.664062 103.3125 74.578125 103.339844 74.5 C 105.125 68.617188 106.347656 63.132812 107.078125 59.859375 C 107.675781 57.160156 107.832031 56.515625 107.988281 56.382812 C 116.632812 48.828125 114.890625 46.394531 114.871094 46.371094 C 114.851562 46.347656 114.839844 46.316406 114.839844 46.289062 C 114.738281 45.175781 114.398438 44.472656 113.835938 44.195312 C 112.945312 43.757812 111.753906 44.511719 111.742188 44.519531 C 111.6875 44.554688 111.613281 44.550781 111.5625 44.507812 C 109.910156 43.117188 107.9375 45.359375 106.351562 47.164062 C 106.242188 47.289062 106.132812 47.414062 106.027344 47.53125 C 104.386719 49.378906 99.347656 53.117188 99.136719 53.277344 C 98.226562 53.910156 96.40625 53.566406 94.476562 53.203125 C 91.875 52.714844 89.183594 52.207031 88.292969 53.839844 C 88 54.375 87.960938 54.886719 88.175781 55.40625 C 88.960938 57.308594 92.84375 58.480469 92.882812 58.492188 C 92.925781 58.507812 92.964844 58.539062 92.980469 58.582031 C 92.996094 58.625 92.996094 58.671875 92.976562 58.710938 L 88.242188 67.71875 C 88.203125 67.792969 88.113281 67.820312 88.039062 67.78125 C 87.964844 67.742188 87.933594 67.648438 87.972656 67.578125 L 92.621094 58.730469 C 91.824219 58.472656 88.644531 57.335938 87.894531 55.523438 C 87.648438 54.921875 87.691406 54.308594 88.027344 53.691406 C 89.023438 51.867188 91.949219 52.417969 94.53125 52.902344 C 96.398438 53.253906 98.160156 53.585938 98.957031 53.03125 C 99.007812 52.996094 104.183594 49.152344 105.800781 47.332031 C 105.90625 47.210938 106.015625 47.085938 106.125 46.960938 C 107.683594 45.1875 109.8125 42.765625 111.675781 44.207031 C 112 44.023438 113.074219 43.484375 113.96875 43.921875 C 114.628906 44.242188 115.023438 45.015625 115.136719 46.21875 C 115.378906 46.589844 116.609375 49.253906 108.191406 56.609375 C 108.078125 56.761719 107.769531 58.15625 107.375 59.925781 C 106.644531 63.203125 105.421875 68.695312 103.632812 74.585938 C 103.609375 74.652344 103.550781 74.695312 103.484375 74.695312 Z M 103.484375 74.695312 " fill-opacity="1" fill-rule="nonzero"/><path fill="#000000" d="M 102.117188 53.566406 C 102.03125 53.566406 101.964844 53.496094 101.964844 53.414062 C 101.964844 53.328125 102.03125 53.261719 102.117188 53.261719 C 102.902344 53.253906 103.664062 52.894531 104.367188 52.507812 C 106.410156 51.390625 108.269531 49.976562 109.894531 48.304688 C 109.992188 48.207031 110.089844 48.105469 110.1875 48.003906 C 110.667969 47.5 111.164062 46.984375 111.753906 46.585938 C 112.234375 46.261719 113.199219 45.757812 114.246094 46.019531 C 114.328125 46.039062 114.378906 46.121094 114.359375 46.203125 C 114.339844 46.285156 114.253906 46.332031 114.171875 46.3125 C 113.492188 46.144531 112.671875 46.335938 111.925781 46.839844 C 111.359375 47.21875 110.875 47.722656 110.40625 48.214844 C 110.308594 48.316406 110.210938 48.417969 110.113281 48.519531 C 108.46875 50.210938 106.582031 51.640625 104.511719 52.777344 C 103.773438 53.183594 102.972656 53.558594 102.117188 53.566406 Z M 102.117188 53.566406 " fill-opacity="1" fill-rule="nonzero"/><path fill="#000000" d="M 105.054688 51.113281 C 105 51.113281 104.949219 51.085938 104.921875 51.03125 C 104.882812 50.960938 104.910156 50.867188 104.984375 50.828125 C 106.527344 50.011719 107.746094 48.609375 108.820312 47.375 L 110.878906 45.007812 C 110.933594 44.945312 111.03125 44.9375 111.09375 44.992188 C 111.15625 45.046875 111.164062 45.144531 111.109375 45.207031 L 109.050781 47.574219 C 107.957031 48.828125 106.71875 50.253906 105.128906 51.097656 C 105.105469 51.109375 105.078125 51.113281 105.054688 51.113281 Z M 105.054688 51.113281 " fill-opacity="1" fill-rule="nonzero"/><path fill="#ffffff" d="M 26.511719 82.074219 C 30.550781 75.980469 37.859375 70.570312 42.324219 68.171875 C 49.152344 64.496094 53.828125 66.195312 53.980469 67.605469 C 54.136719 69.019531 52.394531 69.046875 50.933594 69.183594 C 49.476562 69.320312 48.292969 69.609375 48.292969 69.609375 C 48.292969 69.609375 51.175781 70.359375 49.640625 72.839844 C 49.640625 72.839844 52.800781 73.8125 50.972656 75.980469 C 50.972656 75.980469 53.804688 77.320312 51.605469 79.636719 C 49.40625 81.953125 48.261719 79.652344 48.261719 79.652344 C 48.261719 79.652344 43.886719 81.863281 41.371094 82.113281 C 41.371094 82.113281 39.398438 84.972656 37.636719 90.84375 C 34.488281 89.617188 26.878906 85.890625 26.511719 82.074219 Z M 26.511719 82.074219 " fill-opacity="1" fill-rule="nonzero"/><path fill="#000000" d="M 42.324219 82.101562 C 42.253906 82.101562 42.191406 82.054688 42.175781 81.984375 C 42.15625 81.902344 42.207031 81.820312 42.289062 81.800781 C 44.773438 81.234375 48.160156 79.53125 48.195312 79.515625 C 48.230469 79.496094 48.269531 79.492188 48.308594 79.507812 C 48.347656 79.519531 48.378906 79.546875 48.398438 79.582031 C 48.402344 79.589844 48.753906 80.28125 49.414062 80.46875 C 49.800781 80.578125 50.222656 80.496094 50.667969 80.222656 C 50.742188 80.179688 50.835938 80.203125 50.878906 80.273438 C 50.921875 80.34375 50.898438 80.4375 50.828125 80.484375 C 50.304688 80.804688 49.800781 80.894531 49.328125 80.761719 C 48.726562 80.589844 48.351562 80.089844 48.203125 79.851562 C 47.554688 80.171875 44.597656 81.589844 42.359375 82.097656 C 42.34375 82.101562 42.335938 82.101562 42.324219 82.101562 Z M 42.324219 82.101562 " fill-opacity="1" fill-rule="nonzero"/><path fill="#000000" d="M 32.941406 75.027344 C 32.902344 75.027344 32.859375 75.007812 32.828125 74.976562 C 32.773438 74.914062 32.777344 74.816406 32.839844 74.761719 C 35.777344 72.140625 39.296875 69.625 42.253906 68.035156 C 47.324219 65.308594 51.273438 65.472656 53.117188 66.441406 C 53.726562 66.761719 54.085938 67.171875 54.132812 67.589844 C 54.175781 67.96875 54.09375 68.285156 53.890625 68.535156 C 53.40625 69.121094 52.339844 69.214844 51.308594 69.300781 C 51.1875 69.3125 51.066406 69.324219 50.949219 69.332031 C 50.085938 69.414062 49.3125 69.550781 48.835938 69.648438 C 49.269531 69.847656 49.871094 70.226562 50.125 70.863281 C 50.347656 71.417969 50.261719 72.054688 49.867188 72.757812 C 50.09375 72.84375 50.496094 73.019531 50.863281 73.292969 C 50.933594 73.34375 50.945312 73.4375 50.898438 73.507812 C 50.847656 73.574219 50.75 73.589844 50.683594 73.539062 C 50.183594 73.167969 49.605469 72.988281 49.597656 72.984375 C 49.554688 72.96875 49.515625 72.9375 49.5 72.890625 C 49.484375 72.847656 49.488281 72.800781 49.515625 72.757812 C 49.933594 72.082031 50.046875 71.480469 49.84375 70.976562 C 49.488281 70.085938 48.269531 69.757812 48.257812 69.757812 C 48.191406 69.738281 48.144531 69.675781 48.144531 69.609375 C 48.144531 69.539062 48.191406 69.476562 48.261719 69.460938 C 48.273438 69.457031 49.46875 69.167969 50.921875 69.03125 C 51.042969 69.019531 51.160156 69.007812 51.285156 69 C 52.25 68.914062 53.253906 68.828125 53.65625 68.339844 C 53.804688 68.15625 53.863281 67.921875 53.832031 67.625 C 53.796875 67.3125 53.484375 66.980469 52.976562 66.710938 C 51.542969 65.960938 47.707031 65.449219 42.398438 68.304688 C 39.460938 69.882812 35.964844 72.382812 33.042969 74.988281 C 33.015625 75.015625 32.976562 75.027344 32.941406 75.027344 Z M 32.941406 75.027344 " fill-opacity="1" fill-rule="nonzero"/><path fill="#000000" d="M 48.875 79.332031 C 48.832031 79.332031 48.789062 79.3125 48.757812 79.273438 C 48.703125 79.210938 48.714844 79.113281 48.78125 79.0625 L 49.828125 78.21875 C 49.890625 78.167969 49.988281 78.179688 50.039062 78.242188 C 50.09375 78.308594 50.082031 78.40625 50.015625 78.457031 L 48.972656 79.296875 C 48.941406 79.320312 48.910156 79.332031 48.875 79.332031 Z M 48.875 79.332031 " fill-opacity="1" fill-rule="nonzero"/><path fill="#ffffff" d="M 158.765625 23.648438 L 158.34375 18.046875 C 158.34375 18.046875 159.902344 11.167969 165.191406 16.304688 L 166.164062 23.964844 C 166.164062 23.964844 167.085938 27.734375 162.648438 27.726562 C 158.875 27.71875 158.765625 23.648438 158.765625 23.648438 Z M 158.765625 23.648438 " fill-opacity="1" fill-rule="nonzero"/><path fill="#000000" d="M 158.726562 22.886719 C 158.644531 22.886719 158.578125 22.824219 158.574219 22.742188 L 158.378906 18.050781 C 158.378906 18.039062 158.378906 18.027344 158.378906 18.015625 C 158.40625 17.890625 159.011719 14.964844 160.972656 14.355469 C 162.195312 13.976562 163.652344 14.59375 165.296875 16.195312 C 165.324219 16.21875 165.339844 16.25 165.34375 16.285156 L 165.976562 21.296875 C 165.988281 21.378906 165.929688 21.457031 165.847656 21.464844 C 165.765625 21.476562 165.6875 21.417969 165.675781 21.335938 L 165.046875 16.375 C 163.503906 14.886719 162.160156 14.304688 161.0625 14.644531 C 159.347656 15.179688 158.734375 17.820312 158.683594 18.058594 L 158.878906 22.726562 C 158.882812 22.8125 158.816406 22.882812 158.730469 22.886719 C 158.730469 22.886719 158.726562 22.886719 158.726562 22.886719 Z M 158.726562 22.886719 " fill-opacity="1" fill-rule="nonzero"/><path fill="#000000" d="M 155.230469 11.230469 C 155.457031 11.625 155.761719 12.164062 156.140625 12.59375 C 156.398438 13.066406 156.832031 13.382812 157.574219 13.449219 C 157.898438 15.226562 159.566406 16.570312 161.347656 16.847656 C 162.960938 17.097656 166.570312 15.070312 166.683594 14.480469 C 166.976562 13.9375 167.730469 11.734375 167.800781 11.136719 C 168.011719 9.320312 167.308594 7.46875 165.851562 6.34375 C 164.59375 5.367188 162.949219 5.09375 161.464844 5.578125 C 160.855469 4.796875 160.003906 4.207031 159.039062 3.957031 C 157.960938 3.675781 156.785156 3.871094 155.851562 4.480469 C 154.828125 5.148438 154.253906 6.238281 154.171875 7.445312 C 154.078125 8.789062 154.570312 10.082031 155.230469 11.230469 Z M 155.230469 11.230469 " fill-opacity="1" fill-rule="nonzero"/><path fill="#ffffff" d="M 156.167969 12.300781 C 156.167969 12.300781 153.875 18.335938 156.167969 20.28125 C 157.527344 21.433594 161.820312 22.039062 164.566406 17.886719 C 164.566406 17.886719 166.46875 17.980469 166.902344 16.035156 C 167.335938 14.089844 166.363281 13.355469 164.792969 14.726562 C 164.792969 14.726562 162.890625 15.695312 163.515625 12.996094 C 163.789062 11.824219 162.785156 10.753906 160.589844 10.121094 C 156.621094 8.972656 156.988281 9.976562 156.167969 12.300781 Z M 156.167969 12.300781 " fill-opacity="1" fill-rule="nonzero"/><path fill="#000000" d="M 159 21.285156 C 157.707031 21.285156 156.632812 20.875 156.066406 20.394531 C 153.726562 18.410156 155.917969 12.519531 156.023438 12.246094 C 156.132812 11.933594 156.222656 11.640625 156.304688 11.382812 C 156.875 9.527344 157.21875 8.988281 160.632812 9.972656 C 162.863281 10.617188 163.964844 11.730469 163.664062 13.03125 C 163.46875 13.875 163.507812 14.429688 163.777344 14.640625 C 164.039062 14.847656 164.523438 14.6875 164.707031 14.597656 C 165.488281 13.925781 166.175781 13.707031 166.652344 13.992188 C 167.132812 14.28125 167.28125 15.035156 167.050781 16.066406 C 166.648438 17.867188 165.046875 18.027344 164.648438 18.039062 C 163.109375 20.324219 161.207031 21.03125 159.875 21.222656 C 159.574219 21.265625 159.28125 21.285156 159 21.285156 Z M 158.148438 9.789062 C 157.113281 9.789062 156.933594 10.378906 156.59375 11.472656 C 156.515625 11.734375 156.421875 12.03125 156.308594 12.347656 C 156.308594 12.351562 156.308594 12.351562 156.308594 12.351562 C 156.285156 12.414062 154.082031 18.3125 156.265625 20.164062 C 156.902344 20.703125 158.25 21.144531 159.835938 20.921875 C 161.113281 20.738281 162.953125 20.050781 164.441406 17.804688 C 164.46875 17.757812 164.519531 17.734375 164.574219 17.734375 C 164.648438 17.738281 166.355469 17.796875 166.753906 16.003906 C 166.949219 15.121094 166.855469 14.464844 166.496094 14.25 C 166.144531 14.042969 165.5625 14.257812 164.894531 14.839844 C 164.882812 14.847656 164.875 14.855469 164.863281 14.863281 C 164.828125 14.878906 164.070312 15.257812 163.589844 14.882812 C 163.214844 14.589844 163.140625 13.945312 163.367188 12.964844 C 163.628906 11.84375 162.601562 10.859375 160.550781 10.265625 C 159.433594 9.945312 158.679688 9.789062 158.148438 9.789062 Z M 156.167969 12.300781 Z M 156.167969 12.300781 " fill-opacity="1" fill-rule="nonzero"/><path fill="#ffffff" d="M 128.53125 31.796875 C 124.390625 28.316406 120.558594 24.386719 115.851562 21.726562 C 115.433594 21.492188 114.996094 21.265625 114.519531 21.242188 C 114.042969 21.222656 113.523438 21.472656 113.378906 21.925781 C 113.234375 22.386719 113.511719 22.867188 113.796875 23.253906 C 114.695312 24.472656 115.988281 25.714844 117.292969 26.484375 C 117.292969 26.484375 115.203125 26.894531 115.394531 28.867188 C 115.394531 28.867188 114.160156 29.140625 114.820312 31.511719 C 114.820312 31.511719 114.191406 33.414062 115.910156 34.394531 C 117.148438 35.097656 117.929688 34.765625 117.929688 34.765625 C 117.929688 34.765625 122.445312 39.917969 125.140625 41.539062 C 127.839844 43.160156 130.757812 33.667969 128.53125 31.796875 Z M 128.53125 31.796875 " fill-opacity="1" fill-rule="nonzero"/><path fill="#000000" d="M 124.722656 41.507812 C 124.691406 41.507812 124.65625 41.496094 124.628906 41.472656 C 122.285156 39.5625 118.4375 35.519531 117.886719 34.941406 C 117.621094 35.011719 116.878906 35.121094 115.835938 34.527344 C 114.183594 33.585938 114.578125 31.820312 114.664062 31.511719 C 114.390625 30.515625 114.410156 29.75 114.71875 29.238281 C 114.886719 28.960938 115.101562 28.828125 115.234375 28.765625 C 115.152344 27.273438 116.328125 26.652344 116.925781 26.4375 C 115.765625 25.691406 114.570312 24.554688 113.675781 23.34375 C 113.402344 22.976562 113.0625 22.425781 113.234375 21.878906 C 113.40625 21.332031 114.015625 21.066406 114.527344 21.089844 C 115.035156 21.113281 115.496094 21.351562 115.925781 21.59375 C 119.257812 23.476562 121.84375 25.8125 124.578125 28.285156 C 125.53125 29.148438 126.519531 30.042969 127.550781 30.925781 C 127.613281 30.980469 127.621094 31.074219 127.566406 31.140625 C 127.511719 31.203125 127.417969 31.210938 127.351562 31.15625 C 126.320312 30.273438 125.328125 29.378906 124.375 28.511719 C 121.652344 26.050781 119.078125 23.726562 115.773438 21.859375 C 115.359375 21.628906 114.953125 21.414062 114.515625 21.394531 C 114.128906 21.378906 113.652344 21.574219 113.527344 21.972656 C 113.398438 22.386719 113.6875 22.851562 113.917969 23.164062 C 114.867188 24.445312 116.15625 25.640625 117.371094 26.355469 C 117.425781 26.386719 117.453125 26.449219 117.445312 26.511719 C 117.433594 26.574219 117.386719 26.625 117.324219 26.636719 C 117.242188 26.652344 115.371094 27.042969 115.542969 28.855469 C 115.550781 28.933594 115.5 29.003906 115.425781 29.019531 C 115.417969 29.019531 115.160156 29.085938 114.976562 29.40625 C 114.792969 29.710938 114.644531 30.320312 114.964844 31.472656 C 114.976562 31.5 114.972656 31.53125 114.964844 31.558594 C 114.941406 31.632812 114.398438 33.359375 115.988281 34.261719 C 117.132812 34.914062 117.863281 34.628906 117.871094 34.628906 C 117.929688 34.605469 117.996094 34.617188 118.042969 34.664062 C 118.082031 34.707031 122.324219 39.199219 124.820312 41.242188 C 124.886719 41.292969 124.894531 41.390625 124.839844 41.453125 C 124.8125 41.488281 124.769531 41.507812 124.722656 41.507812 Z M 124.722656 41.507812 " fill-opacity="1" fill-rule="nonzero"/><path fill="#000000" d="M 118.789062 33.378906 C 118.539062 33.378906 118.28125 33.320312 118.035156 33.207031 C 117.542969 32.980469 117.164062 32.574219 116.824219 32.167969 C 116.390625 31.652344 115.855469 30.953125 115.554688 30.121094 C 115.449219 29.824219 115.378906 29.523438 115.347656 29.222656 C 115.339844 29.136719 115.398438 29.0625 115.480469 29.054688 C 115.566406 29.046875 115.640625 29.105469 115.648438 29.191406 C 115.679688 29.464844 115.742188 29.746094 115.839844 30.019531 C 116.125 30.804688 116.640625 31.476562 117.054688 31.972656 C 117.421875 32.410156 117.75 32.738281 118.164062 32.929688 C 118.546875 33.109375 119.09375 33.152344 119.464844 32.855469 C 119.640625 32.710938 119.746094 32.46875 119.742188 32.222656 C 119.742188 32.023438 119.664062 31.855469 119.53125 31.75 C 119.464844 31.699219 119.453125 31.605469 119.503906 31.539062 C 119.554688 31.472656 119.652344 31.460938 119.71875 31.511719 C 119.925781 31.671875 120.042969 31.925781 120.046875 32.21875 C 120.050781 32.558594 119.902344 32.890625 119.65625 33.089844 C 119.421875 33.28125 119.113281 33.378906 118.789062 33.378906 Z M 118.789062 33.378906 " fill-opacity="1" fill-rule="nonzero"/><path fill="#000000" d="M 122.449219 32.171875 C 122.289062 32.171875 122.132812 32.148438 121.988281 32.09375 C 121.578125 31.945312 121.261719 31.652344 120.953125 31.367188 C 120.902344 31.320312 120.851562 31.273438 120.800781 31.230469 C 120.503906 30.957031 120.101562 30.648438 119.660156 30.640625 C 119.414062 30.632812 119.164062 30.722656 118.90625 30.816406 C 118.605469 30.925781 118.296875 31.039062 117.957031 31.007812 C 117.613281 30.976562 117.300781 30.78125 117.078125 30.460938 C 116.8125 30.078125 116.71875 29.566406 116.835938 29.128906 C 117.082031 28.226562 117.941406 27.71875 118.433594 27.492188 C 119.292969 27.101562 120.246094 26.957031 121.183594 27.070312 C 121.265625 27.082031 121.324219 27.15625 121.316406 27.238281 C 121.304688 27.324219 121.230469 27.382812 121.144531 27.371094 C 120.261719 27.265625 119.367188 27.402344 118.558594 27.769531 C 118.117188 27.972656 117.34375 28.425781 117.132812 29.207031 C 117.035156 29.5625 117.109375 29.976562 117.328125 30.289062 C 117.496094 30.53125 117.730469 30.679688 117.988281 30.703125 C 118.253906 30.730469 118.519531 30.632812 118.800781 30.53125 C 119.078125 30.429688 119.355469 30.328125 119.667969 30.335938 C 120.210938 30.34375 120.667969 30.695312 121.007812 31.003906 C 121.058594 31.050781 121.109375 31.097656 121.160156 31.140625 C 121.445312 31.40625 121.742188 31.679688 122.09375 31.808594 C 122.46875 31.945312 122.980469 31.855469 123.140625 31.507812 C 123.175781 31.429688 123.265625 31.394531 123.34375 31.429688 C 123.417969 31.46875 123.453125 31.558594 123.417969 31.632812 C 123.246094 32.003906 122.84375 32.171875 122.449219 32.171875 Z M 122.449219 32.171875 " fill-opacity="1" fill-rule="nonzero"/><path fill="#000000" d="M 118.191406 34.40625 C 118.039062 34.40625 117.878906 34.382812 117.714844 34.339844 C 117.367188 34.242188 117.054688 34.054688 116.792969 33.882812 C 115.949219 33.324219 115.359375 32.726562 114.992188 32.058594 C 114.949219 31.984375 114.976562 31.890625 115.050781 31.851562 C 115.125 31.808594 115.214844 31.835938 115.257812 31.910156 C 115.601562 32.535156 116.160156 33.097656 116.960938 33.628906 C 117.203125 33.785156 117.488281 33.960938 117.796875 34.046875 C 118.109375 34.132812 118.414062 34.121094 118.652344 34.003906 C 118.914062 33.878906 119.089844 33.625 119.089844 33.371094 C 119.089844 33.285156 119.15625 33.21875 119.242188 33.21875 C 119.324219 33.21875 119.394531 33.285156 119.394531 33.367188 C 119.394531 33.738281 119.148438 34.105469 118.785156 34.277344 C 118.605469 34.363281 118.40625 34.40625 118.191406 34.40625 Z M 118.191406 34.40625 " fill-opacity="1" fill-rule="nonzero"/><path fill="#000000" d="M 117.980469 34.824219 C 117.941406 34.824219 117.90625 34.8125 117.875 34.785156 C 117.8125 34.726562 117.808594 34.632812 117.867188 34.570312 C 117.953125 34.476562 118.019531 34.367188 118.066406 34.25 C 118.09375 34.171875 118.183594 34.132812 118.261719 34.164062 C 118.339844 34.195312 118.378906 34.28125 118.347656 34.363281 C 118.289062 34.515625 118.203125 34.65625 118.089844 34.777344 C 118.058594 34.808594 118.019531 34.824219 117.980469 34.824219 Z M 117.980469 34.824219 " fill-opacity="1" fill-rule="nonzero"/><g clip-path="url(#77ac075301)"><path fill="#ffa240" d="M 147.109375 47.539062 C 147.109375 47.539062 140.023438 60.632812 120.148438 37.941406 C 122.398438 35.4375 123.40625 35.601562 126.554688 29.847656 C 126.554688 29.847656 134.667969 34.984375 137.378906 36.359375 C 142.132812 30.867188 147.582031 24.828125 156.585938 24.226562 C 157.464844 24.164062 158.039062 24.183594 158.039062 24.183594 L 158.519531 22.3125 L 160.3125 24.257812 L 162.03125 22.644531 L 166.222656 21.617188 L 167.109375 24.246094 C 167.109375 24.246094 166.652344 24.199219 167.6875 24.300781 C 174.199219 24.820312 178.296875 25.609375 181.738281 29.808594 C 186.167969 35.214844 190.238281 43.519531 189.378906 49.976562 C 188.410156 57.238281 180.824219 58.53125 177.351562 56.359375 C 177.332031 56.714844 177.539062 63.25 177.28125 63.347656 L 146.183594 63.347656 Z M 147.109375 47.539062 " fill-opacity="1" fill-rule="nonzero"/></g><path fill="#000000" d="M 176.972656 56.46875 C 176.945312 56.46875 176.914062 56.460938 176.890625 56.441406 C 169.722656 51.578125 165.417969 36.71875 165.375 36.570312 C 165.351562 36.488281 165.398438 36.402344 165.476562 36.382812 C 165.558594 36.359375 165.644531 36.40625 165.667969 36.484375 C 165.707031 36.632812 169.984375 51.390625 177.058594 56.191406 C 177.128906 56.238281 177.148438 56.332031 177.097656 56.402344 C 177.070312 56.445312 177.023438 56.46875 176.972656 56.46875 Z M 176.972656 56.46875 " fill-opacity="1" fill-rule="nonzero"/><path fill="#000000" d="M 147.109375 47.191406 C 147.105469 47.191406 147.101562 47.191406 147.097656 47.191406 C 147.011719 47.183594 146.949219 47.109375 146.957031 47.027344 L 147.621094 38.898438 C 147.628906 38.8125 147.703125 38.75 147.785156 38.757812 C 147.867188 38.765625 147.929688 38.839844 147.925781 38.921875 L 147.261719 47.050781 C 147.253906 47.132812 147.1875 47.191406 147.109375 47.191406 Z M 147.109375 47.191406 " fill-opacity="1" fill-rule="nonzero"/><path fill="#000000" d="M 184.578125 44.5625 C 184.527344 44.5625 184.480469 44.539062 184.449219 44.492188 L 174.515625 29.328125 C 174.46875 29.257812 174.488281 29.164062 174.558594 29.117188 C 174.628906 29.070312 174.722656 29.089844 174.769531 29.160156 L 184.703125 44.328125 C 184.75 44.398438 184.730469 44.492188 184.660156 44.539062 C 184.632812 44.554688 184.605469 44.5625 184.578125 44.5625 Z M 184.578125 44.5625 " fill-opacity="1" fill-rule="nonzero"/><path fill="#000000" d="M 139.726562 38.230469 C 139.695312 38.230469 139.664062 38.222656 139.636719 38.203125 L 137.5625 36.710938 C 137.496094 36.660156 137.480469 36.566406 137.527344 36.496094 C 137.578125 36.429688 137.671875 36.414062 137.742188 36.464844 L 139.816406 37.957031 C 139.882812 38.003906 139.898438 38.101562 139.847656 38.167969 C 139.820312 38.210938 139.773438 38.230469 139.726562 38.230469 Z M 139.726562 38.230469 " fill-opacity="1" fill-rule="nonzero"/><path fill="#000000" d="M 156.269531 23.816406 L 160.441406 29.605469 C 160.890625 30.226562 161.753906 30.367188 162.375 29.917969 L 173.601562 21.828125 C 174.21875 21.378906 174.359375 20.515625 173.914062 19.894531 L 169.738281 14.105469 C 169.292969 13.484375 168.429688 13.34375 167.808594 13.792969 L 156.582031 21.882812 C 155.960938 22.332031 155.824219 23.195312 156.269531 23.816406 Z M 156.269531 23.816406 " fill-opacity="1" fill-rule="nonzero"/><path fill="#ffffff" d="M 160.574219 23.707031 C 160.148438 22.90625 159.980469 22.128906 160.585938 21.628906 C 160.96875 21.308594 161.726562 21.097656 162.367188 21.65625 C 162.144531 21.265625 162.007812 21.027344 161.90625 20.476562 C 161.804688 19.925781 161.976562 19.285156 162.457031 19 C 162.878906 18.75 163.4375 18.832031 163.859375 19.082031 C 164.070312 19.207031 164.253906 19.363281 164.421875 19.539062 C 164.320312 19.175781 164.402344 18.738281 164.679688 18.46875 C 165.144531 18.007812 165.921875 18 166.519531 18.269531 C 167.117188 18.542969 167.578125 19.042969 168.023438 19.527344 C 169.574219 21.21875 172.355469 26.570312 174.230469 28.65625 C 173.914062 29.074219 173.582031 29.480469 173.238281 29.871094 C 171.265625 32.105469 169.480469 33.34375 166.984375 34.957031 C 166.589844 35.210938 165.796875 35.660156 165.394531 35.902344 C 163.769531 33.480469 161.355469 28.410156 160.40625 26.847656 C 160.089844 26.328125 159.765625 25.777344 159.71875 25.167969 C 159.667969 24.558594 159.984375 23.871094 160.574219 23.707031 Z M 160.574219 23.707031 " fill-opacity="1" fill-rule="nonzero"/><path fill="#000000" d="M 167.152344 23.910156 C 167.105469 23.910156 167.054688 23.882812 167.023438 23.839844 L 164.527344 19.941406 C 164.484375 19.871094 164.503906 19.777344 164.574219 19.730469 C 164.644531 19.683594 164.738281 19.707031 164.785156 19.777344 L 167.28125 23.675781 C 167.328125 23.746094 167.304688 23.839844 167.234375 23.886719 C 167.210938 23.902344 167.183594 23.910156 167.152344 23.910156 Z M 167.152344 23.910156 " fill-opacity="1" fill-rule="nonzero"/><path fill="#000000" d="M 164.976562 25.890625 C 164.925781 25.890625 164.875 25.863281 164.847656 25.820312 L 162.320312 21.910156 C 162.277344 21.835938 162.296875 21.742188 162.367188 21.699219 C 162.4375 21.652344 162.53125 21.671875 162.578125 21.742188 L 165.101562 25.652344 C 165.148438 25.722656 165.128906 25.816406 165.058594 25.863281 C 165.03125 25.882812 165.003906 25.890625 164.976562 25.890625 Z M 164.976562 25.890625 " fill-opacity="1" fill-rule="nonzero"/><path fill="#000000" d="M 163.007812 27.316406 C 162.960938 27.316406 162.914062 27.296875 162.882812 27.253906 L 160.582031 23.984375 C 160.53125 23.917969 160.550781 23.820312 160.617188 23.773438 C 160.6875 23.726562 160.78125 23.742188 160.828125 23.808594 L 163.132812 27.078125 C 163.179688 27.148438 163.164062 27.242188 163.09375 27.289062 C 163.066406 27.308594 163.039062 27.316406 163.007812 27.316406 Z M 163.007812 27.316406 " fill-opacity="1" fill-rule="nonzero"/><path fill="#000000" d="M 12.914062 37.960938 C 12.832031 37.960938 12.761719 37.890625 12.761719 37.808594 L 12.761719 5.523438 C 12.761719 5.4375 12.832031 5.371094 12.914062 5.371094 L 116.195312 5.371094 C 116.28125 5.371094 116.347656 5.4375 116.347656 5.523438 C 116.347656 5.605469 116.28125 5.675781 116.195312 5.675781 L 13.066406 5.675781 L 13.066406 37.808594 C 13.066406 37.890625 13 37.960938 12.914062 37.960938 Z M 12.914062 37.960938 " fill-opacity="1" fill-rule="nonzero"/><path fill="#ffa240" d="M 15.972656 1.59375 C 15.972656 1.796875 15.933594 1.992188 15.855469 2.179688 C 15.777344 2.367188 15.667969 2.53125 15.523438 2.675781 C 15.378906 2.816406 15.214844 2.929688 15.027344 3.007812 C 14.839844 3.082031 14.644531 3.121094 14.445312 3.121094 C 14.242188 3.121094 14.046875 3.082031 13.859375 3.007812 C 13.671875 2.929688 13.507812 2.816406 13.363281 2.675781 C 13.21875 2.53125 13.109375 2.367188 13.03125 2.179688 C 12.953125 1.992188 12.914062 1.796875 12.914062 1.59375 C 12.914062 1.390625 12.953125 1.195312 13.03125 1.011719 C 13.109375 0.824219 13.21875 0.65625 13.363281 0.515625 C 13.507812 0.371094 13.671875 0.261719 13.859375 0.183594 C 14.046875 0.105469 14.242188 0.0664062 14.445312 0.0664062 C 14.644531 0.0664062 14.839844 0.105469 15.027344 0.183594 C 15.214844 0.261719 15.378906 0.371094 15.523438 0.515625 C 15.667969 0.65625 15.777344 0.824219 15.855469 1.011719 C 15.933594 1.195312 15.972656 1.390625 15.972656 1.59375 Z M 15.972656 1.59375 " fill-opacity="1" fill-rule="nonzero"/><path fill="#e2eaff" d="M 20.546875 1.59375 C 20.546875 1.796875 20.511719 1.992188 20.433594 2.179688 C 20.355469 2.367188 20.246094 2.53125 20.101562 2.675781 C 19.957031 2.816406 19.792969 2.929688 19.605469 3.007812 C 19.417969 3.082031 19.222656 3.121094 19.019531 3.121094 C 18.816406 3.121094 18.625 3.082031 18.4375 3.007812 C 18.25 2.929688 18.082031 2.816406 17.941406 2.675781 C 17.796875 2.53125 17.6875 2.367188 17.609375 2.179688 C 17.53125 1.992188 17.492188 1.796875 17.492188 1.59375 C 17.492188 1.390625 17.53125 1.195312 17.609375 1.011719 C 17.6875 0.824219 17.796875 0.65625 17.941406 0.515625 C 18.082031 0.371094 18.25 0.261719 18.4375 0.183594 C 18.625 0.105469 18.816406 0.0664062 19.019531 0.0664062 C 19.222656 0.0664062 19.417969 0.105469 19.605469 0.183594 C 19.792969 0.261719 19.957031 0.371094 20.101562 0.515625 C 20.246094 0.65625 20.355469 0.824219 20.433594 1.011719 C 20.511719 1.195312 20.546875 1.390625 20.546875 1.59375 Z M 20.546875 1.59375 " fill-opacity="1" fill-rule="nonzero"/><path fill="#e2eaff" d="M 25.125 1.574219 C 25.128906 1.773438 25.09375 1.972656 25.019531 2.160156 C 24.945312 2.347656 24.835938 2.515625 24.695312 2.660156 C 24.554688 2.804688 24.390625 2.917969 24.203125 3 C 24.019531 3.078125 23.824219 3.121094 23.621094 3.125 C 23.417969 3.125 23.222656 3.089844 23.035156 3.015625 C 22.847656 2.941406 22.679688 2.832031 22.535156 2.691406 C 22.390625 2.550781 22.277344 2.386719 22.195312 2.203125 C 22.113281 2.015625 22.074219 1.820312 22.070312 1.617188 C 22.066406 1.414062 22.101562 1.21875 22.179688 1.03125 C 22.253906 0.84375 22.359375 0.675781 22.5 0.53125 C 22.644531 0.386719 22.804688 0.273438 22.992188 0.191406 C 23.179688 0.113281 23.371094 0.0703125 23.574219 0.0664062 C 23.777344 0.0664062 23.972656 0.101562 24.160156 0.175781 C 24.351562 0.25 24.515625 0.359375 24.664062 0.5 C 24.808594 0.640625 24.921875 0.804688 25 0.988281 C 25.082031 1.175781 25.121094 1.371094 25.125 1.574219 Z M 25.125 1.574219 " fill-opacity="1" fill-rule="nonzero"/><path fill="#000000" d="M 105.3125 8.71875 L 84.492188 8.71875 C 84.40625 8.71875 84.339844 8.648438 84.339844 8.566406 C 84.339844 8.480469 84.40625 8.414062 84.492188 8.414062 L 105.3125 8.414062 C 105.398438 8.414062 105.464844 8.480469 105.464844 8.566406 C 105.464844 8.648438 105.398438 8.71875 105.3125 8.71875 Z M 105.3125 8.71875 " fill-opacity="1" fill-rule="nonzero"/><path fill="#000000" d="M 105.3125 11.757812 L 98.761719 11.757812 C 98.679688 11.757812 98.609375 11.691406 98.609375 11.605469 C 98.609375 11.523438 98.679688 11.457031 98.761719 11.457031 L 105.3125 11.457031 C 105.398438 11.457031 105.464844 11.523438 105.464844 11.605469 C 105.464844 11.691406 105.398438 11.757812 105.3125 11.757812 Z M 105.3125 11.757812 " fill-opacity="1" fill-rule="nonzero"/><path fill="#000000" d="M 95.71875 11.757812 L 84.492188 11.757812 C 84.40625 11.757812 84.339844 11.691406 84.339844 11.605469 C 84.339844 11.523438 84.40625 11.457031 84.492188 11.457031 L 95.71875 11.457031 C 95.804688 11.457031 95.871094 11.523438 95.871094 11.605469 C 95.871094 11.691406 95.804688 11.757812 95.71875 11.757812 Z M 95.71875 11.757812 " fill-opacity="1" fill-rule="nonzero"/><path fill="#000000" d="M 105.3125 14.800781 L 93.148438 14.800781 C 93.0625 14.800781 92.996094 14.734375 92.996094 14.648438 C 92.996094 14.566406 93.0625 14.496094 93.148438 14.496094 L 105.3125 14.496094 C 105.398438 14.496094 105.464844 14.566406 105.464844 14.648438 C 105.464844 14.734375 105.398438 14.800781 105.3125 14.800781 Z M 105.3125 14.800781 " fill-opacity="1" fill-rule="nonzero"/><path fill="#000000" d="M 90.105469 14.800781 L 84.492188 14.800781 C 84.40625 14.800781 84.339844 14.734375 84.339844 14.648438 C 84.339844 14.566406 84.40625 14.496094 84.492188 14.496094 L 90.105469 14.496094 C 90.191406 14.496094 90.257812 14.566406 90.257812 14.648438 C 90.257812 14.734375 90.191406 14.800781 90.105469 14.800781 Z M 90.105469 14.800781 " fill-opacity="1" fill-rule="nonzero"/><path fill="#ffffff" d="M 40.429688 5.523438 L 69.203125 5.523438 L 69.203125 24.386719 L 40.429688 24.386719 Z M 40.429688 5.523438 " fill-opacity="1" fill-rule="nonzero"/><path fill="#000000" d="M 69.203125 24.542969 L 40.429688 24.542969 C 40.34375 24.542969 40.277344 24.472656 40.277344 24.390625 L 40.277344 5.523438 C 40.277344 5.4375 40.34375 5.371094 40.429688 5.371094 L 69.203125 5.371094 C 69.285156 5.371094 69.355469 5.4375 69.355469 5.523438 L 69.355469 24.386719 C 69.355469 24.472656 69.285156 24.542969 69.203125 24.542969 Z M 40.582031 24.238281 L 69.050781 24.238281 L 69.050781 5.675781 L 40.582031 5.675781 Z M 40.582031 24.238281 " fill-opacity="1" fill-rule="nonzero"/><path fill="#ffa240" d="M 54.507812 10.058594 C 54.539062 10.105469 54.570312 10.148438 54.605469 10.191406 C 54.210938 10.59375 53.886719 11.042969 53.632812 11.53125 C 53.582031 11.511719 53.53125 11.492188 53.476562 11.480469 C 52.746094 11.304688 52.015625 11.757812 51.839844 12.484375 C 51.664062 13.214844 52.117188 13.945312 52.84375 14.121094 C 52.898438 14.132812 52.953125 14.144531 53.007812 14.148438 C 53.011719 14.695312 53.097656 15.246094 53.265625 15.78125 C 53.21875 15.804688 53.167969 15.828125 53.121094 15.859375 C 52.480469 16.25 52.28125 17.085938 52.675781 17.726562 C 53.066406 18.363281 53.902344 18.566406 54.542969 18.171875 C 54.589844 18.144531 54.632812 18.109375 54.675781 18.078125 C 55.078125 18.46875 55.527344 18.796875 56.015625 19.046875 C 55.996094 19.097656 55.976562 19.152344 55.964844 19.203125 C 55.789062 19.933594 56.242188 20.667969 56.96875 20.839844 C 57.699219 21.015625 58.429688 20.566406 58.605469 19.835938 C 58.617188 19.78125 58.628906 19.726562 58.632812 19.671875 C 59.179688 19.667969 59.730469 19.582031 60.265625 19.414062 C 60.289062 19.464844 60.3125 19.511719 60.34375 19.558594 C 60.734375 20.199219 61.570312 20.398438 62.210938 20.007812 C 62.847656 19.613281 63.050781 18.78125 62.65625 18.140625 C 62.628906 18.09375 62.59375 18.046875 62.5625 18.003906 C 62.953125 17.605469 63.28125 17.152344 63.53125 16.667969 C 63.582031 16.6875 63.636719 16.703125 63.6875 16.714844 C 64.417969 16.890625 65.152344 16.441406 65.324219 15.710938 C 65.5 14.984375 65.050781 14.25 64.320312 14.074219 C 64.265625 14.0625 64.210938 14.054688 64.160156 14.046875 C 64.152344 13.5 64.070312 12.949219 63.898438 12.414062 C 63.949219 12.394531 63.996094 12.367188 64.046875 12.339844 C 64.683594 11.945312 64.882812 11.109375 64.492188 10.472656 C 64.097656 9.832031 63.265625 9.632812 62.625 10.023438 C 62.578125 10.054688 62.53125 10.085938 62.488281 10.121094 C 62.089844 9.726562 61.636719 9.402344 61.152344 9.148438 C 61.171875 9.097656 61.1875 9.046875 61.199219 8.992188 C 61.375 8.261719 60.925781 7.53125 60.195312 7.355469 C 59.46875 7.179688 58.734375 7.632812 58.558594 8.359375 C 58.546875 8.414062 58.539062 8.46875 58.53125 8.523438 C 57.984375 8.527344 57.4375 8.613281 56.898438 8.78125 C 56.878906 8.734375 56.851562 8.683594 56.824219 8.636719 C 56.429688 7.996094 55.59375 7.796875 54.957031 8.1875 C 54.316406 8.582031 54.117188 9.417969 54.507812 10.058594 Z M 60.730469 12.777344 C 61.460938 13.964844 61.089844 15.519531 59.902344 16.246094 C 58.714844 16.976562 57.164062 16.605469 56.433594 15.417969 C 55.707031 14.230469 56.078125 12.679688 57.261719 11.949219 C 58.449219 11.222656 60.003906 11.59375 60.730469 12.777344 Z M 60.730469 12.777344 " fill-opacity="1" fill-rule="nonzero"/><path fill="#ffa240" d="M 45.851562 15.164062 C 45.871094 15.191406 45.886719 15.21875 45.910156 15.242188 C 45.679688 15.476562 45.488281 15.742188 45.339844 16.027344 C 45.308594 16.015625 45.277344 16.003906 45.246094 15.996094 C 44.820312 15.894531 44.390625 16.160156 44.289062 16.585938 C 44.1875 17.011719 44.449219 17.441406 44.878906 17.542969 C 44.910156 17.550781 44.941406 17.558594 44.972656 17.558594 C 44.976562 17.878906 45.027344 18.203125 45.125 18.515625 C 45.097656 18.527344 45.066406 18.542969 45.039062 18.5625 C 44.664062 18.792969 44.546875 19.28125 44.777344 19.65625 C 45.007812 20.027344 45.496094 20.144531 45.871094 19.917969 C 45.898438 19.898438 45.925781 19.878906 45.949219 19.859375 C 46.183594 20.089844 46.449219 20.28125 46.734375 20.429688 C 46.722656 20.457031 46.710938 20.488281 46.703125 20.519531 C 46.601562 20.949219 46.863281 21.378906 47.292969 21.480469 C 47.71875 21.582031 48.148438 21.316406 48.25 20.890625 C 48.257812 20.859375 48.261719 20.828125 48.265625 20.796875 C 48.585938 20.792969 48.910156 20.742188 49.222656 20.644531 C 49.234375 20.671875 49.25 20.703125 49.265625 20.730469 C 49.496094 21.105469 49.988281 21.21875 50.359375 20.992188 C 50.734375 20.761719 50.851562 20.269531 50.621094 19.898438 C 50.605469 19.871094 50.585938 19.84375 50.566406 19.820312 C 50.796875 19.585938 50.988281 19.320312 51.136719 19.035156 C 51.164062 19.046875 51.195312 19.058594 51.226562 19.066406 C 51.65625 19.167969 52.082031 18.902344 52.1875 18.476562 C 52.289062 18.050781 52.023438 17.621094 51.597656 17.519531 C 51.566406 17.511719 51.535156 17.503906 51.5 17.503906 C 51.5 17.183594 51.449219 16.859375 51.351562 16.546875 C 51.378906 16.53125 51.40625 16.519531 51.433594 16.5 C 51.808594 16.269531 51.925781 15.78125 51.699219 15.40625 C 51.46875 15.035156 50.976562 14.917969 50.605469 15.144531 C 50.578125 15.164062 50.550781 15.183594 50.523438 15.203125 C 50.289062 14.972656 50.027344 14.78125 49.742188 14.632812 C 49.753906 14.605469 49.761719 14.574219 49.769531 14.542969 C 49.875 14.113281 49.609375 13.683594 49.183594 13.582031 C 48.753906 13.480469 48.324219 13.742188 48.222656 14.171875 C 48.21875 14.203125 48.210938 14.234375 48.207031 14.265625 C 47.886719 14.269531 47.566406 14.320312 47.253906 14.417969 C 47.238281 14.390625 47.226562 14.363281 47.207031 14.332031 C 46.976562 13.957031 46.488281 13.84375 46.113281 14.070312 C 45.738281 14.300781 45.621094 14.789062 45.851562 15.164062 Z M 49.496094 16.757812 C 49.921875 17.453125 49.707031 18.363281 49.011719 18.789062 C 48.316406 19.214844 47.40625 19 46.980469 18.304688 C 46.554688 17.609375 46.769531 16.699219 47.464844 16.273438 C 48.160156 15.847656 49.070312 16.0625 49.496094 16.757812 Z M 49.496094 16.757812 " fill-opacity="1" fill-rule="nonzero"/><g clip-path="url(#a1b7ac3012)"><path fill="#000000" d="M 189.492188 126.464844 L 130.84375 126.464844 C 130.757812 126.464844 130.691406 126.398438 130.691406 126.3125 C 130.691406 126.230469 130.757812 126.160156 130.84375 126.160156 L 189.339844 126.160156 L 189.339844 62.875 C 189.339844 62.789062 189.40625 62.722656 189.492188 62.722656 C 189.578125 62.722656 189.644531 62.789062 189.644531 62.875 L 189.644531 126.3125 C 189.644531 126.398438 189.578125 126.464844 189.492188 126.464844 Z M 189.492188 126.464844 " fill-opacity="1" fill-rule="nonzero"/></g><path fill="#000000" d="M 118.21875 123.519531 L 124.277344 123.519531 L 124.277344 124.554688 L 118.21875 124.554688 Z M 118.21875 123.519531 " fill-opacity="1" fill-rule="nonzero"/><path fill="#000000" d="M 110.148438 123.519531 L 116.203125 123.519531 L 116.203125 124.554688 L 110.148438 124.554688 Z M 110.148438 123.519531 " fill-opacity="1" fill-rule="nonzero"/><path fill="#000000" d="M 102.074219 123.519531 L 108.128906 123.519531 L 108.128906 124.554688 L 102.074219 124.554688 Z M 102.074219 123.519531 " fill-opacity="1" fill-rule="nonzero"/><path fill="#000000" d="M 94 123.519531 L 100.054688 123.519531 L 100.054688 124.554688 L 94 124.554688 Z M 94 123.519531 " fill-opacity="1" fill-rule="nonzero"/><path fill="#000000" d="M 85.921875 123.519531 L 91.980469 123.519531 L 91.980469 124.554688 L 85.921875 124.554688 Z M 85.921875 123.519531 " fill-opacity="1" fill-rule="nonzero"/><path fill="#000000" d="M 77.847656 123.519531 L 83.90625 123.519531 L 83.90625 124.554688 L 77.847656 124.554688 Z M 77.847656 123.519531 " fill-opacity="1" fill-rule="nonzero"/><path fill="#000000" d="M 69.773438 123.519531 L 75.832031 123.519531 L 75.832031 124.554688 L 69.773438 124.554688 Z M 69.773438 123.519531 " fill-opacity="1" fill-rule="nonzero"/><path fill="#000000" d="M 61.703125 123.519531 L 67.757812 123.519531 L 67.757812 124.554688 L 61.703125 124.554688 Z M 61.703125 123.519531 " fill-opacity="1" fill-rule="nonzero"/><g clip-path="url(#9877223e30)"><path fill="#ffffff" d="M 125.554688 126.3125 L 60.457031 126.3125 C 59.988281 126.3125 59.609375 125.933594 59.609375 125.46875 C 59.609375 125 59.988281 124.621094 60.457031 124.621094 L 125.554688 124.621094 C 126.019531 124.621094 126.398438 125 126.398438 125.46875 C 126.398438 125.933594 126.019531 126.3125 125.554688 126.3125 Z M 125.554688 126.3125 " fill-opacity="1" fill-rule="nonzero"/><path fill="#000000" d="M 125.554688 126.464844 L 60.457031 126.464844 C 59.90625 126.464844 59.457031 126.015625 59.457031 125.46875 C 59.457031 124.917969 59.90625 124.46875 60.457031 124.46875 L 125.554688 124.46875 C 126.101562 124.46875 126.550781 124.917969 126.550781 125.46875 C 126.550781 126.015625 126.101562 126.464844 125.554688 126.464844 Z M 60.457031 124.773438 C 60.074219 124.773438 59.761719 125.085938 59.761719 125.46875 C 59.761719 125.847656 60.074219 126.160156 60.457031 126.160156 L 125.554688 126.160156 C 125.9375 126.160156 126.246094 125.847656 126.246094 125.46875 C 126.246094 125.085938 125.9375 124.773438 125.554688 124.773438 Z M 60.457031 124.773438 " fill-opacity="1" fill-rule="nonzero"/></g><g clip-path="url(#1d8d0cb29c)"><path fill="#000000" d="M 94.789062 121.890625 L 126.421875 121.890625 L 126.421875 126.3125 L 94.789062 126.3125 Z M 94.789062 121.890625 " fill-opacity="1" fill-rule="nonzero"/><path fill="#000000" d="M 126.421875 126.464844 L 94.789062 126.464844 C 94.707031 126.464844 94.636719 126.398438 94.636719 126.3125 L 94.636719 121.890625 C 94.636719 121.808594 94.707031 121.742188 94.789062 121.742188 L 126.421875 121.742188 C 126.507812 121.742188 126.574219 121.808594 126.574219 121.890625 L 126.574219 126.3125 C 126.574219 126.398438 126.507812 126.464844 126.421875 126.464844 Z M 94.941406 126.160156 L 126.269531 126.160156 L 126.269531 122.046875 L 94.941406 122.046875 Z M 94.941406 126.160156 " fill-opacity="1" fill-rule="nonzero"/></g><path fill="#000000" d="M 74.875 68.308594 C 74.957031 67.195312 76 66.140625 77.144531 66.140625 L 151.222656 66.207031 L 147.660156 115.082031 L 72.566406 115.242188 C 71.910156 115.242188 71.453125 114.761719 71.5 114.121094 Z M 74.875 68.308594 " fill-opacity="1" fill-rule="nonzero"/><path fill="#000000" d="M 72.5625 115.394531 C 72.199219 115.394531 71.875 115.257812 71.648438 115.015625 C 71.429688 114.78125 71.320312 114.460938 71.347656 114.113281 L 74.722656 68.296875 C 74.8125 67.070312 75.941406 65.992188 77.144531 65.992188 L 151.222656 66.054688 C 151.265625 66.054688 151.304688 66.074219 151.335938 66.105469 C 151.363281 66.136719 151.378906 66.175781 151.375 66.21875 L 147.8125 115.089844 C 147.808594 115.171875 147.742188 115.230469 147.660156 115.230469 Z M 74.875 68.308594 L 75.027344 68.320312 L 71.652344 114.132812 C 71.632812 114.394531 71.710938 114.636719 71.871094 114.808594 C 72.039062 114.988281 72.285156 115.089844 72.566406 115.089844 L 147.519531 114.929688 L 151.0625 66.359375 L 77.144531 66.296875 C 76.113281 66.296875 75.105469 67.261719 75.027344 68.320312 Z M 74.875 68.308594 " fill-opacity="1" fill-rule="nonzero"/><path fill="#ffffff" d="M 149.210938 115.023438 L 75.648438 115.023438 C 74.992188 115.023438 74.535156 114.542969 74.582031 113.898438 L 77.910156 68.5 C 78.003906 67.238281 79.226562 66.121094 80.519531 66.121094 L 153.132812 66.121094 C 153.789062 66.121094 154.246094 66.601562 154.199219 67.242188 L 150.800781 113.570312 C 150.746094 114.339844 150 115.023438 149.210938 115.023438 Z M 149.210938 115.023438 " fill-opacity="1" fill-rule="nonzero"/><path fill="#000000" d="M 149.210938 115.175781 L 75.648438 115.175781 C 75.28125 115.175781 74.957031 115.039062 74.730469 114.796875 C 74.511719 114.5625 74.40625 114.238281 74.429688 113.890625 L 77.757812 68.488281 C 77.859375 67.148438 79.148438 65.96875 80.515625 65.96875 L 153.132812 65.96875 C 153.496094 65.96875 153.820312 66.101562 154.046875 66.347656 C 154.265625 66.582031 154.375 66.90625 154.347656 67.253906 L 150.953125 113.582031 C 150.890625 114.429688 150.078125 115.175781 149.210938 115.175781 Z M 80.515625 66.273438 C 79.296875 66.273438 78.148438 67.320312 78.0625 68.511719 L 74.734375 113.910156 C 74.714844 114.175781 74.792969 114.417969 74.957031 114.589844 C 75.121094 114.769531 75.367188 114.871094 75.648438 114.871094 L 149.210938 114.871094 C 149.914062 114.871094 150.597656 114.246094 150.648438 113.558594 L 154.046875 67.230469 C 154.066406 66.96875 153.988281 66.726562 153.824219 66.550781 C 153.65625 66.371094 153.410156 66.273438 153.132812 66.273438 Z M 80.515625 66.273438 " fill-opacity="1" fill-rule="nonzero"/><g clip-path="url(#5b6ec7f53f)"><path fill="#000000" d="M 104.882812 126.210938 L 116.140625 126.210938 L 118.355469 101.703125 C 118.652344 98.421875 116.070312 95.59375 112.773438 95.59375 C 109.875 95.59375 107.453125 97.804688 107.191406 100.695312 Z M 104.882812 126.210938 " fill-opacity="1" fill-rule="nonzero"/></g><g clip-path="url(#f645671cd9)"><path fill="#ffffff" d="M 106.140625 126.210938 L 117.398438 126.210938 L 119.617188 101.703125 C 119.914062 98.421875 117.328125 95.59375 114.035156 95.59375 C 111.132812 95.59375 108.710938 97.804688 108.449219 100.695312 Z M 106.140625 126.210938 " fill-opacity="1" fill-rule="nonzero"/></g><g clip-path="url(#5105064622)"><path fill="#000000" d="M 117.398438 126.363281 L 106.140625 126.363281 C 106.097656 126.363281 106.058594 126.34375 106.027344 126.3125 C 106 126.28125 105.984375 126.238281 105.988281 126.195312 L 108.296875 100.679688 C 108.566406 97.695312 111.03125 95.441406 114.03125 95.441406 C 115.644531 95.441406 117.195312 96.125 118.285156 97.316406 C 119.371094 98.507812 119.914062 100.113281 119.769531 101.71875 L 117.550781 126.226562 C 117.542969 126.300781 117.476562 126.363281 117.398438 126.363281 Z M 106.308594 126.058594 L 117.261719 126.058594 L 119.464844 101.691406 C 119.601562 100.167969 119.089844 98.648438 118.058594 97.519531 C 117.03125 96.394531 115.5625 95.746094 114.035156 95.746094 C 111.191406 95.746094 108.859375 97.878906 108.601562 100.707031 Z M 106.308594 126.058594 " fill-opacity="1" fill-rule="nonzero"/></g><g clip-path="url(#fae7045488)"><path fill="#ffffff" d="M 95.796875 121.890625 L 127.429688 121.890625 L 127.429688 126.3125 L 95.796875 126.3125 Z M 95.796875 121.890625 " fill-opacity="1" fill-rule="nonzero"/><path fill="#000000" d="M 127.429688 126.464844 L 95.796875 126.464844 C 95.714844 126.464844 95.644531 126.398438 95.644531 126.3125 L 95.644531 121.890625 C 95.644531 121.808594 95.714844 121.742188 95.796875 121.742188 L 127.429688 121.742188 C 127.515625 121.742188 127.582031 121.808594 127.582031 121.890625 L 127.582031 126.3125 C 127.582031 126.398438 127.515625 126.464844 127.429688 126.464844 Z M 95.949219 126.160156 L 127.277344 126.160156 L 127.277344 122.046875 L 95.949219 122.046875 Z M 95.949219 126.160156 " fill-opacity="1" fill-rule="nonzero"/></g></svg>