<svg xmlns="http://www.w3.org/2000/svg" xmlns:xlink="http://www.w3.org/1999/xlink" width="425" zoomAndPan="magnify" viewBox="0 0 318.75 256.499992" height="342" preserveAspectRatio="xMidYMid meet" version="1.0"><defs><clipPath id="09f046c253"><path d="M 27 17 L 250 17 L 250 255.253906 L 27 255.253906 Z M 27 17 " clip-rule="nonzero"/></clipPath><clipPath id="5695ecce42"><path d="M 26 16 L 251 16 L 251 255.253906 L 26 255.253906 Z M 26 16 " clip-rule="nonzero"/></clipPath><clipPath id="f8af8d7e5c"><path d="M 19 230 L 51 230 L 51 255.253906 L 19 255.253906 Z M 19 230 " clip-rule="nonzero"/></clipPath><clipPath id="dfe7fb85c1"><path d="M 19 229 L 52 229 L 52 255.253906 L 19 255.253906 Z M 19 229 " clip-rule="nonzero"/></clipPath><clipPath id="65e1a4e0e8"><path d="M 131 114 L 309 114 L 309 255.253906 L 131 255.253906 Z M 131 114 " clip-rule="nonzero"/></clipPath><clipPath id="1221792c63"><path d="M 0.183594 0 L 69 0 L 69 69 L 0.183594 69 Z M 0.183594 0 " clip-rule="nonzero"/></clipPath><clipPath id="ba4cdea2b4"><path d="M 10 254 L 289 254 L 289 255.253906 L 10 255.253906 Z M 10 254 " clip-rule="nonzero"/></clipPath><clipPath id="16729f2de8"><path d="M 220.628906 155.238281 L 224.882812 155.238281 L 224.882812 158.914062 L 220.628906 158.914062 Z M 220.628906 155.238281 " clip-rule="nonzero"/></clipPath><clipPath id="6b1db3af2a"><path d="M 224.871094 156.519531 C 223 159.589844 221.203125 158.992188 220.828125 158.390625 C 220.453125 157.71875 220.753906 155.921875 221.351562 155.472656 C 221.949219 154.949219 224.347656 155.621094 224.347656 155.621094 " clip-rule="nonzero"/></clipPath><clipPath id="68071a5831"><path d="M 0.628906 0.238281 L 4.882812 0.238281 L 4.882812 3.914062 L 0.628906 3.914062 Z M 0.628906 0.238281 " clip-rule="nonzero"/></clipPath><clipPath id="110a3d26c1"><path d="M 4.871094 1.519531 C 3 4.589844 1.203125 3.992188 0.828125 3.390625 C 0.453125 2.71875 0.753906 0.921875 1.351562 0.472656 C 1.949219 -0.0507812 4.347656 0.621094 4.347656 0.621094 " clip-rule="nonzero"/></clipPath><clipPath id="004c115e54"><rect x="0" width="5" y="0" height="4"/></clipPath></defs><g clip-path="url(#09f046c253)"><path fill="#ffffff" d="M 249.574219 24.644531 L 249.574219 255.085938 L 27.414062 255.085938 L 27.414062 24.644531 C 27.414062 20.703125 30.625 17.492188 34.566406 17.492188 L 242.433594 17.492188 C 246.375 17.492188 249.585938 20.703125 249.585938 24.644531 Z M 249.574219 24.644531 " fill-opacity="1" fill-rule="nonzero"/></g><g clip-path="url(#5695ecce42)"><path fill="#223945" d="M 249.574219 255.589844 L 27.414062 255.589844 C 27.136719 255.589844 26.910156 255.367188 26.910156 255.085938 L 26.910156 24.644531 C 26.910156 20.425781 30.347656 16.988281 34.566406 16.988281 L 242.433594 16.988281 C 246.652344 16.988281 250.089844 20.425781 250.089844 24.644531 L 250.089844 255.085938 C 250.089844 255.367188 249.863281 255.589844 249.585938 255.589844 Z M 27.917969 254.582031 L 249.070312 254.582031 L 249.070312 24.644531 C 249.070312 20.980469 246.085938 17.996094 242.421875 17.996094 L 34.566406 17.996094 C 30.902344 17.996094 27.917969 20.980469 27.917969 24.644531 Z M 27.917969 254.582031 " fill-opacity="1" fill-rule="nonzero"/></g><path fill="#ffa240" d="M 249.574219 24.644531 L 249.574219 39.839844 L 27.414062 39.839844 L 27.414062 24.644531 C 27.414062 20.703125 30.625 17.492188 34.566406 17.492188 L 242.433594 17.492188 C 246.375 17.492188 249.585938 20.703125 249.585938 24.644531 Z M 249.574219 24.644531 " fill-opacity="1" fill-rule="nonzero"/><path fill="#ffa240" d="M 249.574219 40.34375 L 27.414062 40.34375 C 27.136719 40.34375 26.910156 40.117188 26.910156 39.839844 L 26.910156 24.644531 C 26.910156 20.425781 30.347656 16.988281 34.566406 16.988281 L 242.433594 16.988281 C 246.652344 16.988281 250.089844 20.425781 250.089844 24.644531 L 250.089844 39.839844 C 250.089844 40.117188 249.863281 40.34375 249.585938 40.34375 Z M 27.917969 39.335938 L 249.070312 39.335938 L 249.070312 24.644531 C 249.070312 20.980469 246.085938 17.996094 242.421875 17.996094 L 34.566406 17.996094 C 30.902344 17.996094 27.917969 20.980469 27.917969 24.644531 Z M 27.917969 39.335938 " fill-opacity="1" fill-rule="nonzero"/><path fill="#ffa240" d="M 40.058594 221.089844 C 40.058594 221.089844 45.65625 204.773438 61.039062 203.957031 C 61.039062 203.957031 57.316406 214.21875 47.292969 221.203125 L 40.070312 221.089844 Z M 40.058594 221.089844 " fill-opacity="1" fill-rule="nonzero"/><path fill="#ffa240" d="M 29.6875 220.96875 C 29.6875 220.96875 22 200.808594 6.03125 201.859375 C 6.03125 201.859375 11.15625 217.828125 24.089844 221.316406 Z M 29.6875 220.96875 " fill-opacity="1" fill-rule="nonzero"/><path fill="#ffa240" d="M 48.683594 209.433594 C 48.683594 209.433594 59.867188 190.550781 62.902344 172.730469 C 62.902344 172.730469 46.234375 180.652344 38.660156 203.84375 C 31.085938 227.039062 37.847656 224.238281 37.847656 224.238281 L 41.921875 224.589844 L 48.683594 209.441406 Z M 48.683594 209.433594 " fill-opacity="1" fill-rule="nonzero"/><path fill="#ffa240" d="M 27.351562 187.414062 C 27.351562 187.414062 24.441406 180.539062 18.03125 177.390625 C 18.03125 177.390625 16.980469 196.847656 23.390625 213.867188 L 27.816406 223.890625 L 32.125 223.777344 L 33.988281 223.664062 L 29.441406 193.945312 L 27.34375 187.421875 Z M 27.351562 187.414062 " fill-opacity="1" fill-rule="nonzero"/><path fill="#223945" d="M 47.28125 221.523438 L 40.058594 221.410156 C 39.957031 221.410156 39.863281 221.359375 39.800781 221.277344 C 39.742188 221.195312 39.730469 221.082031 39.761719 220.988281 C 39.792969 220.90625 42.683594 212.652344 49.785156 207.582031 C 49.925781 207.476562 50.121094 207.507812 50.226562 207.652344 C 50.328125 207.796875 50.296875 207.992188 50.152344 208.09375 C 44.132812 212.394531 41.203125 219.054688 40.523438 220.773438 L 47.292969 220.886719 C 47.46875 220.886719 47.613281 221.027344 47.601562 221.214844 C 47.601562 221.390625 47.457031 221.523438 47.28125 221.523438 Z M 47.28125 221.523438 " fill-opacity="1" fill-rule="nonzero"/><path fill="#223945" d="M 24.089844 221.636719 C 23.925781 221.636719 23.78125 221.503906 23.769531 221.335938 C 23.761719 221.164062 23.894531 221.007812 24.070312 221 L 29.214844 220.679688 C 28.546875 219.09375 25.871094 213.21875 21.1875 208.527344 C 21.066406 208.402344 21.066406 208.199219 21.1875 208.074219 C 21.3125 207.949219 21.519531 207.949219 21.640625 208.074219 C 27.175781 213.609375 29.957031 220.78125 29.976562 220.855469 C 30.007812 220.945312 29.996094 221.058594 29.945312 221.140625 C 29.894531 221.226562 29.800781 221.285156 29.699219 221.285156 L 24.101562 221.636719 L 24.078125 221.636719 Z M 24.089844 221.636719 " fill-opacity="1" fill-rule="nonzero"/><path fill="#223945" d="M 39.207031 221.871094 C 39.207031 221.871094 39.152344 221.871094 39.132812 221.871094 C 38.957031 221.832031 38.855469 221.65625 38.898438 221.480469 C 44.75 197.464844 61.152344 174.519531 61.316406 174.292969 C 61.421875 174.148438 61.617188 174.121094 61.761719 174.222656 C 61.90625 174.324219 61.933594 174.519531 61.832031 174.664062 C 61.667969 174.890625 45.328125 197.734375 39.515625 221.636719 C 39.472656 221.78125 39.351562 221.882812 39.207031 221.882812 Z M 39.207031 221.871094 " fill-opacity="1" fill-rule="nonzero"/><path fill="#223945" d="M 41.984375 221.65625 C 41.871094 221.65625 41.757812 221.59375 41.695312 221.480469 C 41.613281 221.328125 41.675781 221.132812 41.828125 221.050781 C 48.230469 217.796875 59.332031 204.9375 59.445312 204.8125 C 59.558594 204.679688 59.765625 204.667969 59.898438 204.78125 C 60.03125 204.894531 60.042969 205.101562 59.929688 205.234375 C 59.464844 205.769531 48.628906 218.3125 42.117188 221.625 C 42.066406 221.648438 42.023438 221.65625 41.972656 221.65625 Z M 41.984375 221.65625 " fill-opacity="1" fill-rule="nonzero"/><path fill="#223945" d="M 28.175781 222.769531 C 28.0625 222.769531 27.949219 222.707031 27.886719 222.59375 C 20.457031 207.972656 7.566406 202.980469 7.429688 202.941406 C 7.265625 202.878906 7.183594 202.691406 7.246094 202.527344 C 7.308594 202.363281 7.492188 202.28125 7.65625 202.34375 C 7.792969 202.394531 20.910156 207.457031 28.453125 222.304688 C 28.535156 222.460938 28.472656 222.65625 28.308594 222.738281 C 28.257812 222.757812 28.214844 222.769531 28.164062 222.769531 Z M 28.175781 222.769531 " fill-opacity="1" fill-rule="nonzero"/><path fill="#ffa240" d="M 32.25 221.554688 C 32.25 221.554688 17.566406 200.574219 33.648438 165.382812 C 33.648438 165.382812 44.371094 182.628906 38.546875 221.082031 L 32.25 221.542969 Z M 32.25 221.554688 " fill-opacity="1" fill-rule="nonzero"/><path fill="#223945" d="M 32.25 221.871094 C 32.148438 221.871094 32.042969 221.820312 31.992188 221.738281 C 31.898438 221.605469 22.917969 208.445312 26.785156 185.984375 C 26.816406 185.808594 26.972656 185.683594 27.15625 185.726562 C 27.332031 185.757812 27.445312 185.921875 27.414062 186.097656 C 23.8125 207.015625 31.449219 219.722656 32.425781 221.226562 L 38.28125 220.792969 C 39.523438 212.519531 40.082031 204.585938 39.957031 197.207031 C 39.957031 197.035156 40.089844 196.890625 40.277344 196.878906 C 40.480469 196.847656 40.59375 197.011719 40.605469 197.199219 C 40.738281 204.6875 40.164062 212.734375 38.886719 221.140625 C 38.867188 221.285156 38.742188 221.398438 38.597656 221.410156 L 32.300781 221.871094 C 32.300781 221.871094 32.292969 221.871094 32.28125 221.871094 Z M 38.546875 221.089844 Z M 38.546875 221.089844 " fill-opacity="1" fill-rule="nonzero"/><path fill="#223945" d="M 35.160156 223.734375 C 35.027344 223.734375 34.894531 223.644531 34.851562 223.507812 C 29.769531 206.707031 33.246094 168.152344 33.289062 167.761719 C 33.300781 167.585938 33.464844 167.453125 33.640625 167.472656 C 33.8125 167.492188 33.949219 167.648438 33.925781 167.820312 C 33.886719 168.214844 30.417969 206.644531 35.46875 223.324219 C 35.523438 223.488281 35.429688 223.671875 35.253906 223.726562 C 35.222656 223.726562 35.191406 223.734375 35.160156 223.734375 Z M 35.160156 223.734375 " fill-opacity="1" fill-rule="nonzero"/><path fill="#ffffff" d="M 53.589844 222.324219 L 52.675781 228.796875 C 52.53125 229.496094 51.902344 230.0625 51.121094 230.0625 L 19.222656 230.0625 C 18.453125 230.0625 17.8125 229.496094 17.667969 228.796875 L 16.824219 222.324219 C 16.683594 221.410156 17.390625 220.636719 18.308594 220.636719 L 52.097656 220.636719 C 53.015625 220.636719 53.714844 221.410156 53.582031 222.324219 Z M 53.589844 222.324219 " fill-opacity="1" fill-rule="nonzero"/><path fill="#223945" d="M 51.132812 230.578125 L 19.234375 230.578125 C 18.246094 230.578125 17.382812 229.878906 17.1875 228.910156 L 16.332031 222.398438 C 16.25 221.832031 16.402344 221.253906 16.785156 220.824219 C 17.164062 220.382812 17.722656 220.132812 18.316406 220.132812 L 52.109375 220.132812 C 52.707031 220.132812 53.261719 220.390625 53.640625 220.824219 C 54.011719 221.253906 54.175781 221.832031 54.09375 222.398438 L 53.179688 228.871094 C 52.984375 229.867188 52.117188 230.566406 51.132812 230.566406 Z M 18.316406 221.140625 C 18.019531 221.140625 17.742188 221.265625 17.554688 221.480469 C 17.371094 221.699219 17.300781 221.964844 17.339844 222.253906 L 18.195312 228.746094 C 18.285156 229.210938 18.730469 229.570312 19.242188 229.570312 L 51.140625 229.570312 C 51.644531 229.570312 52.097656 229.199219 52.191406 228.714844 L 53.097656 222.265625 C 53.136719 221.976562 53.066406 221.707031 52.878906 221.492188 C 52.695312 221.277344 52.417969 221.152344 52.117188 221.152344 L 18.316406 221.152344 Z M 18.316406 221.140625 " fill-opacity="1" fill-rule="nonzero"/><g clip-path="url(#f8af8d7e5c)"><path fill="#ffffff" d="M 50.710938 230.074219 L 49.722656 251.753906 C 49.648438 253.65625 48.105469 255.066406 46.273438 255.066406 L 24.59375 255.066406 C 22.761719 255.066406 21.21875 253.65625 21.074219 251.824219 L 19.738281 230.074219 L 50.71875 230.074219 Z M 50.710938 230.074219 " fill-opacity="1" fill-rule="nonzero"/></g><g clip-path="url(#dfe7fb85c1)"><path fill="#223945" d="M 46.273438 255.570312 L 24.585938 255.570312 C 22.484375 255.570312 20.714844 253.945312 20.5625 251.867188 L 19.222656 230.105469 C 19.222656 229.960938 19.265625 229.828125 19.355469 229.722656 C 19.449219 229.621094 19.582031 229.570312 19.726562 229.570312 L 50.710938 229.570312 C 50.84375 229.570312 50.976562 229.621094 51.078125 229.722656 C 51.171875 229.828125 51.222656 229.960938 51.222656 230.09375 L 50.234375 251.785156 C 50.152344 253.914062 48.414062 255.582031 46.285156 255.582031 Z M 20.273438 230.578125 L 21.578125 251.792969 C 21.691406 253.347656 23.019531 254.5625 24.59375 254.5625 L 46.285156 254.5625 C 47.878906 254.5625 49.164062 253.316406 49.226562 251.742188 L 50.183594 230.578125 Z M 20.273438 230.578125 " fill-opacity="1" fill-rule="nonzero"/></g><path fill="#000000" d="M 63.53125 73.097656 L 90.34375 73.097656 L 90.34375 77.996094 L 63.53125 77.996094 Z M 63.53125 73.097656 " fill-opacity="1" fill-rule="nonzero"/><path fill="#000000" d="M 70.21875 84.859375 L 112.972656 84.859375 L 112.972656 89.753906 L 70.21875 89.753906 Z M 70.21875 84.859375 " fill-opacity="1" fill-rule="nonzero"/><path fill="#000000" d="M 117.558594 84.859375 L 142.253906 84.859375 L 142.253906 89.753906 L 117.558594 89.753906 Z M 117.558594 84.859375 " fill-opacity="1" fill-rule="nonzero"/><path fill="#000000" d="M 146.804688 84.859375 L 190.894531 84.859375 L 190.894531 89.753906 L 146.804688 89.753906 Z M 146.804688 84.859375 " fill-opacity="1" fill-rule="nonzero"/><path fill="#000000" d="M 95.539062 73.097656 L 109.515625 73.097656 L 109.515625 77.996094 L 95.539062 77.996094 Z M 95.539062 73.097656 " fill-opacity="1" fill-rule="nonzero"/><path fill="#000000" d="M 70.21875 96.761719 L 119.207031 96.761719 L 119.207031 101.660156 L 70.21875 101.660156 Z M 70.21875 96.761719 " fill-opacity="1" fill-rule="nonzero"/><path fill="#000000" d="M 124 96.761719 L 172.414062 96.761719 L 172.414062 101.660156 L 124 101.660156 Z M 124 96.761719 " fill-opacity="1" fill-rule="nonzero"/><path fill="#000000" d="M 176.960938 96.761719 L 218.046875 96.761719 L 218.046875 101.660156 L 176.960938 101.660156 Z M 176.960938 96.761719 " fill-opacity="1" fill-rule="nonzero"/><path fill="#000000" d="M 70.21875 108.800781 L 98.585938 108.800781 L 98.585938 113.699219 L 70.21875 113.699219 Z M 70.21875 108.800781 " fill-opacity="1" fill-rule="nonzero"/><path fill="#000000" d="M 103.382812 108.800781 L 149.40625 108.800781 L 149.40625 113.699219 L 103.382812 113.699219 Z M 103.382812 108.800781 " fill-opacity="1" fill-rule="nonzero"/><path fill="#000000" d="M 63.53125 125.820312 L 90.34375 125.820312 L 90.34375 130.71875 L 63.53125 130.71875 Z M 63.53125 125.820312 " fill-opacity="1" fill-rule="nonzero"/><path fill="#000000" d="M 70.21875 137.589844 L 112.972656 137.589844 L 112.972656 142.488281 L 70.21875 142.488281 Z M 70.21875 137.589844 " fill-opacity="1" fill-rule="nonzero"/><path fill="#000000" d="M 117.558594 137.589844 L 142.253906 137.589844 L 142.253906 142.488281 L 117.558594 142.488281 Z M 117.558594 137.589844 " fill-opacity="1" fill-rule="nonzero"/><path fill="#000000" d="M 95.539062 125.820312 L 109.515625 125.820312 L 109.515625 130.71875 L 95.539062 130.71875 Z M 95.539062 125.820312 " fill-opacity="1" fill-rule="nonzero"/><path fill="#000000" d="M 70.21875 149.496094 L 119.207031 149.496094 L 119.207031 154.394531 L 70.21875 154.394531 Z M 70.21875 149.496094 " fill-opacity="1" fill-rule="nonzero"/><path fill="#000000" d="M 176.960938 149.496094 L 218.046875 149.496094 L 218.046875 154.394531 L 176.960938 154.394531 Z M 176.960938 149.496094 " fill-opacity="1" fill-rule="nonzero"/><path fill="#000000" d="M 70.21875 161.535156 L 98.585938 161.535156 L 98.585938 166.433594 L 70.21875 166.433594 Z M 70.21875 161.535156 " fill-opacity="1" fill-rule="nonzero"/><path fill="#000000" d="M 103.382812 161.535156 L 123.941406 161.535156 L 123.941406 166.433594 L 103.382812 166.433594 Z M 103.382812 161.535156 " fill-opacity="1" fill-rule="nonzero"/><path fill="#000000" d="M 70.9375 56.015625 L 66.65625 60.59375 C 66.347656 60.925781 66.359375 61.417969 66.65625 61.738281 L 70.804688 66.007812 C 71.125 66.335938 71.636719 66.335938 71.96875 66.027344 C 72.152344 65.863281 72.226562 65.636719 72.226562 65.421875 C 72.226562 65.214844 72.140625 65 71.988281 64.84375 C 71.988281 64.84375 69.21875 61.984375 68.398438 61.121094 C 69.21875 60.246094 72.152344 57.128906 72.152344 57.128906 C 72.296875 56.960938 72.378906 56.757812 72.378906 56.5625 C 72.378906 56.335938 72.265625 56.117188 72.101562 55.945312 C 71.773438 55.636719 71.257812 55.65625 70.929688 55.984375 Z M 70.9375 56.015625 " fill-opacity="1" fill-rule="nonzero"/><path fill="#000000" d="M 91.207031 55.964844 C 91.035156 56.140625 90.941406 56.355469 90.941406 56.582031 C 90.941406 56.777344 91.011719 56.984375 91.15625 57.148438 C 91.15625 57.148438 94.089844 60.265625 94.914062 61.140625 C 94.089844 61.996094 91.320312 64.863281 91.320312 64.863281 C 91.179688 65.019531 91.105469 65.234375 91.105469 65.441406 C 91.105469 65.65625 91.179688 65.875 91.34375 66.046875 C 91.671875 66.347656 92.195312 66.347656 92.503906 66.027344 L 96.652344 61.746094 C 96.949219 61.417969 96.949219 60.925781 96.652344 60.605469 L 92.371094 56.027344 C 92.0625 55.6875 91.527344 55.675781 91.199219 55.984375 Z M 91.207031 55.964844 " fill-opacity="1" fill-rule="nonzero"/><path fill="#000000" d="M 84.542969 56.4375 L 76.578125 64.566406 C 76.257812 64.886719 76.257812 65.410156 76.597656 65.730469 C 76.917969 66.046875 77.441406 66.039062 77.761719 65.707031 L 85.722656 57.589844 C 86.042969 57.261719 86.042969 56.738281 85.714844 56.425781 C 85.394531 56.097656 84.871094 56.097656 84.542969 56.425781 Z M 84.542969 56.4375 " fill-opacity="1" fill-rule="nonzero"/><path fill="#000000" d="M 54.515625 53.988281 L 56.625 53.988281 L 56.625 169.765625 L 54.515625 169.765625 Z M 54.515625 53.988281 " fill-opacity="1" fill-rule="nonzero"/><path fill="#000000" d="M 41.984375 58.03125 L 47.890625 58.03125 L 47.890625 63.9375 L 41.984375 63.9375 Z M 41.984375 58.03125 " fill-opacity="1" fill-rule="nonzero"/><path fill="#000000" d="M 41.984375 72.488281 L 47.890625 72.488281 L 47.890625 78.394531 L 41.984375 78.394531 Z M 41.984375 72.488281 " fill-opacity="1" fill-rule="nonzero"/><path fill="#000000" d="M 41.984375 86.945312 L 47.890625 86.945312 L 47.890625 92.851562 L 41.984375 92.851562 Z M 41.984375 86.945312 " fill-opacity="1" fill-rule="nonzero"/><path fill="#000000" d="M 41.984375 101.402344 L 47.890625 101.402344 L 47.890625 107.308594 L 41.984375 107.308594 Z M 41.984375 101.402344 " fill-opacity="1" fill-rule="nonzero"/><path fill="#ffa240" d="M 123.476562 101.207031 C 123.476562 101.921875 123.441406 102.636719 123.371094 103.347656 C 123.300781 104.058594 123.195312 104.765625 123.058594 105.464844 C 122.917969 106.167969 122.746094 106.859375 122.535156 107.542969 C 122.328125 108.226562 122.089844 108.898438 121.816406 109.558594 C 121.542969 110.21875 121.238281 110.863281 120.898438 111.496094 C 120.5625 112.125 120.195312 112.738281 119.796875 113.332031 C 119.402344 113.925781 118.976562 114.5 118.523438 115.054688 C 118.070312 115.605469 117.589844 116.132812 117.085938 116.640625 C 116.578125 117.144531 116.050781 117.625 115.496094 118.078125 C 114.945312 118.53125 114.371094 118.957031 113.777344 119.355469 C 113.183594 119.75 112.570312 120.117188 111.941406 120.453125 C 111.308594 120.792969 110.664062 121.097656 110.003906 121.371094 C 109.34375 121.644531 108.671875 121.882812 107.988281 122.09375 C 107.304688 122.300781 106.613281 122.472656 105.910156 122.613281 C 105.210938 122.75 104.503906 122.855469 103.792969 122.925781 C 103.082031 122.996094 102.367188 123.03125 101.652344 123.03125 C 100.9375 123.03125 100.226562 122.996094 99.511719 122.925781 C 98.800781 122.855469 98.097656 122.75 97.394531 122.613281 C 96.695312 122.472656 96 122.300781 95.316406 122.09375 C 94.632812 121.882812 93.960938 121.644531 93.300781 121.371094 C 92.640625 121.097656 91.996094 120.792969 91.363281 120.453125 C 90.734375 120.117188 90.121094 119.75 89.527344 119.355469 C 88.933594 118.957031 88.359375 118.53125 87.808594 118.078125 C 87.253906 117.625 86.726562 117.144531 86.222656 116.640625 C 85.714844 116.132812 85.234375 115.605469 84.78125 115.054688 C 84.328125 114.5 83.902344 113.925781 83.507812 113.332031 C 83.109375 112.738281 82.742188 112.125 82.40625 111.496094 C 82.070312 110.863281 81.761719 110.21875 81.488281 109.558594 C 81.214844 108.898438 80.976562 108.226562 80.769531 107.542969 C 80.5625 106.859375 80.386719 106.167969 80.246094 105.464844 C 80.109375 104.765625 80.003906 104.058594 79.933594 103.347656 C 79.863281 102.636719 79.828125 101.921875 79.828125 101.207031 C 79.828125 100.492188 79.863281 99.78125 79.933594 99.070312 C 80.003906 98.355469 80.109375 97.652344 80.246094 96.949219 C 80.386719 96.25 80.5625 95.554688 80.769531 94.871094 C 80.976562 94.1875 81.214844 93.515625 81.488281 92.855469 C 81.761719 92.195312 82.070312 91.550781 82.40625 90.917969 C 82.742188 90.289062 83.109375 89.675781 83.507812 89.082031 C 83.902344 88.488281 84.328125 87.914062 84.78125 87.363281 C 85.234375 86.808594 85.714844 86.28125 86.222656 85.777344 C 86.726562 85.269531 87.253906 84.789062 87.808594 84.335938 C 88.359375 83.882812 88.933594 83.457031 89.527344 83.0625 C 90.121094 82.664062 90.734375 82.296875 91.363281 81.960938 C 91.996094 81.625 92.640625 81.320312 93.300781 81.042969 C 93.960938 80.769531 94.632812 80.53125 95.316406 80.324219 C 96 80.117188 96.695312 79.941406 97.394531 79.804688 C 98.097656 79.664062 98.800781 79.558594 99.511719 79.488281 C 100.226562 79.417969 100.9375 79.382812 101.652344 79.382812 C 102.367188 79.382812 103.082031 79.417969 103.792969 79.488281 C 104.503906 79.558594 105.210938 79.664062 105.910156 79.804688 C 106.613281 79.941406 107.304688 80.117188 107.988281 80.324219 C 108.671875 80.53125 109.34375 80.769531 110.003906 81.042969 C 110.664062 81.320312 111.308594 81.625 111.941406 81.960938 C 112.570312 82.296875 113.183594 82.664062 113.777344 83.0625 C 114.371094 83.457031 114.945312 83.882812 115.496094 84.335938 C 116.050781 84.789062 116.578125 85.269531 117.085938 85.777344 C 117.589844 86.28125 118.070312 86.808594 118.523438 87.363281 C 118.976562 87.914062 119.402344 88.488281 119.796875 89.082031 C 120.195312 89.675781 120.5625 90.289062 120.898438 90.917969 C 121.238281 91.550781 121.542969 92.195312 121.816406 92.855469 C 122.089844 93.515625 122.328125 94.1875 122.535156 94.871094 C 122.746094 95.554688 122.917969 96.25 123.058594 96.949219 C 123.195312 97.652344 123.300781 98.355469 123.371094 99.070312 C 123.441406 99.78125 123.476562 100.492188 123.476562 101.207031 Z M 123.476562 101.207031 " fill-opacity="1" fill-rule="nonzero"/><path fill="#ffffff" d="M 101.808594 115.128906 C 97.15625 115.128906 93.359375 111.34375 93.359375 106.683594 L 93.359375 99.796875 C 93.359375 95.148438 97.144531 91.351562 101.808594 91.351562 C 106.46875 91.351562 110.253906 95.136719 110.253906 99.796875 L 110.253906 106.683594 C 110.253906 111.332031 106.46875 115.128906 101.808594 115.128906 Z M 101.808594 92.769531 C 97.929688 92.769531 94.769531 95.929688 94.769531 99.808594 L 94.769531 106.691406 C 94.769531 110.570312 97.929688 113.730469 101.808594 113.730469 C 105.6875 113.730469 108.84375 110.570312 108.84375 106.691406 L 108.84375 99.808594 C 108.84375 95.929688 105.6875 92.769531 101.808594 92.769531 Z M 101.808594 92.769531 " fill-opacity="1" fill-rule="nonzero"/><path fill="#ffffff" d="M 109.390625 99.324219 L 94.222656 99.324219 C 93.832031 99.324219 93.523438 99.003906 93.523438 98.625 C 93.523438 98.246094 93.84375 97.925781 94.222656 97.925781 L 109.390625 97.925781 C 109.78125 97.925781 110.089844 98.246094 110.089844 98.625 C 110.089844 99.003906 109.769531 99.324219 109.390625 99.324219 Z M 109.390625 99.324219 " fill-opacity="1" fill-rule="nonzero"/><path fill="#ffffff" d="M 101.808594 103.945312 C 101.417969 103.945312 101.105469 103.625 101.105469 103.246094 L 101.105469 98.625 C 101.105469 98.234375 101.425781 97.925781 101.808594 97.925781 C 102.1875 97.925781 102.507812 98.246094 102.507812 98.625 L 102.507812 103.246094 C 102.507812 103.636719 102.1875 103.945312 101.808594 103.945312 Z M 101.808594 103.945312 " fill-opacity="1" fill-rule="nonzero"/><path fill="#ffffff" d="M 105.355469 93.492188 C 105.183594 93.492188 104.996094 93.417969 104.863281 93.285156 C 104.585938 93.007812 104.585938 92.566406 104.863281 92.285156 L 109.648438 87.503906 C 109.925781 87.222656 110.367188 87.222656 110.644531 87.503906 C 110.921875 87.78125 110.921875 88.222656 110.644531 88.5 L 105.859375 93.285156 C 105.726562 93.417969 105.542969 93.492188 105.367188 93.492188 Z M 105.355469 93.492188 " fill-opacity="1" fill-rule="nonzero"/><path fill="#ffffff" d="M 98.257812 93.492188 C 98.070312 93.492188 97.898438 93.417969 97.761719 93.285156 L 92.980469 88.5 C 92.699219 88.222656 92.699219 87.78125 92.980469 87.503906 C 93.257812 87.222656 93.699219 87.234375 93.976562 87.503906 L 98.761719 92.285156 C 99.039062 92.566406 99.039062 93.007812 98.761719 93.285156 C 98.628906 93.417969 98.441406 93.492188 98.265625 93.492188 Z M 98.257812 93.492188 " fill-opacity="1" fill-rule="nonzero"/><path fill="#ffffff" d="M 113.003906 104.601562 L 109.542969 104.601562 C 109.152344 104.601562 108.84375 104.285156 108.84375 103.902344 C 108.84375 103.523438 109.164062 103.203125 109.542969 103.203125 L 113.003906 103.203125 C 113.394531 103.203125 113.703125 103.523438 113.703125 103.902344 C 113.703125 104.285156 113.382812 104.601562 113.003906 104.601562 Z M 113.003906 104.601562 " fill-opacity="1" fill-rule="nonzero"/><path fill="#ffffff" d="M 93.761719 104.601562 L 90.304688 104.601562 C 89.914062 104.601562 89.605469 104.285156 89.605469 103.902344 C 89.605469 103.523438 89.921875 103.203125 90.304688 103.203125 L 93.761719 103.203125 C 94.152344 103.203125 94.460938 103.523438 94.460938 103.902344 C 94.460938 104.285156 94.140625 104.601562 93.761719 104.601562 Z M 93.761719 104.601562 " fill-opacity="1" fill-rule="nonzero"/><path fill="#ffffff" d="M 109.542969 100.507812 C 109.152344 100.507812 108.84375 100.1875 108.84375 99.808594 C 108.84375 99.425781 109.164062 99.109375 109.542969 99.109375 C 111.066406 99.109375 112.300781 97.875 112.300781 96.351562 L 112.300781 95.269531 C 112.300781 94.878906 112.621094 94.570312 113.003906 94.570312 C 113.382812 94.570312 113.703125 94.890625 113.703125 95.269531 L 113.703125 96.351562 C 113.703125 98.644531 111.839844 100.519531 109.535156 100.519531 Z M 109.542969 100.507812 " fill-opacity="1" fill-rule="nonzero"/><path fill="#ffffff" d="M 94.046875 100.507812 C 91.753906 100.507812 89.882812 98.644531 89.882812 96.339844 L 89.882812 95.261719 C 89.882812 94.871094 90.199219 94.5625 90.582031 94.5625 C 90.960938 94.5625 91.28125 94.878906 91.28125 95.261719 L 91.28125 96.339844 C 91.28125 97.863281 92.515625 99.097656 94.039062 99.097656 C 94.429688 99.097656 94.738281 99.417969 94.738281 99.796875 C 94.738281 100.179688 94.417969 100.496094 94.039062 100.496094 Z M 94.046875 100.507812 " fill-opacity="1" fill-rule="nonzero"/><path fill="#ffffff" d="M 113.003906 113.039062 C 112.609375 113.039062 112.300781 112.722656 112.300781 112.339844 L 112.300781 111.261719 C 112.300781 109.738281 111.066406 108.503906 109.542969 108.503906 C 109.152344 108.503906 108.84375 108.183594 108.84375 107.804688 C 108.84375 107.421875 109.164062 107.105469 109.542969 107.105469 C 111.839844 107.105469 113.710938 108.964844 113.710938 111.269531 L 113.710938 112.351562 C 113.710938 112.742188 113.394531 113.050781 113.011719 113.050781 Z M 113.003906 113.039062 " fill-opacity="1" fill-rule="nonzero"/><path fill="#ffffff" d="M 90.589844 113.039062 C 90.199219 113.039062 89.890625 112.722656 89.890625 112.339844 L 89.890625 111.261719 C 89.890625 108.964844 91.753906 107.09375 94.058594 107.09375 C 94.449219 107.09375 94.757812 107.414062 94.757812 107.792969 C 94.757812 108.171875 94.441406 108.492188 94.058594 108.492188 C 92.535156 108.492188 91.300781 109.726562 91.300781 111.25 L 91.300781 112.332031 C 91.300781 112.722656 90.984375 113.03125 90.601562 113.03125 Z M 90.589844 113.039062 " fill-opacity="1" fill-rule="nonzero"/><path fill="#ffffff" d="M 110.800781 104.582031 C 112.992188 107.339844 123.660156 118.132812 123.660156 118.132812 C 123.660156 118.132812 120.089844 117.824219 118.578125 120.828125 C 117.644531 123.019531 118.457031 124.089844 118.457031 124.089844 C 118.457031 124.089844 116.203125 126.035156 115.945312 127.414062 C 115.636719 128.855469 116.882812 130.109375 116.882812 130.109375 C 116.882812 130.109375 115.246094 131.933594 116.007812 133.9375 C 116.757812 135.820312 120.277344 138.074219 122.085938 139.453125 C 123.652344 140.769531 130.371094 148.304688 132.253906 151.875 C 132.882812 153.3125 134.445312 157.019531 136.523438 161.976562 C 141.101562 158.089844 148.070312 155.207031 150.886719 154.136719 L 143.921875 143.539062 C 143.675781 142.601562 143.234375 140.65625 143.417969 137.457031 C 143.601562 132.878906 143.542969 126.035156 143.292969 124.03125 C 143.109375 122.085938 139.847656 118.320312 137.839844 117.320312 C 135.773438 116.382812 133.078125 115.253906 133.078125 115.253906 C 133.078125 115.253906 118.269531 103.644531 114.699219 100.890625 C 111.058594 98.132812 108.558594 101.824219 110.808594 104.59375 Z M 110.800781 104.582031 " fill-opacity="1" fill-rule="nonzero"/><path fill="#223945" d="M 136.511719 162.480469 C 136.511719 162.480469 136.429688 162.480469 136.402344 162.472656 C 136.246094 162.429688 136.113281 162.328125 136.050781 162.171875 C 133.980469 157.222656 132.417969 153.519531 131.789062 152.078125 C 129.9375 148.558594 123.210938 141.046875 121.769531 139.84375 C 121.46875 139.617188 121.101562 139.351562 120.699219 139.0625 C 118.691406 137.613281 116.210938 135.8125 115.535156 134.125 C 114.886719 132.386719 115.75 130.8125 116.234375 130.121094 C 115.832031 129.597656 115.183594 128.527344 115.449219 127.300781 C 115.675781 126.078125 117.160156 124.574219 117.828125 123.96875 C 117.613281 123.402344 117.40625 122.28125 118.117188 120.625 C 119.207031 118.453125 121.203125 117.835938 122.5 117.671875 C 119.957031 115.089844 112.273438 107.238281 110.410156 104.902344 C 109 103.183594 109.265625 101.25 110.253906 100.21875 C 111.160156 99.285156 112.878906 98.851562 115 100.476562 C 118.433594 103.132812 132.347656 114.027344 133.335938 114.808594 C 133.757812 114.984375 136.164062 115.992188 138.046875 116.859375 C 140.207031 117.9375 143.59375 121.867188 143.796875 123.976562 C 144.054688 126.003906 144.117188 132.828125 143.933594 137.476562 C 143.738281 140.710938 144.210938 142.621094 144.394531 143.332031 L 151.308594 153.859375 C 151.390625 153.992188 151.414062 154.148438 151.371094 154.292969 C 151.320312 154.433594 151.21875 154.558594 151.074219 154.609375 C 148.316406 155.660156 141.421875 158.488281 136.851562 162.359375 C 136.761719 162.441406 136.648438 162.480469 136.523438 162.480469 Z M 123.332031 118.628906 C 122.519531 118.628906 120.144531 118.832031 119.03125 121.054688 C 118.25 122.886719 118.835938 123.761719 118.855469 123.792969 C 119 124.007812 118.96875 124.308594 118.773438 124.484375 C 118.1875 124.988281 116.613281 126.53125 116.4375 127.507812 C 116.179688 128.660156 117.230469 129.75 117.242188 129.761719 C 117.425781 129.945312 117.4375 130.253906 117.261719 130.460938 C 117.242188 130.480469 115.84375 132.085938 116.480469 133.773438 C 117.046875 135.171875 119.496094 136.953125 121.296875 138.261719 C 121.695312 138.546875 122.078125 138.828125 122.394531 139.074219 C 123.929688 140.359375 130.742188 147.933594 132.695312 151.65625 C 133.3125 153.066406 134.773438 156.523438 136.71875 161.164062 C 141.070312 157.667969 147.132812 155.0625 150.105469 153.898438 L 143.488281 143.828125 C 143.488281 143.828125 143.4375 143.722656 143.429688 143.683594 C 143.253906 143.003906 142.699219 140.957031 142.914062 137.449219 C 143.097656 132.929688 143.039062 126.066406 142.789062 124.113281 C 142.617188 122.320312 139.464844 118.71875 137.613281 117.792969 C 135.566406 116.859375 132.882812 115.738281 132.882812 115.738281 C 132.839844 115.714844 132.800781 115.695312 132.769531 115.664062 C 132.625 115.550781 117.929688 104.027344 114.390625 101.300781 C 113.0625 100.292969 111.757812 100.148438 110.996094 100.941406 C 110.316406 101.640625 110.171875 103.019531 111.210938 104.273438 C 113.363281 106.980469 123.929688 117.671875 124.03125 117.785156 C 124.175781 117.9375 124.21875 118.164062 124.136719 118.359375 C 124.042969 118.554688 123.828125 118.648438 123.632812 118.648438 C 123.609375 118.648438 123.507812 118.636719 123.351562 118.636719 Z M 123.332031 118.628906 " fill-opacity="1" fill-rule="nonzero"/><path fill="#ffffff" d="M 246.304688 102.710938 C 246.519531 103.605469 246.621094 117.21875 246.621094 117.21875 C 246.621094 117.21875 222.679688 117.496094 222.84375 116.949219 C 223.007812 116.40625 223.492188 98.789062 223.492188 98.789062 L 246.304688 102.71875 Z M 246.304688 102.710938 " fill-opacity="1" fill-rule="nonzero"/><path fill="#223945" d="M 234.378906 117.804688 C 222.832031 117.804688 222.585938 117.464844 222.429688 117.269531 C 222.339844 117.136719 222.296875 116.949219 222.347656 116.796875 C 222.453125 116.179688 222.78125 105.671875 222.964844 98.769531 C 222.964844 98.625 223.039062 98.480469 223.152344 98.386719 C 223.265625 98.296875 223.398438 98.273438 223.5625 98.285156 L 246.375 102.214844 C 246.570312 102.246094 246.734375 102.402344 246.785156 102.597656 C 247.003906 103.511719 247.09375 114.933594 247.117188 117.21875 C 247.117188 117.496094 246.898438 117.722656 246.613281 117.722656 C 241.539062 117.785156 237.527344 117.804688 234.378906 117.804688 Z M 223.378906 116.582031 C 225.660156 116.847656 238.019531 116.804688 246.097656 116.722656 C 246.054688 111.929688 245.964844 104.820312 245.828125 103.152344 L 223.964844 99.386719 C 223.832031 104.386719 223.542969 114.191406 223.367188 116.582031 Z M 223.378906 116.582031 " fill-opacity="1" fill-rule="nonzero"/><path fill="#223945" d="M 202.984375 41.886719 C 202.984375 41.886719 204.1875 42.835938 205.472656 43.390625 C 205.546875 43.09375 205.648438 42.785156 205.742188 42.476562 C 204.980469 39.914062 203.519531 33.59375 206.316406 29.582031 C 209.855469 24.449219 218.191406 22.265625 225.1875 24.734375 C 225.1875 24.734375 225.054688 17.964844 231.886719 17.480469 C 231.886719 17.480469 229.375 24.570312 236.375 27.679688 C 243.351562 30.777344 271.585938 36.292969 266.53125 52.878906 C 266.53125 52.878906 276.480469 57.582031 274.136719 69.289062 C 272.820312 75.8125 268.15625 82.695312 263.484375 88.210938 C 258.980469 96.339844 252.671875 101.917969 246.929688 104.121094 L 237.617188 104.222656 C 231.230469 104.285156 229.375 96.617188 228.121094 92.636719 C 227.832031 91.710938 228.5625 91.824219 229.683594 91.824219 C 233.152344 91.824219 235.929688 87.367188 236.703125 83.324219 C 237.472656 79.269531 235.960938 76.65625 233.019531 76.089844 C 232.195312 75.9375 231.332031 76.152344 230.5 76.59375 C 230.550781 75.308594 230.4375 74.125 229.910156 73.199219 C 228.140625 70.195312 211.566406 68.035156 210.164062 58.105469 C 210.164062 58.105469 209.941406 60.203125 209.671875 63.496094 L 209.269531 61.851562 C 209.269531 61.851562 204.199219 55.964844 204.898438 47.003906 C 204.054688 45.53125 203.324219 43.84375 202.972656 41.898438 Z M 202.984375 41.886719 " fill-opacity="1" fill-rule="nonzero"/><path fill="#ffffff" d="M 209.671875 63.484375 C 209.941406 60.195312 210.164062 49.882812 210.164062 49.882812 C 211.574219 59.8125 228.152344 61.972656 229.910156 64.976562 C 230.4375 65.90625 230.550781 75.296875 230.5 76.574219 C 231.34375 76.132812 232.207031 75.917969 233.019531 76.070312 C 235.960938 76.625 237.472656 79.25 236.703125 83.304688 C 235.929688 87.359375 233.152344 91.804688 229.683594 91.804688 C 228.984375 91.804688 228.367188 91.546875 227.824219 91.132812 C 229.675781 94.46875 234.242188 100.210938 234.726562 102.742188 C 234.964844 103.996094 230.414062 104.304688 227.359375 104.304688 C 226.898438 104.304688 214.3125 105.476562 210.710938 95.074219 C 208.109375 87.617188 208.972656 71.769531 209.660156 63.476562 Z M 209.671875 63.484375 " fill-opacity="1" fill-rule="nonzero"/><path fill="#223945" d="M 226.136719 104.859375 C 221.988281 104.859375 213.203125 103.8125 210.238281 95.25 C 207.613281 87.738281 208.4375 72.097656 209.15625 63.445312 C 209.425781 60.203125 209.652344 49.976562 209.660156 49.875 C 209.660156 49.605469 209.878906 49.398438 210.136719 49.378906 L 210.164062 49.378906 C 210.421875 49.378906 210.628906 49.566406 210.671875 49.8125 C 211.574219 56.171875 219.097656 59.246094 224.582031 61.488281 C 227.546875 62.703125 229.683594 63.578125 230.355469 64.722656 C 230.898438 65.699219 231.023438 73.230469 231.023438 75.792969 C 231.765625 75.523438 232.453125 75.441406 233.121094 75.578125 C 236.445312 76.203125 238.007812 79.207031 237.21875 83.398438 C 236.394531 87.71875 233.480469 92.308594 229.707031 92.308594 C 229.5 92.308594 229.292969 92.285156 229.097656 92.253906 C 229.664062 93.140625 230.324219 94.117188 231.003906 95.125 C 232.925781 97.976562 234.914062 100.929688 235.25 102.660156 C 235.304688 102.957031 235.222656 103.253906 235.027344 103.503906 C 234.121094 104.59375 230.375 104.820312 227.390625 104.820312 C 227.050781 104.839844 226.640625 104.851562 226.15625 104.851562 Z M 209.671875 63.484375 L 210.175781 63.527344 C 209.464844 72.097656 208.644531 87.585938 211.195312 94.921875 C 214.273438 103.800781 224.222656 103.996094 227.207031 103.820312 L 227.371094 103.820312 C 231.824219 103.820312 234.070312 103.246094 234.234375 102.84375 C 233.945312 101.339844 231.929688 98.347656 230.148438 95.714844 C 229.066406 94.128906 228.058594 92.617188 227.378906 91.402344 C 227.257812 91.195312 227.308594 90.929688 227.492188 90.773438 C 227.667969 90.609375 227.9375 90.597656 228.132812 90.753906 C 228.636719 91.132812 229.140625 91.320312 229.695312 91.320312 C 232.8125 91.320312 235.457031 87.203125 236.207031 83.230469 C 236.898438 79.601562 235.671875 77.121094 232.9375 76.59375 C 232.277344 76.472656 231.546875 76.625 230.746094 77.046875 C 230.582031 77.128906 230.394531 77.128906 230.242188 77.027344 C 230.085938 76.925781 229.992188 76.761719 230.003906 76.574219 C 230.078125 74.90625 229.902344 66.089844 229.480469 65.234375 C 228.984375 64.402344 226.660156 63.445312 224.210938 62.445312 C 219.386719 60.472656 213.066406 57.890625 210.609375 52.96875 C 210.515625 56.292969 210.363281 61.40625 210.1875 63.546875 L 209.683594 63.507812 Z M 209.671875 63.484375 " fill-opacity="1" fill-rule="nonzero"/><g clip-path="url(#65e1a4e0e8)"><path fill="#000000" d="M 249.511719 114.605469 L 218.191406 114.605469 C 211.226562 114.605469 197.707031 116.949219 188.875 131.40625 C 180.039062 145.863281 163.378906 171.96875 163.378906 171.96875 L 149.921875 149.679688 C 149.921875 149.679688 137.46875 155.300781 131.050781 162.730469 C 131.050781 162.730469 146.050781 189.914062 151 197.765625 C 157.832031 208.609375 169.554688 208.527344 178.609375 197.734375 C 187.664062 186.941406 199.289062 170.527344 199.289062 170.527344 L 196.984375 255.066406 L 278.109375 255.066406 L 278.109375 186.796875 C 278.109375 186.796875 288.148438 209.75 302.875 202.527344 C 317.597656 195.296875 301.9375 170.40625 294.703125 158.089844 C 287.472656 145.773438 277.039062 125.296875 272.078125 121.136719 C 268.855469 118.441406 262.972656 114.613281 249.523438 114.613281 Z M 249.511719 114.605469 " fill-opacity="1" fill-rule="nonzero"/></g><path fill="#223945" d="M 278.097656 187.300781 C 277.820312 187.300781 277.59375 187.074219 277.59375 186.796875 L 277.59375 147.769531 C 277.59375 147.488281 277.820312 147.261719 278.097656 147.261719 C 278.375 147.261719 278.601562 147.488281 278.601562 147.769531 L 278.601562 186.796875 C 278.601562 187.074219 278.375 187.300781 278.097656 187.300781 Z M 278.097656 187.300781 " fill-opacity="1" fill-rule="nonzero"/><path fill="#223945" d="M 199.28125 171.03125 C 199.175781 171.03125 199.085938 171 198.992188 170.941406 C 198.765625 170.785156 198.703125 170.476562 198.859375 170.238281 C 200.144531 168.347656 201.636719 166.441406 203.21875 164.4375 C 209.878906 156 217.429688 146.429688 212.152344 131.878906 C 212.058594 131.613281 212.191406 131.324219 212.460938 131.234375 C 212.71875 131.128906 213.007812 131.273438 213.109375 131.53125 C 218.574219 146.617188 210.835938 156.410156 204.011719 165.066406 C 202.449219 167.050781 200.957031 168.933594 199.703125 170.804688 C 199.609375 170.949219 199.445312 171.023438 199.28125 171.023438 Z M 199.28125 171.03125 " fill-opacity="1" fill-rule="nonzero"/><g clip-path="url(#1221792c63)"><path fill="#ffa240" d="M 68.367188 34.046875 C 68.367188 35.164062 68.3125 36.277344 68.203125 37.386719 C 68.09375 38.496094 67.929688 39.597656 67.710938 40.691406 C 67.496094 41.785156 67.222656 42.863281 66.898438 43.929688 C 66.578125 45 66.199219 46.046875 65.773438 47.078125 C 65.347656 48.109375 64.871094 49.113281 64.347656 50.097656 C 63.820312 51.082031 63.246094 52.035156 62.628906 52.964844 C 62.007812 53.890625 61.34375 54.785156 60.636719 55.648438 C 59.929688 56.511719 59.183594 57.335938 58.394531 58.125 C 57.605469 58.910156 56.78125 59.660156 55.917969 60.367188 C 55.054688 61.074219 54.160156 61.738281 53.234375 62.359375 C 52.308594 62.976562 51.351562 63.550781 50.367188 64.074219 C 49.386719 64.601562 48.378906 65.078125 47.347656 65.503906 C 46.316406 65.929688 45.269531 66.304688 44.203125 66.628906 C 43.132812 66.953125 42.054688 67.222656 40.960938 67.441406 C 39.867188 67.660156 38.765625 67.824219 37.65625 67.933594 C 36.546875 68.042969 35.433594 68.097656 34.316406 68.097656 C 33.203125 68.097656 32.089844 68.042969 30.980469 67.933594 C 29.871094 67.824219 28.769531 67.660156 27.675781 67.441406 C 26.582031 67.222656 25.5 66.953125 24.433594 66.628906 C 23.367188 66.304688 22.320312 65.929688 21.289062 65.503906 C 20.257812 65.078125 19.25 64.601562 18.269531 64.074219 C 17.285156 63.550781 16.328125 62.976562 15.402344 62.359375 C 14.476562 61.738281 13.582031 61.074219 12.71875 60.367188 C 11.855469 59.660156 11.03125 58.910156 10.242188 58.125 C 9.453125 57.335938 8.707031 56.511719 8 55.648438 C 7.292969 54.785156 6.628906 53.890625 6.007812 52.964844 C 5.390625 52.035156 4.816406 51.082031 4.289062 50.097656 C 3.765625 49.113281 3.289062 48.109375 2.863281 47.078125 C 2.433594 46.046875 2.058594 45 1.734375 43.929688 C 1.414062 42.863281 1.140625 41.785156 0.925781 40.691406 C 0.707031 39.597656 0.542969 38.496094 0.433594 37.386719 C 0.324219 36.277344 0.269531 35.164062 0.269531 34.046875 C 0.269531 32.933594 0.324219 31.820312 0.433594 30.710938 C 0.542969 29.601562 0.707031 28.5 0.925781 27.40625 C 1.140625 26.3125 1.414062 25.230469 1.734375 24.164062 C 2.058594 23.097656 2.433594 22.046875 2.863281 21.019531 C 3.289062 19.988281 3.765625 18.980469 4.289062 17.996094 C 4.816406 17.015625 5.390625 16.058594 6.007812 15.132812 C 6.628906 14.203125 7.292969 13.308594 8 12.449219 C 8.707031 11.585938 9.453125 10.761719 10.242188 9.972656 C 11.03125 9.183594 11.855469 8.4375 12.71875 7.730469 C 13.582031 7.019531 14.476562 6.359375 15.402344 5.738281 C 16.328125 5.117188 17.285156 4.546875 18.269531 4.019531 C 19.25 3.496094 20.257812 3.019531 21.289062 2.589844 C 22.320312 2.164062 23.367188 1.789062 24.433594 1.464844 C 25.5 1.140625 26.582031 0.871094 27.675781 0.652344 C 28.769531 0.4375 29.871094 0.273438 30.980469 0.164062 C 32.089844 0.0546875 33.203125 0 34.316406 0 C 35.433594 0 36.546875 0.0546875 37.65625 0.164062 C 38.765625 0.273438 39.867188 0.4375 40.960938 0.652344 C 42.054688 0.871094 43.132812 1.140625 44.203125 1.464844 C 45.269531 1.789062 46.316406 2.164062 47.347656 2.589844 C 48.378906 3.019531 49.386719 3.496094 50.367188 4.019531 C 51.351562 4.546875 52.308594 5.117188 53.234375 5.738281 C 54.160156 6.359375 55.054688 7.019531 55.917969 7.730469 C 56.78125 8.4375 57.605469 9.183594 58.394531 9.972656 C 59.183594 10.761719 59.929688 11.585938 60.636719 12.449219 C 61.34375 13.308594 62.007812 14.203125 62.628906 15.132812 C 63.246094 16.058594 63.820312 17.015625 64.347656 17.996094 C 64.871094 18.980469 65.347656 19.988281 65.773438 21.019531 C 66.199219 22.046875 66.578125 23.097656 66.898438 24.164062 C 67.222656 25.230469 67.496094 26.3125 67.710938 27.40625 C 67.929688 28.5 68.09375 29.601562 68.203125 30.710938 C 68.3125 31.820312 68.367188 32.933594 68.367188 34.046875 Z M 68.367188 34.046875 " fill-opacity="1" fill-rule="nonzero"/></g><path fill="#ffffff" d="M 54.957031 30.054688 L 49.496094 30.054688 C 49.144531 28.65625 48.589844 27.339844 47.859375 26.113281 L 51.726562 22.257812 C 51.871094 22.113281 51.945312 21.917969 51.945312 21.710938 C 51.945312 21.503906 51.851562 21.320312 51.71875 21.175781 L 47.167969 16.636719 C 46.871094 16.339844 46.386719 16.339844 46.078125 16.636719 L 42.230469 20.496094 C 40.964844 19.757812 39.648438 19.210938 38.289062 18.851562 L 38.289062 13.40625 C 38.289062 12.984375 37.949219 12.644531 37.527344 12.644531 L 31.085938 12.644531 C 30.664062 12.644531 30.324219 12.984375 30.324219 13.40625 L 30.324219 18.851562 C 28.96875 19.210938 27.652344 19.765625 26.386719 20.496094 L 22.515625 16.636719 C 22.226562 16.339844 21.746094 16.339844 21.4375 16.636719 L 16.886719 21.175781 C 16.589844 21.472656 16.578125 21.957031 16.886719 22.257812 L 20.734375 26.113281 C 20.027344 27.339844 19.46875 28.667969 19.101562 30.054688 L 13.65625 30.054688 C 13.234375 30.054688 12.894531 30.394531 12.894531 30.816406 L 12.894531 37.269531 C 12.894531 37.691406 13.234375 38.03125 13.65625 38.03125 L 19.101562 38.03125 C 19.46875 39.429688 20.027344 40.734375 20.734375 41.960938 L 16.886719 45.839844 C 16.589844 46.136719 16.589844 46.621094 16.886719 46.921875 L 21.445312 51.476562 C 21.722656 51.765625 22.238281 51.765625 22.527344 51.476562 L 26.394531 47.609375 C 27.679688 48.351562 29 48.90625 30.335938 49.257812 L 30.335938 54.710938 C 30.335938 55.132812 30.675781 55.472656 31.097656 55.472656 L 37.539062 55.472656 C 37.960938 55.472656 38.300781 55.132812 38.300781 54.710938 L 38.300781 49.257812 C 39.636719 48.90625 40.953125 48.351562 42.242188 47.609375 L 46.089844 51.476562 C 46.386719 51.765625 46.890625 51.765625 47.179688 51.476562 L 51.738281 46.921875 C 52.027344 46.621094 52.035156 46.136719 51.738281 45.839844 L 47.871094 41.960938 C 48.601562 40.746094 49.15625 39.429688 49.503906 38.03125 L 54.96875 38.03125 C 55.390625 38.03125 55.730469 37.691406 55.730469 37.269531 L 55.730469 30.816406 C 55.730469 30.394531 55.390625 30.054688 54.96875 30.054688 Z M 34.316406 40.171875 C 30.933594 40.171875 28.175781 37.414062 28.175781 34.027344 C 28.175781 30.640625 30.921875 27.90625 34.316406 27.90625 C 37.714844 27.90625 40.441406 30.652344 40.441406 34.027344 C 40.441406 37.402344 37.691406 40.171875 34.316406 40.171875 Z M 34.316406 40.171875 " fill-opacity="1" fill-rule="nonzero"/><path fill="#ffa240" d="M 99.53125 187.0625 L 144.632812 187.0625 C 145.121094 187.0625 145.605469 187.109375 146.085938 187.207031 C 146.566406 187.300781 147.035156 187.445312 147.488281 187.632812 C 147.9375 187.820312 148.371094 188.046875 148.777344 188.320312 C 149.183594 188.59375 149.5625 188.902344 149.90625 189.25 C 150.253906 189.59375 150.5625 189.972656 150.835938 190.378906 C 151.105469 190.785156 151.335938 191.214844 151.523438 191.667969 C 151.710938 192.121094 151.851562 192.585938 151.949219 193.066406 C 152.042969 193.546875 152.09375 194.035156 152.09375 194.523438 L 152.09375 221.8125 C 152.09375 222.300781 152.042969 222.785156 151.949219 223.265625 C 151.851562 223.746094 151.710938 224.214844 151.523438 224.664062 C 151.335938 225.117188 151.105469 225.546875 150.835938 225.957031 C 150.5625 226.363281 150.253906 226.738281 149.90625 227.085938 C 149.5625 227.433594 149.183594 227.742188 148.777344 228.015625 C 148.371094 228.285156 147.9375 228.515625 147.488281 228.703125 C 147.035156 228.890625 146.566406 229.03125 146.085938 229.128906 C 145.605469 229.222656 145.121094 229.269531 144.632812 229.269531 L 99.53125 229.269531 C 99.042969 229.269531 98.558594 229.222656 98.078125 229.128906 C 97.597656 229.03125 97.128906 228.890625 96.679688 228.703125 C 96.226562 228.515625 95.796875 228.285156 95.386719 228.015625 C 94.980469 227.742188 94.605469 227.433594 94.257812 227.085938 C 93.910156 226.738281 93.601562 226.363281 93.332031 225.957031 C 93.058594 225.546875 92.828125 225.117188 92.640625 224.664062 C 92.453125 224.214844 92.3125 223.746094 92.214844 223.265625 C 92.121094 222.785156 92.074219 222.300781 92.074219 221.8125 L 92.074219 194.523438 C 92.074219 194.035156 92.121094 193.546875 92.214844 193.066406 C 92.3125 192.585938 92.453125 192.121094 92.640625 191.667969 C 92.828125 191.214844 93.058594 190.785156 93.332031 190.378906 C 93.601562 189.972656 93.910156 189.59375 94.257812 189.25 C 94.605469 188.902344 94.980469 188.59375 95.386719 188.320312 C 95.796875 188.046875 96.226562 187.820312 96.679688 187.632812 C 97.128906 187.445312 97.597656 187.300781 98.078125 187.207031 C 98.558594 187.109375 99.042969 187.0625 99.53125 187.0625 Z M 99.53125 187.0625 " fill-opacity="1" fill-rule="nonzero"/><path fill="#ffffff" d="M 112.867188 215.945312 C 112.746094 215.945312 112.621094 215.914062 112.519531 215.851562 L 100.4375 208.878906 C 100.222656 208.753906 100.089844 208.515625 100.089844 208.269531 C 100.089844 208.023438 100.222656 207.785156 100.4375 207.664062 L 112.519531 200.6875 C 112.847656 200.5 113.28125 200.605469 113.484375 200.945312 C 113.679688 201.285156 113.558594 201.707031 113.226562 201.910156 L 102.199219 208.28125 L 113.226562 214.640625 C 113.566406 214.835938 113.679688 215.265625 113.484375 215.605469 C 113.351562 215.832031 113.117188 215.957031 112.878906 215.957031 Z M 112.867188 215.945312 " fill-opacity="1" fill-rule="nonzero"/><path fill="#ffffff" d="M 131.089844 215.945312 C 130.84375 215.945312 130.617188 215.824219 130.484375 215.597656 C 130.289062 215.257812 130.410156 214.824219 130.742188 214.628906 L 141.773438 208.269531 L 130.742188 201.902344 C 130.402344 201.707031 130.289062 201.273438 130.484375 200.933594 C 130.679688 200.59375 131.113281 200.492188 131.449219 200.675781 L 143.53125 207.652344 C 143.746094 207.777344 143.882812 208.011719 143.882812 208.261719 C 143.882812 208.507812 143.746094 208.742188 143.53125 208.867188 L 131.453125 215.84375 C 131.339844 215.90625 131.226562 215.9375 131.101562 215.9375 Z M 131.089844 215.945312 " fill-opacity="1" fill-rule="nonzero"/><path fill="#ffffff" d="M 118.3125 219.238281 C 118.21875 219.238281 118.125 219.21875 118.042969 219.1875 C 117.683594 219.042969 117.519531 218.621094 117.664062 218.273438 L 126.359375 197.445312 C 126.5 197.085938 126.914062 196.910156 127.285156 197.066406 C 127.644531 197.207031 127.808594 197.628906 127.664062 197.980469 L 118.96875 218.804688 C 118.855469 219.074219 118.597656 219.238281 118.320312 219.238281 Z M 118.3125 219.238281 " fill-opacity="1" fill-rule="nonzero"/><g clip-path="url(#ba4cdea2b4)"><path fill="#223945" d="M 288.417969 255.570312 L 10.558594 255.570312 C 10.28125 255.570312 10.054688 255.34375 10.054688 255.066406 C 10.054688 254.789062 10.28125 254.5625 10.558594 254.5625 L 288.417969 254.5625 C 288.695312 254.5625 288.921875 254.789062 288.921875 255.066406 C 288.921875 255.34375 288.695312 255.570312 288.417969 255.570312 Z M 288.417969 255.570312 " fill-opacity="1" fill-rule="nonzero"/></g><g clip-path="url(#16729f2de8)"><g clip-path="url(#6b1db3af2a)"><g transform="matrix(1, 0, 0, 1, 220, 155)"><g clip-path="url(#004c115e54)"><g clip-path="url(#68071a5831)"><g clip-path="url(#110a3d26c1)"><rect x="-290.125" width="459" fill="#000000" height="369.359989" y="-211.429998" fill-opacity="1"/></g></g></g></g></g></g></svg>